<svg width="343" height="343" viewBox="0 0 343 343" fill="none" xmlns="http://www.w3.org/2000/svg">
<g clip-path="url(#clip0_5615_12831)">
<path d="M-54 267.244V14.7462C-54 6.60292 -47.4156 0 -39.2932 0H382.293C390.415 0 397 6.60204 397 14.7462V193.584C397 199.626 393.323 205.057 387.723 207.288C382.121 209.519 375.73 208.096 371.596 203.703L285.514 112.206L147.628 258.772C141.819 264.947 132.032 264.936 126.232 258.772L57.5641 185.778L-28.5952 277.362C-37.6927 287.033 -54 280.576 -54 267.244Z" fill="#828282"/>
<path d="M382.297 0H137V262C140.896 262 144.793 260.468 147.696 257.398L285.545 111.61L371.603 202.62C375.737 206.99 382.125 208.405 387.725 206.186C393.324 203.966 397 198.565 397 192.555V14.6678C397 6.56784 390.417 0 382.297 0Z" fill="#6E6E6E"/>
<path d="M137 152C112.739 152 93 132.261 93 108C93 83.7392 112.739 64 137 64C161.262 64 181 83.7392 181 108C181.001 132.262 161.263 152 137 152Z" fill="#A0A0A0"/>
<path d="M382.293 343H-39.2932C-47.4156 343 -54 336.424 -54 328.314V266.488C-54 262.74 -52.5668 259.136 -49.9921 256.41L46.8654 153.876C52.6703 147.732 62.4619 147.737 68.2615 153.876L136.93 226.572L274.816 80.606C280.621 74.462 290.412 74.4673 296.212 80.606L392.991 183.053C395.566 185.779 397 189.383 397 193.13V328.315C397 336.424 390.416 343 382.293 343Z" fill="#787878"/>
<path d="M392.992 183.052L296.239 80.606C290.441 74.4673 280.652 74.462 274.849 80.606L137.001 226.572L137 226.571V343H382.297C390.416 343 397 336.425 397 328.314V193.129C397 189.382 395.566 185.778 392.992 183.052Z" fill="#646464"/>
<path d="M137 64V152C161.262 152 181 132.261 181 108C181.001 83.7383 161.262 64 137 64Z" fill="#8C8C8C"/>
</g>
<defs>
<clipPath id="clip0_5615_12831">
<rect width="343" height="343" rx="5" fill="white"/>
</clipPath>
</defs>
</svg>
