<svg width="88" height="63" viewBox="0 0 88 63" fill="none" xmlns="http://www.w3.org/2000/svg">
<path d="M74.4869 17.9966C71.5612 18.3164 68.6334 18.6384 65.7077 18.9603C65.0889 19.0272 64.4722 19.0951 63.8534 19.1641C63.2054 18.1304 62.4747 17.152 61.6709 16.2363C62.4768 16.228 63.2827 16.2217 64.0876 16.2154C66.2241 16.1966 68.3627 16.182 70.4992 16.1694C72.0535 16.1025 73.6789 16.5551 74.4869 17.9966Z" fill="#EEECE8"/>
<path d="M23.1391 20.9229C21.5963 21.2448 20.0534 21.5678 18.5117 21.8918C16.7724 22.2117 15.1449 23.0573 14.2334 24.6283C16.7953 24.3461 19.3594 24.0618 21.9213 23.7796C22.2642 22.796 22.6718 21.8416 23.1391 20.9229Z" fill="#EEECE8"/>
<path d="M78.7644 37.4258C78.4257 37.9672 77.9856 38.4146 77.4829 38.7773C76.3885 39.5769 74.9972 40.0024 73.7021 40.2511C71.0012 40.7769 68.3012 41.2995 65.6003 41.8211C65.2407 41.8901 64.8801 41.9601 64.5205 42.0291C64.6972 41.7093 64.8654 41.3852 65.0254 41.057C65.3766 40.341 65.6902 39.601 65.964 38.8453C69.5765 38.4449 73.1879 38.0435 76.8003 37.6432C77.4536 37.5711 78.11 37.4989 78.7644 37.4258Z" fill="#EEECE8"/>
<path d="M26.861 46.6733C22.2326 46.7705 17.6041 46.8583 12.9778 46.9283C12.8262 46.9367 12.6725 46.9388 12.5189 46.9388C11.0158 46.9283 9.47299 46.4841 8.62109 45.1409C8.99321 45.0991 9.36637 45.0604 9.73848 45.0186C14.4579 44.5033 19.1783 43.989 23.8977 43.4737C24.0367 43.4591 24.1757 43.4424 24.3147 43.4277C24.875 44.2932 25.4938 45.12 26.1649 45.9008L26.169 45.905C26.3938 46.1663 26.6237 46.4224 26.861 46.6733Z" fill="#EEECE8"/>
<path d="M62.2322 19.3313C60.2033 19.5539 58.1745 19.7755 56.1466 20.0002C53.3934 17.1289 49.5897 15.2328 45.3427 14.9004C44.8985 14.8648 44.4501 14.846 43.9975 14.846C38.4157 14.846 33.4643 17.5449 30.4383 21.68C30.1435 22.0803 29.8675 22.4963 29.6115 22.9217C27.591 23.1444 25.5704 23.3681 23.5479 23.5928C24.3287 21.5535 25.4189 19.6605 26.7579 17.9703C30.2794 13.529 35.535 10.4789 41.5108 9.80992C42.3271 9.71898 43.155 9.6709 43.9964 9.6709C51.6049 9.66985 58.3177 13.5133 62.2322 19.3313Z" fill="#EEECE8"/>
<path d="M21.0333 28.8934C20.7259 28.63 20.3444 28.5213 19.8887 28.5715C18.5601 28.7168 17.8975 28.7899 16.5836 28.9352C16.1351 28.9854 15.7369 29.1777 15.4003 29.5143C15.0616 29.8571 14.8808 30.2512 14.862 30.685C14.816 31.678 14.7711 32.67 14.7251 33.6609C14.6425 35.4587 14.5589 37.2576 14.4763 39.0555C14.4575 39.4914 14.5965 39.8447 14.8975 40.1144C15.1986 40.3861 15.5665 40.499 16.0003 40.4509C17.2755 40.3119 17.9173 40.2408 19.2124 40.0997C19.6106 40.0537 19.9681 39.8875 20.2817 39.6074C20.3152 39.5781 20.3486 39.5468 20.381 39.5144C20.7259 39.1715 20.9162 38.7837 20.9455 38.35C21.12 35.5528 21.2946 32.7557 21.4691 29.9596C21.4963 29.5227 21.351 29.1673 21.0333 28.8934ZM18.7598 37.9757C18.7577 37.9946 18.7577 38.0134 18.7556 38.0322C17.9184 38.1231 17.5034 38.1691 16.6755 38.2611C16.7173 37.4677 16.7581 36.6744 16.7999 35.8821C16.8846 34.2546 16.9703 32.6282 17.055 31.0028C17.8975 30.9097 18.3218 30.8617 19.1727 30.7686C19.0357 33.1706 18.8967 35.5727 18.7598 37.9757Z" fill="#EEECE8"/>
<path d="M79.9947 25.8189C80.0072 25.1217 80.0135 24.7705 80.0239 24.0702C79.4114 24.1392 79.0215 24.182 78.525 24.2364C78.3463 24.2552 78.1529 24.2761 77.9334 24.3012C77.9146 25.0277 77.9062 25.3914 77.8895 26.1158C77.877 26.606 78.2261 26.8109 78.9274 26.7346C79.1438 26.7116 79.3487 26.7011 79.5483 26.7074C80.1985 26.7262 80.7504 26.9071 81.2134 27.2374C81.8552 27.6983 82.1772 28.3673 82.1688 29.2411C82.1604 30.1861 82.1542 30.6617 82.1458 31.6066C82.1437 31.8972 82.0653 32.1668 81.9117 32.4146C81.8375 32.5369 81.7455 32.655 81.6357 32.7679C81.3075 33.1044 80.9155 33.3041 80.4609 33.3532C79.1302 33.5006 78.4613 33.5759 77.116 33.7253C76.6551 33.7776 76.2631 33.6668 75.9349 33.4013C75.6087 33.1337 75.453 32.7825 75.4655 32.3487C75.4948 31.4205 75.5074 30.9575 75.5366 30.0314C76.446 29.9321 76.9007 29.8819 77.8017 29.7826C77.785 30.484 77.7766 30.8352 77.7599 31.5397C78.6191 31.4446 79.0497 31.3965 79.9027 31.3034C79.9131 30.577 79.9215 30.2153 79.934 29.491C79.9424 28.9965 79.5933 28.7875 78.8856 28.8659C77.9616 28.9673 77.1913 28.8032 76.5829 28.3715C75.9328 27.9105 75.6213 27.2415 75.6485 26.3656C75.6777 25.4165 75.6924 24.9409 75.7216 23.9918C75.7342 23.558 75.9087 23.1629 76.2432 22.8232C76.5735 22.4866 76.9655 22.2953 77.4097 22.2462C77.5069 22.2358 77.601 22.2253 77.6899 22.2169C78.8093 22.0926 79.4511 22.0215 80.6385 21.8908C81.0765 21.8427 81.4486 21.9535 81.758 22.2169C82.0758 22.4908 82.2336 22.8441 82.2294 23.2758C82.2211 24.1977 82.2169 24.6587 82.2064 25.5785C81.3253 25.6736 80.8831 25.7207 79.9947 25.8189Z" fill="#EEECE8"/>
<path d="M50.8075 25.166C50.7426 26.0106 50.7102 26.435 50.6454 27.2795C50.3799 27.3088 50.2472 27.3234 49.9827 27.3527C49.1852 30.5648 48.3856 33.7748 47.5849 36.9848C46.8668 37.0632 46.3536 37.1197 45.8121 37.1803C45.4013 37.2263 44.9707 37.2712 44.4229 37.3319C44.3707 36.7632 44.3216 36.1936 44.2714 35.6249C44.0759 33.4696 43.8846 31.3143 43.6944 29.1589C43.3097 30.7331 42.924 32.3052 42.5404 33.8783C42.2331 35.1326 41.9258 36.3869 41.6185 37.6402C40.3621 37.7771 39.7349 37.8482 38.4848 37.9852C38.1963 34.9622 37.9057 31.9383 37.6172 28.9154C37.6109 28.8485 37.6047 28.7826 37.5984 28.7157L37.4364 28.7346L36.9336 28.7889C36.9482 28.5976 36.9629 28.4272 36.9754 28.2694C37.0214 27.7301 37.0528 27.3287 37.1061 26.6743C37.2221 26.6597 37.2806 26.6534 37.3966 26.6409C38.3458 26.5374 38.8214 26.4851 39.7705 26.3796C40.0548 26.3482 40.1959 26.3336 40.4802 26.3022C40.4112 27.1468 40.3788 27.5712 40.3077 28.4157C40.1582 28.4325 40.083 28.4408 39.9335 28.4576C39.9962 29.4443 40.0495 30.4279 40.0955 31.4146C40.1624 32.8268 40.2116 34.2368 40.2617 35.6479C40.5147 34.5473 40.7687 33.4466 41.0216 32.347C41.5014 30.2606 41.9812 28.1712 42.4631 26.0848C43.6547 25.9521 44.2505 25.8872 45.4452 25.7545C45.671 28.838 45.8978 31.9216 46.1288 35.0051C46.6065 32.5341 47.0884 30.0652 47.6361 27.6109C47.4866 27.6276 47.4093 27.636 47.2598 27.6527C47.3267 26.806 47.3591 26.3838 47.4281 25.5371C47.7124 25.5057 47.8556 25.4911 48.1399 25.4597C49.0911 25.3542 49.5667 25.3019 50.5158 25.1984C50.6329 25.1848 50.6914 25.1786 50.8075 25.166Z" fill="#EEECE8"/>
<path d="M55.4728 24.6523C55.4122 25.4969 55.3819 25.9192 55.3213 26.7638C55.1132 26.7868 55.0098 26.7993 54.8038 26.8223C54.7892 27.0199 54.7746 27.2185 54.7599 27.416C54.5958 29.6602 54.4317 31.9055 54.2676 34.1517C54.4777 34.1287 54.5812 34.1162 54.7892 34.0932C54.7286 34.9378 54.6983 35.3622 54.6376 36.2067C54.4276 36.2297 54.3241 36.2402 54.114 36.2653C53.167 36.3687 52.6914 36.421 51.7423 36.5245C51.5343 36.5475 51.4308 36.56 51.2207 36.583C51.2855 35.7384 51.3158 35.3141 51.3806 34.4695C51.5907 34.4465 51.6942 34.434 51.9022 34.411C52.0872 31.9671 52.2722 29.5233 52.4562 27.0795C52.2503 27.1025 52.1468 27.115 51.9388 27.138C52.0036 26.2913 52.0339 25.869 52.1008 25.0224C52.3067 25.0015 52.4102 24.9889 52.6161 24.9659C52.7133 24.9555 52.8053 24.945 52.8921 24.9346C53.6562 24.852 54.1192 24.8018 54.9565 24.7077C55.1634 24.6858 55.2669 24.6753 55.4728 24.6523Z" fill="#EEECE8"/>
<path d="M65.8468 23.5273C65.7987 24.3709 65.7757 24.7921 65.7287 25.6346C65.5332 25.6576 65.436 25.6681 65.2385 25.689C65.0597 28.831 64.742 31.97 64.5632 35.112C63.2608 35.2552 62.6075 35.3284 61.2989 35.4737C60.8066 33.0675 60.3226 30.6602 59.8449 28.252C59.7289 30.0247 59.6129 31.8006 59.4958 33.5755C59.7101 33.5525 59.8177 33.54 60.032 33.517C60.0111 33.841 59.9944 34.1044 59.9777 34.3521C59.9526 34.7483 59.9296 35.1079 59.8951 35.6274C59.6808 35.6524 59.5731 35.6629 59.3568 35.688C58.4098 35.7915 57.9363 35.8437 56.9892 35.9493C56.7875 35.9723 56.6861 35.9827 56.4844 36.0037C56.545 35.1601 56.5732 34.7368 56.6338 33.8922C56.8335 33.8692 56.9349 33.8588 57.1366 33.8379C57.2056 32.8407 57.2735 31.8466 57.3446 30.8515C57.492 28.7004 57.6415 26.5492 57.791 24.3981C59.085 24.2569 59.7299 24.1838 61.0177 24.0427C61.4891 26.4635 61.9689 28.8822 62.4549 31.302C62.5647 29.5167 62.6734 27.7304 62.7831 25.945C62.571 25.968 62.4654 25.9806 62.2532 26.0036C62.3055 25.1601 62.3316 24.7367 62.3839 23.8942C62.594 23.8712 62.6995 23.8587 62.9096 23.8357C63.8336 23.7343 64.4357 23.6841 65.3555 23.5827C65.5521 23.5608 65.6514 23.5482 65.8468 23.5273Z" fill="#EEECE8"/>
<path d="M25.9065 39.3651C26.7406 39.2742 27.1598 39.2282 27.9991 39.1362C28.0629 38.2812 28.0942 37.8547 28.158 37.0007C28.1925 36.5335 28.2102 36.2994 28.2447 35.8321C27.4012 35.9252 26.981 35.9712 26.1427 36.0631C26.1093 36.5304 26.0925 36.7645 26.0591 37.2318C25.6337 37.2788 25.4225 37.3018 24.9992 37.3478C25.1685 34.9144 25.3389 32.481 25.5082 30.0476C25.7068 30.0257 25.8072 30.0142 26.0058 29.9933C26.0654 29.1487 26.0946 28.7254 26.1542 27.8818C25.9546 27.9038 25.8542 27.9153 25.6546 27.9372C24.7358 28.0376 24.278 28.0888 23.3644 28.1891L22.8543 28.2456C22.7989 29.0891 22.7717 29.5114 22.7174 30.3549C22.9202 30.333 23.0216 30.3215 23.2254 30.2985C23.0184 33.4416 22.8115 36.5847 22.6045 39.7279C23.9173 39.5836 24.578 39.5115 25.9065 39.3651Z" fill="#EEECE8"/>
<path d="M12.7739 31.5698C12.6788 33.9593 12.5826 36.3519 12.4896 38.7393C12.683 38.7184 12.7802 38.708 12.9756 38.6871C12.9401 39.5285 12.9234 39.9476 12.8889 40.788C12.6955 40.811 12.5983 40.8215 12.407 40.8424C11.5562 40.9354 11.1318 40.9814 10.2914 41.0724C10.1147 41.0912 10.028 41.1016 9.85134 41.1204C9.87852 40.2811 9.89106 39.8619 9.91615 39.0215C10.0949 39.0027 10.1816 38.9923 10.3604 38.9735L10.443 36.3906C9.63706 36.4795 9.23672 36.5234 8.43919 36.6112C8.4141 37.6428 8.40156 38.1602 8.37438 39.1898C8.55312 39.171 8.64197 39.1606 8.82071 39.1417C8.7998 39.9811 8.78726 40.4002 8.76636 41.2406C8.58761 41.2595 8.50086 41.2678 8.32421 41.2887C7.4974 41.3776 7.08661 41.4236 6.27444 41.5114C6.08943 41.5323 5.99849 41.5427 5.81348 41.5636C5.82602 40.7243 5.8302 40.3051 5.84274 39.4689C6.02776 39.448 6.12078 39.4376 6.30789 39.4167C6.34552 36.9937 6.38419 34.5708 6.42182 32.1468C6.23054 32.1677 6.13333 32.1782 5.94204 32.1991C5.95459 31.3618 5.95877 30.9427 5.97131 30.1044C6.16469 30.0835 6.2619 30.073 6.45527 30.0521C7.3103 29.957 7.74095 29.911 8.60434 29.8159C8.79144 29.795 8.88238 29.7845 9.06739 29.7636C9.0444 30.603 9.03394 31.0221 9.01095 31.8625C8.82803 31.8834 8.73709 31.8918 8.55208 31.9127C8.52699 32.9423 8.51445 33.4555 8.48936 34.4851C9.29317 34.3962 9.69769 34.3523 10.5099 34.2624C10.5433 33.2329 10.56 32.7175 10.5924 31.6879C10.4095 31.7089 10.3186 31.7193 10.1377 31.7381C10.1628 30.8988 10.1754 30.4775 10.2005 29.6392C10.3855 29.6183 10.4764 29.6079 10.6614 29.587C10.7419 29.5786 10.8213 29.5702 10.8956 29.5619C11.622 29.4814 12.0579 29.4354 12.8596 29.3455C13.0614 29.3225 13.1607 29.3121 13.3603 29.2891C13.3269 30.1305 13.308 30.5517 13.2756 31.3921C13.076 31.413 12.9767 31.4256 12.777 31.4465C12.776 31.4893 12.7739 31.5291 12.7739 31.5698Z" fill="#EEECE8"/>
<path d="M74.0255 28.5397C73.9962 29.3811 73.9816 29.8003 73.9513 30.6407C73.7537 30.6636 73.6544 30.6741 73.4569 30.6971C73.436 31.2187 73.4234 31.5563 73.4109 31.9661C73.4025 32.149 73.3963 32.3465 73.3879 32.5765C73.3712 33.0082 73.182 33.3991 72.8339 33.7409C72.489 34.0796 72.0824 34.2803 71.6172 34.3325C70.251 34.482 69.5654 34.5594 68.1908 34.7109C67.7194 34.7632 67.3212 34.6545 66.995 34.3869C66.6689 34.1193 66.5174 33.7681 66.5404 33.3322C66.6857 30.5372 66.833 27.7421 66.9804 24.9481C67.0034 24.5143 67.1905 24.1171 67.5407 23.7753C67.7612 23.561 68.0058 23.4032 68.2755 23.3039C68.4271 23.2495 68.5849 23.213 68.7511 23.1942C70.0901 23.0468 70.757 22.9736 72.0834 22.8283C72.536 22.7781 72.9186 22.8868 73.2301 23.1502C73.552 23.422 73.7057 23.7774 73.691 24.2112C73.6555 25.1373 73.6388 25.5983 73.6064 26.5223C72.697 26.6216 72.2423 26.6739 71.3266 26.7732C71.3559 26.0718 71.3705 25.7206 71.3998 25.0181C70.6002 25.107 70.1706 25.1551 69.419 25.2366C69.3626 25.2429 69.303 25.2491 69.2424 25.2554C69.1284 27.6763 69.0145 30.095 68.8995 32.5169C69.7796 32.4197 70.2176 32.3716 71.0946 32.2744C71.1134 31.8323 71.1239 31.6096 71.1427 31.1675C71.1448 31.0828 71.1468 31.0389 71.151 30.9532C70.9472 30.9741 70.8458 30.9866 70.6399 31.0096C70.6775 30.1661 70.6963 29.7449 70.7308 28.9045C71.0277 28.871 71.2932 28.8417 71.5388 28.8156C72.3823 28.7205 73.0074 28.6515 74.0255 28.5397Z" fill="#EEECE8"/>
<path d="M36.4343 26.749C36.4071 27.1044 36.382 27.3845 36.3622 27.6521C36.3329 28.0243 36.3036 28.3723 36.2649 28.8646C35.9493 28.8981 35.7935 28.9169 35.4779 28.9493C34.7451 30.8433 34.0124 32.7363 33.2807 34.6303C33.2222 35.3693 33.1939 35.7394 33.1354 36.4763C33.3413 36.4533 33.4427 36.4428 33.6486 36.4198L33.4803 38.5334C32.1455 38.6807 31.4808 38.7539 30.1585 38.8992C30.2233 38.0546 30.2557 37.6303 30.3205 36.7857C30.5202 36.7648 30.6195 36.7522 30.8212 36.7313C30.8776 35.9965 30.9059 35.6286 30.9623 34.8937C30.5181 33.1272 30.0738 31.3597 29.6254 29.5942C29.3139 29.6277 29.1582 29.6444 28.8467 29.6789C28.9115 28.8343 28.9397 28.41 29.0045 27.5654C30.3372 27.4201 31.0062 27.3448 32.3473 27.1974C32.2804 28.042 32.248 28.4664 32.1832 29.311C32.0065 29.3298 31.9177 29.3402 31.741 29.3591C31.7619 29.519 31.7724 29.5974 31.7933 29.7573C31.949 30.9928 32.0264 31.6116 32.179 32.8471C32.1999 33.0238 32.2103 33.1126 32.2313 33.2893C32.2814 33.1042 32.3044 33.0133 32.3536 32.8283C32.7048 31.5363 32.8814 30.8914 33.2337 29.5974C33.2797 29.4312 33.3027 29.3486 33.3476 29.1824C33.171 29.2033 33.0842 29.2117 32.9075 29.2326C32.9744 28.3859 33.0068 27.9636 33.0737 27.117C34.0908 27.0051 34.7242 26.934 35.5615 26.8431C35.8259 26.8149 36.1102 26.7846 36.4343 26.749Z" fill="#EEECE8"/>
<path d="M75.3291 35.1844C70.801 35.6871 66.2698 36.1889 61.7386 36.6896L46.9439 38.3212C38.5201 39.2473 30.0963 40.1713 21.6725 41.0933C16.6019 41.6473 11.5313 42.2023 6.46069 42.7542C6.23805 42.7793 6.01854 42.8023 5.7959 42.8274C6.13038 43.8256 6.99168 44.4162 7.9826 44.3075C8.1927 44.2845 8.39966 44.2615 8.60976 44.2385C13.4493 43.7106 18.2879 43.1817 23.1296 42.6538C23.8832 42.5713 24.6347 42.4897 25.3884 42.4072C29.2381 48.5471 36.1379 52.6476 43.9952 52.6476C48.8515 52.6476 53.343 51.0818 56.9743 48.4321C60.0348 46.2046 62.487 43.2078 64.0298 39.7344C64.2681 39.1951 64.4866 38.6442 64.6821 38.0818C68.5506 37.6543 72.4212 37.2268 76.2908 36.7962C77.451 36.6676 78.6102 36.539 79.7705 36.4105C80.8461 36.2903 81.7973 35.4865 82.115 34.4297C79.8541 34.6816 77.5932 34.9335 75.3291 35.1844ZM53.2761 44.7047C50.6222 46.4513 47.4289 47.4725 43.9962 47.4725C38.934 47.4725 34.3934 45.2524 31.3318 41.756C37.0504 41.1288 42.767 40.4996 48.4825 39.8703C51.9068 39.494 55.33 39.1167 58.7543 38.7383C57.4624 41.1434 55.5705 43.1974 53.2761 44.7047Z" fill="#EEECE8"/>
<path d="M82.2561 20.2848C80.545 20.4719 78.8339 20.6611 77.1228 20.8471C73.8981 21.2004 70.6735 21.5548 67.4488 21.9081C63.4998 22.3419 59.5476 22.7756 55.5986 23.2126L51.9026 23.6192L34.2835 25.5571L32.5892 25.7442C24.9545 26.5877 17.3209 27.426 9.68839 28.2696C8.45497 28.4065 7.22365 28.5413 5.99023 28.6783C6.18361 28.1389 6.52018 27.6717 6.93934 27.3267C7.31772 27.0132 7.76405 26.7989 8.23756 26.7163C8.28982 26.7079 8.34313 26.6996 8.39748 26.6933C16.5056 25.7986 24.6138 24.9017 32.725 24.008L32.7459 24.0059L50.7068 22.0272L55.7251 21.4753C59.3156 21.0813 62.905 20.6862 66.4955 20.2921C69.8111 19.9283 73.1278 19.5677 76.4433 19.204C77.6559 19.0712 78.8684 18.9385 80.0809 18.8057C81.0937 18.6918 81.9759 19.296 82.2561 20.2848Z" fill="#EEECE8"/>
</svg>
