<svg width="72" height="72" viewBox="0 0 72 72" fill="none" xmlns="http://www.w3.org/2000/svg">
<g clip-path="url(#clip0_5263:9058)">
<path d="M55.2301 71.6721L49.8638 68.5105V51.8175C49.8638 51.2172 49.3771 50.7305 48.7768 50.7305C48.1765 50.7305 47.6898 51.2172 47.6898 51.8175V68.5105L42.3235 71.6721C42.1687 71.7633 42.2334 72.0007 42.4131 72.0007H55.1404C55.3202 72.0007 55.3849 71.7633 55.2301 71.6721Z" fill="#6D8089"/>
<path d="M26.2151 19.664V1.0035C26.2151 0.449297 25.7658 0 25.2116 0H19.8286C19.2744 0 18.8251 0.449297 18.8251 1.0035V19.664C18.8251 20.7101 18.4768 21.7264 17.835 22.5526L15.4396 25.6362C13.9301 27.5792 13.1108 29.9697 13.1108 32.4301V69.9445C13.1108 71.0798 14.0311 72 15.1664 72H29.8739C31.0092 72 31.9294 71.0798 31.9294 69.9445V32.4301C31.9294 29.9696 31.11 27.5792 29.6007 25.6362L27.2053 22.5526C26.5634 21.7264 26.2151 20.7101 26.2151 19.664Z" fill="#F3C76F"/>
<path d="M56.5144 31.1846H41.0391C41.0391 31.1846 37.4239 40.1154 39.115 45.8235C40.5235 50.5773 44.7116 52.6136 47.0855 53.4054C48.1832 53.7716 49.3701 53.7716 50.4677 53.4054C52.8416 52.6136 57.0297 50.5773 58.4382 45.8235C60.1298 40.1154 56.5144 31.1846 56.5144 31.1846Z" fill="#8FAAB7"/>
<path d="M56.5146 31.1846H49.9603C49.9603 31.1846 52.8415 39.9476 51.8842 45.8235C51.405 48.7654 50.3154 51.4458 49.0239 53.6737C49.5123 53.6511 49.9983 53.5621 50.468 53.4054C52.8419 52.6136 57.03 50.5773 58.4385 45.8235C60.1299 40.1154 56.5146 31.1846 56.5146 31.1846Z" fill="#6D8089"/>
<path d="M38.7364 40.665C38.5873 42.46 38.6528 44.2627 39.1155 45.8242C40.524 50.578 44.7121 52.6142 47.086 53.4061C48.1837 53.7723 49.3704 53.7723 50.4681 53.4061C52.842 52.6142 57.0301 50.578 58.4386 45.8242C58.9013 44.2627 58.9668 42.46 58.8178 40.665H38.7364Z" fill="#F3C76F"/>
<path d="M58.5173 45.5407C58.5255 45.509 58.533 45.4768 58.5409 45.4449C58.5569 45.3808 58.5729 45.3166 58.5878 45.2518C58.5966 45.214 58.6044 45.1756 58.6127 45.1375C58.6257 45.0779 58.6385 45.0184 58.6504 44.9582C58.6586 44.9173 58.666 44.8761 58.6738 44.8349C58.6846 44.7769 58.6953 44.7188 58.7051 44.6603C58.7123 44.6179 58.719 44.5751 58.7259 44.5324C58.7351 44.4743 58.7441 44.4161 58.7524 44.3576C58.7586 44.3144 58.7645 44.2712 58.7701 44.2278C58.7778 44.1687 58.7853 44.1095 58.7922 44.0502C58.7972 44.0073 58.8022 43.9642 58.8068 43.9211C58.8133 43.8602 58.8193 43.7989 58.8249 43.7376C58.8289 43.6956 58.8328 43.6537 58.8363 43.6116C58.8417 43.5474 58.8463 43.483 58.8508 43.4186C58.8536 43.379 58.8566 43.3393 58.8591 43.2995C58.8635 43.2288 58.867 43.1578 58.8704 43.0867C58.8719 43.0531 58.8739 43.0197 58.8753 42.9859C58.8789 42.8963 58.8816 42.8066 58.8837 42.7166C58.8841 42.701 58.8847 42.6855 58.8851 42.6699C58.8874 42.5612 58.8886 42.4522 58.8888 42.343C58.8888 42.341 58.8888 42.339 58.8888 42.3371C58.8889 42.2317 58.8881 42.1263 58.8863 42.0205C58.8858 41.9963 58.8851 41.9722 58.8846 41.948C58.8829 41.8644 58.8809 41.7808 58.8781 41.6968C58.8771 41.666 58.8757 41.6352 58.8744 41.6044C58.8715 41.5265 58.8683 41.4486 58.8643 41.3706C58.8626 41.3378 58.8608 41.305 58.859 41.2723C58.8548 41.196 58.8504 41.1198 58.8453 41.0435C58.8431 41.0101 58.8408 40.9769 58.8384 40.9436C58.8331 40.8667 58.8272 40.7898 58.821 40.7129C58.8197 40.697 58.8183 40.6811 58.8171 40.665H51.9523C52.1211 42.4424 52.1426 44.2385 51.8842 45.8242C51.405 48.766 50.3154 51.4465 49.0239 53.6744C49.0241 53.6744 49.0243 53.6744 49.0245 53.6744C49.1457 53.6688 49.2668 53.6589 49.3876 53.6451C49.3884 53.645 49.3894 53.645 49.3903 53.6449C49.5035 53.6318 49.6161 53.6145 49.7285 53.5941C49.7435 53.5914 49.7586 53.5888 49.7735 53.5858C49.8809 53.5654 49.9881 53.5418 50.0944 53.5148C50.1107 53.5107 50.1269 53.5061 50.143 53.5019C50.2517 53.4732 50.36 53.4419 50.4672 53.4061C50.4673 53.4061 50.4676 53.4059 50.4677 53.4059C50.6903 53.3317 50.9288 53.2465 51.1794 53.1492C51.263 53.1167 51.3479 53.0829 51.434 53.0478C53.8451 52.0626 57.2058 49.9836 58.4382 45.824C58.4662 45.7305 58.4924 45.6359 58.5173 45.5407Z" fill="#FFC269"/>
<path d="M29.6006 25.6362L27.2052 22.5526C26.5634 21.7264 26.2151 20.7101 26.2151 19.6642V1.0035C26.2151 0.449297 25.7658 0 25.2116 0H22.52V24.1487C22.52 24.8365 22.7168 25.5084 23.0804 26.0921C23.8495 27.3265 25.1379 29.7887 25.1379 32.4301V69.9445C25.1379 71.0798 24.2176 72 23.0824 72H29.8737C31.009 72 31.9292 71.0798 31.9292 69.9445V32.4301C31.9294 29.9697 31.11 27.5792 29.6006 25.6362Z" fill="#FFC269"/>
<path d="M31.9297 54.3461H21.9535C20.9622 54.3461 20.1587 53.5426 20.1587 52.5513V39.8339C20.1587 38.8426 20.9622 38.0391 21.9535 38.0391H31.9297V54.3461Z" fill="#EEECE8"/>
<path d="M31.929 38.0391H25.1382V54.3459H31.929V38.0391Z" fill="#EEECE8"/>
<path d="M25.2117 0H19.8287C19.2745 0 18.8252 0.449297 18.8252 1.0035V17.4326H26.2153C26.2153 17.4326 26.2153 4.71234 26.2153 1.0035C26.2152 0.449297 25.7659 0 25.2117 0Z" fill="#8FAAB7"/>
<path d="M26.2151 17.4326V4.50352C26.2151 3.05733 26.2151 1.81477 26.2151 1.00336C26.2151 0.899438 26.1993 0.799172 26.1699 0.704953C26.1511 0.644484 26.1265 0.586688 26.0971 0.531703C26.096 0.529453 26.0951 0.527203 26.0939 0.525094C26.0483 0.441141 25.9909 0.364641 25.9243 0.297422C25.9231 0.296297 25.9222 0.295031 25.921 0.293906C25.8376 0.210516 25.7391 0.142594 25.6306 0.0925312C25.5916 0.0745312 25.5516 0.0579375 25.51 0.045C25.4156 0.01575 25.3155 0 25.2116 0H22.52V17.4326H26.2151Z" fill="#6D8089"/>
<path d="M26.4037 6.83563H18.6374C18.4108 6.83563 18.2271 6.65198 18.2271 6.42529V3.62812C18.2271 3.40157 18.4107 3.21777 18.6374 3.21777H26.4037C26.6302 3.21777 26.814 3.40143 26.814 3.62812V6.42529C26.8139 6.65198 26.6302 6.83563 26.4037 6.83563Z" fill="#FFBF14"/>
<path d="M26.4031 3.21777H20.022V6.83549H26.4031C26.6297 6.83549 26.8135 6.65184 26.8135 6.42515V3.62798C26.8133 3.40143 26.6297 3.21777 26.4031 3.21777Z" fill="#EDA60A"/>
</g>
<defs>
<clipPath id="clip0_5263:9058">
<rect width="72" height="72" fill="white"/>
</clipPath>
</defs>
</svg>
