<svg width="32" height="32" viewBox="0 0 32 32" fill="none" xmlns="http://www.w3.org/2000/svg">
<g clip-path="url(#clip0_7404_10900)">
<path d="M31.5039 19.9612C31.5187 19.9041 31.533 19.8466 31.5471 19.7891C31.5331 19.8466 31.5185 19.9039 31.5039 19.9612Z" fill="#AFE6FF"/>
<path d="M15.9998 0C9.84257 0 6.05007 3.47275 6.03959 3.47865C5.80197 4.5755 5.38867 6.16728 5.38867 7.33528C5.38867 16.1719 12.8405 23.3335 21.677 23.3335C25.4428 23.3335 28.9027 21.5802 31.6359 19.4032C31.6471 19.335 31.9998 17.9302 31.9998 16C31.9998 7.16342 24.8364 0 15.9998 0V0Z" fill="#4070F6"/>
<path d="M5.7438 8.35431L5.67578 6.88281C5.67578 7.37906 5.69956 7.8696 5.7438 8.35431Z" fill="#3D4FC3"/>
<path d="M21.6761 22.884C13.3358 22.884 6.48717 16.5021 5.74414 8.35547L6.69925 29.0225C9.32036 30.8982 12.5314 32.0022 16.0003 32.0022C23.4696 32.0022 29.7416 26.8832 31.5041 19.9627C31.5188 19.9054 31.5334 19.8481 31.5473 19.7906C31.554 19.7632 31.6143 19.5068 31.6363 19.4054C28.9032 21.5823 25.4418 22.884 21.6761 22.884Z" fill="#3D4FC3"/>
<path d="M23.9434 11.6153L25.1983 9.12891H10.5918V29.021H25.1983L23.9434 26.5341L25.1983 24.0473L23.9434 21.5608L25.1983 19.0743L23.9434 16.5878L25.1983 14.1014L23.9434 11.6153Z" fill="#AAD540"/>
<path d="M23.9428 11.6153L25.1977 9.12891H10.5912V9.47858L1.21191 22.1208C2.36504 24.9038 4.28103 27.2907 6.69891 29.021H10.8506V26.1278C10.8506 24.5725 12.1114 23.3117 13.6667 23.3117H24.8265L23.9428 21.5608L25.1977 19.0743L23.9428 16.5878L25.1977 14.1014L23.9428 11.6153Z" fill="#78D090"/>
<path d="M15.3164 2.22656H27.2387V22.1186H15.3164V2.22656Z" fill="#FFE65A"/>
<path d="M7.8181 2.22656C6.6683 2.90484 6.04405 3.47544 6.03978 3.47783C6.03941 3.47814 6.03909 3.47845 6.03871 3.4787C5.03291 4.27996 4.1258 5.19986 3.33854 6.21715L2.08339 8.09988C1.77769 8.63717 1.50218 9.1939 1.25923 9.76771L0.598463 11.6497C0.444926 12.1944 0.319435 12.7509 0.223812 13.3175L0.019702 15.1984C0.00658824 15.4637 0 15.7307 0 15.9992C0 16.2906 0.00778039 16.5802 0.0232157 16.8678L0.235984 18.7502C0.439279 19.9216 0.770008 21.0493 1.21305 22.1186H7.9552V2.22656H7.8181Z" fill="#E29375"/>
<path d="M30.8764 2.22656L29.6215 4.71296L30.8764 7.19905L29.6215 9.68545L30.8764 12.1719L29.6215 14.6585L30.8764 17.145L29.6215 19.6318L30.8764 22.1186H25.9229V2.22656H30.8764Z" fill="#FFE65A"/>
<path d="M19.1083 7.1604C17.7715 7.13386 16.5195 7.48805 15.4524 8.12121V2.22656H7.73145V22.1186H15.4524C15.4524 21.183 16.3371 20.5091 17.2432 20.7425C17.7945 20.8845 18.3725 20.9601 18.9682 20.9601C22.811 20.9601 25.9202 17.8189 25.8681 13.9641C25.8181 10.2625 22.8095 7.23387 19.1083 7.1604Z" fill="#F1D333"/>
<path d="M7.48438 3.16774H8.42555V2.22656H7.81786C7.70116 2.29539 7.59016 2.36303 7.48438 2.42917V3.16774Z" fill="white"/>
<path d="M8.42555 19.1756H7.48438V17.1745H8.42555V19.1756ZM8.42555 15.1734H7.48438V13.1723H8.42555V15.1734ZM8.42555 11.1712H7.48438V9.17017H8.42555V11.1712ZM8.42555 7.16904H7.48438V5.16797H8.42555V7.16904Z" fill="white"/>
<path d="M7.48438 21.1758H8.42555V22.117H7.48438V21.1758Z" fill="white"/>
<path d="M18.9689 19.0745C22.7799 19.0745 25.8694 15.985 25.8694 12.174C25.8694 8.36291 22.7799 5.27344 18.9689 5.27344C15.1578 5.27344 12.0684 8.36291 12.0684 12.174C12.0684 15.985 15.1578 19.0745 18.9689 19.0745Z" fill="#DD544F"/>
<path d="M22.4344 15.5373C18.6233 15.5373 15.5339 12.4478 15.5339 8.63674C15.5339 7.66219 15.7363 6.73506 16.1008 5.89453C13.7215 6.98335 12.0684 9.3846 12.0684 12.1723C12.0684 15.9834 15.1578 19.0728 18.9689 19.0728C21.8054 19.0728 24.2418 17.3611 25.3026 14.9145C24.429 15.3142 23.4578 15.5373 22.4344 15.5373Z" fill="#D80A61"/>
<path d="M15.4473 11.427V10.1095C15.4473 9.19098 16.0504 8.85692 16.839 8.85692C17.6184 8.85692 18.2308 9.19098 18.2308 10.1095V11.427C18.2308 12.3456 17.6184 12.6796 16.839 12.6796C16.0504 12.6796 15.4473 12.3456 15.4473 11.427ZM17.303 10.1095C17.303 9.80331 17.1266 9.66414 16.839 9.66414C16.5514 9.66414 16.3844 9.80331 16.3844 10.1095V11.427C16.3844 11.7332 16.5514 11.8724 16.839 11.8724C17.1266 11.8724 17.303 11.7332 17.303 11.427V10.1095ZM21.1071 8.96823C21.1071 9.02389 21.0978 9.08883 21.07 9.14455L17.804 15.8342C17.7391 15.9734 17.5628 16.0662 17.3865 16.0662C17.071 16.0662 16.8669 15.8064 16.8669 15.5745C16.8669 15.5188 16.8855 15.4539 16.9134 15.3982L20.17 8.70853C20.2443 8.55079 20.3927 8.47656 20.5597 8.47656C20.8194 8.4765 21.1071 8.67132 21.1071 8.96823ZM19.706 14.4146V13.0971C19.706 12.1785 20.3091 11.8445 21.0978 11.8445C21.8771 11.8445 22.4895 12.1785 22.4895 13.0971V14.4146C22.4895 15.3332 21.8771 15.6672 21.0978 15.6672C20.3091 15.6672 19.706 15.3332 19.706 14.4146ZM21.5617 13.0971C21.5617 12.7909 21.3854 12.6517 21.0978 12.6517C20.8102 12.6517 20.6431 12.7909 20.6431 13.0971V14.4146C20.6431 14.7208 20.8102 14.86 21.0978 14.86C21.3854 14.86 21.5617 14.7208 21.5617 14.4146V13.0971Z" fill="white"/>
<path d="M2.08398 8.1011H5.30337V6.21875H3.33945C2.87853 6.81433 2.45845 7.44297 2.08398 8.1011Z" fill="white"/>
<path d="M2.64673 11.6519V9.76953H1.25912C1.0013 10.3785 0.781382 11.0072 0.599609 11.6519H2.64673Z" fill="white"/>
<path d="M5.30317 13.3203H0.22477C0.148347 13.773 0.0909979 14.2321 0.0534763 14.6969L0.0195312 15.201L5.30323 15.2027V13.3203H5.30317Z" fill="white"/>
<path d="M0.236206 18.7495H3.47417V16.8672H0.0234375C0.0576336 17.5053 0.129414 18.1334 0.236206 18.7495Z" fill="white"/>
</g>
<defs>
<clipPath id="clip0_7404_10900">
<rect width="32" height="32" fill="white"/>
</clipPath>
</defs>
</svg>
