<svg width="24" height="24" viewBox="0 0 24 24" fill="none" xmlns="http://www.w3.org/2000/svg">
<path d="M5.50002 4H2.50002C2.22402 4 2 4.22402 2 4.50002C2 4.77602 2.22402 5.00003 2.50002 5.00003H5.50002C5.77602 5.00003 6.00003 4.77602 6.00003 4.50002C6.00003 4.22402 5.77602 4 5.50002 4Z" fill="#EEECE8"/>
<path d="M5.50002 9H2.50002C2.22402 9 2 9.22402 2 9.50002C2 9.77602 2.22402 10 2.50002 10H5.50002C5.77602 10 6.00003 9.77602 6.00003 9.50002C6.00003 9.22402 5.77602 9 5.50002 9Z" fill="#EEECE8"/>
<path d="M5.50002 14H2.50002C2.22402 14 2 14.224 2 14.5C2 14.776 2.22402 15 2.50002 15H5.50002C5.77602 15 6.00003 14.776 6.00003 14.5C6.00003 14.224 5.77602 14 5.50002 14Z" fill="#EEECE8"/>
<path d="M5.50002 19H2.50002C2.22402 19 2 19.224 2 19.5C2 19.776 2.22402 20 2.50002 20H5.50002C5.77602 20 6.00003 19.776 6.00003 19.5C6.00003 19.224 5.77602 19 5.50002 19Z" fill="#EEECE8"/>
<path d="M19.5 0H5.49998C4.122 0 3 1.12102 3 2.49998V21.5C3 22.879 4.122 24 5.49998 24H19.5C20.878 24 22 22.879 22 21.5V2.49998C22 1.12102 20.878 0 19.5 0ZM21 21.5C21 22.327 20.327 23 19.5 23H5.49998C4.67297 23 3.99998 22.327 3.99998 21.5V2.49998C3.99998 1.67297 4.67297 0.999984 5.49998 0.999984H19.5C20.327 0.999984 21 1.67297 21 2.49998V21.5Z" fill="#EEECE8"/>
<path d="M6.5 3C5.67299 3 5 3.67298 5 4.5C5 5.32702 5.67299 6 6.5 6C7.32702 6 8.00001 5.32702 8.00001 4.5C8.00001 3.67298 7.32697 3 6.5 3ZM6.5 5.00002C6.224 5.00002 5.99999 4.77502 5.99999 4.5C5.99999 4.22498 6.224 3.99998 6.5 3.99998C6.776 3.99998 7.00002 4.22498 7.00002 4.5C6.99997 4.77502 6.776 5.00002 6.5 5.00002Z" fill="#EEECE8"/>
<path d="M6.5 8C5.67299 8 5 8.67298 5 9.5C5 10.327 5.67299 11 6.5 11C7.32702 11 8.00001 10.327 8.00001 9.5C8.00001 8.67298 7.32697 8 6.5 8ZM6.5 9.99997C6.224 9.99997 5.99999 9.77497 5.99999 9.49995C5.99999 9.22498 6.224 8.99998 6.5 8.99998C6.776 8.99998 7.00002 9.22498 7.00002 9.5C6.99997 9.77497 6.776 9.99997 6.5 9.99997Z" fill="#EEECE8"/>
<path d="M6.5 13C5.67299 13 5 13.673 5 14.5C5 15.327 5.67299 16 6.5 16C7.32702 16 8.00001 15.327 8.00001 14.5C8.00001 13.673 7.32697 13 6.5 13ZM6.5 15C6.224 15 5.99999 14.775 5.99999 14.5C5.99999 14.225 6.224 14 6.5 14C6.776 14 7.00002 14.225 7.00002 14.5C6.99997 14.775 6.776 15 6.5 15Z" fill="#EEECE8"/>
<path d="M6.5 18C5.67299 18 5 18.673 5 19.5C5 20.327 5.67299 21 6.5 21C7.32702 21 8.00001 20.327 8.00001 19.5C8.00001 18.673 7.32697 18 6.5 18ZM6.5 20C6.224 20 5.99999 19.775 5.99999 19.5C5.99999 19.225 6.224 19 6.5 19C6.776 19 7.00002 19.225 7.00002 19.5C6.99997 19.775 6.776 20 6.5 20Z" fill="#EEECE8"/>
</svg>
