<svg width="24" height="24" viewBox="0 0 24 24" fill="none" xmlns="http://www.w3.org/2000/svg">
<g clip-path="url(#clip0_5487:11648)">
<path d="M13.5 24H2.5C1.121 24 0 22.878 0 21.5V2.5C0 1.122 1.121 0 2.5 0H13.5C14.879 0 16 1.122 16 2.5V4.5C16 4.776 15.776 5 15.5 5C15.224 5 15 4.776 15 4.5V2.5C15 1.673 14.327 1 13.5 1H2.5C1.673 1 1 1.673 1 2.5V21.5C1 22.327 1.673 23 2.5 23H13.5C14.327 23 15 22.327 15 21.5V19.5C15 19.224 15.224 19 15.5 19C15.776 19 16 19.224 16 19.5V21.5C16 22.878 14.879 24 13.5 24Z" fill="#EEECE8"/>
<path d="M9.99999 3H6C5.173 3 4.5 2.327 4.5 1.5C4.5 1.224 4.275 1 4 1H3C2.724 1 2.5 0.776 2.5 0.5C2.5 0.224 2.724 0 3 0H4C4.827 0 5.5 0.673 5.5 1.5C5.5 1.776 5.725 2 6 2H9.99999C10.275 2 10.5 1.776 10.5 1.5C10.5 0.673 11.173 0 12 0H13C13.276 0 13.5 0.224 13.5 0.5C13.5 0.776 13.276 1 13 1H12C11.725 1 11.5 1.224 11.5 1.5C11.5 2.327 10.827 3 9.99999 3Z" fill="#EEECE8"/>
<path d="M22.5 17H11.5C10.673 17 10 16.327 10 15.5V8.5C10 7.673 10.673 7 11.5 7H22.5C23.327 7 24 7.673 24 8.5V15.5C24 16.327 23.327 17 22.5 17ZM11.5 8C11.225 8 11 8.224 11 8.5V15.5C11 15.776 11.225 16 11.5 16H22.5C22.775 16 23 15.776 23 15.5V8.5C23 8.224 22.775 8 22.5 8H11.5Z" fill="#EEECE8"/>
<path d="M17 13.1566C16.682 13.1566 16.364 13.0806 16.074 12.9296L10.269 9.90055C10.024 9.77255 9.92896 9.47055 10.057 9.22555C10.185 8.98055 10.489 8.88655 10.732 9.01355L16.538 12.0426C16.827 12.1936 17.175 12.1936 17.464 12.0426L23.27 9.01355C23.515 8.88655 23.817 8.98055 23.945 9.22555C24.073 9.47055 23.978 9.77255 23.733 9.90055L17.927 12.9296C17.636 13.0806 17.317 13.1566 17 13.1566Z" fill="#EEECE8"/>
</g>
<defs>
<clipPath id="clip0_5487:11648">
<rect width="24" height="24" fill="white"/>
</clipPath>
</defs>
</svg>
