<svg width="40" height="40" viewBox="0 0 40 40" fill="none" xmlns="http://www.w3.org/2000/svg">
<path d="M20.0001 23.7066C8.95421 23.7066 0.929364 13.1001 2.55851 10.2052C5.9864 4.11414 12.5127 0 20.0001 0C27.4923 0 34.0223 4.11961 37.4483 10.2173C39.0733 13.1093 31.0459 23.7066 20.0001 23.7066Z" fill="#D85E91"/>
<path d="M40 20C40 22.0352 39.696 23.9993 39.1305 25.8493C38.7375 27.1359 38.2187 28.3673 37.5876 29.5297C36.943 30.7172 26.0727 32.2608 20 32.2608C13.9273 32.2608 3.05695 30.7172 2.41336 29.5297C2.15641 29.0585 1.91867 28.5758 1.70078 28.082C0.607031 25.6109 0 22.8766 0 20C0 16.3891 0.957031 13.0023 2.63125 10.0781C6.0782 16.0992 12.5656 20.1562 20 20.1562C27.4344 20.1562 33.9227 16.0992 37.3688 10.0781C39.043 13.0023 40 16.3891 40 20Z" fill="#C43071"/>
<path d="M37.5986 29.5076C37.0392 30.5406 36.3928 31.5187 35.6671 32.4318C35.3029 32.8907 34.9187 33.333 34.516 33.7575C34.1896 34.1015 25.2038 37.6134 20 37.6134C14.7961 37.6134 5.83051 34.1214 5.51324 33.7883C5.09981 33.3544 4.70574 32.9018 4.33285 32.4318C3.60715 31.5187 2.96074 30.5406 2.40137 29.5076H37.5986Z" fill="#881155"/>
<path d="M24.4246 35.575V36.4483L22.1307 37.3215H17.415L15.5752 36.4483V35.575C15.5752 33.1647 17.5896 31.2085 20 31.2085C22.4203 31.2085 24.4246 33.1547 24.4246 35.575Z" fill="#ABCCF1"/>
<path d="M24.4248 35.575V36.4483L22.1309 37.3215H19.7326L17.5342 36.4483V35.575C17.5342 33.1647 18.8816 31.2085 20.0001 31.2085C22.4204 31.2085 24.4248 33.1547 24.4248 35.575Z" fill="#8AB8EC"/>
<path d="M24.4248 35.5751V36.4483L22.1309 37.3216H20V31.2085C22.4204 31.2086 24.4248 33.1548 24.4248 35.5751Z" fill="#6991E6"/>
<path d="M19.9998 25.9685C18.5501 25.9685 17.3799 27.1387 17.3799 28.5884C17.3799 30.038 18.5501 31.2083 19.9998 31.2083C21.4495 31.2083 22.6197 30.038 22.6197 28.5884C22.6197 27.1387 21.4495 25.9685 19.9998 25.9685Z" fill="#8AB8EC"/>
<path d="M20 31.2083V25.9685C21.4497 25.9685 22.6199 27.1387 22.6199 28.5884C22.6199 30.038 21.4497 31.2083 20 31.2083Z" fill="#6991E6"/>
<path d="M9.46258 31.2085C7.6986 31.2085 6.17898 32.2568 5.49023 33.7634C6.80977 35.154 8.32711 36.3551 9.99719 37.3215H11.5934L13.8291 36.4483V35.575C13.8291 33.1547 11.883 31.2085 9.46258 31.2085Z" fill="#ABCCF1"/>
<path d="M9.46217 31.2085C8.45459 31.2085 7.07811 32.9221 6.90576 35.1178C7.86107 35.9459 8.89584 36.6845 9.99678 37.3216H11.5929L13.8287 36.4483V35.5751C13.8287 33.1547 11.8826 31.2085 9.46217 31.2085Z" fill="#8AB8EC"/>
<path d="M9.4624 31.2085V37C9.63896 37.1097 9.81686 37.2173 9.99701 37.3215H11.5932L13.8289 36.4483V35.575C13.8289 33.1547 11.8828 31.2085 9.4624 31.2085Z" fill="#6991E6"/>
<path d="M9.46221 25.9685C8.01252 25.9685 6.84229 27.1387 6.84229 28.5884C6.84229 30.038 8.01252 31.2083 9.46221 31.2083C10.9119 31.2083 12.0821 30.038 12.0821 28.5884C12.0821 27.1387 10.912 25.9685 9.46221 25.9685Z" fill="#8AB8EC"/>
<path d="M9.46191 31.2083V25.9685C10.9116 25.9685 12.0818 27.1387 12.0818 28.5884C12.0818 30.038 10.9117 31.2083 9.46191 31.2083Z" fill="#6991E6"/>
<path d="M34.5126 33.7608C33.8265 32.2522 32.3098 31.2085 30.5379 31.2085C28.1276 31.2085 26.1714 33.1647 26.1714 35.575V36.4483L27.953 37.3215H30.0033C31.6744 36.3544 33.1924 35.1526 34.5126 33.7608Z" fill="#ABCCF1"/>
<path d="M34.5126 33.7608C33.8266 32.2522 32.3099 31.2085 30.5379 31.2085C29.3774 31.2085 28.0923 33.1647 28.0923 35.575V36.4483L29.8738 37.3215H30.0033C31.6744 36.3544 33.1924 35.1526 34.5126 33.7608Z" fill="#8AB8EC"/>
<path d="M34.5128 33.7608C33.8268 32.2522 32.31 31.2085 30.5381 31.2085V37C31.9991 36.0924 33.335 35.0025 34.5128 33.7608Z" fill="#6991E6"/>
<path d="M30.5379 25.9685C29.0882 25.9685 27.918 27.1387 27.918 28.5884C27.918 30.038 29.0882 31.2083 30.5379 31.2083C31.9876 31.2083 33.1578 30.038 33.1578 28.5884C33.1577 27.1387 31.9876 25.9685 30.5379 25.9685Z" fill="#8AB8EC"/>
<path d="M30.5381 31.2083V25.9685C31.9878 25.9685 33.158 27.1387 33.158 28.5884C33.1579 30.038 31.9878 31.2083 30.5381 31.2083Z" fill="#6991E6"/>
<path d="M8.62158 36.4485C11.8517 38.6871 15.7721 39.9999 19.9997 39.9999C24.2274 39.9999 28.1478 38.6871 31.3778 36.4485H8.62158Z" fill="#DCE0EF"/>
<path d="M20 36.4485V39.9999C24.2277 39.9999 28.148 38.6871 31.3781 36.4485H20Z" fill="#CAD0E7"/>
<path d="M24.4246 19.7974V20.729L22.1307 21.6022H17.415L15.5752 20.729V19.7974C15.5752 17.3871 17.5896 15.4309 20 15.4309C22.4203 15.4309 24.4246 17.3772 24.4246 19.7974Z" fill="#ABCCF1"/>
<path d="M24.425 19.7974V20.729L22.1311 21.6022H19.0824L17.2427 20.729V19.7974C17.2427 17.3871 18.3128 15.4309 20.0003 15.4309C22.4206 15.4309 24.425 17.3772 24.425 19.7974Z" fill="#8AB8EC"/>
<path d="M24.4248 19.7974V20.729L22.1309 21.6022H20V15.4309C22.4204 15.4309 24.4248 17.3772 24.4248 19.7974Z" fill="#6991E6"/>
<path d="M19.9998 10.1909C18.5501 10.1909 17.3799 11.3612 17.3799 12.8108C17.3799 14.2604 18.5501 15.4308 19.9998 15.4308C21.4495 15.4308 22.6197 14.2604 22.6197 12.8108C22.6197 11.3611 21.4495 10.1909 19.9998 10.1909Z" fill="#8AB8EC"/>
<path d="M20 15.4308V10.1909C21.4497 10.1909 22.6199 11.3612 22.6199 12.8108C22.6199 14.2604 21.4497 15.4308 20 15.4308Z" fill="#6991E6"/>
<path d="M13.8288 19.7974V20.729L11.593 21.6022H6.87727L5.0957 20.729V19.7974C5.0957 17.3871 7.05187 15.4309 9.46219 15.4309C11.8826 15.4309 13.8288 17.3772 13.8288 19.7974Z" fill="#ABCCF1"/>
<path d="M13.8287 19.7974V20.729L11.593 21.6022H8.78791L7.00635 20.729V19.7974C7.00635 17.3871 8.21064 15.4309 9.46221 15.4309C11.8825 15.4309 13.8287 17.3772 13.8287 19.7974Z" fill="#8AB8EC"/>
<path d="M13.8289 19.7974V20.729L11.5932 21.6022H9.4624V15.4309C11.8827 15.4309 13.8289 17.3772 13.8289 19.7974Z" fill="#6991E6"/>
<path d="M9.46221 10.1909C8.01252 10.1909 6.84229 11.3612 6.84229 12.8108C6.84229 14.2604 8.01252 15.4308 9.46221 15.4308C10.9119 15.4308 12.0821 14.2604 12.0821 12.8108C12.0821 11.3611 10.912 10.1909 9.46221 10.1909Z" fill="#8AB8EC"/>
<path d="M9.46191 15.4308V10.1909C10.9116 10.1909 12.0818 11.3612 12.0818 12.8108C12.0818 14.2604 10.9117 15.4308 9.46191 15.4308Z" fill="#6991E6"/>
<path d="M34.9044 19.7974V20.729L32.6687 21.6022H27.9529L26.1714 20.729V19.7974C26.1714 17.3871 28.1276 15.4309 30.5379 15.4309C32.9583 15.4309 34.9044 17.3772 34.9044 19.7974Z" fill="#ABCCF1"/>
<path d="M34.9047 19.7974V20.729L32.669 21.6022H29.8577L28.0762 20.729V19.7974C28.0762 17.3871 29.3767 15.4309 30.5382 15.4309C32.9586 15.4309 34.9047 17.3772 34.9047 19.7974Z" fill="#8AB8EC"/>
<path d="M34.9046 19.7974V20.729L32.6689 21.6022H30.5381V15.4309C32.9585 15.4309 34.9046 17.3772 34.9046 19.7974Z" fill="#6991E6"/>
<path d="M30.5379 10.1909C29.0882 10.1909 27.918 11.3612 27.918 12.8108C27.918 14.2604 29.0882 15.4308 30.5379 15.4308C31.9876 15.4308 33.1578 14.2604 33.1578 12.8108C33.1577 11.3611 31.9876 10.1909 30.5379 10.1909Z" fill="#8AB8EC"/>
<path d="M30.5381 15.4308V10.1909C31.9878 10.1909 33.158 11.3612 33.158 12.8108C33.1579 14.2604 31.9878 15.4308 30.5381 15.4308Z" fill="#6991E6"/>
<path d="M5.0957 20.729H34.9045V24.2222H5.0957V20.729Z" fill="#FBF5EB"/>
<path d="M12.2119 20.729H34.9043V24.2222H12.2119V20.729Z" fill="#DCE0EF"/>
<path d="M20 20.729H34.9044V24.2222H20V20.729Z" fill="#CAD0E7"/>
<path d="M11.5767 7.27925H11.6957C12.2234 7.27925 12.6509 7.70675 12.6509 8.2344V8.35378H13.3317V8.2344C13.3317 7.70675 13.7596 7.27925 14.287 7.27925H14.4063V6.59839H14.287C13.7596 6.59839 13.3317 6.1705 13.3317 5.64315V5.52417H12.6509V5.64315C12.6509 6.1705 12.2234 6.59839 11.6957 6.59839H11.5767V7.27925Z" fill="white"/>
<path d="M25.5015 7.27925H25.6205C26.1482 7.27925 26.5757 7.70675 26.5757 8.2344V8.35378H27.2565V8.2344C27.2565 7.70675 27.6844 7.27925 28.2118 7.27925H28.3311V6.59839H28.2118C27.6844 6.59839 27.2565 6.1705 27.2565 5.64315V5.52417H26.5757V5.64315C26.5757 6.1705 26.1482 6.59839 25.6205 6.59839H25.5015V7.27925Z" fill="white"/>
<path d="M18.5859 3.74824H18.705C19.2327 3.74824 19.6602 4.17574 19.6602 4.7034V4.82277H20.341V4.7034C20.341 4.17574 20.7689 3.74824 21.2962 3.74824H21.4155V3.06738H21.2962C20.7689 3.06738 20.341 2.63949 20.341 2.11215V1.99316H19.6602V2.11215C19.6602 2.63949 19.2327 3.06738 18.705 3.06738H18.5859V3.74824Z" fill="white"/>
</svg>
