<svg id="Capa_1" enable-background="new 0 0 511.981 511.981" height="512" viewBox="0 0 511.981 511.981" width="512" xmlns="http://www.w3.org/2000/svg"><g><path d="m423.81 407.77h23.612c12.447 0 23.717 5.046 31.875 13.204 8.158 8.148 13.204 19.417 13.204 31.875 0 24.895-20.185 45.069-45.08 45.069h-51.534l-98.262-45.075-106.519 45.075h-51.534c-12.447 0-23.717-5.046-31.875-13.204-8.148-8.148-13.194-19.417-13.194-31.865 0-24.905 20.174-45.079 45.069-45.079h23.612" fill="#544f57"/><g><path d="m424.115 416.811c0 30.645-10.544 58.83-28.227 81.107h-204.782c-17.672-22.277-28.227-50.462-28.227-81.107 0-72.14 58.484-130.623 130.623-130.623 72.14 0 130.613 58.483 130.613 130.623z" fill="#ffe07d"/><g fill="#ffc250"><path d="m183.305 416.811c0 30.635 10.555 58.83 28.227 81.107h-20.427c-17.672-22.277-28.227-50.462-28.227-81.107 0-72.14 58.473-130.623 130.613-130.623 3.438 0 6.854.137 10.219.399-67.367 5.204-120.405 61.522-120.405 130.224z"/><path d="m387.278 416.811c0 34.619-18.755 64.865-46.667 81.107h-94.228c-27.912-16.242-46.667-46.488-46.667-81.107 0-51.797 41.989-93.786 93.786-93.786 51.787 0 93.776 41.989 93.776 93.786z"/></g></g><path d="m75.02 54.898h196.982c24.184 0 48.047 5.535 69.762 16.182l143.722 70.468c24.67 12.096 33.884 42.591 20.04 66.324-12.437 21.321-39.175 29.499-61.411 18.783l-148.97-71.793-220.125 35.742" fill="#ffddce"/><path d="m177.211 144.697 91.151 29.188 2.85.913c9.52 3.049 16.965 9.554 21.413 17.681 7.088 10.999 9.383 24.964 5.081 38.398-7.634 23.841-33.15 36.979-56.991 29.345l-57.29-18.345c-16.129 16.779-40.965 23.939-64.626 16.363-33.123-10.607-51.375-46.056-40.769-79.178l32.176-100.482" fill="#ffddce"/><path d="m297.707 230.877c-1.422 4.419-3.451 8.478-5.985 12.094-.906-6.593-3.255-12.887-6.83-18.429-4.45-8.117-11.888-14.628-21.406-17.677l-2.854-.906-76.594-24.533c-8.205-2.628-12.992-11.142-10.974-19.518 2.239-9.294 11.903-14.729 21.008-11.813l74.286 23.785 2.854.917c9.519 3.049 16.956 9.549 21.406 17.677 7.088 11.001 9.385 24.97 5.089 38.403z" fill="#ffcbbe"/><path d="m485.485 141.553-143.725-70.471c-21.715-10.652-45.573-16.184-69.761-16.184h-196.982l-26.578 115.588c-1.233 3.85 27.516 16.305 27.04 20.175-3.615 29.433 14.044 58.213 43.316 67.586 8.339 2.67 16.813 3.502 25.007 2.74-18.518-16.011-26.727-42.09-18.788-66.882l27.104-84.414h119.881c24.188 0 48.045 5.542 69.761 16.183l143.725 70.472c7.355 3.605 13.34 8.849 17.749 15.061.814-1.133 1.576-2.307 2.287-3.533 13.845-23.735 4.635-54.227-20.036-66.321z" fill="#ffcbbe"/><path d="m37.512 14.062c20.715 0 37.508 16.793 37.508 37.508v156.1h-75.015v-156.101c0-20.714 16.792-37.507 37.507-37.507z" fill="#b3e59f"/><path d="m75.013 108.175v-56.6c0-20.72-16.793-37.512-37.5-37.512-20.72-.001-37.513 16.792-37.513 37.512v56.601c0-20.707 16.793-37.5 37.512-37.5 20.708-.001 37.501 16.792 37.501 37.499z" fill="#95d6a4"/><g fill="#ffe07d"><path d="m268.923 476.11c-1.126 0-2.267-.247-3.348-.768-3.844-1.852-5.46-6.47-3.608-10.314l50.781-105.409c1.852-3.845 6.472-5.457 10.314-3.608 3.844 1.852 5.46 6.47 3.608 10.314l-50.781 105.409c-1.331 2.764-4.092 4.376-6.966 4.376z"/><path d="m259.207 411.214c-16.632 0-30.164-13.655-30.164-30.44s13.532-30.44 30.164-30.44 30.164 13.655 30.164 30.44-13.532 30.44-30.164 30.44zm0-45.428c-8.112 0-14.712 6.724-14.712 14.988s6.599 14.988 14.712 14.988 14.712-6.724 14.712-14.988-6.599-14.988-14.712-14.988z"/><path d="m327.788 483.284c-16.632 0-30.163-13.655-30.163-30.44s13.531-30.441 30.163-30.441 30.164 13.655 30.164 30.441c0 16.785-13.531 30.44-30.164 30.44zm0-45.428c-8.111 0-14.711 6.724-14.711 14.988s6.599 14.988 14.711 14.988 14.712-6.724 14.712-14.988c0-8.265-6.599-14.988-14.712-14.988z"/></g><g fill="#f9f6f6"><path d="m371.59 287.673c-4.267 0-7.726-3.459-7.726-7.726v-42.329c0-4.267 3.459-7.726 7.726-7.726s7.726 3.459 7.726 7.726v42.329c0 4.267-3.459 7.726-7.726 7.726z"/><path d="m327.781 260.254c-4.267 0-7.726-3.459-7.726-7.726v-42.328c0-4.267 3.459-7.726 7.726-7.726s7.726 3.459 7.726 7.726v42.329c0 4.266-3.458 7.725-7.726 7.725z"/><path d="m187.446 306.941c-4.267 0-7.726-3.459-7.726-7.726v-21.164c0-4.267 3.459-7.726 7.726-7.726s7.726 3.459 7.726 7.726v21.164c0 4.267-3.458 7.726-7.726 7.726z"/></g></g></svg>