<svg id="Capa_1" enable-background="new 0 0 512 512" height="512" viewBox="0 0 512 512" width="512" xmlns="http://www.w3.org/2000/svg"><g><path d="m473.595 360.104-217.593-20.063-218.97 20.063 37.365 101.879c11.019 30.044 39.618 50.017 71.619 50.017h218.595c32.001 0 60.6-19.973 71.619-50.017z" fill="#d88a55"/><path d="m375.7 360.104-37.365 101.879c-11.018 30.044-39.617 50.017-71.618 50.017h97.894c32.001 0 60.6-19.973 71.619-50.017l37.365-101.879-77.419-7.138z" fill="#c57a44"/><g><g><g><path d="m114.451 409.805c-4.267 0-7.726-3.459-7.726-7.726v-9.502c0-4.268 3.459-7.726 7.726-7.726s7.726 3.459 7.726 7.726v9.502c.001 4.267-3.459 7.726-7.726 7.726z" fill="#c57a44"/></g><g><path d="m161.406 409.805c-4.267 0-7.726-3.459-7.726-7.726v-9.502c0-4.268 3.459-7.726 7.726-7.726s7.726 3.459 7.726 7.726v9.502c0 4.267-3.459 7.726-7.726 7.726z" fill="#c57a44"/></g><g><path d="m208.359 409.805c-4.267 0-7.726-3.459-7.726-7.726v-9.502c0-4.268 3.459-7.726 7.726-7.726s7.726 3.459 7.726 7.726v9.502c.001 4.267-3.459 7.726-7.726 7.726z" fill="#c57a44"/></g><g><path d="m255.313 409.805c-4.267 0-7.726-3.459-7.726-7.726v-9.502c0-4.268 3.459-7.726 7.726-7.726s7.726 3.459 7.726 7.726v9.502c.001 4.267-3.458 7.726-7.726 7.726z" fill="#c57a44"/></g><g><path d="m302.268 409.805c-4.267 0-7.726-3.459-7.726-7.726v-9.502c0-4.268 3.459-7.726 7.726-7.726s7.726 3.459 7.726 7.726v9.502c0 4.267-3.459 7.726-7.726 7.726z" fill="#c57a44"/></g><g><path d="m349.221 409.805c-4.267 0-7.726-3.459-7.726-7.726v-9.502c0-4.268 3.459-7.726 7.726-7.726s7.726 3.459 7.726 7.726v9.502c.001 4.267-3.459 7.726-7.726 7.726z" fill="#c57a44"/></g><g><path d="m396.176 409.805c-4.267 0-7.726-3.459-7.726-7.726v-9.502c0-4.268 3.459-7.726 7.726-7.726s7.726 3.459 7.726 7.726v9.502c0 4.267-3.459 7.726-7.726 7.726z" fill="#b36e3d"/></g></g><g><g><path d="m137.83 447.61c-4.267 0-7.726-3.459-7.726-7.726v-9.503c0-4.268 3.459-7.726 7.726-7.726s7.726 3.459 7.726 7.726v9.503c0 4.267-3.459 7.726-7.726 7.726z" fill="#c57a44"/></g><g><path d="m184.784 447.61c-4.267 0-7.726-3.459-7.726-7.726v-9.503c0-4.268 3.459-7.726 7.726-7.726s7.726 3.459 7.726 7.726v9.503c0 4.267-3.459 7.726-7.726 7.726z" fill="#c57a44"/></g><g><path d="m231.738 447.61c-4.267 0-7.726-3.459-7.726-7.726v-9.503c0-4.268 3.459-7.726 7.726-7.726s7.726 3.459 7.726 7.726v9.503c0 4.267-3.459 7.726-7.726 7.726z" fill="#c57a44"/></g><g><path d="m278.692 447.61c-4.267 0-7.726-3.459-7.726-7.726v-9.503c0-4.268 3.459-7.726 7.726-7.726s7.726 3.459 7.726 7.726v9.503c0 4.267-3.459 7.726-7.726 7.726z" fill="#c57a44"/></g><g><path d="m325.646 447.61c-4.267 0-7.726-3.459-7.726-7.726v-9.503c0-4.268 3.459-7.726 7.726-7.726s7.726 3.459 7.726 7.726v9.503c0 4.267-3.459 7.726-7.726 7.726z" fill="#c57a44"/></g><g><path d="m372.6 447.61c-4.267 0-7.726-3.459-7.726-7.726v-9.503c0-4.268 3.459-7.726 7.726-7.726s7.726 3.459 7.726 7.726v9.503c0 4.267-3.459 7.726-7.726 7.726z" fill="#b36e3d"/></g></g><g><g><path d="m161.406 486.444c-4.267 0-7.726-3.459-7.726-7.726v-9.502c0-4.268 3.459-7.726 7.726-7.726s7.726 3.459 7.726 7.726v9.502c0 4.267-3.459 7.726-7.726 7.726z" fill="#c57a44"/></g><g><path d="m208.359 486.444c-4.267 0-7.726-3.459-7.726-7.726v-9.502c0-4.268 3.459-7.726 7.726-7.726s7.726 3.459 7.726 7.726v9.502c.001 4.267-3.459 7.726-7.726 7.726z" fill="#c57a44"/></g><g><path d="m255.313 486.444c-4.267 0-7.726-3.459-7.726-7.726v-9.502c0-4.268 3.459-7.726 7.726-7.726s7.726 3.459 7.726 7.726v9.502c.001 4.267-3.458 7.726-7.726 7.726z" fill="#c57a44"/></g><g><path d="m302.268 486.444c-4.267 0-7.726-3.459-7.726-7.726v-9.502c0-4.268 3.459-7.726 7.726-7.726s7.726 3.459 7.726 7.726v9.502c0 4.267-3.459 7.726-7.726 7.726z" fill="#c57a44"/></g><g><path d="m349.221 486.444c-4.267 0-7.726-3.459-7.726-7.726v-9.502c0-4.268 3.459-7.726 7.726-7.726s7.726 3.459 7.726 7.726v9.502c.001 4.267-3.459 7.726-7.726 7.726z" fill="#b36e3d"/></g></g></g><g fill="#fec165"><path d="m91.29 292.93h93.494v-85.996c0-8.431-6.835-15.266-15.266-15.266h-62.963c-8.431 0-15.266 6.835-15.266 15.266v85.996z"/><path d="m91.29 292.93h93.494v-85.996c0-8.431-6.835-15.266-15.266-15.266h-62.963c-8.431 0-15.266 6.835-15.266 15.266v85.996z"/><path d="m192.511 242.299-7.726 50.633-17.441 2.874-29.515 4.852-46.544-7.726-7.726-50.633 7.726-35.366c0-8.427 6.84-15.267 15.267-15.267h23.55l7.932 4.553 7.52-4.553h23.962c8.427 0 15.267 6.84 15.267 15.267z"/></g><path d="m192.511 242.299-7.726 50.633-17.441 2.874-8.427-2.874v-86c0-8.427-4.935-15.267-13.361-15.267h23.962c8.427 0 15.267 6.84 15.267 15.267z" fill="#fdb441"/><path d="m166.643 242.299c0 4.265-3.461 7.726-7.726 7.726h-13.361v42.907c0 4.265-3.461 7.726-7.726 7.726s-7.726-3.461-7.726-7.726v-42.907h-38.819c-4.265 0-7.726-3.461-7.726-7.726s3.461-7.726 7.726-7.726h38.817v-42.907h15.453v42.907h13.361c4.266-.001 7.727 3.461 7.727 7.726z" fill="#fff3de"/><path d="m192.511 242.299c0 4.265-3.461 7.726-7.726 7.726h-25.868v-15.453h25.868c4.265 0 7.726 3.462 7.726 7.727z" fill="#ffe5c2"/><path d="m356.774 292.93h-171.99v-128.377c0-9.99 8.098-18.088 18.088-18.088h135.815c9.99 0 18.088 8.098 18.088 18.088v128.377z" fill="#6c7fd8"/><path d="m356.774 292.93h-171.99v-128.377c0-9.99 8.098-18.088 18.088-18.088h135.815c9.99 0 18.088 8.098 18.088 18.088v128.377z" fill="#6c7fd8"/><path d="m356.774 292.93-79.674 7.728-92.317-7.728v-128.377c0-9.99 8.098-18.088 18.088-18.088h135.815c9.99 0 18.088 8.098 18.088 18.088z" fill="#6c7fd8"/><path d="m338.687 146.465h-37.262c9.99 0 18.088 8.098 18.088 18.088v128.377l9.587 2.684 27.675-2.684v-128.377c0-9.99-8.099-18.088-18.088-18.088z" fill="#5b74ce"/><path d="m286.871 224.232c0 29.517-26.586 32.727-26.586 32.727-8.729-5.818-14.764-18.283-14.764-32.727 0-14.491 5.988-26.933 14.764-32.727 0 0 26.586 0 26.586 32.727z" fill="#dff6fd"/><path d="m271.382 188.006c-3.972 0-7.734 1.258-11.096 3.499 8.729 5.818 14.764 18.284 14.764 32.727s-6.035 26.908-14.764 32.727c3.363 2.242 7.124 3.499 11.096 3.499 14.282 0 25.86-16.219 25.86-36.226s-11.578-36.226-25.86-36.226z" fill="#c8effe"/><g><path d="m482.155 211.121-36.762 111.148-88.618-29.31 36.762-111.148c2.109-6.377 5.148-12.364 8.994-17.774 3.847-5.41 8.498-10.269 13.822-14.359 10.652-8.189 18.587-19.382 22.805-32.136l12.004-36.292 26.277-3.42 18.417 18.203-12.004 36.292c-2.109 6.377-3.24 12.995-3.389 19.629-.142 6.648.699 13.311 2.534 19.768 3.669 12.924 3.373 26.655-.842 39.399z" fill="#0ed2b3"/><path d="m483.853 132.324 12.004-36.292-10.052-9.935-13.363 2.19-14.565 44.036c-2.109 6.377-3.24 12.995-3.389 19.629-.142 6.648.699 13.311 2.534 19.768 3.668 12.926 3.371 26.656-.844 39.4l-34.201 103.403 23.414 7.744 36.762-111.148c4.215-12.744 4.512-26.475.844-39.4-1.836-6.457-2.676-13.121-2.534-19.768.15-6.632 1.28-13.25 3.39-19.627z" fill="#06c19d"/><path d="m509.866 53.674-14.01 42.358-44.695-14.783 14.01-42.358c2.159-6.527 9.205-10.071 15.732-7.912l21.051 6.962c6.528 2.159 10.071 9.205 7.912 15.733z" fill="#fd4755"/><path d="m501.954 37.941-21.05-6.962c-5.092-1.684-10.489.112-13.646 4.078l8.721 2.884c6.527 2.159 10.071 9.205 7.912 15.732l-11.449 34.614 23.414 7.744 14.01-42.358c2.159-6.527-1.384-13.573-7.912-15.732z" fill="#fb2b3a"/></g><g><path d="m448.398 128.948v163.984l-13.258 6.943-1.504.783-14.299-7.726v-163.984c0-.865-.01-1.72-.031-2.575-1.37-53.889-45.647-97.311-99.855-97.311h-128.269c-55.084 0-99.897 44.813-99.897 99.886v163.984l-13.475 6.809-1.813.917-13.763-7.726v-163.984c0-.865.01-1.72.031-2.575 1.37-69.919 58.669-126.373 128.917-126.373h1.968l62.707 10.096 53.281-8.726 8.334-1.37h1.978c71.103 0 128.948 57.845 128.948 128.948z" fill="#d88a55"/></g><g fill="#c57a44"><path d="m191.182 29.061c-55.084 0-99.897 44.813-99.897 99.886v163.984l-13.475 6.809-15.576-6.809v-163.983c0-.865.01-1.72.031-2.575 1.37-53.889 45.637-97.311 99.855-97.311h29.062z"/><path d="m448.398 128.948v163.984l-13.258 6.943-15.803-6.943v-163.984c0-.855-.01-1.72-.031-2.575-1.247-63.583-48.749-116.03-110.168-125.003l8.334-1.37h1.978c71.103 0 128.948 57.845 128.948 128.948z"/></g><path d="m490.493 360.104h-470.359c-10.291 0-18.633-8.342-18.633-18.633v-29.909c0-10.29 8.342-18.633 18.633-18.633h470.36c10.29 0 18.633 8.342 18.633 18.633v29.909c-.001 10.291-8.343 18.633-18.634 18.633z" fill="#c57a44"/><path d="m490.493 292.93h-89.787c10.291 0 18.633 8.342 18.633 18.633v29.909c0 10.29-8.342 18.633-18.633 18.633h89.787c10.29 0 18.633-8.342 18.633-18.633v-29.909c0-10.291-8.342-18.633-18.633-18.633z" fill="#b36e3d"/><g><g><path d="m197.319 106.619c-1.473 0-2.946-.562-4.069-1.686-2.248-2.247-2.248-5.891 0-8.139 25.951-25.951 28.75-69.456 28.775-69.892.183-3.171 2.887-5.605 6.073-5.416 3.171.181 5.597 2.894 5.419 6.065-.11 1.958-3.023 48.277-32.128 77.382-1.124 1.124-2.597 1.686-4.07 1.686z" fill="#fb2b3a"/></g><g><path d="m313.308 106.619c-1.473 0-2.946-.562-4.07-1.686-29.105-29.105-32.018-75.424-32.128-77.382-.178-3.174 2.25-5.89 5.424-6.068 3.157-.169 5.888 2.248 6.068 5.42.031.536 2.854 43.969 28.775 69.891 2.247 2.247 2.247 5.891 0 8.139-1.124 1.124-2.597 1.686-4.069 1.686z" fill="#fb2b3a"/></g><g><path d="m260.29 44.371h-9.954c-9.289 0-16.82-7.53-16.82-16.82l-3.325-12.935 3.326-14.616h43.593l4.421 13.925-4.421 13.626c0 9.29-7.531 16.82-16.82 16.82z" fill="#fd4755"/><path d="m255.313 0v27.551c0 7.202-4.535 13.329-10.898 15.727 1.844.695 3.834 1.093 5.921 1.093h9.954c9.289 0 16.82-7.53 16.82-16.82l4.421-13.626-4.421-13.925z" fill="#fb2b3a"/><path d="m199.142 57.473 23.546-8.974c6.521-2.485 10.829-8.739 10.829-15.717v-32.782h-40.366c-9.289 0-16.82 7.53-16.82 16.82v24.937c.001 11.781 11.801 19.912 22.811 15.716z" fill="#fd4755"/><path d="m211.721 0v32.782c0 6.978-4.309 13.231-10.829 15.717l-8.688 3.172c-4.457 1.699-9.043 1.376-12.924-.39 4.191 6.072 12.215 9.107 19.862 6.193l23.546-8.974c6.521-2.485 10.829-8.739 10.829-15.717v-32.783z" fill="#fb2b3a"/><path d="m311.485 57.473-23.546-8.974c-6.521-2.485-10.829-8.739-10.829-15.717v-32.782h40.366c9.289 0 16.82 7.53 16.82 16.82v24.937c-.001 11.781-11.802 19.912-22.811 15.716z" fill="#fd4755"/><path d="m317.475 0h-21.796c9.289 0 16.82 7.53 16.82 16.82v24.937c0 5.674-2.741 10.496-6.809 13.508l5.796 2.209c11.009 4.196 22.81-3.935 22.81-15.717v-24.937c-.001-9.29-7.531-16.82-16.821-16.82z" fill="#fb2b3a"/></g></g></g></svg>