<svg width="48" height="48" viewBox="0 0 48 48" fill="none" xmlns="http://www.w3.org/2000/svg">
<g clip-path="url(#clip0_2899:5801)">
<path d="M47.5085 23.473C47.5085 36.4369 36.9994 46.946 24.0355 46.946C11.0717 46.946 0.5625 36.4369 0.5625 23.473C0.5625 10.5092 11.0717 0 24.0355 0C36.9994 0 47.5085 10.5092 47.5085 23.473Z" fill="#BF402E"/>
<path d="M37.3651 16.8512L27.2079 5.64658C25.4834 3.74411 22.494 3.74411 20.7695 5.64658L10.6127 16.8512C10.3732 17.1156 10.2402 17.4598 10.2402 17.8165V46.563C10.2402 47.3565 10.8837 48 11.6776 48H31.6149L37.7375 41.6751V17.8165C37.7375 17.4598 37.6046 17.1159 37.3651 16.8512ZM23.9889 12.3237C22.5808 12.3237 21.4393 11.1826 21.4393 9.77451C21.4393 8.36642 22.5808 7.22495 23.9889 7.22495C25.397 7.22495 26.5381 8.36642 26.5381 9.77451C26.5381 11.1826 25.3966 12.3237 23.9889 12.3237Z" fill="#F3C76F"/>
<path d="M16.4922 46.5634V18.8804C16.4922 17.8392 16.8793 16.8351 17.5787 16.0638L21.9246 11.2698C21.6096 10.8362 21.428 10.2997 21.4401 9.72033C21.4683 8.37048 22.5768 7.25866 23.9263 7.22644C24.4188 7.21435 24.8802 7.34289 25.2747 7.57397L27.0215 5.64697C27.0519 5.61328 27.0837 5.58178 27.1149 5.54956C25.3776 3.74633 22.464 3.77783 20.7699 5.64697L10.6127 16.8516C10.3732 17.116 10.2402 17.4602 10.2402 17.8169V46.5634C10.2402 47.3569 10.8837 48.0004 11.6776 48.0004H17.9292C17.1356 48.0004 16.4922 47.3569 16.4922 46.5634Z" fill="#E08A24"/>
<path d="M23.8665 10.3473C24.6593 10.3473 25.3024 9.70422 25.3024 8.91101V0.0344239C24.8831 0.0120849 24.4608 0 24.0356 0C23.4958 0 22.9608 0.0197754 22.4302 0.0556641V8.91101C22.4302 9.70422 23.0732 10.3473 23.8665 10.3473Z" fill="#71A2EA"/>
<path d="M23.8665 8.91101V0.0556641C24.1605 0.0358886 24.4561 0.0216065 24.7531 0.0120849C24.5146 0.00476074 24.2759 0 24.0356 0C23.4958 0 22.9608 0.0197754 22.4302 0.0556641V8.91101C22.4302 9.70422 23.0732 10.3473 23.8665 10.3473C24.1283 10.3473 24.3729 10.2759 24.5842 10.1536C24.1554 9.90527 23.8665 9.44238 23.8665 8.91101Z" fill="#578DCE"/>
<path d="M12.9034 18.2056H11.3705C10.9735 18.2056 10.6516 17.884 10.6516 17.4871C10.6516 17.0905 10.9735 16.7686 11.3705 16.7686H12.9034C13.3 16.7686 13.6219 17.0905 13.6219 17.4871C13.6219 17.884 13.3 18.2056 12.9034 18.2056Z" fill="#EF3A50"/>
<path d="M31.5774 18.2056H28.9564C28.5594 18.2056 28.2379 17.884 28.2379 17.4871C28.2379 17.0905 28.5594 16.7686 28.9564 16.7686H31.5774C31.974 16.7686 32.2959 17.0905 32.2959 17.4871C32.2959 17.884 31.974 18.2056 31.5774 18.2056ZM25.3525 18.2056H22.7316C22.335 18.2056 22.0131 17.884 22.0131 17.4871C22.0131 17.0905 22.335 16.7686 22.7316 16.7686H25.3525C25.7495 16.7686 26.071 17.0905 26.071 17.4871C26.071 17.884 25.7495 18.2056 25.3525 18.2056ZM19.1281 18.2056H16.5071C16.1105 18.2056 15.7886 17.884 15.7886 17.4871C15.7886 17.0905 16.1105 16.7686 16.5071 16.7686H19.1281C19.5247 16.7686 19.8466 17.0905 19.8466 17.4871C19.8466 17.884 19.5247 18.2056 19.1281 18.2056Z" fill="#EF3A50"/>
<path d="M36.7139 18.2056H35.1809C34.7843 18.2056 34.4624 17.884 34.4624 17.4871C34.4624 17.0905 34.7843 16.7686 35.1809 16.7686H36.7139C37.1108 16.7686 37.4324 17.0905 37.4324 17.4871C37.4324 17.884 37.1108 18.2056 36.7139 18.2056Z" fill="#EF3A50"/>
<path d="M34.9894 31.9872C34.9894 38.1304 30.0093 43.1105 23.8665 43.1105C17.7233 43.1105 12.7432 38.1304 12.7432 31.9872C12.7432 25.8444 17.7233 20.8643 23.8665 20.8643C30.0093 20.8643 34.9894 25.8444 34.9894 31.9872Z" fill="#EF3A50"/>
<path d="M12.7432 31.9877C12.7432 35.3019 14.193 38.2766 16.4924 40.3146V23.6611C14.193 25.6991 12.7432 28.6738 12.7432 31.9877Z" fill="#CE2844"/>
<path d="M13.6219 17.4871C13.6219 17.0905 13.3 16.7686 12.9034 16.7686H11.3705C10.9735 16.7686 10.6516 17.0905 10.6516 17.4871C10.6516 17.884 10.9735 18.2056 11.3705 18.2056H12.9034C13.3 18.2056 13.6219 17.884 13.6219 17.4871Z" fill="#CE2844"/>
<path d="M15.7886 17.4871C15.7886 17.884 16.1105 18.2056 16.5071 18.2056H16.5481C16.6309 17.6984 16.8059 17.2117 17.0641 16.7686H16.5071C16.1105 16.7686 15.7886 17.0905 15.7886 17.4871Z" fill="#CE2844"/>
<path d="M19.2319 29.9764C18.705 29.4498 18.4417 28.8152 18.4417 28.0725C18.4417 27.324 18.7053 26.6864 19.2319 26.1594C19.7589 25.6328 20.3936 25.3691 21.1359 25.3691C21.8782 25.3691 22.5161 25.6328 23.049 26.1594C23.5759 26.6864 23.8392 27.3243 23.8392 28.0725C23.8392 28.8152 23.5756 29.4498 23.049 29.9764C22.5161 30.5034 21.8782 30.7667 21.1359 30.7667C20.3936 30.7671 19.7589 30.5034 19.2319 29.9764ZM19.196 37.9338C19.1422 37.706 19.1781 37.4936 19.3037 37.2959L26.7491 25.7463C26.8748 25.5489 27.0513 25.4263 27.2791 25.3783C27.5002 25.3303 27.7101 25.3691 27.9075 25.4951C28.1052 25.6207 28.2279 25.7976 28.2759 26.025C28.3235 26.2524 28.2847 26.4619 28.1591 26.6534L20.7228 38.2122C20.5972 38.4037 20.4203 38.5234 20.1929 38.5714C19.9655 38.6252 19.7531 38.5894 19.5553 38.4637C19.3638 38.3378 19.244 38.1613 19.196 37.9338ZM20.2646 27.1925C20.0251 27.4382 19.9054 27.7312 19.9054 28.0725C19.9054 28.4079 20.0251 28.6984 20.2646 28.9437C20.5042 29.1832 20.7946 29.303 21.1359 29.303C21.4772 29.303 21.7676 29.1832 22.0071 28.9437C22.2524 28.6984 22.3751 28.4079 22.3751 28.0725C22.3751 27.7312 22.2524 27.4379 22.0071 27.1925C21.7676 26.953 21.4772 26.8332 21.1359 26.8332C20.7946 26.8332 20.5042 26.953 20.2646 27.1925ZM24.6925 37.8258C24.1655 37.2992 23.9022 36.6645 23.9022 35.9222C23.9022 35.1737 24.1655 34.5361 24.6925 34.0091C25.2191 33.4822 25.8538 33.2189 26.5964 33.2189C27.3387 33.2189 27.9734 33.4822 28.5004 34.0091C29.0273 34.5361 29.2906 35.1737 29.2906 35.9222C29.2906 36.6645 29.0273 37.2992 28.5004 37.8258C27.9734 38.3528 27.3387 38.6165 26.5964 38.6165C25.8538 38.6165 25.2191 38.3528 24.6925 37.8258ZM25.7252 35.0419C25.4795 35.2876 25.3572 35.5806 25.3572 35.9222C25.3572 36.2632 25.4795 36.5536 25.7252 36.7931C25.9647 37.0326 26.2551 37.1523 26.5964 37.1523C26.9377 37.1523 27.2281 37.0326 27.4677 36.7931C27.7068 36.5536 27.8269 36.2632 27.8269 35.9222C27.8269 35.5806 27.7068 35.2876 27.4677 35.0419C27.2281 34.8024 26.9377 34.6826 26.5964 34.6826C26.2551 34.6826 25.9647 34.8024 25.7252 35.0419Z" fill="white"/>
<path d="M37.7375 41.6748H32.7256C31.7299 41.6748 30.9224 42.4819 30.9224 43.4777V47.9996H31.6149L37.7375 41.6748Z" fill="#E08A24"/>
<path d="M31.615 47.9996V43.1147C31.615 42.3193 32.2599 41.6748 33.0549 41.6748H37.7373L31.615 47.9996Z" fill="#FFFA88"/>
</g>
<defs>
<clipPath id="clip0_2899:5801">
<rect width="48" height="48" fill="white"/>
</clipPath>
</defs>
</svg>
