<svg width="48" height="48" viewBox="0 0 48 48" fill="none" xmlns="http://www.w3.org/2000/svg">
<g clip-path="url(#clip0_2906:6114)">
<path d="M48 24C48 37.2548 37.2548 48 24 48C10.7452 48 0 37.2548 0 24C0 10.7452 10.7452 0 24 0C37.2548 0 48 10.7452 48 24Z" fill="#623672"/>
<path d="M42.9674 21.4849C42.9674 31.7445 34.6504 40.0615 24.3908 40.0615C14.1311 40.0615 5.81421 31.7445 5.81421 21.4849C5.81421 11.2252 14.1312 2.9082 24.3908 2.9082C34.6503 2.9082 42.9674 11.2253 42.9674 21.4849Z" fill="#884189"/>
<path d="M43.6073 32.3783L41.724 32.883L35.3668 30.1309L34.1899 27.6416L34.0428 26.5868L33.0698 24.3212L32.2607 23.5614L30.7235 20.3101L30.9874 19.502L30.3314 18.1145L29.5463 17.82L28.5449 15.7022L27.7747 10.0775L35.3637 8.04395L43.201 24.6203C43.3947 25.0299 43.8535 25.2424 44.2913 25.1251L47.4925 24.2673L47.6994 26.787L43.6073 32.3783Z" fill="#127D4F"/>
<path d="M38.941 26.8205L30.6594 9.30476L44.622 5.56348L46.3963 10.9191L46.5849 13.2156L46.1868 13.6755L46.2446 14.38L46.7115 14.7577L47.0767 19.2052L46.8569 20.3103L47.1114 23.409L47.4772 24.0813L47.5135 24.5235C47.6919 26.6959 46.2912 28.6851 44.1857 29.2492C42.0803 29.8135 39.8727 28.7912 38.941 26.8205Z" fill="#169B62"/>
<path d="M35.0064 25.596L34.19 27.6418L32.0987 23.2187L34.9773 25.4877C35.0099 25.5133 35.0217 25.5574 35.0064 25.596ZM30.7956 9.88123L30.2153 9.42383L26.0981 10.5271L28.5451 15.7025L30.8246 9.98961C30.84 9.95108 30.8282 9.90692 30.7956 9.88123ZM36.2435 25.2645L41.7614 29.6139C41.8107 29.6527 41.8833 29.6332 41.9066 29.575L44.5105 23.0494C44.5258 23.0107 44.514 22.9667 44.4814 22.941L38.9635 18.5915C38.9142 18.5527 38.8416 18.5722 38.8183 18.6305L36.2144 25.1561C36.1991 25.1946 36.2109 25.2388 36.2435 25.2645ZM47.9968 30.4055L47.6997 26.7874L45.8884 25.3596C45.8392 25.3208 45.7665 25.3403 45.7433 25.3985L43.1394 31.9242C43.124 31.9628 43.1358 32.0069 43.1684 32.0326L43.6074 32.3785L47.3052 31.3877C47.7428 31.2705 48.034 30.857 47.9968 30.4055ZM37.5904 16.1638L32.0725 11.8144C32.0232 11.7755 31.9506 11.795 31.9273 11.8533L29.5464 17.8203L30.1644 19.1273L34.8704 22.8367C34.9196 22.8755 34.9923 22.856 35.0156 22.7978L37.6195 16.2722C37.6348 16.2335 37.623 16.1895 37.5904 16.1638ZM41.9022 32.2557L36.3843 27.9063C36.3351 27.8675 36.2624 27.887 36.2392 27.9452L35.3669 30.131L36.9022 33.3783C37.0959 33.7879 37.5547 34.0004 37.9924 33.8831L41.7241 32.8832L41.9312 32.3641C41.9467 32.3255 41.9349 32.2814 41.9022 32.2557Z" fill="#1AB975"/>
<path d="M45.8883 25.3589L47.2563 26.4371C46.7675 27.7758 45.6564 28.8462 44.2091 29.2421L45.7432 25.3977C45.7664 25.3396 45.8391 25.3201 45.8883 25.3589ZM38.8565 15.94L44.3744 20.2894C44.4236 20.3282 44.4963 20.3088 44.5195 20.2505L46.7116 14.7569L46.5849 13.2148L41.5765 9.26702C41.5273 9.2282 41.4547 9.2477 41.4314 9.30592L38.8275 15.8316C38.812 15.8701 38.8238 15.9143 38.8565 15.94ZM45.7475 22.7171L47.4773 24.0806L47.0768 19.2045L45.7184 22.6088C45.7031 22.6473 45.7148 22.6915 45.7475 22.7171ZM41.5657 7.11077L46.3963 10.9184L45.9277 5.21289L41.8106 6.31614L41.5368 7.00239C41.5214 7.04092 41.5332 7.08508 41.5657 7.11077ZM44.4813 22.9403L38.9633 18.5908C38.9141 18.552 38.8415 18.5715 38.8182 18.6297L37.102 22.9305L38.9409 26.8198C39.1767 27.3185 39.4942 27.7564 39.8711 28.1232L40.6087 28.7046C41.0416 28.978 41.519 29.1765 42.0196 29.2905L44.5103 23.0485C44.5257 23.01 44.5139 22.966 44.4813 22.9403ZM37.5903 16.1631L32.0723 11.8136C32.0231 11.7748 31.9505 11.7943 31.9272 11.8525L31.8984 11.9246L35.9415 20.476L37.6192 16.2715C37.6347 16.2328 37.6229 16.1888 37.5903 16.1631ZM32.0617 9.65739L37.5796 14.0069C37.6288 14.0457 37.7015 14.0262 37.7247 13.968L40.3286 7.44236C40.344 7.40383 40.3322 7.35967 40.2996 7.33398L39.7192 6.87658L32.3064 8.86286L32.0326 9.54911C32.0172 9.58755 32.029 9.6317 32.0617 9.65739Z" fill="#1ED688"/>
<path d="M31.5159 10.3667L26.2226 11.785C25.7225 11.919 25.2084 11.6223 25.0744 11.1221C24.9404 10.6221 25.2372 10.1079 25.7373 9.97398L31.0306 8.55564C31.5307 8.42157 32.0448 8.71839 32.1788 9.21854C32.3127 9.7187 32.016 10.2326 31.5159 10.3667Z" fill="#35E298"/>
<path d="M46.4493 6.36582L30.9123 10.529C30.4121 10.6629 29.8981 10.3662 29.7641 9.86607C29.6301 9.366 29.9269 8.85188 30.427 8.71791L45.9639 4.55466C46.4641 4.4206 46.9781 4.71741 47.1122 5.21757C47.2461 5.71772 46.9494 6.23185 46.4493 6.36582Z" fill="#A1FFBC"/>
<path d="M6.31002 32.8916L4.42677 32.387L0.297363 26.825L0.522738 24.0807L0.922769 23.0936L1.21293 20.645L0.923238 19.2045L1.29364 14.6941L1.94474 13.9008L1.41196 13.2531L1.60368 10.9184L3.74896 5.66211L11.338 7.69564L9.83736 25.9699C9.80024 26.4215 10.0914 26.8349 10.5291 26.9522L13.7303 27.81L12.6497 30.0956L6.31002 32.8916Z" fill="#894787"/>
<path d="M5.04801 25.7455L6.63388 6.43555L20.5964 10.1768L19.4552 15.7021L18.4703 17.7852L17.8956 17.9844L17.5934 18.6235L17.809 19.1841L15.9015 23.2185L15.1587 24.0655L13.8297 26.8763L13.8103 27.6415L13.6206 28.0426C12.6889 30.0132 10.4812 31.0355 8.37576 30.4714C6.27032 29.9071 4.86951 27.918 5.04801 25.7455Z" fill="#9F539D"/>
<path d="M2.25243 22.7171L0.522557 24.0806L0.923057 19.2044L2.28149 22.6087C2.29687 22.6473 2.28506 22.6915 2.25243 22.7171ZM6.46312 7.00239L6.18928 6.31605L2.07215 5.21289L1.60359 10.9183L6.43415 7.11067C6.46678 7.08508 6.47859 7.04092 6.46312 7.00239ZM3.48956 23.0486L6.09346 29.5743C6.11671 29.6325 6.18937 29.6519 6.23859 29.6132L11.7565 25.2638C11.7892 25.2381 11.801 25.1939 11.7856 25.1554L9.18168 18.6297C9.15843 18.5715 9.08578 18.5521 9.03656 18.5908L3.51862 22.9403C3.48599 22.966 3.47418 23.0101 3.48956 23.0486ZM11.0977 33.3775L12.6495 30.0955L11.7948 27.9535C11.7715 27.8952 11.6989 27.8758 11.6497 27.9145L6.13171 32.264C6.09909 32.2897 6.08728 32.3338 6.10265 32.3724L6.30984 32.8915L10.0076 33.8823C10.4452 33.9997 10.9042 33.7871 11.0977 33.3775ZM9.20634 15.8407L6.60243 9.31502C6.57918 9.2568 6.50653 9.2373 6.45731 9.27611L1.41178 13.2532L1.29346 14.6941L3.51431 20.2596C3.53756 20.3178 3.61021 20.3372 3.65943 20.2985L9.17737 15.949C9.21 15.9233 9.22171 15.8792 9.20634 15.8407ZM4.89449 31.9326L2.29059 25.4069C2.26734 25.3487 2.19468 25.3293 2.14546 25.368L0.297182 26.8249L0.00318219 30.4047C-0.0339428 30.8563 0.257245 31.2698 0.69487 31.387L4.42659 32.3869L4.86553 32.0409C4.89815 32.0153 4.90996 31.9711 4.89449 31.9326Z" fill="#CC59A8"/>
<path d="M11.7949 27.954L12.4404 29.5718C11.3478 30.4867 9.8504 30.8581 8.39906 30.4774L11.6498 27.915C11.6991 27.8764 11.7717 27.8959 11.7949 27.954ZM10.4147 16.2811L13.0187 22.8068C13.0419 22.865 13.1146 22.8845 13.1638 22.8457L17.8089 19.1842L18.4703 17.7853L16.1068 11.8622C16.0836 11.804 16.0109 11.7845 15.9617 11.8233L10.4437 16.1727C10.4111 16.1984 10.3993 16.2425 10.4147 16.2811ZM12.9938 25.5958L13.8102 27.6415L15.9015 23.2184L13.023 25.4874C12.9903 25.5131 12.9785 25.5572 12.9938 25.5958ZM17.1756 9.98945L19.4551 15.7022L21.9021 10.5268L17.7849 9.42367L17.2046 9.88108C17.172 9.90677 17.1602 9.95083 17.1756 9.98945ZM11.7858 25.156L9.18187 18.6303C9.15862 18.5721 9.08597 18.5527 9.03675 18.5914L5.40009 21.458L5.04797 25.7457C5.00287 26.2955 5.05884 26.8335 5.20181 27.3397L5.54981 28.2118C5.78803 28.665 6.10218 29.0757 6.47878 29.4248L11.7568 25.2644C11.7893 25.2385 11.8012 25.1945 11.7858 25.156ZM9.20653 15.8412L6.60262 9.31558C6.57937 9.25736 6.50672 9.23786 6.4575 9.27667L6.39656 9.32477L5.62228 18.7519L9.17746 15.9495C9.21018 15.9238 9.2219 15.8798 9.20653 15.8412ZM7.67147 7.44273L10.2754 13.9685C10.2986 14.0267 10.3713 14.0461 10.4205 14.0073L15.9384 9.65786C15.9711 9.63217 15.9829 9.58802 15.9675 9.54948L15.6937 8.86314L8.28084 6.87695L7.70053 7.33436C7.6679 7.36014 7.65609 7.4042 7.67147 7.44273Z" fill="#D473B5"/>
<path d="M6.84434 7.78413L1.55102 6.36578C1.05096 6.23172 0.754148 5.71769 0.888117 5.21753C1.02209 4.71738 1.53621 4.42066 2.03627 4.55463L7.32959 5.97297C7.82974 6.10694 8.12646 6.62106 7.99249 7.12113C7.85852 7.62128 7.34449 7.9181 6.84434 7.78413Z" fill="#DC8DC3"/>
<path d="M21.7774 11.7858L6.24027 7.62262C5.74011 7.48856 5.4433 6.97453 5.57736 6.47437C5.71133 5.97421 6.22546 5.67749 6.72552 5.81146L22.2625 9.97462C22.7627 10.1086 23.0595 10.6227 22.9254 11.1228C22.7915 11.623 22.2774 11.9197 21.7774 11.7858Z" fill="#E4A7D1"/>
<path d="M30.7494 40.7121L30.1336 44.0994C30.0525 44.5452 29.6643 44.8692 29.2112 44.8692H19.57C19.1169 44.8692 18.7287 44.5451 18.6476 44.0994L18.5391 43.5026L18.7875 42.2577L18.0675 38.2977L17.5031 37.8052L17.1415 35.8164L17.4311 34.7896L17.0303 32.5847L16.4784 32.1689L15.9369 29.1901L16.4784 27.6419L15.8992 24.4556L14.9404 23.7095L14.126 19.2305H20.3199L23.4 36.1709C23.7615 38.159 25.493 39.6041 27.5137 39.6041H29.8247C30.4112 39.604 30.8544 40.1351 30.7494 40.7121Z" fill="#DD7D00"/>
<path d="M22.2626 37.3086L18.9756 19.2305H34.6554L32.0973 33.2998L31.4412 34.4283L30.8591 37.6299L31.1394 38.5683L30.7442 40.7416H26.3762C24.3555 40.7417 22.624 39.2966 22.2626 37.3086Z" fill="#FF9F22"/>
<path d="M25.8965 19.2305L15.9369 29.1901L14.9404 23.7095L19.4195 19.2305H25.8965Z" fill="#FFC14F"/>
<path d="M25.8964 19.2305L20.0402 25.0868L19.0437 19.6061L19.4194 19.2305H25.8964Z" fill="#FFCD71"/>
<path d="M17.5034 37.8047L34.3393 20.9688L32.843 29.1983L18.5393 43.502L17.5034 37.8047Z" fill="#FFA90B"/>
<path d="M32.8431 29.1983L22.9766 39.0648C22.6282 38.5478 22.3801 37.9538 22.2627 37.3081L21.6069 33.7012L34.3394 20.9688L32.8431 29.1983Z" fill="#FFB52D"/>
<path d="M33.7279 19.2305L17.1419 35.8164L16.4788 32.169L29.4173 19.2305H33.7279ZM24.8387 44.8692L31.1396 38.5684L32.0975 33.2998L20.5281 44.8692H24.8387Z" fill="#FFCD71"/>
<path d="M33.728 19.2305L21.2455 31.713L20.5823 28.0656L29.4174 19.2305H33.728ZM26.8157 40.7417H28.9662L31.1396 38.5684L32.0975 33.2998L24.9655 40.4318C25.5349 40.6362 26.1616 40.7417 26.8157 40.7417Z" fill="#FFD993"/>
<path d="M20.0741 20.4785H13.9209C13.4031 20.4785 12.9834 20.0588 12.9834 19.541C12.9834 19.0232 13.4031 18.6035 13.9209 18.6035H20.0741C20.5919 18.6035 21.0116 19.0232 21.0116 19.541C21.0116 20.0588 20.5918 20.4785 20.0741 20.4785Z" fill="#FFD399"/>
<path d="M34.8607 20.4785H19.0757C18.5579 20.4785 18.1382 20.0588 18.1382 19.541C18.1382 19.0232 18.5579 18.6035 19.0757 18.6035H34.8606C35.3784 18.6035 35.7981 19.0232 35.7981 19.541C35.7982 20.0588 35.3785 20.4785 34.8607 20.4785Z" fill="#FFE7C0"/>
<path d="M20.9872 7.73147C21.0319 7.82053 21.0145 7.92816 20.9441 7.99856C20.8737 8.06897 20.7661 8.08641 20.677 8.04169L17.5569 6.47484C16.7111 6.05016 16.529 4.92206 17.1983 4.25288C17.8675 3.58359 18.9956 3.76566 19.4203 4.61147L20.9872 7.73147ZM24.0001 0C22.4793 0 21.4043 1.48856 21.8828 2.93222L23.6477 8.25759C23.698 8.40947 23.84 8.51203 24.0001 8.51203C24.1601 8.51203 24.3021 8.40947 24.3525 8.25759L26.1173 2.93222C26.5958 1.48856 25.5209 0 24.0001 0ZM30.8017 4.25278C30.1325 3.5835 29.0044 3.76556 28.5798 4.61138L27.0129 7.73138C26.9682 7.82044 26.9856 7.92806 27.056 7.99847C27.1264 8.06888 27.2341 8.08631 27.323 8.04159L30.4431 6.47475C31.2889 6.05006 31.471 4.92206 30.8017 4.25278Z" fill="#44BFD7"/>
<path d="M20.9871 7.73168C21.0319 7.82074 21.0144 7.92837 20.944 7.99877C20.8736 8.06918 20.766 8.08662 20.6769 8.0419L17.8625 6.62852C17.7343 6.14965 17.8486 5.60993 18.2393 5.21918C18.596 4.86255 19.0766 4.73618 19.5219 4.81427L20.9871 7.73168ZM29.706 5.21093C29.3649 4.86987 28.9082 4.74359 28.4808 4.80855L27.0128 7.73168C26.9681 7.82074 26.9856 7.92837 27.056 7.99877C27.1264 8.06918 27.234 8.08662 27.323 8.0419L30.0522 6.67137C30.213 6.18312 30.1107 5.61555 29.706 5.21093ZM24 1.72559C22.9699 1.72559 22.1721 2.50099 22.0501 3.43746L23.6476 8.2578C23.6979 8.40968 23.84 8.51224 24 8.51224C24.16 8.51224 24.3021 8.40968 24.3524 8.2578L25.9499 3.43746C25.8279 2.50099 25.0301 1.72559 24 1.72559Z" fill="#7CD2E3"/>
</g>
<defs>
<clipPath id="clip0_2906:6114">
<rect width="48" height="48" fill="white"/>
</clipPath>
</defs>
</svg>
