<svg width="188" height="188" viewBox="0 0 188 188" fill="none" xmlns="http://www.w3.org/2000/svg">
<circle cx="94" cy="94" r="94" fill="#F3C76F"/>
<g clip-path="url(#clip0_5399:9875)">
<path d="M153.052 105.159C151.538 101.499 147.623 101.949 145.981 103.044L108.274 128.183C107.466 128.722 106.516 129.01 105.544 129.01H79.0137C76.2955 129.01 74.0918 126.806 74.0918 124.088C74.0918 121.37 76.2955 119.166 79.0137 119.166H89.5573C95.3806 119.166 100.101 114.445 100.101 108.622C100.119 107.341 99.9071 106.266 99.5061 105.127C99.052 103.838 97.8012 103 96.4342 103H60.3854C59.2284 103 58.1069 103.406 57.22 104.15C51.5267 108.92 47.9032 116.079 47.9032 124.088V127.321L38.801 136.423C36.8788 138.345 36.8788 141.462 38.801 143.384L59.8886 164.471C61.8108 166.394 64.9276 166.393 66.8491 164.471L76.1987 155.122L116.698 150.059C117.784 149.924 118.794 149.43 119.568 148.656L150.566 117.657C153.855 114.368 154.832 109.463 153.052 105.159Z" fill="#FFDCCB"/>
<path d="M66.8489 164.471L76.1985 155.121L116.698 150.059C117.784 149.923 118.794 149.429 119.567 148.655L150.566 117.657C153.855 114.368 154.831 109.463 153.052 105.159C151.538 101.499 147.623 101.949 145.981 103.044L108.274 128.183C107.465 128.722 106.515 129.01 105.544 129.01H79.0131C77.6977 129.01 76.5056 128.49 75.6226 127.65L49.3447 153.927L59.8884 164.471C61.8105 166.394 64.9274 166.393 66.8489 164.471Z" fill="#FFB8AF"/>
<path d="M59.6494 107.922C56.9312 107.922 54.7275 105.718 54.7275 103V76.6406C54.7275 73.9224 56.9312 71.7188 59.6494 71.7188C62.3676 71.7188 64.5713 73.9224 64.5713 76.6406V103C64.5713 105.718 62.3676 107.922 59.6494 107.922Z" fill="#D4D0D8"/>
<path d="M56.1703 48.4942C51.6931 44.0169 45.4009 45.2067 42.1246 48.4052C41.0812 49.4989 39.5534 50.0912 37.9601 49.8946C34.9334 49.5219 33.0333 46.7315 33.7686 43.887L39.0583 22.7282C39.6059 20.5373 41.5747 19 43.8332 19H75.4644C77.7229 19 79.6917 20.5373 80.2393 22.7282L85.5113 43.8158C85.6058 44.1931 86.1531 46.5536 84.2126 48.4942C76.4636 56.2353 63.9285 56.2448 56.1703 48.4942Z" fill="#F2F1F0"/>
<path d="M84.2128 48.4942C86.1537 46.5533 85.6061 44.1931 85.5116 43.8158L80.2396 22.7282C79.6923 20.5373 77.7235 19 75.465 19H59.6494V51.2645C67.3147 56.088 77.5381 55.1623 84.2128 48.4942Z" fill="#E3E1E4"/>
<path d="M33.7697 43.8868C40.9104 36.7461 52.5158 36.6815 59.6499 43.8156C66.7906 50.9563 78.3783 50.9497 85.5124 43.8156L85.5134 43.8202C85.5137 43.8215 86.3872 47.3177 86.3872 47.3177C90.7358 64.7263 77.5833 81.5628 59.6499 81.5628C41.7107 81.5628 28.5594 64.7188 32.9123 47.3183L33.7697 43.8868Z" fill="#D00033"/>
<path d="M86.3867 47.3175C86.3867 47.3175 85.5132 43.8217 85.5129 43.82L85.5119 43.8154C78.3778 50.9495 66.7904 50.9561 59.6494 43.8154V81.5623C77.5828 81.5626 90.7353 64.7259 86.3867 47.3175Z" fill="#94001C"/>
<path d="M130.351 107.922C127.632 107.922 125.429 105.718 125.429 103V76.6406C125.429 73.9224 127.632 71.7188 130.351 71.7188C133.069 71.7188 135.272 73.9224 135.272 76.6406V103C135.272 105.718 133.069 107.922 130.351 107.922Z" fill="#D4D0D8"/>
<path d="M126.872 48.4942C122.395 44.0169 116.103 45.2067 112.827 48.4052C111.783 49.4989 110.256 50.0912 108.662 49.8946C105.636 49.5219 103.735 46.7315 104.471 43.887L109.76 22.7282C110.308 20.5373 112.277 19 114.535 19H146.167C148.425 19 150.394 20.5373 150.941 22.7282L156.213 43.8158C156.308 44.1931 156.855 46.5536 154.915 48.4942C147.166 56.2353 134.631 56.2448 126.872 48.4942Z" fill="#F2F1F0"/>
<path d="M154.914 48.4942C156.855 46.5533 156.308 44.1931 156.213 43.8158L150.941 22.7282C150.393 20.5373 148.425 19 146.166 19H130.351V51.2645C138.016 56.088 148.24 55.1623 154.914 48.4942Z" fill="#E3E1E4"/>
<path d="M104.471 43.8868C111.612 36.7461 123.217 36.6815 130.351 43.8156C137.492 50.9563 149.08 50.9497 156.214 43.8156L156.215 43.8202C156.215 43.8215 157.088 47.3177 157.088 47.3177C161.437 64.7263 148.284 81.5628 130.351 81.5628C112.412 81.5628 99.2606 64.7188 103.614 47.3183L104.471 43.8868Z" fill="#D00033"/>
<path d="M157.088 47.3175C157.088 47.3175 156.214 43.8217 156.214 43.82L156.213 43.8154C149.079 50.9495 137.492 50.9561 130.351 43.8154V81.5623C148.284 81.5626 161.436 64.7259 157.088 47.3175Z" fill="#94001C"/>
<path d="M174.078 107.922H15.9219C13.2037 107.922 11 105.718 11 103C11 100.282 13.2037 98.0781 15.9219 98.0781H174.078C176.796 98.0781 179 100.282 179 103C179 105.718 176.796 107.922 174.078 107.922Z" fill="#2D3237"/>
<path d="M72.1205 162.782L40.4892 131.151C38.5671 129.229 35.4509 129.229 33.5287 131.151L17.7131 146.967C15.7909 148.889 15.7909 152.005 17.7131 153.927L49.344 185.558C51.2662 187.48 54.3824 187.48 56.3045 185.558L72.1202 169.743C74.0427 167.821 74.0426 164.705 72.1205 162.782Z" fill="#F2F1F0"/>
<path d="M56.3054 185.559L72.1211 169.743C74.0432 167.821 74.0432 164.705 72.1211 162.782L56.3054 146.967L33.5293 169.743L49.3449 185.559C51.2671 187.48 54.3833 187.48 56.3054 185.559Z" fill="#E3E1E4"/>
<path d="M59.6494 107.922H174.078C176.796 107.922 179 105.718 179 103C179 100.282 176.796 98.0781 174.078 98.0781H59.6494V107.922Z" fill="#1E1E1E"/>
</g>
<defs>
<clipPath id="clip0_5399:9875">
<rect width="168" height="168" fill="white" transform="translate(11 19)"/>
</clipPath>
</defs>
</svg>
