<svg width="188" height="188" viewBox="0 0 188 188" fill="none" xmlns="http://www.w3.org/2000/svg">
<circle cx="94" cy="94" r="94" fill="#F3C76F"/>
<g clip-path="url(#clip0_5405:10366)">
<path d="M127.201 30.9635V175.037C127.201 180.037 123.145 184.093 118.144 184.093H38.2721C33.2714 184.093 29.2158 180.037 29.2158 175.037V30.9635C29.2158 25.9629 33.2714 21.9072 38.2721 21.9072H118.144C123.145 21.9072 127.201 25.9629 127.201 30.9635Z" fill="#F2F1F0"/>
<path d="M127.2 30.9635V175.037C127.2 180.037 123.145 184.093 118.144 184.093H78.208V21.9072H118.144C123.145 21.9072 127.2 25.9629 127.2 30.9635Z" fill="#E3E1E4"/>
<path d="M91.2781 162.391C91.2781 165.108 89.0731 167.312 86.3562 167.312H70.0615C67.3446 167.312 65.1396 165.108 65.1396 162.391C65.1396 159.674 67.3446 157.469 70.0615 157.469H86.3562C89.0731 157.469 91.2781 159.674 91.2781 162.391Z" fill="#E8C98C"/>
<path d="M123.664 19H32.7533C27.687 19 23.5625 23.1245 23.5625 28.1941V177.806C23.5625 182.875 27.687 187 32.7533 187H123.664C128.73 187 132.854 182.875 132.854 177.806V28.1941C132.854 23.1245 128.73 19 123.664 19V19ZM123.011 177.156H33.4062V28.8438H43.3616C44.3656 38.0542 52.1881 45.25 61.6644 45.25H94.7525C104.229 45.25 112.051 38.0542 113.055 28.8438H123.011V177.156Z" fill="#665F55"/>
<path d="M86.3554 167.312H78.208V157.469H86.3554C89.0722 157.469 91.2772 159.674 91.2772 162.391C91.2772 165.108 89.0722 167.312 86.3554 167.312Z" fill="#F3C76F"/>
<path d="M132.854 28.1941V177.806C132.854 182.875 128.729 187 123.663 187H78.208V177.156H123.01V28.8438H113.055C112.051 38.0542 104.228 45.25 94.7521 45.25H78.208V19H123.663C128.729 19 132.854 23.1245 132.854 28.1941Z" fill="#474032"/>
<path d="M178.437 77.7803V128.22C178.437 138.92 169.732 147.625 159.032 147.625H102.663C91.9633 147.625 83.2581 138.92 83.2581 128.22V127.997C83.2581 125.109 81.6831 122.458 79.1467 121.073L56.9097 108.946C55.3281 108.083 54.3438 106.426 54.3438 104.624C54.3438 102.823 55.3281 101.166 56.9064 100.303L79.15 88.1589C81.6831 86.7775 83.2581 84.1262 83.2581 81.2387V77.7803C83.2581 67.0802 91.9633 58.375 102.663 58.375H159.032C169.732 58.375 178.437 67.0802 178.437 77.7803Z" fill="#665F55"/>
<path d="M178.438 77.7803V128.22C178.438 138.92 169.733 147.625 159.033 147.625H130.535V58.375H159.033C169.733 58.375 178.438 67.0802 178.438 77.7803Z" fill="#474032"/>
<path d="M135.458 92.4637C135.458 95.1806 133.253 97.3856 130.536 97.3856C127.82 97.3856 125.615 95.1838 125.615 92.4637L125.611 84.3853C125.611 81.672 127.808 79.4634 130.536 79.4634C133.257 79.4667 135.455 81.6651 135.455 84.3853L135.458 92.4637Z" fill="#FEF1D7"/>
<path d="M130.536 97.3856V79.4634C133.256 79.4667 135.455 81.6651 135.455 84.3853L135.458 92.4637C135.458 95.1806 133.253 97.3856 130.536 97.3856Z" fill="#FCEDB9"/>
<path d="M155.48 112.486V118.333C155.48 121.273 149.889 123.255 149.889 123.255H110.511C110.511 123.255 105.589 121.053 105.589 118.333V112.486C105.589 98.7278 116.788 87.542 130.536 87.542C144.291 87.542 155.48 98.7343 155.48 112.486Z" fill="#FEFCED"/>
<path d="M155.48 112.486V118.333C155.48 121.273 149.889 123.255 149.889 123.255H130.536V87.542C144.291 87.542 155.48 98.7343 155.48 112.486Z" fill="#FEF5D7"/>
<path d="M160.605 121.615C160.605 124.335 158.4 126.537 155.683 126.537H105.385C102.668 126.537 100.463 124.335 100.463 121.615C100.463 118.898 102.668 116.693 105.385 116.693H155.683C158.4 116.693 160.605 118.898 160.605 121.615Z" fill="#FEF3D7"/>
<path d="M160.605 121.615C160.605 124.335 158.4 126.537 155.684 126.537H130.536V116.693H155.684C158.4 116.693 160.605 118.898 160.605 121.615Z" fill="#FCE9B9"/>
</g>
<defs>
<clipPath id="clip0_5405:10366">
<rect width="168" height="168" fill="white" transform="translate(17 19)"/>
</clipPath>
</defs>
</svg>
