<svg width="24" height="24" viewBox="0 0 24 24" fill="none" xmlns="http://www.w3.org/2000/svg">
<path d="M12 24C5.383 24 0 18.617 0 12C0 5.383 5.383 0 12 0C18.617 0 24 5.383 24 12C24 18.617 18.617 24 12 24ZM12 1C5.935 1 1 5.935 1 12C1 18.065 5.935 23 12 23C18.065 23 23 18.065 23 12C23 5.935 18.065 1 12 1Z" fill="#EEECE8"/>
<path d="M12 19C11.173 19 10.5 18.327 10.5 17.5C10.5 16.673 11.173 16 12 16C12.827 16 13.5 16.673 13.5 17.5C13.5 18.327 12.827 19 12 19ZM12 17C11.725 17 11.5 17.224 11.5 17.5C11.5 17.776 11.725 18 12 18C12.275 18 12.5 17.776 12.5 17.5C12.5 17.224 12.275 17 12 17Z" fill="#EEECE8"/>
<path d="M12 14.5C11.724 14.5 11.5 14.276 11.5 14V12.77C11.5 11.893 12.062 11.126 12.9 10.862C14.156 10.468 15 9.31799 15 7.99999C15 6.346 13.654 5 12 5C10.346 5 9 6.346 9 7.99999C9 8.27599 8.776 8.49999 8.5 8.49999C8.224 8.49999 8 8.27599 8 7.99999C8 5.794 9.794 4 12 4C14.206 4 16 5.794 16 7.99999C16 9.75699 14.875 11.291 13.2 11.816C12.781 11.948 12.5 12.331 12.5 12.77V14C12.5 14.276 12.276 14.5 12 14.5Z" fill="#EEECE8"/>
</svg>
