<svg width="299" height="299" viewBox="0 0 299 299" fill="none" xmlns="http://www.w3.org/2000/svg">
<path d="M30.7896 152.594H268.955V256.145H30.7896V152.594Z" fill="#90A4AE"/>
<path d="M30.7893 152.594H268.955V176.958H30.7893V152.594Z" fill="#607D8B"/>
<path d="M30.7893 152.594H50.3557V256.144H30.7893V152.594Z" fill="#607D8B"/>
<path d="M249.449 4.4447H50.2956C39.5228 4.4447 30.7893 13.1776 30.7893 23.951V125.826H268.955V23.951C268.955 13.1782 260.222 4.4447 249.449 4.4447Z" fill="#607D8B"/>
<path d="M268.955 130.271H30.7893C28.3342 130.271 26.344 128.281 26.344 125.826V23.951C26.3446 10.7442 37.0888 0 50.2956 0H249.449C262.656 0 273.4 10.7442 273.4 23.951V125.826C273.4 128.281 271.411 130.271 268.955 130.271ZM35.2346 121.381H264.51V23.951C264.51 15.6462 257.754 8.89003 249.449 8.89003H50.2956C41.9908 8.89003 35.2346 15.6462 35.2346 23.951V121.381Z" fill="#F3C76F"/>
<path d="M268.955 244.529H30.7894C22.0139 244.529 14.8992 251.643 14.8992 260.419V283.107C14.8992 291.883 22.0133 298.998 30.7894 298.998H268.955C277.731 298.998 284.845 291.883 284.845 283.107V260.419C284.845 251.643 277.731 244.529 268.955 244.529Z" fill="#E7A52E"/>
<path d="M61.0344 299H30.7922C22.0149 299 14.8997 291.885 14.8997 283.107V260.42C14.8997 251.647 22.0149 244.532 30.7922 244.532H61.0344C52.2624 244.532 45.1471 251.647 45.1471 260.42V283.107C45.1477 291.885 52.263 299 61.0344 299Z" fill="#EAB14D"/>
<path d="M144.466 218.705C139.778 218.705 135.089 217.251 131.089 214.345L103.858 194.561C95.8573 188.748 92.535 178.523 95.591 169.117L105.992 137.106C109.048 127.7 117.747 121.381 127.637 121.381H161.295C171.185 121.381 179.883 127.7 182.939 137.106L193.341 169.117C196.397 178.523 193.074 188.748 185.073 194.561L157.843 214.345C153.842 217.252 149.154 218.705 144.466 218.705ZM155.23 210.749H155.236H155.23ZM127.637 130.271C121.61 130.271 116.31 134.122 114.447 139.854L104.046 171.865C102.184 177.596 104.208 183.826 109.083 187.369L136.314 207.154C141.19 210.696 147.741 210.696 152.617 207.153L179.848 187.369C184.723 183.827 186.747 177.596 184.885 171.865L174.484 139.854C172.621 134.122 167.321 130.272 161.294 130.272H127.637V130.271Z" fill="#454045"/>
<path d="M246.645 113.957C245.76 113.957 244.87 114.022 243.984 114.147C244.875 111.898 245.315 109.519 245.315 107.151C245.315 101.839 243.105 96.5599 238.787 92.8013C235.186 89.6671 230.737 88.13 226.316 88.13C223.193 88.13 220.075 88.8956 217.279 90.4058C217.284 90.2049 217.29 90.004 217.29 89.8031C217.29 82.4052 212.944 75.3717 205.71 72.2976C203.282 71.2656 200.762 70.7768 198.28 70.7768C193.234 70.7768 188.357 72.7974 184.793 76.382C183.837 72.7536 181.822 69.5055 179.063 67.0399C176.304 64.5685 172.795 62.8796 168.841 62.3686C168.015 62.26 167.195 62.2109 166.381 62.2109C159.471 62.2109 153.226 65.9747 149.907 71.7755C146.583 65.9747 140.337 62.1946 133.422 62.1946C132.613 62.1946 131.798 62.2489 130.978 62.3523C127.029 62.8574 123.515 64.541 120.751 67.0072C117.986 69.4734 115.971 72.7209 115.01 76.3493C111.441 72.7589 106.563 70.7331 101.512 70.7331C99.041 70.7331 96.5264 71.2166 94.104 72.2432C86.8585 75.3121 82.5025 82.3567 82.5025 89.7599C82.5025 89.9556 82.5078 90.1454 82.5136 90.341C79.7111 88.8255 76.5879 88.0541 73.4595 88.0541C69.0434 88.0541 64.6063 89.5859 61.0048 92.7091C56.6757 96.4676 54.4543 101.758 54.4543 107.075C54.4543 109.443 54.894 111.811 55.7793 114.055C47.9148 112.92 39.8651 116.836 36.0955 124.331L94.3376 124.364L263.653 124.451C260.317 117.802 253.608 113.957 246.645 113.957Z" fill="#F3C76F"/>
<path d="M149.905 71.776C149.905 71.776 128.521 71.0372 131.867 91.9159C131.867 91.9159 112.335 90.759 114.041 109.742C114.931 119.622 104.519 123.201 94.3352 124.363L36.0933 124.33C39.8629 116.835 47.9119 112.919 55.777 114.054C54.8917 111.811 54.452 109.443 54.452 107.074C54.452 101.757 56.6735 96.4669 61.0025 92.7083C64.6034 89.5852 69.0411 88.0534 73.4572 88.0534C76.5856 88.0534 79.7087 88.8248 82.5113 90.3403C82.506 90.1446 82.5002 89.9548 82.5002 89.7592C82.5002 82.356 86.8561 75.3114 94.1016 72.2426C96.524 71.2159 99.0386 70.7324 101.51 70.7324C106.561 70.7324 111.439 72.7582 115.007 76.3486C115.968 72.7203 117.984 69.4722 120.748 67.0066C123.513 64.541 127.027 62.8568 130.976 62.3516C131.795 62.2483 132.611 62.194 133.42 62.194C140.334 62.1946 146.581 65.9753 149.905 71.776Z" fill="#EAB14D"/>
<path d="M268.955 109.742H30.7894C22.0139 109.742 14.8992 116.856 14.8992 125.632V148.32C14.8992 157.095 22.0133 164.21 30.7894 164.21H268.955C277.731 164.21 284.845 157.096 284.845 148.32V125.632C284.845 116.856 277.731 109.742 268.955 109.742Z" fill="#E7A52E"/>
<path d="M61.0344 164.212H30.7922C22.0149 164.212 14.8997 157.096 14.8997 148.319V125.631C14.8997 116.859 22.0149 109.744 30.7922 109.744H61.0344C52.2624 109.744 45.1471 116.859 45.1471 125.631V148.319C45.1477 157.096 52.263 164.212 61.0344 164.212Z" fill="#EAB14D"/>
<path d="M160.636 210.749L187.866 190.965C194.285 186.302 196.971 178.036 194.519 170.491L184.118 138.48C181.666 130.935 174.635 125.826 166.702 125.826H133.043C125.11 125.826 118.079 130.935 115.627 138.48L105.226 170.491C102.774 178.036 105.46 186.301 111.878 190.965L139.108 210.749C145.527 215.413 154.218 215.413 160.636 210.749Z" fill="#EEECE8"/>
<path d="M149.872 218.705C145.184 218.705 140.496 217.251 136.496 214.345L109.265 194.561C101.264 188.748 97.9415 178.523 100.997 169.117L111.399 137.106C114.455 127.7 123.153 121.381 133.043 121.381H166.702C176.591 121.381 185.29 127.7 188.346 137.106L198.747 169.117C201.803 178.523 198.48 188.748 190.48 194.561L163.249 214.345C159.249 217.252 154.561 218.705 149.872 218.705ZM160.636 210.749H160.642H160.636ZM133.043 130.271C127.017 130.271 121.716 134.122 119.854 139.854L109.452 171.865C107.59 177.596 109.614 183.826 114.49 187.369L141.72 207.154C146.597 210.696 153.147 210.696 158.024 207.153L185.254 187.369C190.129 183.827 192.154 177.596 190.292 171.865L179.89 139.854C178.028 134.122 172.727 130.272 166.701 130.272H133.043V130.271Z" fill="#F3C76F"/>
<path d="M166.219 186.174L156.308 169.008C160.646 166.498 163.566 161.811 163.566 156.439C163.566 148.423 157.068 141.925 149.052 141.925C141.036 141.925 134.538 148.423 134.538 156.439C134.538 161.811 137.458 166.498 141.795 169.008L131.885 186.174H166.219Z" fill="#6F6571"/>
<path d="M219.851 54.7089C218.714 54.7089 217.576 54.275 216.708 53.4072C214.972 51.6716 214.972 48.8574 216.707 47.1212L232.718 31.1095C234.455 29.3739 237.269 29.3734 239.004 31.1095C240.741 32.8451 240.741 35.6594 239.005 37.3955L222.995 53.4066C222.126 54.2744 220.989 54.7089 219.851 54.7089Z" fill="#FBF4AF"/>
<path d="M219.851 54.7089C218.714 54.7089 217.576 54.275 216.708 53.4072C214.972 51.6716 214.972 48.8574 216.707 47.1212L232.718 31.1095C234.455 29.3739 237.269 29.3734 239.004 31.1095C240.741 32.8451 240.741 35.6594 239.005 37.3955L222.995 53.4066C222.126 54.2744 220.989 54.7089 219.851 54.7089Z" fill="#F3C76F"/>
<path d="M199.184 37.1327C198.408 37.1327 197.622 36.9295 196.908 36.5026C194.801 35.2429 194.114 32.514 195.373 30.4064L202.534 18.4265C203.794 16.3195 206.525 15.6327 208.63 16.8918C210.737 18.1515 211.424 20.8804 210.165 22.988L203.004 34.9679C202.172 36.3601 200.697 37.1327 199.184 37.1327Z" fill="#F3C76F"/>
<path d="M237.431 75.371C235.918 75.371 234.443 74.5978 233.61 73.2045C232.352 71.0969 233.04 68.3679 235.147 67.1088L247.13 59.9521C249.238 58.6936 251.967 59.3815 253.226 61.4891C254.484 63.5967 253.796 66.3257 251.689 67.5848L239.706 74.7415C238.992 75.1684 238.206 75.371 237.431 75.371Z" fill="#F3C76F"/>
<path d="M61.9464 75.371C63.4595 75.371 64.934 74.5978 65.7668 73.2045C67.0253 71.0969 66.3368 68.3679 64.2297 67.1088L52.247 59.9521C50.1388 58.6936 47.4104 59.3815 46.1513 61.4891C44.8928 63.5967 45.5814 66.3257 47.6884 67.5848L59.6712 74.7415C60.3854 75.1684 61.1708 75.371 61.9464 75.371Z" fill="#F3C76F"/>
<path d="M79.9161 54.709C78.7791 54.709 77.6409 54.2751 76.7725 53.4073L60.7614 37.3962C59.0258 35.6606 59.0258 32.8458 60.7614 31.1102C62.4976 29.3746 65.3118 29.3746 67.048 31.1102L83.0591 47.1213C84.7947 48.8569 84.7947 51.6717 83.0591 53.4073C82.1913 54.2745 81.0531 54.709 79.9161 54.709Z" fill="#FBF4AF"/>
<path d="M79.9161 54.709C78.7791 54.709 77.6409 54.2751 76.7725 53.4073L60.7614 37.3962C59.0258 35.6606 59.0258 32.8458 60.7614 31.1102C62.4976 29.3746 65.3118 29.3746 67.048 31.1102L83.0591 47.1213C84.7947 48.8569 84.7947 51.6717 83.0591 53.4073C82.1913 54.2745 81.0531 54.709 79.9161 54.709Z" fill="#F3C76F"/>
<path d="M100.582 37.1327C99.0697 37.1327 97.5951 36.3607 96.763 34.9679L89.6016 22.988C88.3419 20.881 89.0293 18.1515 91.1357 16.8918C93.2445 15.6328 95.9728 16.3189 97.2319 18.4265L104.393 30.4064C105.653 32.5134 104.966 35.243 102.859 36.5026C102.144 36.9295 101.358 37.1327 100.582 37.1327Z" fill="#F3C76F"/>
</svg>
