<svg width="40" height="40" viewBox="0 0 40 40" fill="none" xmlns="http://www.w3.org/2000/svg">
<path d="M6.66686 15H33.3335C33.7937 15 34.1669 15.3731 34.1669 15.8334V35.8334C34.1669 36.2936 33.7937 36.6667 33.3335 36.6667H6.66686C6.20662 36.6667 5.8335 36.2936 5.8335 35.8334V15.8334C5.83357 15.3731 6.20662 15 6.66686 15Z" fill="#607D8B"/>
<path d="M9.99986 21.667H18.3332C18.7935 21.667 19.1666 22.0401 19.1666 22.5004V30.8337C19.1666 31.2939 18.7935 31.6671 18.3332 31.6671H9.99986C9.53963 31.6671 9.1665 31.2939 9.1665 30.8337V22.5004C9.1665 22.0401 9.53963 21.667 9.99986 21.667Z" fill="#EEECE8"/>
<path d="M21.6664 21.667H29.9997C30.46 21.667 30.8331 22.0401 30.8331 22.5004V35.8337C30.8331 36.2939 30.46 36.6671 29.9997 36.6671H21.6664C21.2061 36.6671 20.833 36.2939 20.833 35.8337V22.5004C20.8331 22.0401 21.2061 21.667 21.6664 21.667Z" fill="#F3C76F"/>
<path d="M35.0001 35H5.00014C2.69896 35 0.833496 36.8655 0.833496 39.1666C0.833496 39.6269 1.20662 40 1.66686 40H38.3335C38.7937 40 39.1669 39.6269 39.1669 39.1666C39.1668 36.8655 37.3013 35 35.0001 35Z" fill="#455A64"/>
<path d="M28.3334 0H11.6666C9.36547 0 7.5 1.86547 7.5 4.16664V7.5C7.5 7.96023 7.87313 8.33336 8.33336 8.33336H31.6667C32.127 8.33336 32.5001 7.96023 32.5001 7.5V4.16664C32.5 1.86547 30.6345 0 28.3334 0Z" fill="#455A64"/>
<path d="M12.3117 6.97199C12.1533 6.77879 11.9166 6.66684 11.6667 6.66699H8.33336C8.04039 6.66691 7.76891 6.82066 7.61836 7.07199L2.61836 15.4054C2.54086 15.5348 2.5 15.6829 2.5 15.8337C2.50008 18.1349 4.36555 20.0004 6.66672 20.0004C8.90875 20.0203 10.7541 18.2416 10.8167 16.0004L12.4834 7.66699C12.5337 7.42129 12.4706 7.16605 12.3117 6.97199Z" fill="#607D8B"/>
<path d="M16.6665 6.66699H11.6665C11.2704 6.66691 10.9291 6.94559 10.8499 7.33363L9.1665 15.8336C9.1665 18.1348 11.032 20.0003 13.3331 20.0003C15.6343 20.0003 17.4999 18.1349 17.4999 15.8337V7.50035C17.4999 7.04012 17.1267 6.66699 16.6665 6.66699Z" fill="#455A64"/>
<path d="M37.3814 15.4054L32.3814 7.07199C32.2308 6.82066 31.9594 6.66691 31.6664 6.66699H28.333C27.8728 6.66691 27.4996 7.03988 27.4995 7.50012C27.4995 7.55613 27.5051 7.61207 27.5163 7.66699L29.1663 15.8336C29.1663 18.1348 31.0318 20.0003 33.3329 20.0003C35.6341 20.0003 37.4997 18.1349 37.4997 15.8337C37.4998 15.6829 37.4589 15.5348 37.3814 15.4054Z" fill="#607D8B"/>
<path d="M29.15 7.33363C29.0707 6.94559 28.7293 6.66691 28.3333 6.66699H23.3333C22.8731 6.66691 22.5 7.04004 22.5 7.50027V15.8336C22.408 18.133 24.1975 20.0715 26.4968 20.1635C28.7962 20.2554 30.7347 18.466 30.8267 16.1666C30.8333 16 30.83 15.8332 30.8167 15.667L29.15 7.33363Z" fill="#455A64"/>
<path d="M23.3335 6.66699H16.6669C16.2066 6.66699 15.8335 7.04012 15.8335 7.50035V15.8337C15.8335 18.1349 17.699 20.0004 20.0001 20.0004C22.3013 20.0004 24.1668 18.1349 24.1668 15.8337V7.50035C24.1668 7.04012 23.7937 6.66699 23.3335 6.66699Z" fill="#607D8B"/>
</svg>
