<svg width="40" height="40" viewBox="0 0 40 40" fill="none" xmlns="http://www.w3.org/2000/svg">
<g clip-path="url(#clip0_4482:10276)">
<path d="M23.1286 14.4611C22.9705 14.2782 22.7407 14.173 22.4989 14.1729H17.5013C17.0413 14.1684 16.6647 14.5376 16.6602 14.9976C16.6598 15.0394 16.6625 15.0811 16.6684 15.1224L18.3343 26.7836C18.3927 27.1977 18.7491 27.5041 19.1672 27.5H20.8331C21.2512 27.5041 21.6075 27.1976 21.666 26.7836L23.3319 15.1224C23.3632 14.883 23.289 14.6417 23.1286 14.4611Z" fill="#EEECE8"/>
<path d="M24.1646 25.834H15.8351C13.535 25.834 11.6704 27.6986 11.6704 29.9987C11.6704 30.4587 12.0434 30.8316 12.5034 30.8316H27.4964C27.9564 30.8316 28.3293 30.4587 28.3293 29.9987C28.3293 27.6986 26.4647 25.834 24.1646 25.834Z" fill="#455A64"/>
<path d="M7.50582 10.8408H32.4942C32.9542 10.8408 33.3271 11.2138 33.3271 11.6738V15.0056C33.3271 15.4656 32.9542 15.8386 32.4942 15.8386H7.50582C7.0458 15.8386 6.67285 15.4656 6.67285 15.0056V11.6738C6.67293 11.2138 7.0458 10.8408 7.50582 10.8408Z" fill="#F3C76F"/>
<path d="M0.841814 30.8319C0.785825 30.8322 0.729991 30.8266 0.675251 30.8152C0.224524 30.7233 -0.0664338 30.2834 0.0254764 29.8327C0.0254764 29.8326 0.0255545 29.8325 0.0255545 29.8324L1.66315 21.6429L0.00884355 10.1249C-0.0594058 9.66995 0.254042 9.24585 0.708985 9.1776C0.714374 9.17682 0.719762 9.17604 0.72515 9.17534C1.18415 9.11482 1.60685 9.43373 1.67471 9.89164L3.34057 21.5528C3.35603 21.6455 3.35603 21.7401 3.34057 21.8327L1.67478 30.1622C1.59584 30.5576 1.24499 30.8397 0.841814 30.8319Z" fill="#607D8B"/>
<path d="M9.17138 30.8314C8.71136 30.8314 8.33841 30.4584 8.33841 29.9984V22.5019H2.50778C2.04776 22.5019 1.6748 22.1289 1.6748 21.6689C1.6748 21.2089 2.04776 20.8359 2.50778 20.8359H9.1713C9.63132 20.8359 10.0043 21.2089 10.0043 21.6689V29.9984C10.0043 30.4584 9.6314 30.8314 9.17138 30.8314Z" fill="#607D8B"/>
<path d="M30.8281 30.8313C30.3681 30.8313 29.9951 30.4583 29.9951 29.9983V21.6689C29.9951 21.2089 30.3681 20.8359 30.8281 20.8359H37.4916C37.9516 20.8359 38.3246 21.2089 38.3246 21.6689C38.3246 22.1289 37.9516 22.5019 37.4916 22.5019H31.661V29.9984C31.6611 30.4583 31.2881 30.8313 30.8281 30.8313Z" fill="#607D8B"/>
<path d="M39.1576 30.8313C38.7623 30.8306 38.422 30.5522 38.343 30.1649L36.6771 21.8355C36.6617 21.7429 36.6617 21.6482 36.6771 21.5556L38.343 9.8944C38.406 9.44118 38.8197 9.12148 39.2742 9.17474C39.7304 9.23409 40.0521 9.65194 39.9928 10.1081C39.9921 10.1135 39.9913 10.1189 39.9905 10.1243L38.3446 21.6456L39.9739 29.8317C40.0637 30.2829 39.7707 30.7215 39.3195 30.8112C39.3194 30.8112 39.3192 30.8113 39.3192 30.8113C39.2661 30.8235 39.212 30.8302 39.1576 30.8313Z" fill="#607D8B"/>
</g>
<defs>
<clipPath id="clip0_4482:10276">
<rect width="40" height="40" fill="white"/>
</clipPath>
</defs>
</svg>
