<svg width="40" height="40" viewBox="0 0 40 40" fill="none" xmlns="http://www.w3.org/2000/svg">
<path d="M9.06309 20.0003V13.7503C9.06278 13.6665 9.02434 13.5828 8.95247 13.5284C8.82997 13.4362 8.65591 13.4609 8.56372 13.5834L8.43809 13.7503C8.0459 14.2712 7.96309 14.7919 7.94122 15.3128C7.91309 15.8337 7.97965 16.3544 8.06153 16.8753C8.21028 17.9169 8.28903 18.9587 8.43809 20.0003L7.81309 26.8753C7.81247 26.8937 7.81215 26.9134 7.81309 26.9322C7.82872 27.2772 8.12122 27.5447 8.46653 27.5287C8.81153 27.5131 9.07872 27.2212 9.06309 26.8753V20.0003Z" fill="#233540"/>
<path d="M20.6254 37.8121L38.4375 20L20.6254 2.18787L2.81325 20L20.6254 37.8121Z" fill="#233540"/>
<path d="M20.0004 37.8131L37.8125 20.001L20.0004 2.18885L2.18825 20.001L20.0004 37.8131Z" fill="#90A4AE"/>
<path d="M19.9971 2.6298L2.62695 20L19.9971 37.3702L37.3673 20L19.9971 2.6298Z" fill="#6D8089"/>
<path d="M34.6073 27.3349L33.6415 17.1152H32.3077L31.1642 27.3048C31.1573 27.3683 31.1538 27.4341 31.1538 27.4998C31.1538 28.4552 31.9292 29.2306 32.8846 29.2306C33.84 29.2306 34.6153 28.4552 34.6153 27.4998C34.6153 27.4445 34.613 27.3891 34.6073 27.3349Z" fill="#F3C76F"/>
<path d="M32.8846 17.6926C34.4777 17.6926 35.7692 16.1428 35.7692 14.2311C35.7692 12.3193 34.4777 10.7695 32.8846 10.7695C31.2915 10.7695 30 12.3193 30 14.2311C30 16.1428 31.2915 17.6926 32.8846 17.6926Z" fill="#F3C76F"/>
<path d="M20 29.375C25.1777 29.375 29.375 25.1777 29.375 20C29.375 14.8223 25.1777 10.625 20 10.625C14.8223 10.625 10.625 14.8223 10.625 20C10.625 25.1777 14.8223 29.375 20 29.375Z" fill="#90A4AE"/>
<path d="M20 26.25C23.4518 26.25 26.25 23.4518 26.25 20C26.25 16.5482 23.4518 13.75 20 13.75C16.5482 13.75 13.75 16.5482 13.75 20C13.75 23.4518 16.5482 26.25 20 26.25Z" fill="#EEECE8"/>
<path d="M8.83823 27.3349L7.87246 17.1152H6.53861L5.39515 27.3048C5.38823 27.3683 5.38477 27.4341 5.38477 27.4998C5.38477 28.4552 6.16015 29.2306 7.11553 29.2306C8.07092 29.2306 8.8463 28.4552 8.8463 27.4998C8.8463 27.4445 8.844 27.3891 8.83823 27.3349Z" fill="#F3C76F"/>
<path d="M6.53865 14.2311C6.53865 14.5495 6.28019 14.808 5.96173 14.808C5.64326 14.808 5.3848 14.5495 5.3848 14.2311V11.3465C5.3848 11.028 5.12634 10.7695 4.80788 10.7695C4.48942 10.7695 4.23096 11.028 4.23096 11.3465V14.808C4.23096 16.398 5.52442 17.6926 7.11557 17.6926C8.70673 17.6926 10.0002 16.398 10.0002 14.808V11.3465C10.0002 11.028 9.74173 10.7695 9.42327 10.7695C9.1048 10.7695 8.84634 11.028 8.84634 11.3465V14.2311C8.84634 14.5495 8.58788 14.808 8.26942 14.808C7.95096 14.808 7.6925 14.5495 7.6925 14.2311V14.808V11.3465C7.6925 11.028 7.43403 10.7695 7.11557 10.7695C6.79711 10.7695 6.53865 11.028 6.53865 11.3465" fill="#F3C76F"/>
</svg>
