<svg width="40" height="40" viewBox="0 0 40 40" fill="none" xmlns="http://www.w3.org/2000/svg">
<g clip-path="url(#clip0_5653:13151)">
<g clip-path="url(#clip1_5653:13151)">
<path d="M23.1286 14.4611C22.9705 14.2782 22.7407 14.173 22.4989 14.1729H17.5013C17.0413 14.1684 16.6647 14.5376 16.6602 14.9976C16.6598 15.0394 16.6625 15.0811 16.6684 15.1224L18.3343 26.7836C18.3927 27.1977 18.7491 27.5041 19.1672 27.5H20.8331C21.2512 27.5041 21.6075 27.1976 21.666 26.7836L23.3319 15.1224C23.3632 14.883 23.289 14.6417 23.1286 14.4611Z" fill="#C0BFBD"/>
<path d="M24.1646 25.834H15.8351C13.535 25.834 11.6704 27.6986 11.6704 29.9987C11.6704 30.4587 12.0434 30.8317 12.5034 30.8317H27.4964C27.9564 30.8317 28.3293 30.4587 28.3293 29.9987C28.3293 27.6986 26.4647 25.834 24.1646 25.834Z" fill="#2B2F31"/>
<path d="M7.50582 10.8408H32.4942C32.9542 10.8408 33.3271 11.2138 33.3271 11.6738V15.0056C33.3271 15.4656 32.9542 15.8386 32.4942 15.8386H7.50582C7.0458 15.8386 6.67285 15.4656 6.67285 15.0056V11.6738C6.67293 11.2138 7.0458 10.8408 7.50582 10.8408Z" fill="#9D8B75"/>
<path d="M0.841814 30.8319C0.785825 30.8322 0.729991 30.8266 0.675251 30.8152C0.224524 30.7233 -0.0664338 30.2834 0.0254764 29.8327C0.0254764 29.8326 0.0255545 29.8325 0.0255545 29.8324L1.66315 21.6429L0.00884355 10.1249C-0.0594058 9.66995 0.254042 9.24585 0.708985 9.1776C0.714374 9.17682 0.719762 9.17604 0.72515 9.17534C1.18415 9.11482 1.60685 9.43373 1.67471 9.89164L3.34057 21.5528C3.35603 21.6455 3.35603 21.7401 3.34057 21.8327L1.67478 30.1622C1.59584 30.5576 1.24499 30.8397 0.841814 30.8319Z" fill="#3E4447"/>
<path d="M9.17138 30.8313C8.71136 30.8313 8.33841 30.4584 8.33841 29.9984V22.5019H2.50778C2.04776 22.5019 1.6748 22.1289 1.6748 21.6689C1.6748 21.2089 2.04776 20.8359 2.50778 20.8359H9.1713C9.63132 20.8359 10.0043 21.2089 10.0043 21.6689V29.9984C10.0043 30.4584 9.6314 30.8313 9.17138 30.8313Z" fill="#3E4447"/>
<path d="M30.8281 30.8313C30.3681 30.8313 29.9951 30.4583 29.9951 29.9983V21.6689C29.9951 21.2089 30.3681 20.8359 30.8281 20.8359H37.4916C37.9516 20.8359 38.3246 21.2089 38.3246 21.6689C38.3246 22.1289 37.9516 22.5019 37.4916 22.5019H31.661V29.9984C31.6611 30.4583 31.2881 30.8313 30.8281 30.8313Z" fill="#3E4447"/>
<path d="M39.1576 30.8313C38.7623 30.8306 38.422 30.5522 38.343 30.1649L36.6771 21.8355C36.6617 21.7429 36.6617 21.6482 36.6771 21.5556L38.343 9.8944C38.406 9.44118 38.8197 9.12148 39.2742 9.17474C39.7304 9.23409 40.0521 9.65194 39.9928 10.1081C39.992 10.1135 39.9913 10.1189 39.9905 10.1243L38.3446 21.6456L39.9739 29.8317C40.0637 30.2829 39.7707 30.7215 39.3195 30.8112C39.3194 30.8112 39.3192 30.8113 39.3192 30.8113C39.2661 30.8235 39.212 30.8302 39.1576 30.8313Z" fill="#3E4447"/>
</g>
<path d="M5.62012 7.75977C4.94954 7.75977 4.4222 7.9974 4.03809 8.47266C3.65397 8.94792 3.46191 9.60384 3.46191 10.4404C3.46191 11.3161 3.64583 11.9785 4.01367 12.4277C4.38477 12.877 4.92025 13.1016 5.62012 13.1016C5.92285 13.1016 6.21582 13.0723 6.49902 13.0137C6.78223 12.9518 7.07682 12.8737 7.38281 12.7793V13.7803C6.82292 13.9919 6.18815 14.0977 5.47852 14.0977C4.43359 14.0977 3.63118 13.7819 3.07129 13.1504C2.51139 12.5156 2.23145 11.609 2.23145 10.4307C2.23145 9.68848 2.36654 9.03906 2.63672 8.48242C2.91016 7.92578 3.30404 7.49935 3.81836 7.20312C4.33268 6.9069 4.93652 6.75879 5.62988 6.75879C6.35905 6.75879 7.03288 6.91178 7.65137 7.21777L7.23145 8.18945C6.99056 8.07552 6.73503 7.97624 6.46484 7.8916C6.19792 7.80371 5.91634 7.75977 5.62012 7.75977ZM13.5889 11.29C13.5889 12.1722 13.3626 12.8607 12.9102 13.3555C12.4577 13.8503 11.8278 14.0977 11.0205 14.0977C10.516 14.0977 10.07 13.9837 9.68262 13.7559C9.29525 13.528 8.9974 13.2008 8.78906 12.7744C8.58073 12.348 8.47656 11.8532 8.47656 11.29C8.47656 10.4144 8.70117 9.73079 9.15039 9.23926C9.59961 8.74772 10.2327 8.50195 11.0498 8.50195C11.8311 8.50195 12.4495 8.75423 12.9053 9.25879C13.361 9.76009 13.5889 10.4372 13.5889 11.29ZM9.6582 11.29C9.6582 12.5368 10.1188 13.1602 11.04 13.1602C11.9515 13.1602 12.4072 12.5368 12.4072 11.29C12.4072 10.0563 11.9482 9.43945 11.0303 9.43945C10.5485 9.43945 10.1986 9.59896 9.98047 9.91797C9.76562 10.237 9.6582 10.6943 9.6582 11.29ZM19.4629 14H18.3105V10.6699C18.3105 10.2565 18.2324 9.94889 18.0762 9.74707C17.9199 9.54199 17.6758 9.43945 17.3438 9.43945C16.901 9.43945 16.5755 9.58431 16.3672 9.87402C16.1621 10.1605 16.0596 10.639 16.0596 11.3096V14H14.9121V8.59961H15.8105L15.9717 9.30762H16.0303C16.18 9.05046 16.3965 8.85189 16.6797 8.71191C16.9661 8.57194 17.2803 8.50195 17.6221 8.50195C18.4521 8.50195 19.0023 8.78516 19.2725 9.35156H19.3506C19.5101 9.08464 19.7347 8.8763 20.0244 8.72656C20.3141 8.57682 20.6462 8.50195 21.0205 8.50195C21.665 8.50195 22.1338 8.66471 22.4268 8.99023C22.723 9.31576 22.8711 9.81217 22.8711 10.4795V14H21.7236V10.6699C21.7236 10.2565 21.6439 9.94889 21.4844 9.74707C21.3281 9.54199 21.084 9.43945 20.752 9.43945C20.306 9.43945 19.9788 9.57943 19.7705 9.85938C19.5654 10.1361 19.4629 10.5625 19.4629 11.1387V14ZM25.6201 14H24.4727V8.59961H25.6201V14ZM24.4043 7.16895C24.4043 6.96387 24.4596 6.80599 24.5703 6.69531C24.6842 6.58464 24.8454 6.5293 25.0537 6.5293C25.2555 6.5293 25.4118 6.58464 25.5225 6.69531C25.6364 6.80599 25.6934 6.96387 25.6934 7.16895C25.6934 7.36426 25.6364 7.51888 25.5225 7.63281C25.4118 7.74349 25.2555 7.79883 25.0537 7.79883C24.8454 7.79883 24.6842 7.74349 24.5703 7.63281C24.4596 7.51888 24.4043 7.36426 24.4043 7.16895ZM32.0166 14H30.8643V10.6797C30.8643 10.263 30.7796 9.95215 30.6104 9.74707C30.4443 9.54199 30.179 9.43945 29.8145 9.43945C29.3294 9.43945 28.9746 9.58268 28.75 9.86914C28.5254 10.1556 28.4131 10.6357 28.4131 11.3096V14H27.2656V8.59961H28.1641L28.3252 9.30762H28.3838C28.5465 9.05046 28.7777 8.85189 29.0771 8.71191C29.3766 8.57194 29.7087 8.50195 30.0732 8.50195C31.3688 8.50195 32.0166 9.16113 32.0166 10.4795V14ZM38.1738 8.59961V9.22949L37.251 9.40039C37.3356 9.51432 37.4056 9.6543 37.4609 9.82031C37.5163 9.98633 37.5439 10.1621 37.5439 10.3477C37.5439 10.9043 37.3519 11.3421 36.9678 11.6611C36.5837 11.9801 36.0547 12.1396 35.3809 12.1396C35.2083 12.1396 35.0521 12.1266 34.9121 12.1006C34.6647 12.2536 34.541 12.4326 34.541 12.6377C34.541 12.7614 34.598 12.8542 34.7119 12.916C34.8291 12.9779 35.0423 13.0088 35.3516 13.0088H36.2939C36.8896 13.0088 37.3421 13.1357 37.6514 13.3896C37.9606 13.6436 38.1152 14.0098 38.1152 14.4883C38.1152 15.1003 37.863 15.5723 37.3584 15.9043C36.8538 16.2363 36.1247 16.4023 35.1709 16.4023C34.4352 16.4023 33.8737 16.2721 33.4863 16.0117C33.099 15.7513 32.9053 15.3802 32.9053 14.8984C32.9053 14.5664 33.0094 14.2865 33.2178 14.0586C33.4294 13.834 33.724 13.6777 34.1016 13.5898C33.9486 13.5247 33.8216 13.4206 33.7207 13.2773C33.623 13.1309 33.5742 12.9779 33.5742 12.8184C33.5742 12.6165 33.6312 12.4456 33.7451 12.3057C33.859 12.1657 34.0283 12.0273 34.2529 11.8906C33.973 11.7702 33.7451 11.5749 33.5693 11.3047C33.3968 11.0312 33.3105 10.7122 33.3105 10.3477C33.3105 9.76172 33.4945 9.30762 33.8623 8.98535C34.2334 8.66309 34.7607 8.50195 35.4443 8.50195C35.5973 8.50195 35.7568 8.51335 35.9229 8.53613C36.0921 8.55566 36.2191 8.57682 36.3037 8.59961H38.1738ZM33.9307 14.8398C33.9307 15.0872 34.0413 15.2777 34.2627 15.4111C34.4873 15.5446 34.8014 15.6113 35.2051 15.6113C35.8301 15.6113 36.2956 15.5218 36.6016 15.3428C36.9076 15.1637 37.0605 14.9261 37.0605 14.6299C37.0605 14.3955 36.9759 14.2279 36.8066 14.127C36.6406 14.0293 36.3298 13.9805 35.874 13.9805H35.0049C34.6761 13.9805 34.4141 14.057 34.2188 14.21C34.0267 14.3662 33.9307 14.5762 33.9307 14.8398ZM34.4238 10.3477C34.4238 10.6862 34.5101 10.9466 34.6826 11.1289C34.8584 11.3112 35.109 11.4023 35.4346 11.4023C36.0986 11.4023 36.4307 11.0475 36.4307 10.3379C36.4307 9.98633 36.3477 9.71615 36.1816 9.52734C36.0189 9.33529 35.7699 9.23926 35.4346 9.23926C35.1025 9.23926 34.8503 9.33366 34.6777 9.52246C34.5085 9.71126 34.4238 9.98633 34.4238 10.3477ZM13.0225 26.0615C13.0225 26.6963 12.793 27.1943 12.334 27.5557C11.875 27.917 11.2419 28.0977 10.4346 28.0977C9.62728 28.0977 8.96647 27.9723 8.45215 27.7217V26.6182C8.77767 26.7712 9.12272 26.8916 9.4873 26.9795C9.85514 27.0674 10.1969 27.1113 10.5127 27.1113C10.9749 27.1113 11.3151 27.0234 11.5332 26.8477C11.7546 26.6719 11.8652 26.4359 11.8652 26.1396C11.8652 25.8727 11.7643 25.6465 11.5625 25.4609C11.3607 25.2754 10.944 25.0557 10.3125 24.8018C9.66146 24.5381 9.20247 24.237 8.93555 23.8984C8.66862 23.5599 8.53516 23.153 8.53516 22.6777C8.53516 22.082 8.74674 21.6133 9.16992 21.2715C9.5931 20.9297 10.1611 20.7588 10.874 20.7588C11.5576 20.7588 12.238 20.9085 12.915 21.208L12.5439 22.1602C11.9092 21.8932 11.3428 21.7598 10.8447 21.7598C10.4671 21.7598 10.1807 21.8428 9.98535 22.0088C9.79004 22.1715 9.69238 22.388 9.69238 22.6582C9.69238 22.8438 9.73145 23.0033 9.80957 23.1367C9.8877 23.2669 10.0163 23.3906 10.1953 23.5078C10.3743 23.625 10.6966 23.7796 11.1621 23.9717C11.6862 24.1898 12.0703 24.3932 12.3145 24.582C12.5586 24.7708 12.7376 24.984 12.8516 25.2217C12.9655 25.4593 13.0225 25.7393 13.0225 26.0615ZM19.0723 25.29C19.0723 26.1722 18.846 26.8607 18.3936 27.3555C17.9411 27.8503 17.3112 28.0977 16.5039 28.0977C15.9993 28.0977 15.5534 27.9837 15.166 27.7559C14.7786 27.528 14.4808 27.2008 14.2725 26.7744C14.0641 26.348 13.96 25.8532 13.96 25.29C13.96 24.4144 14.1846 23.7308 14.6338 23.2393C15.083 22.7477 15.7161 22.502 16.5332 22.502C17.3145 22.502 17.9329 22.7542 18.3887 23.2588C18.8444 23.7601 19.0723 24.4372 19.0723 25.29ZM15.1416 25.29C15.1416 26.5368 15.6022 27.1602 16.5234 27.1602C17.4349 27.1602 17.8906 26.5368 17.8906 25.29C17.8906 24.0563 17.4316 23.4395 16.5137 23.4395C16.0319 23.4395 15.682 23.599 15.4639 23.918C15.249 24.237 15.1416 24.6943 15.1416 25.29ZM25.1855 25.29C25.1855 26.1722 24.9593 26.8607 24.5068 27.3555C24.0544 27.8503 23.4245 28.0977 22.6172 28.0977C22.1126 28.0977 21.6667 27.9837 21.2793 27.7559C20.8919 27.528 20.5941 27.2008 20.3857 26.7744C20.1774 26.348 20.0732 25.8532 20.0732 25.29C20.0732 24.4144 20.2979 23.7308 20.7471 23.2393C21.1963 22.7477 21.8294 22.502 22.6465 22.502C23.4277 22.502 24.0462 22.7542 24.502 23.2588C24.9577 23.7601 25.1855 24.4372 25.1855 25.29ZM21.2549 25.29C21.2549 26.5368 21.7155 27.1602 22.6367 27.1602C23.5482 27.1602 24.0039 26.5368 24.0039 25.29C24.0039 24.0563 23.5449 23.4395 22.627 23.4395C22.1452 23.4395 21.7952 23.599 21.5771 23.918C21.3623 24.237 21.2549 24.6943 21.2549 25.29ZM31.2598 28H30.1074V24.6797C30.1074 24.263 30.0228 23.9521 29.8535 23.7471C29.6875 23.542 29.4222 23.4395 29.0576 23.4395C28.5726 23.4395 28.2178 23.5827 27.9932 23.8691C27.7686 24.1556 27.6562 24.6357 27.6562 25.3096V28H26.5088V22.5996H27.4072L27.5684 23.3076H27.627C27.7897 23.0505 28.0208 22.8519 28.3203 22.7119C28.6198 22.5719 28.9518 22.502 29.3164 22.502C30.612 22.502 31.2598 23.1611 31.2598 24.4795V28Z" fill="url(#paint0_linear_5653:13151)"/>
<path d="M4.01367 12.4277L3.78156 12.6178L3.78238 12.6188L4.01367 12.4277ZM6.49902 13.0137L6.55981 13.3075L6.56303 13.3068L6.49902 13.0137ZM7.38281 12.7793H7.68281V12.3728L7.29437 12.4926L7.38281 12.7793ZM7.38281 13.7803L7.48886 14.0609L7.68281 13.9876V13.7803H7.38281ZM3.07129 13.1504L2.8463 13.3488L2.84681 13.3494L3.07129 13.1504ZM2.63672 8.48242L2.36745 8.35015L2.36683 8.35142L2.63672 8.48242ZM7.65137 7.21777L7.92675 7.33678L8.03978 7.07523L7.7844 6.94888L7.65137 7.21777ZM7.23145 8.18945L7.10318 8.46065L7.38372 8.59334L7.50683 8.30846L7.23145 8.18945ZM6.46484 7.8916L6.37101 8.17658L6.37516 8.17788L6.46484 7.8916ZM5.62012 7.45977C4.86899 7.45977 4.25187 7.73089 3.80476 8.28408L4.27141 8.66123C4.59253 8.26391 5.0301 8.05977 5.62012 8.05977V7.45977ZM3.80476 8.28408C3.36398 8.82946 3.16191 9.56036 3.16191 10.4404H3.76191C3.76191 9.64733 3.94396 9.06638 4.27141 8.66123L3.80476 8.28408ZM3.16191 10.4404C3.16191 11.3516 3.35236 12.0936 3.78156 12.6178L4.24578 12.2377C3.9393 11.8634 3.76191 11.2805 3.76191 10.4404H3.16191ZM3.78238 12.6188C4.22202 13.151 4.85064 13.4016 5.62012 13.4016V12.8016C4.98985 12.8016 4.54751 12.6029 4.24496 12.2367L3.78238 12.6188ZM5.62012 13.4016C5.94232 13.4016 6.25569 13.3704 6.5598 13.3075L6.43824 12.7199C6.17595 12.7742 5.90338 12.8016 5.62012 12.8016V13.4016ZM6.56303 13.3068C6.85527 13.2429 7.15803 13.1626 7.47125 13.066L7.29437 12.4926C6.99561 12.5848 6.70919 12.6607 6.43501 12.7206L6.56303 13.3068ZM7.08281 12.7793V13.7803H7.68281V12.7793H7.08281ZM7.27676 13.4996C6.7564 13.6963 6.15849 13.7977 5.47852 13.7977V14.3977C6.21781 14.3977 6.88943 14.2874 7.48886 14.0609L7.27676 13.4996ZM5.47852 13.7977C4.49734 13.7977 3.78556 13.5038 3.29577 12.9514L2.84681 13.3494C3.47681 14.06 4.36985 14.3977 5.47852 14.3977V13.7977ZM3.29627 12.9519C2.80078 12.3902 2.53145 11.5646 2.53145 10.4307H1.93145C1.93145 11.6535 2.222 12.6411 2.8463 13.3488L3.29627 12.9519ZM2.53145 10.4307C2.53145 9.72491 2.65981 9.12189 2.90661 8.61342L2.36683 8.35142C2.07327 8.95624 1.93145 9.65204 1.93145 10.4307H2.53145ZM2.90599 8.61469C3.15439 8.10901 3.50781 7.72819 3.96809 7.46309L3.66863 6.94316C3.10027 7.27051 2.66592 7.74256 2.36745 8.35015L2.90599 8.61469ZM3.96809 7.46309C4.42972 7.19721 4.98016 7.05879 5.62988 7.05879V6.45879C4.89289 6.45879 4.23565 6.61659 3.66863 6.94316L3.96809 7.46309ZM5.62988 7.05879C6.31559 7.05879 6.94355 7.2023 7.51834 7.48667L7.7844 6.94888C7.12221 6.62127 6.40251 6.45879 5.62988 6.45879V7.05879ZM7.37598 7.09876L6.95606 8.07044L7.50683 8.30846L7.92675 7.33678L7.37598 7.09876ZM7.35971 7.91826C7.10558 7.79806 6.83709 7.69383 6.55452 7.60532L6.37516 8.17788C6.63297 8.25864 6.87554 8.35298 7.10318 8.46065L7.35971 7.91826ZM6.55867 7.60665C6.25986 7.50826 5.94648 7.45977 5.62012 7.45977V8.05977C5.8862 8.05977 6.13597 8.09916 6.37102 8.17655L6.55867 7.60665ZM12.9102 13.3555L12.6888 13.153L12.9102 13.3555ZM12.9053 9.25879L12.6826 9.45988L12.6833 9.46059L12.9053 9.25879ZM9.98047 9.91797L9.73281 9.74865L9.73164 9.75039L9.98047 9.91797ZM13.2889 11.29C13.2889 12.1215 13.0764 12.7291 12.6888 13.153L13.1315 13.5579C13.6489 12.9922 13.8889 12.2229 13.8889 11.29H13.2889ZM12.6888 13.153C12.3046 13.5731 11.7622 13.7977 11.0205 13.7977V14.3977C11.8934 14.3977 12.6108 14.1274 13.1315 13.5579L12.6888 13.153ZM11.0205 13.7977C10.5627 13.7977 10.1705 13.6948 9.83472 13.4973L9.53051 14.0144C9.96944 14.2726 10.4692 14.3977 11.0205 14.3977V13.7977ZM9.83472 13.4973C9.50102 13.301 9.24262 13.0194 9.05861 12.6427L8.51951 12.9061C8.75217 13.3823 9.08948 13.755 9.53051 14.0144L9.83472 13.4973ZM9.05861 12.6427C8.87372 12.2643 8.77656 11.816 8.77656 11.29H8.17656C8.17656 11.8904 8.28774 12.4317 8.51951 12.9061L9.05861 12.6427ZM8.77656 11.29C8.77656 10.4651 8.98738 9.86232 9.37184 9.44164L8.92894 9.03687C8.41496 9.59927 8.17656 10.3637 8.17656 11.29H8.77656ZM9.37184 9.44164C9.75166 9.02604 10.2964 8.80195 11.0498 8.80195V8.20195C10.1691 8.20195 9.44756 8.4694 8.92894 9.03687L9.37184 9.44164ZM11.0498 8.80195C11.7601 8.80195 12.2925 9.02795 12.6826 9.45988L13.1279 9.0577C12.6066 8.48051 11.902 8.20195 11.0498 8.20195V8.80195ZM12.6833 9.46059C13.0768 9.89343 13.2889 10.4917 13.2889 11.29H13.8889C13.8889 10.3826 13.6452 9.62675 13.1273 9.05699L12.6833 9.46059ZM9.3582 11.29C9.3582 11.9416 9.477 12.4847 9.76238 12.8709C10.0603 13.2741 10.5045 13.4602 11.04 13.4602V12.8602C10.6543 12.8602 10.4076 12.7345 10.2449 12.5143C10.0697 12.2772 9.9582 11.8853 9.9582 11.29H9.3582ZM11.04 13.4602C11.5719 13.4602 12.0126 13.2732 12.3076 12.8697C12.5898 12.4837 12.7072 11.9411 12.7072 11.29H12.1072C12.1072 11.8857 11.9968 12.2782 11.8232 12.5156C11.6625 12.7354 11.4196 12.8602 11.04 12.8602V13.4602ZM12.7072 11.29C12.7072 10.6447 12.5887 10.1061 12.3037 9.72302C12.0062 9.32328 11.5634 9.13945 11.0303 9.13945V9.73945C11.4152 9.73945 11.6607 9.86406 11.8223 10.0812C11.9962 10.3149 12.1072 10.7017 12.1072 11.29H12.7072ZM11.0303 9.13945C10.477 9.13945 10.0208 9.32745 9.73281 9.74865L10.2281 10.0873C10.3764 9.87047 10.62 9.73945 11.0303 9.73945V9.13945ZM9.73164 9.75039C9.46976 10.1392 9.3582 10.665 9.3582 11.29H9.9582C9.9582 10.7237 10.0615 10.3347 10.2293 10.0855L9.73164 9.75039ZM19.4629 14V14.3H19.7629V14H19.4629ZM18.3105 14H18.0105V14.3H18.3105V14ZM18.0762 9.74707L17.8375 9.92889L17.839 9.93072L18.0762 9.74707ZM16.3672 9.87402L16.1236 9.69888L16.1233 9.69939L16.3672 9.87402ZM16.0596 14V14.3H16.3596V14H16.0596ZM14.9121 14H14.6121V14.3H14.9121V14ZM14.9121 8.59961V8.29961H14.6121V8.59961H14.9121ZM15.8105 8.59961L16.1031 8.53304L16.0499 8.29961H15.8105V8.59961ZM15.9717 9.30762L15.6792 9.37419L15.7323 9.60762H15.9717V9.30762ZM16.0303 9.30762V9.60762H16.2027L16.2895 9.45857L16.0303 9.30762ZM16.6797 8.71191L16.548 8.44237L16.5468 8.44297L16.6797 8.71191ZM19.2725 9.35156L19.0017 9.48072L19.0832 9.65156H19.2725V9.35156ZM19.3506 9.35156V9.65156H19.5208L19.6081 9.50545L19.3506 9.35156ZM22.4268 8.99023L22.2038 9.19093L22.2049 9.19215L22.4268 8.99023ZM22.8711 14V14.3H23.1711V14H22.8711ZM21.7236 14H21.4236V14.3H21.7236V14ZM21.4844 9.74707L21.2457 9.92891L21.249 9.93309L21.4844 9.74707ZM19.7705 9.85938L19.5298 9.68027L19.5295 9.68074L19.7705 9.85938ZM19.4629 13.7H18.3105V14.3H19.4629V13.7ZM18.6105 14V10.6699H18.0105V14H18.6105ZM18.6105 10.6699C18.6105 10.2281 18.5287 9.84157 18.3134 9.56342L17.839 9.93072C17.9361 10.0562 18.0105 10.2849 18.0105 10.6699H18.6105ZM18.3148 9.56526C18.086 9.26501 17.7399 9.13945 17.3438 9.13945V9.73945C17.6117 9.73945 17.7538 9.81897 17.8375 9.92888L18.3148 9.56526ZM17.3438 9.13945C16.8305 9.13945 16.402 9.31179 16.1236 9.69888L16.6108 10.0492C16.7491 9.85683 16.9716 9.73945 17.3438 9.73945V9.13945ZM16.1233 9.69939C15.8612 10.0655 15.7596 10.6246 15.7596 11.3096H16.3596C16.3596 10.6534 16.463 10.2555 16.6111 10.0487L16.1233 9.69939ZM15.7596 11.3096V14H16.3596V11.3096H15.7596ZM16.0596 13.7H14.9121V14.3H16.0596V13.7ZM15.2121 14V8.59961H14.6121V14H15.2121ZM14.9121 8.89961H15.8105V8.29961H14.9121V8.89961ZM15.518 8.66618L15.6792 9.37419L16.2642 9.24104L16.1031 8.53304L15.518 8.66618ZM15.9717 9.60762H16.0303V9.00762H15.9717V9.60762ZM16.2895 9.45857C16.4078 9.25548 16.5788 9.09644 16.8126 8.98086L16.5468 8.44297C16.2142 8.60734 15.9522 8.84543 15.771 9.15666L16.2895 9.45857ZM16.8114 8.98146C17.0539 8.86295 17.3226 8.80195 17.6221 8.80195V8.20195C17.238 8.20195 16.8784 8.28093 16.548 8.44237L16.8114 8.98146ZM17.6221 8.80195C18.3807 8.80195 18.7978 9.05339 19.0017 9.48072L19.5432 9.2224C19.2067 8.51693 18.5236 8.20195 17.6221 8.20195V8.80195ZM19.2725 9.65156H19.3506V9.05156H19.2725V9.65156ZM19.6081 9.50545C19.7375 9.28888 19.9195 9.11847 20.1622 8.99307L19.8867 8.46005C19.5499 8.63414 19.2827 8.88039 19.0931 9.19768L19.6081 9.50545ZM20.1622 8.99307C20.4034 8.86839 20.687 8.80195 21.0205 8.80195V8.20195C20.6054 8.20195 20.2249 8.28525 19.8867 8.46005L20.1622 8.99307ZM21.0205 8.80195C21.6206 8.80195 21.9901 8.95356 22.2038 9.19092L22.6497 8.78955C22.2774 8.37587 21.7095 8.20195 21.0205 8.20195V8.80195ZM22.2049 9.19215C22.4303 9.4399 22.5711 9.84945 22.5711 10.4795H23.1711C23.1711 9.7749 23.0156 9.19161 22.6486 8.78832L22.2049 9.19215ZM22.5711 10.4795V14H23.1711V10.4795H22.5711ZM22.8711 13.7H21.7236V14.3H22.8711V13.7ZM22.0236 14V10.6699H21.4236V14H22.0236ZM22.0236 10.6699C22.0236 10.2271 21.9398 9.83952 21.7197 9.56105L21.249 9.93309C21.3479 10.0583 21.4236 10.2859 21.4236 10.6699H22.0236ZM21.723 9.56526C21.4942 9.26501 21.1481 9.13945 20.752 9.13945V9.73945C21.0199 9.73945 21.162 9.81897 21.2457 9.92888L21.723 9.56526ZM20.752 9.13945C20.2402 9.13945 19.8101 9.30362 19.5298 9.68027L20.0112 10.0385C20.1475 9.85523 20.3718 9.73945 20.752 9.73945V9.13945ZM19.5295 9.68074C19.2679 10.0336 19.1629 10.5375 19.1629 11.1387H19.7629C19.7629 10.5875 19.8629 10.2385 20.0115 10.038L19.5295 9.68074ZM19.1629 11.1387V14H19.7629V11.1387H19.1629ZM25.6201 14V14.3H25.9201V14H25.6201ZM24.4727 14H24.1727V14.3H24.4727V14ZM24.4727 8.59961V8.29961H24.1727V8.59961H24.4727ZM25.6201 8.59961H25.9201V8.29961H25.6201V8.59961ZM24.5703 6.69531L24.3613 6.48011L24.3582 6.48318L24.5703 6.69531ZM25.5225 6.69531L25.3103 6.90747L25.3134 6.9105L25.5225 6.69531ZM25.5225 7.63281L25.3103 7.42068L25.5225 7.63281ZM24.5703 7.63281L24.355 7.84194L24.3613 7.848L24.5703 7.63281ZM25.6201 13.7H24.4727V14.3H25.6201V13.7ZM24.7727 14V8.59961H24.1727V14H24.7727ZM24.4727 8.89961H25.6201V8.29961H24.4727V8.89961ZM25.3201 8.59961V14H25.9201V8.59961H25.3201ZM24.7043 7.16895C24.7043 7.01777 24.7439 6.946 24.7824 6.90744L24.3582 6.48318C24.1754 6.66598 24.1043 6.90996 24.1043 7.16895H24.7043ZM24.7793 6.9105C24.8215 6.86953 24.8983 6.8293 25.0537 6.8293V6.2293C24.7925 6.2293 24.547 6.29974 24.3613 6.48013L24.7793 6.9105ZM25.0537 6.8293C25.2 6.8293 25.2709 6.86803 25.3103 6.90744L25.7346 6.48318C25.5527 6.30124 25.311 6.2293 25.0537 6.2293V6.8293ZM25.3134 6.9105C25.3536 6.94948 25.3934 7.02017 25.3934 7.16895H25.9934C25.9934 6.90756 25.9192 6.66249 25.7315 6.48013L25.3134 6.9105ZM25.3934 7.16895C25.3934 7.3027 25.3564 7.37458 25.3103 7.42068L25.7346 7.84494C25.9164 7.66318 25.9934 7.42581 25.9934 7.16895H25.3934ZM25.3103 7.42068C25.2709 7.4601 25.2 7.49883 25.0537 7.49883V8.09883C25.311 8.09883 25.5527 8.02688 25.7346 7.84494L25.3103 7.42068ZM25.0537 7.49883C24.8983 7.49883 24.8215 7.45859 24.7793 7.41763L24.3613 7.848C24.547 8.02838 24.7925 8.09883 25.0537 8.09883V7.49883ZM24.7855 7.42378C24.7411 7.3781 24.7043 7.30515 24.7043 7.16895H24.1043C24.1043 7.42337 24.1782 7.65966 24.3551 7.84185L24.7855 7.42378ZM32.0166 14V14.3H32.3166V14H32.0166ZM30.8643 14H30.5643V14.3H30.8643V14ZM30.6104 9.74707L30.3772 9.93584L30.379 9.93804L30.6104 9.74707ZM28.4131 14V14.3H28.7131V14H28.4131ZM27.2656 14H26.9656V14.3H27.2656V14ZM27.2656 8.59961V8.29961H26.9656V8.59961H27.2656ZM28.1641 8.59961L28.4566 8.53304L28.4035 8.29961H28.1641V8.59961ZM28.3252 9.30762L28.0327 9.37419L28.0858 9.60762H28.3252V9.30762ZM28.3838 9.30762V9.60762H28.549L28.6373 9.46806L28.3838 9.30762ZM29.0771 8.71191L28.9501 8.44013L29.0771 8.71191ZM32.0166 13.7H30.8643V14.3H32.0166V13.7ZM31.1643 14V10.6797H30.5643V14H31.1643ZM31.1643 10.6797C31.1643 10.2307 31.0744 9.83801 30.8417 9.5561L30.379 9.93804C30.4848 10.0663 30.5643 10.2954 30.5643 10.6797H31.1643ZM30.8435 9.55831C30.601 9.25871 30.2331 9.13945 29.8145 9.13945V9.73945C30.125 9.73945 30.2877 9.82528 30.3772 9.93583L30.8435 9.55831ZM29.8145 9.13945C29.2702 9.13945 28.813 9.30255 28.5139 9.68403L28.9861 10.0543C29.1362 9.86282 29.3886 9.73945 29.8145 9.73945V9.13945ZM28.5139 9.68403C28.2251 10.0524 28.1131 10.6185 28.1131 11.3096H28.7131C28.7131 10.653 28.8257 10.2588 28.9861 10.0543L28.5139 9.68403ZM28.1131 11.3096V14H28.7131V11.3096H28.1131ZM28.4131 13.7H27.2656V14.3H28.4131V13.7ZM27.5656 14V8.59961H26.9656V14H27.5656ZM27.2656 8.89961H28.1641V8.29961H27.2656V8.89961ZM27.8715 8.66618L28.0327 9.37419L28.6177 9.24104L28.4566 8.53304L27.8715 8.66618ZM28.3252 9.60762H28.3838V9.00762H28.3252V9.60762ZM28.6373 9.46806C28.7668 9.2635 28.952 9.10157 29.2042 8.98369L28.9501 8.44013C28.6034 8.6022 28.3263 8.83741 28.1303 9.14718L28.6373 9.46806ZM29.2042 8.98369C29.46 8.86415 29.748 8.80195 30.0732 8.80195V8.20195C29.6693 8.20195 29.2933 8.27973 28.9501 8.44013L29.2042 8.98369ZM30.0732 8.80195C30.6734 8.80195 31.0688 8.95426 31.3168 9.20661C31.5657 9.45993 31.7166 9.86525 31.7166 10.4795H32.3166C32.3166 9.77537 32.1436 9.19192 31.7447 8.78606C31.3449 8.37924 30.7686 8.20195 30.0732 8.20195V8.80195ZM31.7166 10.4795V14H32.3166V10.4795H31.7166ZM38.1738 8.59961H38.4738V8.29961H38.1738V8.59961ZM38.1738 9.22949L38.2285 9.52448L38.4738 9.47904V9.22949H38.1738ZM37.251 9.40039L37.1964 9.10541L36.7232 9.19302L37.0102 9.57929L37.251 9.40039ZM34.9121 12.1006L34.967 11.8056L34.853 11.7844L34.7543 11.8454L34.9121 12.1006ZM34.7119 12.916L34.5688 13.1797L34.5719 13.1813L34.7119 12.916ZM37.6514 13.3896L37.8417 13.1578L37.6514 13.3896ZM37.3584 15.9043L37.5233 16.1549L37.3584 15.9043ZM33.2178 14.0586L32.9994 13.8529L32.9964 13.8562L33.2178 14.0586ZM34.1016 13.5898L34.1696 13.882L35.0647 13.6737L34.219 13.3138L34.1016 13.5898ZM33.7207 13.2773L33.471 13.4438L33.4755 13.4501L33.7207 13.2773ZM34.2529 11.8906L34.4089 12.1469L34.9053 11.8447L34.3715 11.615L34.2529 11.8906ZM33.5693 11.3047L33.3156 11.4648L33.3179 11.4683L33.5693 11.3047ZM33.8623 8.98535L33.6656 8.75884L33.6646 8.7597L33.8623 8.98535ZM35.9229 8.53613L35.882 8.83342L35.8885 8.83416L35.9229 8.53613ZM36.3037 8.59961L36.2257 8.88929L36.264 8.89961H36.3037V8.59961ZM34.2627 15.4111L34.1078 15.6681L34.1094 15.669L34.2627 15.4111ZM36.6016 15.3428L36.4501 15.0838L36.6016 15.3428ZM36.8066 14.127L36.9603 13.8693L36.9587 13.8684L36.8066 14.127ZM34.2188 14.21L34.0337 13.9738L34.0294 13.9772L34.2188 14.21ZM34.6826 11.1289L34.4647 11.3351L34.4667 11.3371L34.6826 11.1289ZM36.1816 9.52734L35.9527 9.72133L35.9563 9.72544L36.1816 9.52734ZM34.6777 9.52246L34.4563 9.32008L34.4544 9.3222L34.6777 9.52246ZM37.8738 8.59961V9.22949H38.4738V8.59961H37.8738ZM38.1192 8.93451L37.1964 9.10541L37.3056 9.69538L38.2285 9.52448L38.1192 8.93451ZM37.0102 9.57929C37.072 9.66256 37.1288 9.77257 37.1763 9.91518L37.7455 9.72544C37.6824 9.53602 37.5992 9.36608 37.4918 9.22149L37.0102 9.57929ZM37.1763 9.91518C37.2209 10.0488 37.2439 10.1924 37.2439 10.3477H37.8439C37.8439 10.1318 37.8117 9.92385 37.7455 9.72544L37.1763 9.91518ZM37.2439 10.3477C37.2439 10.8267 37.0832 11.1753 36.7761 11.4303L37.1594 11.8919C37.6206 11.5089 37.8439 10.9819 37.8439 10.3477H37.2439ZM36.7761 11.4303C36.4621 11.6911 36.0092 11.8396 35.3809 11.8396V12.4396C36.1002 12.4396 36.7052 12.2692 37.1594 11.8919L36.7761 11.4303ZM35.3809 11.8396C35.223 11.8396 35.0855 11.8277 34.967 11.8056L34.8572 12.3955C35.0186 12.4256 35.1936 12.4396 35.3809 12.4396V11.8396ZM34.7543 11.8454C34.4591 12.028 34.241 12.2885 34.241 12.6377H34.841C34.841 12.5767 34.8703 12.4792 35.0699 12.3557L34.7543 11.8454ZM34.241 12.6377C34.241 12.7472 34.2668 12.8572 34.3281 12.957C34.3889 13.0561 34.4745 13.1285 34.5688 13.1797L34.855 12.6524C34.8449 12.6469 34.8401 12.6429 34.8384 12.6414C34.837 12.6401 34.8379 12.6406 34.8394 12.6431C34.841 12.6456 34.8417 12.6478 34.8418 12.6483C34.8419 12.6486 34.841 12.6455 34.841 12.6377H34.241ZM34.5719 13.1813C34.761 13.2811 35.0423 13.3088 35.3516 13.3088V12.7088C35.0424 12.7088 34.8972 12.6746 34.8519 12.6507L34.5719 13.1813ZM35.3516 13.3088H36.2939V12.7088H35.3516V13.3088ZM36.2939 13.3088C36.8529 13.3088 37.2262 13.4287 37.461 13.6215L37.8417 13.1578C37.4581 12.8428 36.9264 12.7088 36.2939 12.7088V13.3088ZM37.461 13.6215C37.6871 13.8071 37.8152 14.0801 37.8152 14.4883H38.4152C38.4152 13.9394 38.2342 13.48 37.8417 13.1578L37.461 13.6215ZM37.8152 14.4883C37.8152 15.0009 37.6124 15.378 37.1935 15.6537L37.5233 16.1549C38.1135 15.7665 38.4152 15.1996 38.4152 14.4883H37.8152ZM37.1935 15.6537C36.7587 15.9398 36.0972 16.1023 35.1709 16.1023V16.7023C36.1521 16.7023 36.949 16.5328 37.5233 16.1549L37.1935 15.6537ZM35.1709 16.1023C34.4632 16.1023 33.9706 15.9758 33.6537 15.7627L33.319 16.2607C33.7768 16.5685 34.4072 16.7023 35.1709 16.7023V16.1023ZM33.6537 15.7627C33.3524 15.5602 33.2053 15.2842 33.2053 14.8984H32.6053C32.6053 15.4763 32.8455 15.9424 33.319 16.2607L33.6537 15.7627ZM33.2053 14.8984C33.2053 14.6352 33.2854 14.4292 33.4392 14.261L32.9964 13.8562C32.7335 14.1437 32.6053 14.4976 32.6053 14.8984H33.2053ZM33.4361 14.2643C33.5979 14.0925 33.8348 13.96 34.1696 13.882L34.0336 13.2977C33.6132 13.3955 33.2608 13.5754 32.9994 13.8529L33.4361 14.2643ZM34.219 13.3138C34.1202 13.2718 34.0365 13.2047 33.9659 13.1046L33.4755 13.4501C33.6067 13.6364 33.7769 13.7777 33.9841 13.8659L34.219 13.3138ZM33.9703 13.1109C33.902 13.0084 33.8742 12.9126 33.8742 12.8184H33.2742C33.2742 13.0432 33.3441 13.2533 33.4711 13.4438L33.9703 13.1109ZM33.8742 12.8184C33.8742 12.6769 33.9126 12.5752 33.9778 12.495L33.5124 12.1163C33.3498 12.3161 33.2742 12.5562 33.2742 12.8184H33.8742ZM33.9778 12.495C34.0627 12.3907 34.2014 12.2732 34.4089 12.1469L34.0969 11.6344C33.8553 11.7815 33.6554 11.9407 33.5124 12.1163L33.9778 12.495ZM34.3715 11.615C34.1491 11.5194 33.9663 11.3647 33.8208 11.1411L33.3179 11.4683C33.524 11.7851 33.7968 12.021 34.1344 12.1662L34.3715 11.615ZM33.8231 11.1446C33.6845 10.925 33.6105 10.663 33.6105 10.3477H33.0105C33.0105 10.7615 33.1091 11.1375 33.3156 11.4648L33.8231 11.1446ZM33.6105 10.3477C33.6105 9.82942 33.7701 9.46502 34.06 9.211L33.6646 8.7597C33.2189 9.15022 33.0105 9.69402 33.0105 10.3477H33.6105ZM34.059 9.21186C34.3575 8.95266 34.8049 8.80195 35.4443 8.80195V8.20195C34.7166 8.20195 34.1093 8.37351 33.6656 8.75884L34.059 9.21186ZM35.4443 8.80195C35.5825 8.80195 35.7283 8.81224 35.8821 8.83335L35.9636 8.23892C35.7854 8.21445 35.6122 8.20195 35.4443 8.20195V8.80195ZM35.8885 8.83416C36.054 8.85326 36.1631 8.87244 36.2257 8.88929L36.3817 8.30992C36.275 8.2812 36.1302 8.25807 35.9572 8.23811L35.8885 8.83416ZM36.3037 8.89961H38.1738V8.29961H36.3037V8.89961ZM33.6307 14.8398C33.6307 15.198 33.8013 15.4833 34.1078 15.668L34.4176 15.1542C34.2814 15.0721 34.2307 14.9765 34.2307 14.8398H33.6307ZM34.1094 15.669C34.3991 15.8412 34.7745 15.9113 35.2051 15.9113V15.3113C34.8284 15.3113 34.5755 15.248 34.4159 15.1532L34.1094 15.669ZM35.2051 15.9113C35.8481 15.9113 36.3781 15.8211 36.7531 15.6017L36.4501 15.0838C36.213 15.2225 35.812 15.3113 35.2051 15.3113V15.9113ZM36.7531 15.6017C37.1297 15.3813 37.3605 15.0553 37.3605 14.6299H36.7605C36.7605 14.7969 36.6854 14.9461 36.4501 15.0838L36.7531 15.6017ZM37.3605 14.6299C37.3605 14.3134 37.2389 14.0354 36.9603 13.8693L36.653 14.3846C36.713 14.4204 36.7605 14.4776 36.7605 14.6299H37.3605ZM36.9587 13.8684C36.8291 13.7921 36.6676 13.7478 36.4955 13.7207C36.3195 13.6931 36.1112 13.6805 35.874 13.6805V14.2805C36.0926 14.2805 36.2675 14.2923 36.4024 14.3135C36.5412 14.3353 36.6181 14.3641 36.6545 14.3855L36.9587 13.8684ZM35.874 13.6805H35.0049V14.2805H35.874V13.6805ZM35.0049 13.6805C34.6309 13.6805 34.2968 13.7677 34.0338 13.9738L34.4037 14.4461C34.5313 14.3462 34.7214 14.2805 35.0049 14.2805V13.6805ZM34.0294 13.9772C33.7623 14.1946 33.6307 14.4926 33.6307 14.8398H34.2307C34.2307 14.6597 34.2911 14.5378 34.4081 14.4427L34.0294 13.9772ZM34.1238 10.3477C34.1238 10.7356 34.2233 11.08 34.4647 11.3351L34.9005 10.9227C34.7969 10.8132 34.7238 10.6368 34.7238 10.3477H34.1238ZM34.4667 11.3371C34.714 11.5936 35.0521 11.7023 35.4346 11.7023V11.1023C35.166 11.1023 35.0028 11.0288 34.8986 10.9207L34.4667 11.3371ZM35.4346 11.7023C35.8181 11.7023 36.1595 11.5989 36.4007 11.3412C36.6383 11.0872 36.7307 10.7342 36.7307 10.3379H36.1307C36.1307 10.6512 36.057 10.8304 35.9626 10.9312C35.8717 11.0284 35.7151 11.1023 35.4346 11.1023V11.7023ZM36.7307 10.3379C36.7307 9.94235 36.6373 9.59121 36.4069 9.32924L35.9563 9.72544C36.058 9.84108 36.1307 10.0303 36.1307 10.3379H36.7307ZM36.4105 9.33339C36.1733 9.05351 35.827 8.93926 35.4346 8.93926V9.53926C35.7128 9.53926 35.8644 9.61706 35.9528 9.7213L36.4105 9.33339ZM35.4346 8.93926C35.0449 8.93926 34.7014 9.05185 34.4563 9.32009L34.8992 9.72483C34.9991 9.61546 35.1602 9.53926 35.4346 9.53926V8.93926ZM34.4544 9.3222C34.2183 9.5855 34.1238 9.94357 34.1238 10.3477H34.7238C34.7238 10.0291 34.7986 9.83702 34.9011 9.72272L34.4544 9.3222ZM8.45215 27.7217H8.15215V27.9092L8.32072 27.9914L8.45215 27.7217ZM8.45215 26.6182L8.57976 26.3467L8.15215 26.1457V26.6182H8.45215ZM9.4873 26.9795L9.417 27.2711L9.41759 27.2713L9.4873 26.9795ZM11.5332 26.8477L11.3466 26.6127L11.3449 26.6141L11.5332 26.8477ZM10.3125 24.8018L10.1999 25.0798L10.2006 25.0801L10.3125 24.8018ZM9.16992 21.2715L8.98142 21.0381L9.16992 21.2715ZM12.915 21.208L13.1946 21.3169L13.2987 21.0497L13.0364 20.9336L12.915 21.208ZM12.5439 22.1602L12.4277 22.4367L12.7116 22.5561L12.8235 22.2691L12.5439 22.1602ZM9.98535 22.0088L10.1774 22.2393L10.1796 22.2374L9.98535 22.0088ZM9.80957 23.1367L9.55065 23.2883L9.55232 23.2911L9.80957 23.1367ZM11.1621 23.9717L11.2774 23.6947L11.2765 23.6944L11.1621 23.9717ZM12.8516 25.2217L13.1221 25.092L12.8516 25.2217ZM12.7225 26.0615C12.7225 26.6135 12.5282 27.0209 12.1484 27.3199L12.5196 27.7914C13.0577 27.3677 13.3225 26.7791 13.3225 26.0615H12.7225ZM12.1484 27.3199C11.7593 27.6263 11.1999 27.7977 10.4346 27.7977V28.3977C11.2838 28.3977 11.9907 28.2077 12.5196 27.7914L12.1484 27.3199ZM10.4346 27.7977C9.65532 27.7977 9.04369 27.6762 8.58357 27.452L8.32072 27.9914C8.88925 28.2684 9.59924 28.3977 10.4346 28.3977V27.7977ZM8.75215 27.7217V26.6182H8.15215V27.7217H8.75215ZM8.32454 26.8897C8.6692 27.0517 9.03352 27.1787 9.417 27.2711L9.55761 26.6878C9.21192 26.6045 8.88614 26.4907 8.57976 26.3467L8.32454 26.8897ZM9.41759 27.2713C9.80392 27.3636 10.1694 27.4113 10.5127 27.4113V26.8113C10.2245 26.8113 9.90636 26.7712 9.55702 26.6877L9.41759 27.2713ZM10.5127 27.4113C11.0024 27.4113 11.425 27.3201 11.7215 27.0812L11.3449 26.6141C11.2052 26.7267 10.9475 26.8113 10.5127 26.8113V27.4113ZM11.7198 27.0826C12.0167 26.8468 12.1652 26.5223 12.1652 26.1396H11.5652C11.5652 26.3494 11.4924 26.4969 11.3466 26.6127L11.7198 27.0826ZM12.1652 26.1396C12.1652 25.7862 12.0273 25.4807 11.7655 25.2401L11.3595 25.6818C11.5014 25.8123 11.5652 25.9592 11.5652 26.1396H12.1652ZM11.7655 25.2401C11.5188 25.0132 11.0541 24.7766 10.4244 24.5234L10.2006 25.0801C10.8339 25.3348 11.2026 25.5375 11.3595 25.6818L11.7655 25.2401ZM10.4251 24.5237C9.79519 24.2686 9.3915 23.9922 9.17113 23.7127L8.69997 24.0842C9.01345 24.4818 9.52772 24.8076 10.1999 25.0798L10.4251 24.5237ZM9.17113 23.7127C8.95025 23.4326 8.83516 23.0929 8.83516 22.6777H8.23516C8.23516 23.2131 8.38699 23.6872 8.69997 24.0842L9.17113 23.7127ZM8.83516 22.6777C8.83516 22.1628 9.01307 21.7838 9.35842 21.5049L8.98142 21.0381C8.48042 21.4428 8.23516 22.0012 8.23516 22.6777H8.83516ZM9.35842 21.5049C9.71362 21.218 10.2083 21.0588 10.874 21.0588V20.4588C10.114 20.4588 9.47257 20.6414 8.98142 21.0381L9.35842 21.5049ZM10.874 21.0588C11.5124 21.0588 12.1516 21.1984 12.7937 21.4824L13.0364 20.9336C12.3243 20.6187 11.6028 20.4588 10.874 20.4588V21.0588ZM12.6355 21.0991L12.2644 22.0512L12.8235 22.2691L13.1946 21.3169L12.6355 21.0991ZM12.6602 21.8836C12.0018 21.6067 11.3949 21.4598 10.8447 21.4598V22.0598C11.2907 22.0598 11.8166 22.1797 12.4277 22.4367L12.6602 21.8836ZM10.8447 21.4598C10.4287 21.4598 10.0612 21.5506 9.79106 21.7802L10.1796 22.2374C10.3001 22.135 10.5056 22.0598 10.8447 22.0598V21.4598ZM9.7933 21.7783C9.52483 22.002 9.39238 22.3054 9.39238 22.6582H9.99238C9.99238 22.4707 10.0553 22.3411 10.1774 22.2393L9.7933 21.7783ZM9.39238 22.6582C9.39238 22.8864 9.44071 23.1004 9.55067 23.2883L10.0685 22.9852C10.0222 22.9061 9.99238 22.8011 9.99238 22.6582H9.39238ZM9.55232 23.2911C9.66126 23.4726 9.82859 23.6263 10.031 23.7588L10.3596 23.2568C10.204 23.1549 10.1141 23.0612 10.0668 22.9824L9.55232 23.2911ZM10.031 23.7588C10.236 23.893 10.5818 24.0568 11.0477 24.249L11.2765 23.6944C10.8115 23.5025 10.5127 23.357 10.3596 23.2568L10.031 23.7588ZM11.0468 24.2487C11.5633 24.4636 11.9184 24.655 12.1309 24.8193L12.498 24.3447C12.2223 24.1315 11.8091 23.916 11.2774 23.6947L11.0468 24.2487ZM12.1309 24.8193C12.3444 24.9844 12.4905 25.1626 12.581 25.3514L13.1221 25.092C12.9847 24.8055 12.7728 24.5572 12.498 24.3447L12.1309 24.8193ZM12.581 25.3514C12.6717 25.5405 12.7225 25.7743 12.7225 26.0615H13.3225C13.3225 25.7042 13.2593 25.3781 13.1221 25.092L12.581 25.3514ZM18.3936 27.3555L18.1722 27.153L18.3936 27.3555ZM18.3887 23.2588L18.166 23.4599L18.1667 23.4606L18.3887 23.2588ZM15.4639 23.918L15.2162 23.7486L15.215 23.7504L15.4639 23.918ZM18.7723 25.29C18.7723 26.1215 18.5598 26.7291 18.1722 27.153L18.6149 27.5579C19.1322 26.9922 19.3723 26.2229 19.3723 25.29H18.7723ZM18.1722 27.153C17.788 27.5731 17.2456 27.7977 16.5039 27.7977V28.3977C17.3768 28.3977 18.0942 28.1274 18.6149 27.5579L18.1722 27.153ZM16.5039 27.7977C16.0461 27.7977 15.6539 27.6948 15.3181 27.4973L15.0139 28.0144C15.4528 28.2726 15.9526 28.3977 16.5039 28.3977V27.7977ZM15.3181 27.4973C14.9844 27.301 14.726 27.0194 14.542 26.6427L14.0029 26.9061C14.2356 27.3823 14.5729 27.755 15.0139 28.0144L15.3181 27.4973ZM14.542 26.6427C14.3571 26.2643 14.26 25.816 14.26 25.29H13.66C13.66 25.8904 13.7711 26.4317 14.0029 26.9061L14.542 26.6427ZM14.26 25.29C14.26 24.4651 14.4708 23.8623 14.8552 23.4416L14.4123 23.0369C13.8984 23.5993 13.66 24.3637 13.66 25.29H14.26ZM14.8552 23.4416C15.2351 23.026 15.7798 22.802 16.5332 22.802V22.202C15.6525 22.202 14.931 22.4694 14.4123 23.0369L14.8552 23.4416ZM16.5332 22.802C17.2435 22.802 17.7759 23.028 18.166 23.4599L18.6113 23.0577C18.09 22.4805 17.3854 22.202 16.5332 22.202V22.802ZM18.1667 23.4606C18.5602 23.8934 18.7723 24.4917 18.7723 25.29H19.3723C19.3723 24.3826 19.1286 23.6268 18.6107 23.057L18.1667 23.4606ZM14.8416 25.29C14.8416 25.9416 14.9604 26.4847 15.2458 26.8709C15.5437 27.2741 15.9879 27.4602 16.5234 27.4602V26.8602C16.1377 26.8602 15.891 26.7345 15.7283 26.5143C15.5531 26.2772 15.4416 25.8853 15.4416 25.29H14.8416ZM16.5234 27.4602C17.0553 27.4602 17.496 27.2732 17.791 26.8697C18.0732 26.4837 18.1906 25.9411 18.1906 25.29H17.5906C17.5906 25.8857 17.4802 26.2782 17.3066 26.5156C17.1459 26.7354 16.903 26.8602 16.5234 26.8602V27.4602ZM18.1906 25.29C18.1906 24.6447 18.0721 24.1061 17.7871 23.723C17.4896 23.3233 17.0468 23.1395 16.5137 23.1395V23.7395C16.8986 23.7395 17.1441 23.8641 17.3057 24.0812C17.4796 24.3149 17.5906 24.7017 17.5906 25.29H18.1906ZM16.5137 23.1395C15.9604 23.1395 15.5042 23.3275 15.2162 23.7487L15.7115 24.0873C15.8598 23.8705 16.1034 23.7395 16.5137 23.7395V23.1395ZM15.215 23.7504C14.9532 24.1392 14.8416 24.665 14.8416 25.29H15.4416C15.4416 24.7237 15.5449 24.3347 15.7127 24.0855L15.215 23.7504ZM24.5068 27.3555L24.2854 27.153L24.5068 27.3555ZM24.502 23.2588L24.2793 23.4599L24.28 23.4606L24.502 23.2588ZM21.5771 23.918L21.3295 23.7486L21.3283 23.7504L21.5771 23.918ZM24.8855 25.29C24.8855 26.1215 24.6731 26.7291 24.2854 27.153L24.7282 27.5579C25.2455 26.9922 25.4855 26.2229 25.4855 25.29H24.8855ZM24.2854 27.153C23.9013 27.5731 23.3589 27.7977 22.6172 27.7977V28.3977C23.4901 28.3977 24.2075 28.1274 24.7282 27.5579L24.2854 27.153ZM22.6172 27.7977C22.1594 27.7977 21.7672 27.6948 21.4314 27.4973L21.1272 28.0144C21.5661 28.2726 22.0659 28.3977 22.6172 28.3977V27.7977ZM21.4314 27.4973C21.0977 27.301 20.8393 27.0194 20.6553 26.6427L20.1162 26.9061C20.3488 27.3823 20.6862 27.755 21.1272 28.0144L21.4314 27.4973ZM20.6553 26.6427C20.4704 26.2643 20.3732 25.816 20.3732 25.29H19.7732C19.7732 25.8904 19.8844 26.4317 20.1162 26.9061L20.6553 26.6427ZM20.3732 25.29C20.3732 24.4651 20.5841 23.8623 20.9685 23.4416L20.5256 23.0369C20.0116 23.5993 19.7732 24.3637 19.7732 25.29H20.3732ZM20.9685 23.4416C21.3483 23.026 21.8931 22.802 22.6465 22.802V22.202C21.7658 22.202 21.0442 22.4694 20.5256 23.0369L20.9685 23.4416ZM22.6465 22.802C23.3568 22.802 23.8892 23.028 24.2793 23.4599L24.7246 23.0577C24.2033 22.4805 23.4986 22.202 22.6465 22.202V22.802ZM24.28 23.4606C24.6735 23.8934 24.8855 24.4917 24.8855 25.29H25.4855C25.4855 24.3826 25.2419 23.6268 24.7239 23.057L24.28 23.4606ZM20.9549 25.29C20.9549 25.9416 21.0737 26.4847 21.3591 26.8709C21.657 27.2741 22.1012 27.4602 22.6367 27.4602V26.8602C22.251 26.8602 22.0043 26.7345 21.8416 26.5143C21.6664 26.2772 21.5549 25.8853 21.5549 25.29H20.9549ZM22.6367 27.4602C23.1686 27.4602 23.6093 27.2732 23.9043 26.8697C24.1865 26.4837 24.3039 25.9411 24.3039 25.29H23.7039C23.7039 25.8857 23.5934 26.2782 23.4199 26.5156C23.2592 26.7354 23.0163 26.8602 22.6367 26.8602V27.4602ZM24.3039 25.29C24.3039 24.6447 24.1854 24.1061 23.9004 23.723C23.6029 23.3233 23.16 23.1395 22.627 23.1395V23.7395C23.0118 23.7395 23.2574 23.8641 23.419 24.0812C23.5929 24.3149 23.7039 24.7017 23.7039 25.29H24.3039ZM22.627 23.1395C22.0737 23.1395 21.6175 23.3275 21.3295 23.7487L21.8248 24.0873C21.973 23.8705 22.2167 23.7395 22.627 23.7395V23.1395ZM21.3283 23.7504C21.0664 24.1392 20.9549 24.665 20.9549 25.29H21.5549C21.5549 24.7237 21.6582 24.3347 21.826 24.0855L21.3283 23.7504ZM31.2598 28V28.3H31.5598V28H31.2598ZM30.1074 28H29.8074V28.3H30.1074V28ZM29.8535 23.7471L29.6203 23.9358L29.6221 23.938L29.8535 23.7471ZM27.6562 28V28.3H27.9562V28H27.6562ZM26.5088 28H26.2088V28.3H26.5088V28ZM26.5088 22.5996V22.2996H26.2088V22.5996H26.5088ZM27.4072 22.5996L27.6997 22.533L27.6466 22.2996H27.4072V22.5996ZM27.5684 23.3076L27.2758 23.3742L27.329 23.6076H27.5684V23.3076ZM27.627 23.3076V23.6076H27.7921L27.8804 23.4681L27.627 23.3076ZM28.3203 22.7119L28.1933 22.4401L28.3203 22.7119ZM31.2598 27.7H30.1074V28.3H31.2598V27.7ZM30.4074 28V24.6797H29.8074V28H30.4074ZM30.4074 24.6797C30.4074 24.2307 30.3176 23.838 30.0849 23.5561L29.6221 23.938C29.728 24.0663 29.8074 24.2954 29.8074 24.6797H30.4074ZM30.0867 23.5583C29.8442 23.2587 29.4762 23.1395 29.0576 23.1395V23.7395C29.3682 23.7395 29.5308 23.8253 29.6203 23.9358L30.0867 23.5583ZM29.0576 23.1395C28.5134 23.1395 28.0562 23.3025 27.7571 23.684L28.2292 24.0543C28.3793 23.8628 28.6318 23.7395 29.0576 23.7395V23.1395ZM27.7571 23.684C27.4683 24.0524 27.3563 24.6185 27.3563 25.3096H27.9562C27.9562 24.653 28.0688 24.2588 28.2292 24.0543L27.7571 23.684ZM27.3563 25.3096V28H27.9562V25.3096H27.3563ZM27.6562 27.7H26.5088V28.3H27.6562V27.7ZM26.8088 28V22.5996H26.2088V28H26.8088ZM26.5088 22.8996H27.4072V22.2996H26.5088V22.8996ZM27.1147 22.6662L27.2758 23.3742L27.8609 23.241L27.6997 22.533L27.1147 22.6662ZM27.5684 23.6076H27.627V23.0076H27.5684V23.6076ZM27.8804 23.4681C28.0099 23.2635 28.1951 23.1016 28.4473 22.9837L28.1933 22.4401C27.8465 22.6022 27.5695 22.8374 27.3735 23.1472L27.8804 23.4681ZM28.4473 22.9837C28.7031 22.8641 28.9912 22.802 29.3164 22.802V22.202C28.9125 22.202 28.5365 22.2797 28.1933 22.4401L28.4473 22.9837ZM29.3164 22.802C29.9166 22.802 30.312 22.9543 30.56 23.2066C30.8089 23.4599 30.9598 23.8653 30.9598 24.4795H31.5598C31.5598 23.7754 31.3867 23.1919 30.9879 22.7861C30.5881 22.3792 30.0118 22.202 29.3164 22.202V22.802ZM30.9598 24.4795V28H31.5598V24.4795H30.9598Z" fill="black"/>
</g>
<defs>
<linearGradient id="paint0_linear_5653:13151" x1="-1" y1="19.5" x2="41" y2="19.5" gradientUnits="userSpaceOnUse">
<stop stop-color="#F3C76F"/>
<stop offset="1" stop-color="#FFB88C"/>
</linearGradient>
<clipPath id="clip0_5653:13151">
<rect width="40" height="40" fill="white"/>
</clipPath>
<clipPath id="clip1_5653:13151">
<rect width="40" height="40" fill="white"/>
</clipPath>
</defs>
</svg>
