<svg width="40" height="40" viewBox="0 0 40 40" fill="none" xmlns="http://www.w3.org/2000/svg">
<g clip-path="url(#clip0_4482:9418)">
<path fill-rule="evenodd" clip-rule="evenodd" d="M29.8458 17.833H40.0003V21.3606C40.0003 22.2328 39.2885 22.9451 38.417 22.9451H34.7645L32.5857 24.0457L29.8457 22.9451V17.833H29.8458Z" fill="#FFE07D"/>
<path fill-rule="evenodd" clip-rule="evenodd" d="M31.429 12.7139H38.417C39.2884 12.7139 40.0002 13.4262 40.0002 14.2984V16.9196H29.8457V14.2984C29.8457 13.4262 30.5575 12.7139 31.429 12.7139Z" fill="#FFE07D"/>
<path fill-rule="evenodd" clip-rule="evenodd" d="M29.8457 16.1299H40.0002V18.6209H29.8457V16.1299Z" fill="#F3C76F"/>
<path fill-rule="evenodd" clip-rule="evenodd" d="M37.8802 16.1296H39.1806H39.9997V14.2985C39.9997 13.7025 39.6666 13.182 39.1806 12.9125C38.9525 12.787 38.6924 12.7139 38.4163 12.7139H36.2969C37.1684 12.7139 37.8802 13.4262 37.8802 14.2984V16.1296H37.8802Z" fill="#FFC269"/>
<path fill-rule="evenodd" clip-rule="evenodd" d="M37.8804 18.6209H39.1807H39.9998V17.8332V16.9199V16.1299H39.1807H37.8804V16.9199V17.8332V18.6209Z" fill="#F3C76F"/>
<path fill-rule="evenodd" clip-rule="evenodd" d="M37.8806 18.6211V21.361C37.8806 22.2332 37.1688 22.9456 36.2974 22.9456H38.4168C38.6928 22.9456 38.9529 22.8748 39.1811 22.7492C39.667 22.4775 40.0001 21.957 40.0001 21.361V18.6211H39.1811H37.8806Z" fill="#FFC269"/>
<path fill-rule="evenodd" clip-rule="evenodd" d="M29.8453 22.9454H34.7641V25.208C34.7641 25.7515 34.3192 26.1944 33.7785 26.1944H17.7637C17.7637 24.772 17.7637 24.0481 18.8519 24.0481L21.0192 24.0459C22.3835 24.0436 23.2778 23.6942 23.7774 22.9453H29.8453V22.9454Z" fill="#6F6571"/>
<path fill-rule="evenodd" clip-rule="evenodd" d="M19.6956 26.1943H33.7787C34.6046 27.6328 35.2685 29.3612 34.6959 32.6673C33.7377 29.4068 24.0052 30.7083 23.0059 34.4711H12.2673C11.8613 33.5509 11.478 32.6421 11.1426 31.7243H14.17C20.2933 29.4136 18.3245 30.4434 19.6956 26.1943Z" fill="#607D8B"/>
<path fill-rule="evenodd" clip-rule="evenodd" d="M18.8262 17.3556C19.0361 18.4606 19.3212 19.5498 19.6406 20.4767L22.7363 21.6897L26.1882 20.4767C26.0673 13.9444 23.6262 10.8118 21.5501 9.79805C20.8018 9.22828 20.0352 9.01367 20.0352 9.01367C20.0352 9.01367 19.0269 10.6269 18.9744 10.6269C18.5866 11.5493 18.4405 12.7526 18.4656 14.0517L18.8262 17.3556Z" fill="#F3C76F"/>
<path fill-rule="evenodd" clip-rule="evenodd" d="M26.1883 20.4775H19.6406C18.1326 20.6419 16.2778 21.7904 16.2778 25.3477V29.0762L17.7638 29.9613L19.6953 29.0762V26.1947C19.6953 24.7723 19.6953 24.0485 20.7835 24.0485L22.9509 24.0462C24.3152 24.0439 25.2095 23.6946 25.7091 22.9457C26.0947 22.3681 26.243 21.5529 26.1883 20.4775Z" fill="#90A4AE"/>
<path fill-rule="evenodd" clip-rule="evenodd" d="M26.1882 20.4775C26.0673 13.9452 23.6262 10.8126 21.5501 9.79883C21.2421 10.0157 20.8998 10.1938 20.5234 10.3262C22.3623 11.7167 24.2056 14.8242 24.3105 20.4775H26.1882Z" fill="#F3C76F"/>
<path fill-rule="evenodd" clip-rule="evenodd" d="M26.1883 20.4775H24.3108C24.3655 21.5529 24.2172 22.3681 23.8317 22.9457C23.5169 23.4184 23.0423 23.8179 22.3921 24.0463H22.9511C24.3154 24.044 25.2097 23.6946 25.7093 22.9457C26.0947 22.3681 26.243 21.5529 26.1883 20.4775Z" fill="#90A4AE"/>
<path fill-rule="evenodd" clip-rule="evenodd" d="M23.0054 34.4709C23.0054 31.094 25.6815 28.4043 28.9826 28.4043C31.6679 28.4043 33.9401 30.1852 34.6953 32.6671C34.8504 33.1763 34.9417 33.7174 34.9576 34.2791C34.9645 34.4983 34.8139 34.4709 34.6086 34.4709C30.7416 34.4709 26.8723 34.4686 23.0054 34.4709Z" fill="#607D8B"/>
<path fill-rule="evenodd" clip-rule="evenodd" d="M24.5093 34.4717H33.6076C33.4776 36.9239 31.4904 38.8738 29.0584 38.8738C26.6264 38.8738 24.6393 36.9239 24.5093 34.4717Z" fill="#EEECE8"/>
<path fill-rule="evenodd" clip-rule="evenodd" d="M1.40543 33.501L9.23293 35.3025C8.73559 37.4647 6.57965 38.8164 4.41918 38.3186C2.25645 37.8209 0.90809 35.6632 1.40543 33.501Z" fill="#EEECE8"/>
<path fill-rule="evenodd" clip-rule="evenodd" d="M0.819063 31.3061C1.92555 29.6964 3.84648 28.7626 5.85414 28.9635C9.39492 29.7124 10.547 31.829 10.7774 34.4685C10.7729 34.8269 10.7341 35.1877 10.6565 35.5485C10.6337 35.6489 10.5675 35.6078 10.458 35.5827L9.23281 35.3018L1.40531 33.5003L0.818984 33.3656L0 33.1761C0.157422 32.4866 0.440313 31.8564 0.819063 31.3061Z" fill="#607D8B"/>
<path fill-rule="evenodd" clip-rule="evenodd" d="M5.84717 28.9552L9.0092 18.014L10.4328 17.377L12.0252 18.014C9.93318 23.8134 10.5172 27.8616 11.9294 31.7249C12.2671 32.6427 12.6504 33.5514 13.0542 34.4716H10.7796L5.84717 28.9552Z" fill="#607D8B"/>
<path fill-rule="evenodd" clip-rule="evenodd" d="M15.6393 5.74605L19.3489 4.95605C19.7253 4.99027 20.8022 5.89449 20.8022 6.46074L20.0128 10.4746C19.6843 10.5728 19.3352 10.6276 18.9747 10.6276C16.999 10.6276 15.3975 9.02253 15.3975 7.04519C15.3975 6.58629 15.4818 6.14785 15.6393 5.74605Z" fill="#FFE3D8"/>
<path fill-rule="evenodd" clip-rule="evenodd" d="M14.4409 5.74594C14.4409 3.19328 16.4622 1.12695 18.9581 1.12695C21.454 1.12695 23.4753 3.19328 23.4753 5.74594C23.4753 7.43094 22.7908 8.92875 21.5497 9.79867C21.1072 10.1115 20.5915 10.3421 20.0121 10.4745V6.46055C20.0121 5.8943 19.7247 5.78016 19.3482 5.74586H15.6387H14.4409V5.74594Z" fill="#F3C76F"/>
<path fill-rule="evenodd" clip-rule="evenodd" d="M16.5947 1.80961C17.2814 1.37578 18.0914 1.12695 18.9582 1.12695C21.4541 1.12695 23.4754 3.19328 23.4754 5.74594C23.4754 7.43094 22.791 8.92875 21.5499 9.79867C21.235 10.0202 20.886 10.2005 20.5027 10.333C21.4198 9.40367 21.9172 8.07031 21.9172 6.59984C21.9172 3.93305 19.8023 1.77078 17.1946 1.77078C16.9917 1.77078 16.7909 1.78219 16.5947 1.80961Z" fill="#F3C76F"/>
<path fill-rule="evenodd" clip-rule="evenodd" d="M16.2777 29.0762H19.6953V31.2293C19.6953 31.6905 19.4444 31.7248 19.0748 31.7248H14.1698C14.0716 29.5648 15.3788 29.0762 16.2777 29.0762Z" fill="#6F6571"/>
<path fill-rule="evenodd" clip-rule="evenodd" d="M11.9295 31.7245C10.5173 27.8613 9.93328 23.8131 12.0253 18.0137H10.8527C10.8481 18.0137 10.8435 18.0137 10.839 18.0137H10.4169C8.32492 23.8131 8.90664 27.8612 10.3211 31.7245C10.6565 32.6424 11.0398 33.5511 11.4459 34.4713H12.2672H13.0543C12.6505 33.5511 12.2672 32.6423 11.9295 31.7245Z" fill="#607D8B"/>
<path fill-rule="evenodd" clip-rule="evenodd" d="M10.7776 34.4683L5.85437 28.9634C5.34562 28.9131 4.84141 28.9337 4.35547 29.0227L9.0871 34.313C9.08257 34.6212 9.05289 34.934 8.99359 35.2468L9.23312 35.3016L10.4583 35.5824C10.5678 35.6075 10.634 35.6487 10.6568 35.5482C10.7343 35.1875 10.773 34.8267 10.7776 34.4683Z" fill="#607D8B"/>
<path fill-rule="evenodd" clip-rule="evenodd" d="M33.7784 26.1943H19.6953V27.4341H31.2666C32.2088 27.4341 32.656 27.8405 33.0234 28.6648C33.3405 29.3795 33.3473 29.6124 33.491 30.4754C34.0317 31.1033 34.447 31.8477 34.6956 32.6673C35.2682 29.3611 34.6043 27.6328 33.7784 26.1943Z" fill="#607D8B"/>
<path fill-rule="evenodd" clip-rule="evenodd" d="M33.4912 30.4752C32.3961 29.2034 30.7832 28.4043 28.9832 28.4043C28.5315 28.4043 28.0934 28.4545 27.6714 28.5481C30.3658 29.1577 32.2502 31.5369 32.3323 34.2791C32.3369 34.4298 32.2684 34.464 32.159 34.4709H33.6076H34.6092C34.8145 34.4709 34.9651 34.4983 34.9583 34.2791C34.9423 33.7174 34.8511 33.1763 34.6959 32.6671C34.6914 32.6511 34.6868 32.6374 34.6822 32.6238C34.6822 32.6238 34.6822 32.6238 34.6822 32.6215C34.4312 31.82 34.0229 31.0916 33.4912 30.4752Z" fill="#607D8B"/>
<path fill-rule="evenodd" clip-rule="evenodd" d="M8.99339 35.2476L1.40534 33.501C1.32096 33.8594 1.29128 34.2202 1.30495 34.5718L7.32784 35.9578L7.5651 36.0125C7.34151 36.9943 6.77346 37.8094 6.01831 38.3597C7.55823 38.088 8.86096 36.9236 9.23284 35.3025L8.99339 35.2476Z" fill="#EEECE8"/>
<path fill-rule="evenodd" clip-rule="evenodd" d="M32.1589 34.4718H24.5093C24.5344 34.9512 24.6325 35.4125 24.7899 35.8439H30.1193H31.5679C31.5109 36.9171 31.1003 37.892 30.4523 38.6523C32.2113 38.0746 33.5048 36.433 33.6075 34.4717H32.1589V34.4718Z" fill="#EEECE8"/>
<path fill-rule="evenodd" clip-rule="evenodd" d="M34.7644 25.208V22.9453H31.673V25.208C31.673 25.7514 31.2282 26.1943 30.6875 26.1943H33.7788C34.3195 26.1944 34.7644 25.7514 34.7644 25.208Z" fill="#6F6571"/>
<path fill-rule="evenodd" clip-rule="evenodd" d="M15.4155 6.66172H18.4635C18.8399 6.69594 19.1274 6.81242 19.1274 7.37867V10.6231C19.4331 10.6095 19.7297 10.5592 20.0126 10.4747V6.46078C20.0126 5.89453 19.7251 5.78039 19.3487 5.74609H15.6391C15.5273 6.03383 15.4497 6.34203 15.4155 6.66172Z" fill="#FFE3D8"/>
<path fill-rule="evenodd" clip-rule="evenodd" d="M8.35021 14.5683L12.6187 15.9794C12.8286 16.1665 12.5914 18.0754 12.4499 18.0137H9.00951H7.48779V14.872C7.48779 14.2533 7.80951 14.3902 8.35021 14.5683Z" fill="#607D8B"/>
<path fill-rule="evenodd" clip-rule="evenodd" d="M14.6077 18.0136H14.2495H12.4495C11.2905 18.0136 11.2563 16.0911 12.6184 15.9792L14.6077 15.8193L15.1416 16.9496L14.6077 18.0136Z" fill="#FFE3D8"/>
<path fill-rule="evenodd" clip-rule="evenodd" d="M18.4658 14.0523L19.1799 13.4381C20.9684 11.8969 23.2294 14.4975 20.8384 16.0501L18.8263 17.3561L17.8133 18.0137H14.6079V15.8195L16.5995 15.6574L18.4658 14.0523Z" fill="#F3C76F"/>
<path fill-rule="evenodd" clip-rule="evenodd" d="M14.6078 18.0139V16.9499H14.1812H13.9508H13.5903H11.7903C11.7219 16.9499 11.658 16.9454 11.5964 16.9316C11.5303 17.4613 11.8292 18.0139 12.4497 18.0139H14.2497H14.6078Z" fill="#FFE3D8"/>
<path fill-rule="evenodd" clip-rule="evenodd" d="M20.8385 16.0502C22.2849 15.1095 22.0293 13.7876 21.2058 13.2305C21.272 13.8013 21.0005 14.4566 20.1792 14.9886L18.6118 16.0046L18.1692 16.2946L17.1563 16.9499H14.6079V18.0139H17.8133L18.8263 17.3563L20.8385 16.0502Z" fill="#F3C76F"/>
<path fill-rule="evenodd" clip-rule="evenodd" d="M12.6185 15.9793L10.9006 15.4131C10.3257 16.0296 10.0473 17.2305 10.4169 18.0137H12.0253H12.4496C11.8291 18.0137 11.5303 17.4611 11.5964 16.9314C11.6557 16.4725 11.9865 16.0318 12.6185 15.9793Z" fill="#607D8B"/>
</g>
<defs>
<clipPath id="clip0_4482:9418">
<rect width="40" height="40" fill="white"/>
</clipPath>
</defs>
</svg>
