<svg width="24" height="24" viewBox="0 0 24 24" fill="none" xmlns="http://www.w3.org/2000/svg">
<path d="M16.1739 9.3913C16.4619 9.3913 16.6957 9.15754 16.6957 8.86954V2.60868C16.6956 1.17078 15.5259 0 14.0869 0H2.60868C1.16975 0 0 1.17078 0 2.60868V21.3913C0 22.8292 1.16975 24 2.60868 24H14.0869C15.5259 24 16.6956 22.8292 16.6956 21.3913V15.1304C16.6956 14.8424 16.4619 14.6087 16.1739 14.6087C15.8859 14.6087 15.6522 14.8424 15.6522 15.1304V21.3913C15.6522 22.2542 14.9499 22.9565 14.0869 22.9565H2.60868C1.74571 22.9565 1.04346 22.2542 1.04346 21.3913V2.60868C1.04346 1.74571 1.74571 1.04346 2.60868 1.04346H14.0869C14.9499 1.04346 15.6522 1.74571 15.6522 2.60868V8.86954C15.6522 9.15754 15.8859 9.3913 16.1739 9.3913Z" fill="black"/>
<path d="M23.4781 11.4766H6.7825C6.4945 11.4766 6.26074 11.7103 6.26074 11.9983C6.26074 12.2863 6.4945 12.52 6.7825 12.52H23.4781C23.7661 12.52 23.9999 12.2863 23.9999 11.9983C23.9999 11.7103 23.7661 11.4766 23.4781 11.4766Z" fill="black"/>
<path d="M23.8465 11.6346L20.716 8.50417C20.5126 8.30069 20.1818 8.30069 19.9783 8.50417C19.7748 8.70765 19.7748 9.03845 19.9783 9.24193L22.7393 12.003L19.9783 14.764C19.7748 14.9675 19.7748 15.2983 19.9783 15.5018C20.0806 15.603 20.2141 15.6541 20.3477 15.6541C20.4813 15.6541 20.6148 15.603 20.716 15.5028L23.8465 12.3724C24.0499 12.1689 24.0499 11.8381 23.8465 11.6346Z" fill="black"/>
</svg>
