<svg width="32" height="32" viewBox="0 0 32 32" fill="none" xmlns="http://www.w3.org/2000/svg">
<path d="M16.0002 2.66797C12.3242 2.66797 9.3335 5.65864 9.3335 9.33463V13.3346H8.00016C6.5295 13.3346 5.3335 14.5306 5.3335 16.0013V26.668C5.3335 28.1386 6.5295 29.3346 8.00016 29.3346H24.0002C25.4708 29.3346 26.6668 28.1386 26.6668 26.668V16.0013C26.6668 14.5306 25.4708 13.3346 24.0002 13.3346H22.6668V9.33463C22.6668 5.65864 19.6762 2.66797 16.0002 2.66797ZM24.0002 16.0013L24.0028 26.668H8.00016V16.0013H24.0002ZM12.0002 13.3346V9.33463C12.0002 7.1293 13.7948 5.33464 16.0002 5.33464C18.2055 5.33464 20.0002 7.1293 20.0002 9.33463V13.3346H12.0002Z" fill="#F1F1F1"/>
</svg>
