<svg width="40" height="40" viewBox="0 0 40 40" fill="none" xmlns="http://www.w3.org/2000/svg">
<g clip-path="url(#clip0_3829:5015)">
<path d="M39.9994 19.8395C40.0515 26.4924 36.8547 32.4015 31.9008 36.0748L28.1235 37.2864C22.6043 39.0568 16.6958 39.2237 11.0854 37.7677L10.5469 37.6279C4.26875 34.2552 0 27.6256 0 19.9998C0 8.96298 8.94086 0.0135999 19.9744 -0.000228218C30.935 -0.0139782 39.9134 8.87915 39.9994 19.8395Z" fill="#22D7FF"/>
<path d="M40 20C40 26.5867 36.8148 32.4313 31.9008 36.075L28.1235 37.2866C22.6043 39.057 16.6958 39.2239 11.0854 37.7679L10.5469 37.6281V37.6289C9.87187 37.2664 9.21953 36.8656 8.59375 36.4305C3.4 32.818 0 26.8055 0 20C0 16.3891 0.957031 13.0023 2.63125 10.0781C6.07812 16.0992 12.5656 20.1562 20 20.1562C27.4344 20.1562 33.9227 16.0992 37.3688 10.0781C39.043 13.0023 40 16.3891 40 20Z" fill="#00B3FE"/>
<path d="M31.9008 13.5165V36.0751C30.5852 37.0501 29.1469 37.8681 27.6117 38.5001C27.1391 38.6946 26.657 38.872 26.1672 39.0306L23.2336 39.7399L23.2281 39.7415C22.1773 39.9118 21.0992 40.0001 20 40.0001C19.8914 40.0001 19.7828 39.9993 19.6742 39.997C18.5125 39.9782 17.375 39.861 16.2703 39.6524L16.268 39.6517L13.1719 38.8024H13.1703C12.2633 38.4735 11.3875 38.0798 10.5469 37.6282V13.5165C10.5469 11.9095 11.8484 10.6079 13.4555 10.6079H28.993C29.057 10.6079 29.1211 10.6095 29.1844 10.6142C30.7016 10.7126 31.9008 11.9743 31.9008 13.5165Z" fill="#4E689B"/>
<path d="M31.9007 13.5165V36.0751C30.5851 37.0501 29.1468 37.8681 27.6116 38.5001C27.139 38.6946 26.6569 38.872 26.1671 39.0306L23.2335 39.7399L23.228 39.7415C22.1773 39.9118 21.0991 40.0001 19.9999 40.0001C19.8913 40.0001 19.7827 39.9993 19.6741 39.997C18.5124 39.9782 17.3749 39.861 16.2702 39.6524L16.2679 39.6517L15.1108 39.3345V13.5165C15.1108 11.9095 16.4132 10.6079 18.0187 10.6079H28.9929C29.0569 10.6079 29.121 10.6095 29.1843 10.6142C30.7015 10.7126 31.9007 11.9743 31.9007 13.5165Z" fill="#374C81"/>
<path d="M31.9009 13.5165V36.0751C30.1806 37.3509 28.2485 38.3571 26.1673 39.0314V39.0306L23.2368 39.7392C22.1829 39.911 21.1017 40.0001 20.0001 40.0001C19.8915 40.0001 19.7829 39.9993 19.6743 39.997V10.6079H28.9931C29.0571 10.6079 29.1212 10.6095 29.1845 10.6142C30.7016 10.7126 31.9009 11.9743 31.9009 13.5165Z" fill="#234177"/>
<path d="M26.0369 21.5379V25.3629C26.0369 26.2625 25.308 26.9914 24.4084 26.9914H15.0821C14.1825 26.9914 13.4536 26.2625 13.4536 25.3629V21.5379C13.4536 20.6383 14.1825 19.9094 15.0821 19.9094H24.4085C25.3081 19.9094 26.0369 20.6383 26.0369 21.5379Z" fill="#D1F6FF"/>
<path d="M15.706 32.4701H14.1331C13.6001 32.4701 13.168 32.038 13.168 31.505C13.168 30.9719 13.6001 30.5398 14.1331 30.5398H15.706C16.2391 30.5398 16.6712 30.9719 16.6712 31.505C16.6712 32.038 16.2391 32.4701 15.706 32.4701Z" fill="white"/>
<path d="M15.706 36.152H14.1331C13.6001 36.152 13.168 35.7199 13.168 35.1868C13.168 34.6538 13.6001 34.2217 14.1331 34.2217H15.706C16.2391 34.2217 16.6712 34.6538 16.6712 35.1868C16.6712 35.7199 16.2391 36.152 15.706 36.152Z" fill="white"/>
<path d="M16.6712 38.8684C16.6712 39.1348 16.5634 39.3762 16.3884 39.5512C16.3517 39.5879 16.3126 39.6215 16.2704 39.652C15.8798 39.5786 15.4931 39.4934 15.111 39.3973C14.4501 39.2309 13.8024 39.0325 13.1704 38.802C13.1868 38.5622 13.2907 38.3458 13.4509 38.1864C13.6251 38.0114 13.8673 37.9036 14.1337 37.9036H15.7063C16.2392 37.9036 16.6712 38.3356 16.6712 38.8684Z" fill="white"/>
<path d="M21.4253 31.5047C21.4253 31.7714 21.317 32.0129 21.1424 32.1875C20.9678 32.3621 20.7263 32.4699 20.4602 32.4699H18.8875C18.3546 32.4699 17.9224 32.0382 17.9224 31.5047C17.9224 31.2379 18.0301 30.9971 18.2053 30.8225C18.3799 30.6473 18.6207 30.5396 18.8875 30.5396H20.4602C20.9931 30.5396 21.4253 30.9718 21.4253 31.5047Z" fill="white"/>
<path d="M21.4253 35.1868C21.4253 35.4529 21.317 35.6944 21.1424 35.869C20.9678 36.0436 20.7263 36.152 20.4602 36.152H18.8875C18.3546 36.152 17.9224 35.7197 17.9224 35.1868C17.9224 34.9207 18.0301 34.6793 18.2053 34.5046C18.3799 34.33 18.6207 34.2217 18.8875 34.2217H20.4602C20.9931 34.2217 21.4253 34.6539 21.4253 35.1868Z" fill="white"/>
<path d="M21.4253 38.8687C21.4253 39.1355 21.317 39.3763 21.1424 39.5509C20.9678 39.7261 20.7263 39.8339 20.4602 39.8339H18.8875C18.3546 39.8339 17.9224 39.4016 17.9224 38.8687C17.9224 38.6019 18.0301 38.3611 18.2053 38.1865C18.3799 38.0113 18.6207 37.9036 18.8875 37.9036H20.4602C20.9931 37.9036 21.4253 38.3359 21.4253 38.8687Z" fill="white"/>
<path d="M25.2148 32.4701H23.6419C23.1089 32.4701 22.6768 32.038 22.6768 31.505C22.6768 30.9719 23.1089 30.5398 23.6419 30.5398H25.2148C25.7479 30.5398 26.18 30.9719 26.18 31.505C26.18 32.038 25.7479 32.4701 25.2148 32.4701Z" fill="#FDDC41"/>
<path d="M25.2148 36.152H23.6419C23.1089 36.152 22.6768 35.7199 22.6768 35.1868C22.6768 34.6538 23.1089 34.2217 23.6419 34.2217H25.2148C25.7479 34.2217 26.18 34.6538 26.18 35.1868C26.18 35.7199 25.7479 36.152 25.2148 36.152Z" fill="#95D600"/>
<path d="M26.1807 38.8689C26.1807 38.9244 26.176 38.9783 26.1674 39.0306C25.2166 39.3392 24.2354 39.5775 23.2283 39.7416C22.9025 39.5861 22.6768 39.254 22.6768 38.8689C22.6768 38.6025 22.7846 38.3611 22.9596 38.1869C23.1346 38.0119 23.376 37.9041 23.6424 37.9041H25.215C25.7479 37.9041 26.1807 38.3361 26.1807 38.8689Z" fill="#F75454"/>
<path d="M31.9004 13.5165V36.0751C30.5848 37.0501 29.1465 37.8681 27.6113 38.5001V10.6079H28.9926C29.0566 10.6079 29.1207 10.6095 29.184 10.6142C30.7012 10.7126 31.9004 11.9743 31.9004 13.5165Z" fill="#323B5A"/>
<path d="M25.919 4.63184L25.8904 15.7853H13.4312V4.63184L14.6799 5.58527L15.928 4.63184L17.1769 5.58527L18.4256 4.63184L19.6744 5.58527L20.9232 4.63184L22.172 5.58527L23.4208 4.63184L24.6702 5.58527L25.919 4.63184Z" fill="white"/>
<path d="M25.9189 4.63184L25.8903 15.7853H19.6743V5.58527L20.9231 4.63184L22.1719 5.58527L23.4207 4.63184L24.6701 5.58527L25.9189 4.63184Z" fill="#D1F6FF"/>
<path d="M15.6045 8.30664H24.3894V9.44922H15.6045V8.30664Z" fill="#474F6F"/>
<path d="M15.6045 10.6421H24.3894V11.7847H15.6045V10.6421Z" fill="#474F6F"/>
<path d="M15.6045 12.978H24.3894V14.1206H15.6045V12.978Z" fill="#474F6F"/>
<path d="M26.0371 21.5379V25.3629C26.0371 26.2625 25.3081 26.9914 24.4085 26.9914H19.6743V19.9094H24.4085C25.3082 19.9094 26.0371 20.6383 26.0371 21.5379Z" fill="#8FC8F5"/>
<path d="M21.4255 38.869C21.4255 39.1358 21.3171 39.3765 21.1425 39.5512C20.9679 39.7264 20.7265 39.8341 20.4603 39.8341H19.6743V37.9038H20.4603C20.9932 37.9038 21.4255 38.3362 21.4255 38.869Z" fill="#D1F6FF"/>
<path d="M21.4255 35.1868C21.4255 35.4529 21.3171 35.6944 21.1425 35.869C20.9679 36.0436 20.7265 36.152 20.4603 36.152H19.6743V34.2217H20.4603C20.9932 34.2217 21.4255 34.6539 21.4255 35.1868Z" fill="#D1F6FF"/>
<path d="M20.4603 32.4696H19.6743V30.5393H20.4603C20.9932 30.5393 21.4255 30.9716 21.4255 31.5045C21.4255 31.7712 21.3171 32.0127 21.1425 32.1873C20.9678 32.3619 20.7264 32.4696 20.4603 32.4696Z" fill="#D1F6FF"/>
</g>
<defs>
<clipPath id="clip0_3829:5015">
<rect width="40" height="40" fill="white"/>
</clipPath>
</defs>
</svg>
