<svg width="24" height="24" viewBox="0 0 24 24" fill="none" xmlns="http://www.w3.org/2000/svg">
<g clip-path="url(#clip0_5487:11746)">
<path d="M21.5 22H2.5C1.122 22 0 20.878 0 19.5V17.5C0 17.224 0.224 17 0.5 17H1C2.103 17 3 16.103 3 15C3 13.897 2.103 13 1 13H0.5C0.224 13 0 12.776 0 12.5V10.5C0 9.122 1.122 8 2.5 8H21.5C22.878 8 24 9.122 24 10.5V12.5C24 12.776 23.776 13 23.5 13H23C21.897 13 21 13.897 21 15C21 15.534 21.208 16.036 21.586 16.414C21.963 16.792 22.465 17 22.999 17H23.499C23.775 17 23.999 17.224 23.999 17.5V19.5C24 20.878 22.878 22 21.5 22ZM1 18V19.5C1 20.327 1.673 21 2.5 21H21.5C22.327 21 23 20.327 23 19.5V18H22.999C22.198 18 21.445 17.688 20.879 17.122C20.312 16.555 20 15.801 20 15C20 13.346 21.346 12 23 12V10.5C23 9.673 22.327 9 21.5 9H2.5C1.673 9 1 9.673 1 10.5V12C2.654 12 4 13.346 4 15C4 16.654 2.654 18 1 18Z" fill="#EEECE8"/>
<path d="M8.5 10C8.224 10 8 9.776 8 9.5V8.5C8 8.224 8.224 8 8.5 8C8.776 8 9.00001 8.224 9.00001 8.5V9.5C9.00001 9.776 8.776 10 8.5 10Z" fill="#EEECE8"/>
<path d="M8.5 18.461C8.224 18.461 8 18.237 8 17.961V16.2701C8 15.9941 8.224 15.7701 8.5 15.7701C8.776 15.7701 9.00001 15.9931 9.00001 16.2701V17.962C9.00001 18.238 8.776 18.461 8.5 18.461ZM8.5 14.2311C8.224 14.2311 8 14.0071 8 13.7311V12.0391C8 11.7631 8.224 11.5391 8.5 11.5391C8.776 11.5391 9.00001 11.7631 9.00001 12.0391V13.7311C9.00001 14.0071 8.776 14.2311 8.5 14.2311Z" fill="#EEECE8"/>
<path d="M8.5 22C8.224 22 8 21.776 8 21.5V20.5C8 20.224 8.224 20 8.5 20C8.776 20 9.00001 20.224 9.00001 20.5V21.5C9.00001 21.776 8.776 22 8.5 22Z" fill="#EEECE8"/>
<path d="M2.49999 8.99934C2.29699 8.99934 2.10599 8.87534 2.03199 8.67434C1.93499 8.41534 2.06599 8.12734 2.32499 8.03134L18.225 2.09434C18.998 1.80434 19.906 2.23834 20.17 3.01734L21.973 8.33834C22.061 8.60034 21.921 8.88334 21.66 8.97234C21.401 9.06134 21.115 8.92034 21.026 8.65934L19.223 3.33834C19.135 3.07834 18.833 2.93634 18.574 3.03034L2.67399 8.96734C2.61699 8.98934 2.55799 8.99934 2.49999 8.99934Z" fill="#EEECE8"/>
</g>
<defs>
<clipPath id="clip0_5487:11746">
<rect width="24" height="24" fill="white"/>
</clipPath>
</defs>
</svg>
