<svg width="48" height="48" viewBox="0 0 48 48" fill="none" xmlns="http://www.w3.org/2000/svg">
<path d="M47.6613 23.9872C47.6613 37.1316 37.006 47.7872 23.8616 47.7872C10.7172 47.7872 0.0615234 37.1316 0.0615234 23.9872C0.0615234 10.8431 10.7172 0.1875 23.8616 0.1875C37.006 0.1875 47.6613 10.8431 47.6613 23.9872Z" fill="#71A1EA"/>
<path d="M48 41.5802L43.7618 38.9779C37.0067 34.8298 29.3947 32.2766 21.5043 31.5116L18.991 31.2677V16.806L21.7863 16.4446C29.495 15.4481 36.8833 12.7411 43.4114 8.52197L48 5.55566V41.5802Z" fill="#F3C76F"/>
<path d="M21.8438 22.8135H45.9532V23.2698H21.8438V22.8135Z" fill="#9E6530"/>
<path d="M20.8613 38.4666H18.3345V33.9746H20.8613C21.4041 33.9746 21.8439 34.4144 21.8439 34.9572V37.484C21.8439 38.0267 21.4041 38.4666 20.8613 38.4666Z" fill="#EF3A50"/>
<path d="M20.0414 33.9746H18.3345V38.4666H20.8613C21.4041 38.4666 21.8439 38.0267 21.8439 37.484V36.812H21.4469C20.6705 36.812 20.0414 36.1829 20.0414 35.4065V33.9746Z" fill="#CE2844"/>
<path d="M8.79639 30.75H2.6759C1.19788 30.75 0 29.5518 0 28.0741V19.9991C0 18.5211 1.19788 17.3232 2.6759 17.3232H8.79639V30.75Z" fill="#F3C76F"/>
<path d="M3.64526 24.9877V17.3232H2.6759C1.19788 17.3232 0 18.5215 0 19.9991V28.0741C0 29.5518 1.19788 30.75 2.6759 30.75H8.79639V27.6636H6.32117C4.84351 27.6636 3.64526 26.4657 3.64526 24.9877Z" fill="#9E6530"/>
<path d="M21.5043 27.0238L18.991 26.7803V31.2678L21.5043 31.5117C29.3947 32.2767 37.0067 34.83 43.7618 38.978L48 41.5803V37.0928L43.7618 34.4905C37.0063 30.3424 29.3947 27.7888 21.5043 27.0238Z" fill="#9E6530"/>
<path d="M11.1548 30.75V44.113C13.4678 45.5764 16.0503 46.6512 18.8112 47.2478V30.75H11.1548Z" fill="#F3C76F"/>
<path d="M14.9828 30.75H11.1548V44.113C12.3615 44.8766 13.6421 45.5332 14.9828 46.0723V36.1128C14.9828 35.0453 15.8485 34.1799 16.916 34.1799H18.8112V30.75H14.9828Z" fill="#9E6530"/>
<path d="M20.7766 32.7642H9.18933C7.9823 32.7642 7.00415 31.7856 7.00415 30.579V17.4957C7.00415 16.2891 7.9823 15.3105 9.18933 15.3105H20.7766C21.9836 15.3105 22.9618 16.2891 22.9618 17.4957V30.579C22.9618 31.7856 21.9836 32.7642 20.7766 32.7642Z" fill="#59280D"/>
<path d="M18.6102 24.0371C18.6102 26.0403 16.9861 27.6641 14.9829 27.6641C12.9797 27.6641 11.356 26.0403 11.356 24.0371C11.356 22.0339 12.9797 20.4102 14.9829 20.4102C16.9861 20.4102 18.6102 22.0339 18.6102 24.0371Z" fill="#FDD33A"/>
<path d="M14.3464 24.0375C14.3464 22.5675 15.2213 21.303 16.4785 20.7332C16.0222 20.5262 15.5165 20.4102 14.9829 20.4102C12.9797 20.4102 11.356 22.0343 11.356 24.0375C11.356 26.0406 12.9797 27.6644 14.9829 27.6644C15.5165 27.6644 16.0222 27.5483 16.4785 27.3418C15.2213 26.772 14.3464 25.5074 14.3464 24.0375Z" fill="#E0AF24"/>
<path d="M46.5571 43.3232C45.7603 43.3232 45.1143 42.6772 45.1143 41.88V5.25635C45.1143 4.45947 45.7603 3.81348 46.5571 3.81348C47.354 3.81348 48 4.45947 48 5.25635V41.88C48 42.6769 47.354 43.3232 46.5571 43.3232Z" fill="#59280D"/>
<path d="M26.6191 21.2319C26.6191 21.6307 26.2958 21.9541 25.897 21.9541C25.4982 21.9541 25.1748 21.6307 25.1748 21.2319C25.1748 20.8331 25.4982 20.5098 25.897 20.5098C26.2958 20.5098 26.6191 20.8331 26.6191 21.2319Z" fill="#9E6530"/>
<path d="M31.9537 21.2319C31.9537 21.6307 31.6304 21.9541 31.2312 21.9541C30.8324 21.9541 30.509 21.6307 30.509 21.2319C30.509 20.8331 30.8324 20.5098 31.2312 20.5098C31.6304 20.5098 31.9537 20.8331 31.9537 21.2319Z" fill="#9E6530"/>
<path d="M37.288 21.2319C37.288 21.6307 36.9646 21.9541 36.5658 21.9541C36.1666 21.9541 35.8433 21.6307 35.8433 21.2319C35.8433 20.8331 36.1666 20.5098 36.5658 20.5098C36.9646 20.5098 37.288 20.8331 37.288 21.2319Z" fill="#9E6530"/>
<path d="M42.6221 21.2319C42.6221 21.6307 42.2987 21.9541 41.8999 21.9541C41.5011 21.9541 41.1777 21.6307 41.1777 21.2319C41.1777 20.8331 41.5011 20.5098 41.8999 20.5098C42.2987 20.5098 42.6221 20.8331 42.6221 21.2319Z" fill="#9E6530"/>
<path d="M26.6191 24.8501C26.6191 25.2489 26.2958 25.5723 25.897 25.5723C25.4982 25.5723 25.1748 25.2489 25.1748 24.8501C25.1748 24.4513 25.4982 24.1279 25.897 24.1279C26.2958 24.1279 26.6191 24.4513 26.6191 24.8501Z" fill="#9E6530"/>
<path d="M31.9537 24.8501C31.9537 25.2489 31.6304 25.5723 31.2312 25.5723C30.8324 25.5723 30.509 25.2489 30.509 24.8501C30.509 24.4513 30.8324 24.1279 31.2312 24.1279C31.6304 24.1279 31.9537 24.4513 31.9537 24.8501Z" fill="#9E6530"/>
<path d="M37.288 24.8501C37.288 25.2489 36.9646 25.5723 36.5658 25.5723C36.1666 25.5723 35.8433 25.2489 35.8433 24.8501C35.8433 24.4513 36.1666 24.1279 36.5658 24.1279C36.9646 24.1279 37.288 24.4513 37.288 24.8501Z" fill="#9E6530"/>
<path d="M42.6221 24.8501C42.6221 25.2489 42.2987 25.5723 41.8999 25.5723C41.5011 25.5723 41.1777 25.2489 41.1777 24.8501C41.1777 24.4513 41.5011 24.1279 41.8999 24.1279C42.2987 24.1279 42.6221 24.4513 42.6221 24.8501Z" fill="#9E6530"/>
</svg>
