<svg width="88" height="88" viewBox="0 0 88 88" fill="none" xmlns="http://www.w3.org/2000/svg">
<path d="M88 44C88 68.3009 68.3009 88 44 88C19.6991 88 0 68.3009 0 44C0 19.6991 19.6991 0 44 0C68.3009 0 88 19.6991 88 44Z" fill="#B7E3F5"/>
<path d="M88 44C88 48.4775 87.3312 52.7985 86.0872 56.8685C85.2225 59.6991 84.0811 62.4082 82.6927 64.9653C81.2747 67.5778 79.5989 70.0289 77.6995 72.2889C77.5995 72.4077 77.5002 72.5259 77.3988 72.6426C69.3308 82.0449 57.3598 88 44 88C30.6402 88 18.6692 82.0449 10.6031 72.6426C10.5019 72.5245 10.4005 72.4058 10.3024 72.2868C8.40108 70.0289 6.7253 67.5778 5.30939 64.9653C4.74409 63.9287 4.22108 62.8667 3.74172 61.7803C1.33547 56.3441 0 50.3284 0 44C0 36.0561 2.10547 28.6052 5.78875 22.1719C13.372 35.4183 27.6444 44.3438 44 44.3438C60.3556 44.3438 74.63 35.4183 82.2113 22.1719C85.8945 28.6052 88 36.0561 88 44Z" fill="#8DD2EF"/>
<path d="M82.717 64.917C81.4864 67.1897 80.0643 69.3414 78.4678 71.3503C77.0176 73.1778 75.4223 74.8857 73.7036 76.4589C65.8765 83.6259 55.4485 87.9999 44.0001 87.9999C32.5517 87.9999 22.1237 83.6259 14.2967 76.4589C12.5779 74.8857 10.9826 73.1778 9.53247 71.3503C7.93592 69.3414 6.51383 67.1897 5.2832 64.917H82.717Z" fill="#75A9C0"/>
<path d="M75.8825 35.4327C75.8825 23.071 64.8629 12.8906 51.4723 12.8906C45.8242 12.8906 40.6445 14.7745 36.5273 17.7318C31.0479 21.6672 27.4555 27.731 27.2012 34.6612L32.6998 57.8505H36.5273H73.3011L69.6068 50.4656C73.6641 46.3368 75.8825 41.0499 75.8825 35.4327Z" fill="#E36565"/>
<path d="M69.6074 50.4654C73.6647 46.337 75.8831 41.0499 75.8831 35.4327C75.8831 23.071 64.8635 12.8906 51.4729 12.8906C45.8247 12.8906 40.6451 14.7745 36.5278 17.7318V57.8504H73.3017L69.6074 50.4654Z" fill="#DA3F3E"/>
<path d="M36.5274 31.6963C23.1366 31.6963 12.1172 41.7522 12.1172 54.1139C12.1172 59.7312 14.4602 65.018 18.5175 69.1466L14.6986 76.656H36.5274C49.9182 76.656 60.9376 66.4757 60.9376 54.1139C60.9376 41.7522 49.9182 31.6963 36.5274 31.6963Z" fill="#EBB82C"/>
<path d="M60.938 54.1139C60.938 41.7522 49.9184 31.6963 36.5278 31.6963V76.656C49.9184 76.656 60.938 66.4757 60.938 54.1139Z" fill="#E38D22"/>
<path d="M36.5268 39.1689H34.6587V46.6414H36.5268H38.3951V39.1689H36.5268Z" fill="#C7D5F6"/>
<path d="M36.5273 39.1689H38.3954V46.6416H36.5273V39.1689Z" fill="#A3AADE"/>
<path d="M36.5271 42.9053C29.3049 42.9053 23.4502 48.76 23.4502 55.9822V59.7184H36.5271H49.6041V55.9822C49.6041 48.76 43.7493 42.9053 36.5271 42.9053Z" fill="#E7FAFF"/>
<path d="M49.6043 55.9822C49.6043 48.76 43.7495 42.9053 36.5273 42.9053V59.7184H49.6043V55.9822Z" fill="#C7D5F6"/>
<path d="M36.527 57.8506H19.7139V61.5868H36.527H53.3404V57.8506H36.527Z" fill="#C7D5F6"/>
<path d="M36.5273 57.8506H53.3405V61.5868H36.5273V57.8506Z" fill="#A3AADE"/>
</svg>
