<svg width="24" height="24" viewBox="0 0 24 24" fill="none" xmlns="http://www.w3.org/2000/svg">
<path d="M4.75 24C4.653 24 4.556 23.981 4.463 23.943C4.183 23.827 4 23.553 4 23.25V19H2.75C1.233 19 0 17.767 0 16.25V2.75C0 1.233 1.233 0 2.75 0H21.25C22.767 0 24 1.233 24 2.75V16.25C24 17.767 22.767 19 21.25 19H10.061L5.281 23.78C5.137 23.924 4.945 24 4.75 24ZM2.75 1.5C2.061 1.5 1.5 2.061 1.5 2.75V16.25C1.5 16.939 2.061 17.5 2.75 17.5H4.75C5.164 17.5 5.5 17.836 5.5 18.25V21.439L9.22 17.719C9.361 17.578 9.551 17.499 9.75 17.499H21.25C21.939 17.499 22.5 16.938 22.5 16.249V2.75C22.5 2.061 21.939 1.5 21.25 1.5H2.75Z" fill="#F3C76F"/>
<path d="M8.25 14.9883H7.75C6.785 14.9883 6 14.2033 6 13.2383V8.73828C6 7.77328 6.785 6.98828 7.75 6.98828H8.25C9.21499 6.98828 9.99999 7.77328 9.99999 8.73828V13.2383C9.99999 14.2033 9.21499 14.9883 8.25 14.9883ZM7.75 8.48828C7.612 8.48828 7.5 8.60028 7.5 8.73828V13.2383C7.5 13.3763 7.612 13.4883 7.75 13.4883H8.25C8.386 13.4883 8.5 13.3743 8.5 13.2383V8.73828C8.5 8.60028 8.388 8.48828 8.25 8.48828H7.75Z" fill="#F3C76F"/>
<path d="M14.7501 14.9878H14.2401C11.4801 14.9878 9.85212 14.2928 9.12812 13.8788C8.76912 13.6728 8.64412 13.2148 8.84912 12.8558C9.05412 12.4968 9.51212 12.3698 9.87211 12.5768C10.3511 12.8508 11.7371 13.4888 14.2401 13.4888H14.7501C15.3341 13.4888 15.8611 13.0618 15.9501 12.5178C15.9551 12.4898 15.9611 12.4618 15.9691 12.4348C16.0411 12.1248 16.4781 9.91781 16.5011 9.62181C16.5001 9.00781 15.9791 8.48781 15.3401 8.48781H12.8401C12.5631 8.48781 12.3091 8.33481 12.1781 8.09081C12.0481 7.84581 12.0631 7.54981 12.2171 7.31981C12.3711 7.08981 12.5601 6.76881 12.5601 5.86781C12.5601 4.97081 12.2071 4.55081 12.0801 4.49881C12.1231 4.52781 11.9411 4.75881 11.9411 5.40781C11.9411 7.08181 10.3161 8.27781 9.61812 8.71381C9.26512 8.93281 8.80312 8.82681 8.58412 8.47581C8.36412 8.12381 8.47112 7.66181 8.82212 7.44181C9.60412 6.95381 10.4401 6.16281 10.4401 5.40781C10.4401 3.74981 11.2941 3.00781 12.1391 3.00781C13.0821 3.00781 14.0591 4.07781 14.0591 5.86781C14.0591 6.29481 14.0061 6.67081 13.9311 6.98781H15.3391C16.8061 6.98781 17.9991 8.18081 17.9991 9.64781C17.9991 9.73981 17.9991 9.89481 17.7091 11.3868C17.5851 12.0248 17.5011 12.4598 17.4191 12.7568L17.4301 12.7588C17.2231 14.0298 16.0701 14.9878 14.7501 14.9878Z" fill="#F3C76F"/>
</svg>
