<svg width="32" height="32" viewBox="0 0 32 32" fill="none" xmlns="http://www.w3.org/2000/svg">
<g clip-path="url(#clip0_7404_10850)">
<path d="M32.0005 15.9697C32.0168 24.754 24.8765 31.9504 16.0923 31.9998C10.3565 32.0319 5.31584 29.0458 2.4659 24.537C2.25728 24.207 2.24234 23.7901 2.42421 23.4446C3.59522 21.2209 4.25803 18.6878 4.25803 16C4.25803 13.3206 3.59934 10.7949 2.43515 8.57619C2.24653 8.21675 2.26247 7.78356 2.47997 7.44081C5.31709 2.96844 10.3121 0 16.0005 0C24.8269 0 31.9841 7.14706 32.0005 15.9697Z" fill="#51489A"/>
<path d="M29.1875 16C29.1875 23.2832 23.2832 29.1875 16 29.1875C8.71675 29.1875 2.8125 23.2832 2.8125 16C2.8125 8.71675 8.71675 2.8125 16 2.8125C23.2832 2.8125 29.1875 8.71675 29.1875 16Z" fill="#5F55AF"/>
<path d="M10.1547 24.5842V23.9828C10.1547 23.077 9.4204 22.3427 8.51465 22.3427C8.4779 22.3427 8.44146 22.344 8.40527 22.3463V9.65578C8.4414 9.65816 8.47784 9.65941 8.51459 9.65941C9.4204 9.65941 10.1546 8.92509 10.1546 8.01934V7.41797H19.1036V24.5842H10.1547V24.5842Z" fill="#FF9F22"/>
<path d="M2.49298 24.5842C-0.831024 19.3642 -0.830961 12.638 2.49298 7.41797H6.87498V8.01934C6.87498 8.92516 7.60929 9.65941 8.51504 9.65941V22.3427C7.60923 22.3427 6.87498 23.077 6.87498 23.9828V24.5842L2.49298 24.5842Z" fill="#FF9100"/>
<path d="M30.2506 24.5842H16.3631C15.9554 24.5842 15.625 24.2538 15.625 23.8462C15.625 23.4385 15.9554 23.1081 16.3631 23.1081H16.5088C17.4146 23.1081 18.1488 22.3738 18.1488 21.468C18.1488 20.5622 17.4145 19.828 16.5088 19.828H15.8984C15.7474 19.828 15.625 19.7056 15.625 19.5546V17.9145C15.625 17.7636 15.7474 17.6412 15.8984 17.6412H16.5088C17.4146 17.6412 18.1488 16.9068 18.1489 16.0011C18.1489 15.0953 17.4146 14.361 16.5088 14.361H15.8984C15.7475 14.361 15.6251 14.2387 15.6251 14.0877V12.4476C15.6251 12.2967 15.7474 12.1742 15.8984 12.1742H16.5088C17.4146 12.1742 18.1489 11.4399 18.1489 10.5342C18.1489 9.62834 17.4146 8.89409 16.5088 8.89409H16.3631C15.9555 8.89409 15.6251 8.56366 15.6251 8.15603C15.6251 7.74841 15.9556 7.41797 16.3632 7.41797H30.1442C30.2031 7.41797 30.2507 7.46566 30.2507 7.52447V8.01934C30.2507 8.92516 30.9851 9.65941 31.8908 9.65941H31.8919C31.9514 9.65934 32.0002 9.70634 32.0002 9.76584V22.2363C32.0002 22.2958 31.9514 22.3427 31.8919 22.3427C31.8916 22.3427 31.8912 22.3427 31.8908 22.3427C30.985 22.3427 30.2507 23.077 30.2507 23.9828L30.2506 24.5842Z" fill="#FFC14F"/>
<path d="M29.1875 15.9989C29.1875 16.2578 28.9776 16.4677 28.7188 16.4677H21.1224C20.8635 16.4677 20.6536 16.2578 20.6536 15.9989C20.6536 15.74 20.8635 15.5302 21.1224 15.5302H28.7188C28.9776 15.5302 29.1875 15.74 29.1875 15.9989ZM28.7188 17.4143H21.1224C20.8635 17.4143 20.6536 17.6242 20.6536 17.8831C20.6536 18.142 20.8635 18.3518 21.1224 18.3518H28.7188C28.9776 18.3518 29.1875 18.142 29.1875 17.8831C29.1875 17.6242 28.9776 17.4143 28.7188 17.4143ZM28.7188 19.2986H21.1224C20.8635 19.2986 20.6536 19.5085 20.6536 19.7673C20.6536 20.0262 20.8635 20.2361 21.1224 20.2361H28.7188C28.9776 20.2361 29.1875 20.0262 29.1875 19.7673C29.1875 19.5085 28.9776 19.2986 28.7188 19.2986ZM28.7188 13.6459H21.1224C20.8635 13.6459 20.6536 13.8558 20.6536 14.1147C20.6536 14.3735 20.8635 14.5834 21.1224 14.5834H28.7188C28.9776 14.5834 29.1875 14.3735 29.1875 14.1147C29.1875 13.8558 28.9776 13.6459 28.7188 13.6459ZM28.7188 11.7617H21.1224C20.8635 11.7617 20.6536 11.9716 20.6536 12.2305C20.6536 12.4893 20.8635 12.6992 21.1224 12.6992H28.7188C28.9776 12.6992 29.1875 12.4893 29.1875 12.2305C29.1875 11.9716 28.9776 11.7617 28.7188 11.7617ZM6.48569 11.7617H0.567062C0.482437 12.0706 0.406875 12.3832 0.340625 12.6992H6.48569C6.74456 12.6992 6.95444 12.4893 6.95444 12.2305C6.95444 11.9716 6.74456 11.7617 6.48569 11.7617ZM6.48569 17.4143H0.06175C0.089375 17.7295 0.126125 18.0422 0.171813 18.3518H6.48569C6.74456 18.3518 6.95444 18.142 6.95444 17.8831C6.95444 17.6242 6.74456 17.4143 6.48569 17.4143ZM6.48569 19.2986H0.340625C0.406875 19.6146 0.482437 19.9272 0.567062 20.2361H6.48569C6.74456 20.2361 6.95444 20.0262 6.95444 19.7673C6.95444 19.5085 6.74456 19.2986 6.48569 19.2986ZM6.48569 13.6459H0.171813C0.126188 13.9556 0.089375 14.2682 0.06175 14.5834H6.48569C6.74456 14.5834 6.95444 14.3735 6.95444 14.1147C6.95444 13.8558 6.74456 13.6459 6.48569 13.6459ZM6.48569 15.5302H0.00675C0.00225 15.6858 0 15.8421 0 15.9989C0 16.1557 0.00225 16.312 0.00675 16.4677H6.48569C6.74456 16.4677 6.95444 16.2578 6.95444 15.9989C6.95444 15.74 6.74456 15.5302 6.48569 15.5302Z" fill="#FF9F22"/>
<path d="M32 23.125C32 25.8864 29.7614 28.125 27 28.125C24.2386 28.125 22 25.8864 22 23.125C22 20.3636 24.2386 18.125 27 18.125C29.7614 18.125 32 20.3636 32 23.125Z" fill="#FF50B5"/>
<path d="M31.6149 25.0541C30.8604 26.8587 29.0782 28.1267 27 28.1267C24.2386 28.1267 22 25.8881 22 23.1267C22 21.0483 23.268 19.2663 25.0726 18.5117C24.8245 19.1048 24.6875 19.756 24.6875 20.4392C24.6875 23.2006 26.9261 25.4392 29.6875 25.4392C30.3706 25.4392 31.0217 25.3022 31.6149 25.0541Z" fill="#FF2EA6"/>
<path d="M30.1822 22.5553L29.1219 23.6455C29.0228 23.7475 28.9771 23.8901 28.9988 24.0308L29.2297 25.5339C29.2854 25.8965 28.9101 26.1719 28.5809 26.0099L27.2164 25.3385C27.0888 25.2756 26.939 25.2763 26.8119 25.3403L25.4538 26.0245C25.1261 26.1895 24.7483 25.9176 24.8006 25.5545L25.0174 24.0493C25.0378 23.9085 24.9908 23.7663 24.8907 23.6652L23.8203 22.5849C23.5621 22.3243 23.7039 21.8809 24.0654 21.8185L25.564 21.5596C25.7042 21.5354 25.8249 21.4468 25.8901 21.3203L26.5868 19.9685C26.7548 19.6424 27.2203 19.6403 27.3914 19.9648L28.1008 21.31C28.1671 21.4359 28.2886 21.5233 28.4291 21.5462L29.93 21.7911C30.292 21.8502 30.4379 22.2923 30.1822 22.5553Z" fill="#FFE7C0"/>
<path d="M30.182 22.5551L29.1217 23.6454C29.0346 23.735 28.9889 23.8559 28.9937 23.9793C27.4072 23.7269 26.0906 22.8119 25.4453 21.58L25.5638 21.5596C25.704 21.5354 25.8248 21.4468 25.8899 21.3203L26.5866 19.9685C26.7546 19.6424 27.2201 19.6403 27.3913 19.9648L28.1006 21.31C28.1669 21.4359 28.2884 21.5233 28.4289 21.5462L29.9298 21.7911C30.2918 21.8501 30.4378 22.2921 30.182 22.5551Z" fill="#FFF5F5"/>
<path d="M22.4131 14.7746L22.9299 15.7196C22.9529 15.7615 22.9874 15.796 23.0293 15.8189L23.9743 16.3357C24.1477 16.4306 24.1477 16.6796 23.9743 16.7744L23.0293 17.2912C22.9874 17.3142 22.9529 17.3487 22.9299 17.3906L22.4131 18.3356C22.3183 18.509 22.0692 18.509 21.9744 18.3356L21.4576 17.3906C21.4347 17.3487 21.4002 17.3142 21.3582 17.2912L20.4132 16.7744C20.2399 16.6796 20.2399 16.4306 20.4132 16.3357L21.3582 15.8189C21.4002 15.796 21.4347 15.7615 21.4576 15.7196L21.9744 14.7746C22.0692 14.6012 22.3183 14.6012 22.4131 14.7746Z" fill="#FFF36C"/>
<path d="M26.4663 15.0911L25.8747 13.3162C25.8436 13.2229 25.7704 13.1497 25.6771 13.1186L23.9022 12.527C23.6172 12.432 23.6172 12.029 23.9022 11.934L25.6771 11.3424C25.7704 11.3113 25.8436 11.2381 25.8747 11.1448L26.4663 9.36991C26.5612 9.08503 26.9642 9.08503 27.0592 9.36991L27.6509 11.1448C27.682 11.2381 27.7552 11.3113 27.8485 11.3424L29.6234 11.934C29.9082 12.029 29.9082 12.432 29.6234 12.527L27.8485 13.1186C27.7552 13.1497 27.6819 13.2229 27.6509 13.3162L27.0592 15.0911C26.9642 15.376 26.5613 15.376 26.4663 15.0911Z" fill="#FFF68E"/>
<path d="M18.1345 2.50029L18.5316 3.22635C18.5434 3.24785 18.561 3.26554 18.5826 3.27735L19.3086 3.67441C19.3975 3.72304 19.3975 3.85085 19.3086 3.89948L18.5826 4.29654C18.5611 4.30829 18.5434 4.32598 18.5316 4.34754L18.1345 5.07354C18.0859 5.16248 17.9581 5.16248 17.9095 5.07354L17.5124 4.34754C17.5007 4.32604 17.483 4.30835 17.4614 4.29654L16.7354 3.89948C16.6464 3.85085 16.6464 3.72304 16.7354 3.67441L17.4614 3.27735C17.4829 3.2656 17.5005 3.24791 17.5124 3.22635L17.9094 2.50035C17.9581 2.41135 18.0859 2.41135 18.1345 2.50029ZM12.1133 26.8397L12.5104 27.5657C12.5221 27.5872 12.5398 27.6049 12.5614 27.6167L13.2874 28.0138C13.3763 28.0624 13.3763 28.1902 13.2874 28.2389L12.5614 28.6359C12.5399 28.6477 12.5222 28.6654 12.5104 28.6869L12.1133 29.4129C12.0647 29.5019 11.9369 29.5019 11.8882 29.4129L11.4912 28.6869C11.4794 28.6654 11.4617 28.6477 11.4402 28.6359L10.7142 28.2389C10.6252 28.1902 10.6252 28.0624 10.7142 28.0138L11.4402 27.6167C11.4617 27.605 11.4794 27.5873 11.4912 27.5657L11.8882 26.8397C11.9369 26.7508 12.0646 26.7508 12.1133 26.8397Z" fill="#DEF4F8"/>
</g>
<defs>
<clipPath id="clip0_7404_10850">
<rect width="32" height="32" fill="white"/>
</clipPath>
</defs>
</svg>
