<svg width="24" height="24" viewBox="0 0 24 24" fill="none" xmlns="http://www.w3.org/2000/svg">
<path d="M13.12 24H10.88C10.123 24 9.484 23.433 9.394 22.68L9.155 20.804C8.678 20.649 8.218 20.458 7.781 20.235L6.287 21.396C5.681 21.865 4.828 21.811 4.302 21.27L2.727 19.695C2.19 19.174 2.136 18.321 2.605 17.716L3.766 16.221C3.542 15.784 3.351 15.324 3.197 14.847L1.317 14.608C0.567 14.516 0 13.877 0 13.12V10.88C0 10.123 0.567 9.484 1.32 9.394L3.196 9.155C3.351 8.678 3.542 8.218 3.765 7.781L2.605 6.287C2.135 5.681 2.19 4.827 2.732 4.301L4.307 2.726C4.828 2.189 5.682 2.136 6.286 2.604L7.78 3.766C8.217 3.543 8.677 3.352 9.155 3.197L9.394 1.317C9.484 0.567 10.123 0 10.88 0H13.12C13.877 0 14.516 0.567 14.606 1.32L14.845 3.196C15.323 3.351 15.783 3.542 16.22 3.765L17.714 2.604C18.321 2.135 19.173 2.189 19.699 2.731L21.274 4.306C21.811 4.827 21.865 5.68 21.396 6.285L20.235 7.78C20.459 8.217 20.65 8.677 20.804 9.154L22.684 9.393C23.433 9.484 24 10.123 24 10.88V13.12C24 13.877 23.433 14.516 22.68 14.606L20.804 14.845C20.649 15.322 20.458 15.782 20.235 16.219L21.396 17.713C21.866 18.319 21.811 19.172 21.269 19.698L19.694 21.273C19.173 21.81 18.319 21.865 17.715 21.395L16.22 20.234C15.783 20.458 15.323 20.649 14.846 20.803L14.607 22.683C14.516 23.433 13.877 24 13.12 24ZM7.73 19.14C7.813 19.14 7.898 19.161 7.974 19.203C8.525 19.511 9.122 19.759 9.748 19.939C9.94 19.994 10.081 20.158 10.106 20.356L10.386 22.556C10.416 22.807 10.633 23 10.88 23H13.12C13.367 23 13.584 22.807 13.613 22.561L13.894 20.357C13.919 20.159 14.06 19.995 14.252 19.94C14.878 19.76 15.475 19.512 16.026 19.204C16.201 19.106 16.419 19.123 16.576 19.246L18.326 20.606C18.527 20.762 18.809 20.749 18.981 20.572L20.566 18.987C20.747 18.811 20.761 18.529 20.605 18.327L19.245 16.577C19.122 16.419 19.105 16.202 19.203 16.027C19.511 15.476 19.759 14.879 19.939 14.253C19.994 14.061 20.158 13.92 20.356 13.895L22.556 13.615C22.807 13.584 23 13.367 23 13.12V10.88C23 10.633 22.807 10.416 22.561 10.387L20.357 10.106C20.159 10.081 19.995 9.94 19.94 9.748C19.76 9.122 19.512 8.525 19.204 7.974C19.106 7.799 19.122 7.582 19.246 7.424L20.606 5.674C20.763 5.472 20.749 5.19 20.573 5.02L18.988 3.435C18.813 3.253 18.53 3.239 18.328 3.396L16.578 4.756C16.419 4.879 16.202 4.896 16.027 4.798C15.478 4.49 14.881 4.243 14.253 4.062C14.061 4.007 13.92 3.843 13.895 3.645L13.615 1.445C13.584 1.193 13.367 1 13.12 1H10.88C10.633 1 10.416 1.193 10.387 1.439L10.106 3.643C10.081 3.841 9.94 4.005 9.748 4.061C9.12 4.241 8.523 4.489 7.974 4.796C7.799 4.895 7.582 4.877 7.423 4.755L5.673 3.395C5.471 3.238 5.19 3.252 5.019 3.428L3.434 5.014C3.253 5.19 3.239 5.472 3.395 5.674L4.755 7.424C4.878 7.582 4.895 7.799 4.797 7.974C4.488 8.525 4.241 9.122 4.061 9.748C4.006 9.94 3.842 10.081 3.644 10.106L1.444 10.386C1.193 10.416 1 10.633 1 10.88V13.12C1 13.367 1.193 13.584 1.439 13.613L3.643 13.894C3.841 13.919 4.005 14.06 4.06 14.252C4.24 14.878 4.488 15.475 4.796 16.026C4.894 16.201 4.878 16.418 4.754 16.576L3.394 18.326C3.237 18.528 3.251 18.81 3.427 18.98L5.012 20.565C5.187 20.746 5.468 20.76 5.672 20.604L7.422 19.244C7.513 19.176 7.621 19.14 7.73 19.14Z" fill="#EEECE8"/>
<path d="M12 17C9.243 17 7 14.757 7 12C7 9.243 9.243 7 12 7C14.757 7 17 9.243 17 12C17 14.757 14.757 17 12 17ZM12 8C9.794 8 8 9.794 8 12C8 14.206 9.794 16 12 16C14.206 16 16 14.206 16 12C16 9.794 14.206 8 12 8Z" fill="#EEECE8"/>
</svg>
