<svg width="48" height="48" viewBox="0 0 48 48" fill="none" xmlns="http://www.w3.org/2000/svg">
<path d="M48 24C48 30.1153 45.7116 35.6972 41.9456 39.9356C30.5531 45.0647 17.5106 45.0741 6.11063 39.9609L6.05438 39.9356C2.28844 35.6972 0 30.1153 0 24C0 19.6669 1.14844 15.6028 3.1575 12.0938C7.29375 4.86844 15.0787 0 24 0C32.9212 0 40.7062 4.86844 44.8425 12.0938C46.8516 15.6028 48 19.6669 48 24Z" fill="#DBB0C2"/>
<path d="M48 24C48 30.1153 45.7116 35.6972 41.9456 39.9356C30.5531 45.0647 17.5106 45.0741 6.11063 39.9609L6.05438 39.9356C2.28844 35.6972 0 30.1153 0 24C0 19.6669 1.14844 15.6028 3.1575 12.0938C7.29375 19.3191 15.0787 24.1875 24 24.1875C32.9212 24.1875 40.7062 19.3191 44.8425 12.0938C46.8516 15.6028 48 19.6669 48 24Z" fill="#D78FB6"/>
<path d="M6.05908 18.8877H41.9398V39.9353H6.05908V18.8877Z" fill="#C55732"/>
<path d="M13.9595 18.8877H41.9402V39.9353H13.9595V18.8877Z" fill="#A64942"/>
<path d="M23.9995 18.8877H41.9399V39.9353H23.9995V18.8877Z" fill="#8E3723"/>
<path d="M3.91846 16.123H44.0815V21.6527H3.91846V16.123Z" fill="#63455D"/>
<path d="M13.9595 16.123H44.0816V21.6527H13.9595V16.123Z" fill="#53354B"/>
<path d="M23.9995 16.123H44.0814V21.6527H23.9995V16.123Z" fill="#42293D"/>
<path d="M41.9454 39.9355C37.5561 44.8752 31.1595 47.9896 24.0336 47.9999H23.9998C16.8608 47.9999 10.4501 44.8827 6.0542 39.9355H41.9454Z" fill="#CFF6FF"/>
<path d="M41.9456 39.9355C37.5562 44.8752 31.1596 47.9896 24.0337 47.9999V39.9355H41.9456Z" fill="#B0EDF7"/>
<path d="M12.5537 31.458H18.7841V33.1282H12.5537V31.458Z" fill="#42293D"/>
<path d="M13.389 24.6372V32.377L11.9864 39.267C11.9073 39.6559 11.5651 39.9353 11.168 39.9353C11.1107 39.9353 11.0549 39.9297 11.0014 39.9187C10.6144 39.8408 10.333 39.4967 10.333 39.1022C10.333 39.0467 10.3384 38.9906 10.3501 38.9339L11.719 32.2088V24.6372H13.389Z" fill="#53354B"/>
<path d="M20.3368 39.9187C20.2833 39.9297 20.2275 39.9353 20.1702 39.9353C19.7731 39.9353 19.4308 39.6558 19.3518 39.267L17.9492 32.377V24.6372H19.6194V32.2087L20.9886 38.9338C21.0824 39.3952 20.7784 39.8298 20.3368 39.9187Z" fill="#53354B"/>
<path d="M13.3891 24.6372V32.377L11.9865 39.267C11.9074 39.6559 11.5652 39.9353 11.1682 39.9353C11.1108 39.9353 11.055 39.9297 11.0015 39.9187L12.5541 32.2929V24.6372H13.3891Z" fill="#42293D"/>
<path d="M20.3368 39.9186L18.7842 32.2929V24.6372H19.6193V32.2087L20.9885 38.9338C21.0824 39.3952 20.7783 39.8298 20.3368 39.9186Z" fill="#42293D"/>
<path d="M16.5041 24.6372V39.1002C16.5041 39.5616 16.1304 39.9353 15.669 39.9353C15.4383 39.9353 15.2297 39.8418 15.0785 39.6908C14.9272 39.5399 14.834 39.3309 14.834 39.1003V24.6372H16.5041Z" fill="#53354B"/>
<path d="M16.5041 24.6372V39.1002C16.5041 39.5616 16.1303 39.9353 15.6689 39.9353V24.6372H16.5041Z" fill="#42293D"/>
<path d="M21.4911 24.6373C21.4911 24.9963 21.3455 25.3214 21.1104 25.5568C20.875 25.792 20.5498 25.9376 20.1909 25.9376H11.1471C10.4293 25.9376 9.84717 25.3556 9.84717 24.6373C9.84717 24.2784 9.99276 23.9535 10.2279 23.7181C10.4633 23.483 10.7882 23.3374 11.1471 23.3374H20.1909C20.9091 23.3374 21.4911 23.9195 21.4911 24.6373Z" fill="#FFDC00"/>
<path d="M21.4911 24.6373C21.4911 24.9963 21.3455 25.3214 21.1104 25.5568C20.875 25.792 20.5497 25.9376 20.1909 25.9376H13.8536C13.1358 25.9376 12.5537 25.3556 12.5537 24.6373C12.5537 24.2784 12.6993 23.9535 12.9344 23.7181C13.1698 23.483 13.4948 23.3374 13.8536 23.3374H20.1909C20.9091 23.3374 21.4911 23.9195 21.4911 24.6373Z" fill="#FFBC00"/>
<path d="M21.4909 24.6372C21.4909 24.9962 21.3453 25.3213 21.1102 25.5567C20.8748 25.7919 20.5496 25.9375 20.1907 25.9375H15.6689V23.3374H20.1907C20.9089 23.3373 21.4909 23.9194 21.4909 24.6372Z" fill="#FF9100"/>
<path d="M29.2158 31.458H35.4463V33.1282H29.2158V31.458Z" fill="#42293D"/>
<path d="M30.0511 24.6372V32.377L28.6485 39.267C28.5694 39.6559 28.2272 39.9353 27.8301 39.9353C27.7728 39.9353 27.717 39.9297 27.6635 39.9187C27.2765 39.8408 26.9951 39.4967 26.9951 39.1022C26.9951 39.0467 27.0005 38.9906 27.0122 38.9339L28.3811 32.2088V24.6372H30.0511Z" fill="#53354B"/>
<path d="M36.999 39.9187C36.9455 39.9297 36.8897 39.9353 36.8323 39.9353C36.4353 39.9353 36.093 39.6558 36.014 39.267L34.6113 32.377V24.6372H36.2815V32.2087L37.6507 38.9338C37.7446 39.3952 37.4406 39.8298 36.999 39.9187Z" fill="#53354B"/>
<path d="M30.0512 24.6372V32.377L28.6486 39.267C28.5695 39.6559 28.2273 39.9353 27.8303 39.9353C27.7729 39.9353 27.7171 39.9297 27.6636 39.9187L29.2162 32.2929V24.6372H30.0512Z" fill="#42293D"/>
<path d="M36.9989 39.9186L35.4463 32.2929V24.6372H36.2814V32.2087L37.6506 38.9338C37.7445 39.3952 37.4404 39.8298 36.9989 39.9186Z" fill="#42293D"/>
<path d="M33.1663 24.6372V39.1002C33.1663 39.5616 32.7925 39.9353 32.3311 39.9353C32.1004 39.9353 31.8918 39.8418 31.7406 39.6908C31.5893 39.5399 31.4961 39.3309 31.4961 39.1003V24.6372H33.1663Z" fill="#53354B"/>
<path d="M33.1662 24.6372V39.1002C33.1662 39.5616 32.7924 39.9353 32.3311 39.9353V24.6372H33.1662Z" fill="#42293D"/>
<path d="M38.1532 24.6373C38.1532 24.9963 38.0076 25.3214 37.7725 25.5568C37.5371 25.792 37.2119 25.9376 36.853 25.9376H27.8092C27.0914 25.9376 26.5093 25.3556 26.5093 24.6373C26.5093 24.2784 26.6549 23.9535 26.89 23.7181C27.1254 23.483 27.4502 23.3374 27.8092 23.3374H36.853C37.5712 23.3374 38.1532 23.9195 38.1532 24.6373Z" fill="#FFDC00"/>
<path d="M38.1532 24.6373C38.1532 24.9963 38.0076 25.3214 37.7725 25.5568C37.5371 25.792 37.2119 25.9376 36.853 25.9376H30.5158C29.7979 25.9376 29.2158 25.3556 29.2158 24.6373C29.2158 24.2784 29.3614 23.9535 29.5965 23.7181C29.8319 23.483 30.1568 23.3374 30.5158 23.3374H36.853C37.5712 23.3374 38.1532 23.9195 38.1532 24.6373Z" fill="#FFBC00"/>
<path d="M38.153 24.6372C38.153 24.9962 38.0074 25.3213 37.7723 25.5567C37.5369 25.7919 37.2117 25.9375 36.8528 25.9375H32.3311V23.3374H36.8528C37.571 23.3373 38.153 23.9194 38.153 24.6372Z" fill="#FF9100"/>
<path d="M26.6123 8.53022V15.182C26.6123 15.702 26.1906 16.1234 25.6709 16.1234H22.3291C21.8094 16.1234 21.3877 15.702 21.3877 15.182V8.53022C21.3877 8.11744 21.591 7.73119 21.9309 7.49757L22.7322 6.94669C23.0496 6.72835 23.2392 6.36807 23.2392 5.98285V3.98682H24.7607V5.98294C24.7607 6.36816 24.9503 6.72844 25.2677 6.94679L26.069 7.49766C26.4089 7.73129 26.6123 8.11744 26.6123 8.53022Z" fill="#85EF47"/>
<path d="M26.6123 8.53022V15.182C26.6123 15.702 26.1906 16.1234 25.6709 16.1234H23.1244C22.8517 16.1234 22.6309 15.702 22.6309 15.182V8.53022C22.6309 8.11744 22.7374 7.73119 22.9155 7.49757L23.3356 6.94669C23.502 6.72835 23.6014 6.36807 23.6014 5.98285V3.98682H24.7609V5.98294C24.7609 6.36816 24.9504 6.72844 25.2679 6.94679L26.0691 7.49766C26.409 7.73129 26.6123 8.11744 26.6123 8.53022Z" fill="#02BD57"/>
<path d="M26.6123 8.53022V15.182C26.6123 15.702 26.1906 16.1234 25.6708 16.1234H24V3.98682H24.7608V5.98294C24.7608 6.36816 24.9503 6.72844 25.2678 6.94679L26.0691 7.49766C26.4089 7.73129 26.6123 8.11744 26.6123 8.53022Z" fill="#02A548"/>
<path d="M24.9251 2.76342V5.36292C24.9251 5.51405 24.8024 5.63583 24.6519 5.63583H23.3489C23.1977 5.63583 23.0757 5.51405 23.0757 5.36292V2.76342C23.0757 2.61295 23.1977 2.49023 23.3489 2.49023H24.6519C24.8024 2.49033 24.9251 2.61295 24.9251 2.76342Z" fill="#FC5B5B"/>
<path d="M24.9248 2.76382V5.36313C24.9248 5.51397 24.8025 5.63603 24.6517 5.63603H23.811C23.6601 5.63603 23.5381 5.51397 23.5381 5.36313V2.76382C23.5381 2.61297 23.6601 2.49072 23.811 2.49072H24.6517C24.8026 2.49072 24.9248 2.61297 24.9248 2.76382Z" fill="#FF3D3B"/>
<path d="M24.9246 2.76382V5.36313C24.9246 5.51397 24.8022 5.63603 24.6515 5.63603H24V2.49072H24.6515C24.8023 2.49072 24.9246 2.61297 24.9246 2.76382Z" fill="#D32523"/>
<path d="M15.8663 12.3417L15.6718 15.9008C15.6649 16.0255 15.5619 16.1231 15.437 16.1231H12.4816C12.3567 16.1231 12.2536 16.0255 12.2467 15.9008L12.0521 12.3417C12.0448 12.2071 12.152 12.0938 12.287 12.0938H15.6316C15.7665 12.0938 15.8736 12.2071 15.8663 12.3417Z" fill="white"/>
<path d="M15.8662 12.3417L15.6717 15.9008C15.6648 16.0255 15.5618 16.1231 15.4369 16.1231H13.1393C13.07 16.1231 13.0128 16.0255 13.0091 15.9008L12.9011 12.3417C12.897 12.2071 12.9566 12.0938 13.0313 12.0938H15.6315C15.7664 12.0938 15.8735 12.2071 15.8662 12.3417Z" fill="#CFF6FF"/>
<path d="M15.8661 12.3417L15.6716 15.9008C15.6648 16.0255 15.5617 16.1231 15.4369 16.1231H13.959V12.0938H15.6313C15.7663 12.0938 15.8735 12.2071 15.8661 12.3417Z" fill="#B0EDF7"/>
<path d="M35.9478 12.3417L35.7532 15.9008C35.7464 16.0255 35.6434 16.1231 35.5185 16.1231H32.563C32.4382 16.1231 32.335 16.0255 32.3283 15.9008L32.1337 12.3417C32.1263 12.2071 32.2336 12.0938 32.3685 12.0938H35.7131C35.8478 12.0938 35.9551 12.2071 35.9478 12.3417Z" fill="white"/>
<path d="M35.9477 12.3417L35.7532 15.9008C35.7464 16.0255 35.6433 16.1231 35.5185 16.1231H33.2208C33.1516 16.1231 33.0944 16.0255 33.0906 15.9008L32.9826 12.3417C32.9785 12.2071 33.038 12.0938 33.1128 12.0938H35.713C35.8478 12.0938 35.9551 12.2071 35.9477 12.3417Z" fill="#CFF6FF"/>
<path d="M35.9477 12.3417L35.7532 15.9008C35.7463 16.0255 35.6433 16.1231 35.5184 16.1231H34.0405V12.0938H35.7129C35.8478 12.0938 35.955 12.2071 35.9477 12.3417Z" fill="#B0EDF7"/>
</svg>
