<svg width="16" height="16" viewBox="0 0 16 16" fill="none" xmlns="http://www.w3.org/2000/svg">
<path d="M16 8C16 12.4183 12.4183 16 8 16C3.58167 16 0 12.4183 0 8C0 3.58167 3.58167 0 8 0C12.4183 0 16 3.58167 16 8Z" fill="#F3C76F"/>
<path d="M8.35852 14.8497C10.0679 13.5524 9.18176 11.7628 9.18176 11.7628C9.18176 11.7628 6.23914 6.81787 5.84082 6.81787C3.38452 5.18823 4.80322 0.68689 4.81165 0.660156C1.98022 1.89197 0 4.71472 0 7.99951C0 12.2125 3.25659 15.6649 7.38989 15.9766C7.57263 15.6073 7.87378 15.2177 8.35852 14.8497Z" fill="#DDA22E"/>
<path d="M12.1362 6.8186H9.76111C9.44129 6.8186 9.18201 6.5592 9.18201 6.23938V3.86438C9.18201 3.21167 8.65295 2.68262 8.00024 2.68262C7.34766 2.68262 6.8186 3.21167 6.8186 3.86438V6.23938C6.8186 6.5592 6.5592 6.8186 6.23938 6.8186H3.86438C3.21167 6.8186 2.68262 7.34766 2.68262 8.00024C2.68262 8.65283 3.21167 9.18189 3.86438 9.18189H6.23938C6.5592 9.18189 6.8186 9.44129 6.8186 9.76111V12.1361C6.8186 12.7888 7.34766 13.3179 8.00024 13.3179C8.65295 13.3179 9.18201 12.7888 9.18201 12.1361V9.76111C9.18201 9.44129 9.44129 9.18189 9.76111 9.18189H12.1362C12.7888 9.18189 13.3179 8.65283 13.3179 8.00024C13.3179 7.34766 12.7888 6.8186 12.1362 6.8186Z" fill="#FFFCDC"/>
</svg>
