<svg width="48" height="48" viewBox="0 0 48 48" fill="none" xmlns="http://www.w3.org/2000/svg">
<path d="M48 24C48 37.255 37.255 48 24 48C10.745 48 0 37.255 0 24C0 10.745 10.745 0 24 0C37.255 0 48 10.745 48 24Z" fill="#FFE955"/>
<path d="M48 24C48 37.2543 37.2543 48 24 48C10.7457 48 0 37.2543 0 24C0 19.667 1.14844 15.6028 3.15747 12.0938C7.29382 19.3191 15.0787 24.1875 24 24.1875C32.9213 24.1875 40.7073 19.3191 44.8425 12.0938C46.8516 15.6028 48 19.667 48 24Z" fill="#FFD112"/>
<path d="M45.1184 35.4092V35.4103C41.0597 42.9073 33.1239 47.9999 24.0001 47.9999C14.8763 47.9999 6.94055 42.9073 2.88184 35.4103V35.4092H45.1184Z" fill="#FF9F00"/>
<path d="M26.4597 20.9569V45.8325C26.4597 46.0687 26.4242 46.2965 26.3568 46.5115C26.1411 47.2003 25.6057 47.7489 24.9235 47.9822C24.7546 47.9888 24.5869 47.9935 24.4181 47.9965C24.2793 47.999 24.1394 48.0001 23.9999 48.0001C23.9457 48.0001 23.8911 48.0001 23.8369 47.999C21.8341 47.9862 19.891 47.7273 18.0336 47.2531C14.9409 46.4606 12.0881 45.0686 9.60742 43.2068V20.9569C9.60742 19.7015 10.6244 18.6846 11.8798 18.6846H24.1863C25.4427 18.6846 26.4597 19.7015 26.4597 20.9569Z" fill="#00A042"/>
<path d="M26.4598 20.9569V45.8325C26.4598 46.0687 26.4243 46.2965 26.3569 46.5115C26.1412 47.2003 25.6058 47.7489 24.9236 47.9822C24.7548 47.9888 24.587 47.9935 24.4182 47.9965C24.2794 47.999 24.1395 48.0001 24 48.0001C23.9458 48.0001 23.8912 48.0001 23.837 47.999C21.8342 47.9862 19.8911 47.7273 18.0337 47.2531V18.6846H24.1864C25.4429 18.6846 26.4598 19.7015 26.4598 20.9569Z" fill="#037230"/>
<path d="M21.4341 21.0815H14.6335C14.6335 22.5336 13.4562 23.7102 12.0049 23.7102V43.0791C13.4562 43.0791 14.6335 44.2554 14.6335 45.7078H21.4341C21.4341 44.8629 21.8318 44.1122 22.4503 43.6321C22.8956 43.2853 23.4545 43.0791 24.0631 43.0791V23.7102C22.6107 23.7102 21.4341 22.5336 21.4341 21.0815Z" fill="#6CDC2D"/>
<path d="M24.0626 23.7097V43.0786C22.6106 43.0786 21.434 44.2552 21.434 45.7073H18.0337V21.0811H21.434C21.434 22.5334 22.6106 23.7097 24.0626 23.7097Z" fill="#00A042"/>
<path d="M21.8606 33.3943C21.8606 31.2809 20.1471 29.5674 18.0333 29.5674C15.9196 29.5674 14.2061 31.2809 14.2061 33.3943C14.2061 35.5081 15.9196 37.2212 18.0333 37.2212C20.1471 37.2212 21.8606 35.5081 21.8606 33.3943Z" fill="#FFE955"/>
<path d="M21.8606 33.3943C21.8606 35.5084 20.1478 37.2212 18.0337 37.2212V29.5674C20.1478 29.5674 21.8606 31.2805 21.8606 33.3943Z" fill="#FFD112"/>
<path d="M20.218 33.3944C20.218 34.6022 19.2402 35.5789 18.0336 35.5789C16.8262 35.5789 15.8491 34.6022 15.8491 33.3944C15.8491 32.1881 16.8262 31.21 18.0336 31.21C19.2402 31.2103 20.218 32.1881 20.218 33.3944Z" fill="white"/>
<path d="M20.2181 33.3944C20.2181 34.6022 19.2404 35.5789 18.0337 35.5789V31.21C19.2404 31.2103 20.2181 32.1881 20.2181 33.3944Z" fill="#D0F6FF"/>
<path d="M43.2272 26.9934L34.8505 45.4117C31.8497 46.9358 28.4861 47.8481 24.9236 47.9821C24.7548 47.9887 24.587 47.9934 24.4182 47.9964C24.2794 47.9989 24.1395 48 24 48C23.9458 48 23.8912 48 23.837 47.9989L18.7987 45.7079L18.7163 45.6702C18.4537 45.5512 18.2241 45.3871 18.0337 45.1923C17.3954 44.5415 17.1881 43.5403 17.5884 42.661L18.0337 41.6822L20.4543 36.3589L21.8588 33.271L24.063 28.425L26.4598 23.1544L27.887 20.0168C28.4062 18.8745 29.7535 18.3695 30.8961 18.8888L36.4977 21.4369L42.0985 23.9839C43.2422 24.5036 43.7465 25.8505 43.2272 26.9934Z" fill="#00A042"/>
<path d="M43.2269 26.9935L34.8502 45.4117C31.8495 46.9359 28.4858 47.8481 24.9233 47.9822C24.7545 47.9888 24.5868 47.9935 24.418 47.9965L25.3104 46.0361V46.035L26.4596 43.5085V43.5074L28.8231 38.3109L29.5028 36.8157H29.5039L30.4077 34.8271L31.3123 32.839L31.9919 31.3434L35.5046 23.6185H35.5057L36.4974 21.437L42.0983 23.984C43.2419 24.5037 43.7462 25.8506 43.2269 26.9935Z" fill="#037230"/>
<path d="M39.9047 28.5073C39.6029 28.3696 39.3385 28.1821 39.1191 27.958C39.0752 27.913 39.0331 27.8672 38.9917 27.8192C38.9514 27.7723 38.913 27.7236 38.8763 27.6731C38.8397 27.6233 38.8053 27.5728 38.7712 27.5204C38.7386 27.4677 38.7068 27.4146 38.6786 27.36C38.6346 27.2783 38.5951 27.1941 38.5603 27.1088C38.2959 26.4628 38.2886 25.7128 38.6006 25.0265L35.5061 23.6195L35.505 23.6184L32.4105 22.2114C31.8096 23.5331 30.2506 24.1161 28.9293 23.5151L26.46 28.9453L24.0631 34.2158L20.9111 41.1467C21.9087 41.6005 22.4869 42.601 22.4503 43.6322C22.4393 43.9658 22.3632 44.3042 22.2159 44.6279L25.3108 46.0349V46.036L26.3571 46.5114L28.4053 47.443H28.4064C28.4617 47.3221 28.5247 47.2079 28.5939 47.0991C28.5939 47.098 28.5939 47.098 28.595 47.098C28.6294 47.0446 28.666 46.9922 28.7045 46.9417C28.7719 46.8527 28.8444 46.7681 28.922 46.6904C28.9333 46.678 28.9443 46.667 28.9557 46.6567C29.2465 46.3696 29.598 46.1587 29.9785 46.0342C30.0309 46.0162 30.0836 46.0012 30.1371 45.9873C30.526 45.8859 30.9406 45.8727 31.3481 45.9598C31.3943 45.9694 31.4393 45.9807 31.484 45.9928C31.5067 45.9994 31.5302 46.006 31.5525 46.0126C31.6653 46.0463 31.7777 46.0884 31.8872 46.1382L34.3943 40.6274L39.9058 28.5073H39.9047Z" fill="#6CDC2D"/>
<path d="M39.9053 28.5071L31.8875 46.1383C30.5654 45.537 29.0072 46.1211 28.4062 47.4427L25.311 46.0354L35.5056 23.6182L38.6008 25.0259C37.9995 26.3479 38.5836 27.9058 39.9053 28.5071Z" fill="#00A042"/>
<path d="M31.9938 31.3438C30.0693 30.4689 27.8003 31.3189 26.9254 33.243C26.0502 35.167 26.9009 37.4361 28.825 38.3109C30.749 39.1862 33.0185 38.3359 33.8933 36.4121C34.7682 34.4881 33.9179 32.219 31.9938 31.3438Z" fill="#FFE955"/>
<path d="M33.8918 36.4113C33.0166 38.3357 30.7483 39.1857 28.8242 38.3104L31.9927 31.3433C33.9167 32.2185 34.7671 34.4868 33.8918 36.4113Z" fill="#FFD112"/>
<path d="M32.3967 35.731C31.8968 36.8303 30.6026 37.3148 29.5043 36.8153C28.405 36.3154 27.9201 35.0216 28.42 33.9226C28.9195 32.8244 30.2137 32.3384 31.3127 32.8383C32.4109 33.3378 32.8962 34.6327 32.3967 35.731Z" fill="white"/>
<path d="M32.3962 35.7311C31.8964 36.8304 30.6022 37.3149 29.5039 36.8154L31.3123 32.8384C32.4105 33.3379 32.8957 34.6328 32.3962 35.7311Z" fill="#D0F6FF"/>
<path d="M8.65918 18.6639H8.51636C7.88318 18.6639 7.36975 18.1505 7.36975 17.5177V17.3745H6.55273V17.5177C6.55273 18.1505 6.03967 18.6639 5.40649 18.6639H5.26367V19.481H5.40649C6.03967 19.481 6.55273 19.994 6.55273 20.6272V20.7704H7.36975V20.6272C7.36975 19.994 7.88318 19.481 8.51636 19.481H8.65918V18.6639Z" fill="white"/>
<path d="M14.7202 8.80762H14.5774C13.9442 8.80762 13.4312 8.29456 13.4312 7.66138V7.51855H12.6141V7.66138C12.6141 8.29456 12.1007 8.80762 11.4679 8.80762H11.3247V9.625H11.4679C12.1007 9.625 12.6141 10.1381 12.6141 10.7712V10.9141H13.4312V10.7712C13.4312 10.1381 13.9442 9.625 14.5774 9.625H14.7202V8.80762Z" fill="white"/>
<path d="M36.6748 8.80762H36.532C35.8992 8.80762 35.3857 8.29456 35.3857 7.66138V7.51855H34.5687V7.66138C34.5687 8.29456 34.0557 8.80762 33.4225 8.80762H33.2793V9.625H33.4225C34.0557 9.625 34.5687 10.1381 34.5687 10.7712V10.9141H35.3857V10.7712C35.3857 10.1381 35.8992 9.625 36.532 9.625H36.6748V8.80762Z" fill="white"/>
<path d="M42.7363 18.6639H42.5935C41.9603 18.6639 41.4473 18.1505 41.4473 17.5177V17.3745H40.6302V17.5177C40.6302 18.1505 40.1168 18.6639 39.4836 18.6639H39.3408V19.481H39.4836C40.1168 19.481 40.6302 19.994 40.6302 20.6272V20.7704H41.4473V20.6272C41.4473 19.994 41.9603 19.481 42.5935 19.481H42.7363V18.6639Z" fill="white"/>
</svg>
