<svg width="24" height="24" viewBox="0 0 24 24" fill="none" xmlns="http://www.w3.org/2000/svg">
<path d="M12 0C5.38332 0 0 5.38332 0 12C0 18.6166 5.38332 24 12 24C18.6166 24 24 18.6166 24 12C24 5.38332 18.6167 0 12 0ZM12 22.9565C5.95824 22.9565 1.04346 18.0417 1.04346 12C1.04346 5.95824 5.95824 1.04346 12 1.04346C18.0417 1.04346 22.9565 5.95824 22.9565 12C22.9565 18.0417 18.0417 22.9565 12 22.9565Z" fill="#EEECE8"/>
<path d="M11.9999 11.4766C8.26007 11.4766 5.21729 14.5193 5.21729 18.2592C5.21729 18.5472 5.45104 18.7809 5.73904 18.7809C6.02704 18.7809 6.2608 18.5471 6.2608 18.2591C6.2608 15.0943 8.83504 12.52 11.9999 12.52C15.1648 12.52 17.739 15.0943 17.739 18.2591C17.739 18.5471 17.9728 18.7809 18.2608 18.7809C18.5488 18.7809 18.7825 18.5471 18.7825 18.2591C18.7825 14.5193 15.7397 11.4766 11.9999 11.4766Z" fill="#EEECE8"/>
<path d="M11.9998 3.12891C9.98594 3.12891 8.34766 4.76715 8.34766 6.78109C8.34766 8.79504 9.9859 10.4333 11.9998 10.4333C14.0138 10.4333 15.652 8.79499 15.652 6.78109C15.652 4.7672 14.0138 3.12891 11.9998 3.12891ZM11.9998 9.38977C10.5619 9.38977 9.39116 8.21899 9.39116 6.78109C9.39116 5.3432 10.5619 4.17242 11.9998 4.17242C13.4377 4.17242 14.6085 5.3432 14.6085 6.78109C14.6085 8.21899 13.4378 9.38977 11.9998 9.38977Z" fill="#EEECE8"/>
</svg>
