<svg width="40" height="40" viewBox="0 0 40 40" fill="none" xmlns="http://www.w3.org/2000/svg">
<path d="M6.89234 35.1064C2.66992 31.4394 0 26.0315 0 20C0 8.9543 8.9543 0 20 0C31.0457 0 40 8.9543 40 20C40 26.0359 37.3262 31.4473 33.0984 35.1144L6.89234 35.1064Z" fill="#F3C76F"/>
<path d="M39.8352 22.5806L25.9655 8.71094L11.2437 20.0001L15.9777 24.7341L15.3567 25.0759L25.393 35.1121L33.0984 35.1145C36.7138 31.9787 39.1928 27.5673 39.8352 22.5806Z" fill="#F2AE00"/>
<path d="M20.0006 31.9102C22.0368 31.9102 23.8417 29.838 24.9602 28.3129L23.7987 27.8987C22.9779 27.6059 22.4228 26.7722 22.4228 25.832V23H17.6206V25.832C17.6206 26.7722 17.0655 27.6059 16.2446 27.8987L15.0498 28.3248C16.1689 29.8431 17.9696 31.9102 20.0006 31.9102Z" fill="#FFBEAA"/>
<path d="M23.798 27.8987C22.9772 27.6059 22.4221 26.7722 22.4221 25.832V23H19.9722V31.9094C19.9815 31.9095 19.9907 31.9102 20 31.9102C22.0362 31.9102 23.8411 29.838 24.9596 28.3129L23.798 27.8987Z" fill="#FAA68E"/>
<path d="M31.2626 32.1968C30.3904 30.8241 29.1296 29.7999 27.6726 29.2804L26.218 28.7617L24.9599 28.723C23.8415 30.2481 22.0423 31.2259 20.0061 31.2259C17.9752 31.2259 16.0487 30.2116 14.9296 28.6934L13.7924 28.7733L12.3702 29.2805C10.9132 29.8 9.65242 30.8243 8.78023 32.1969L6.89062 35.1048C10.4012 38.1542 14.9852 40.0002 20.0004 40.0002C25.0102 40.0002 29.5897 38.1582 33.0987 35.1145L31.2626 32.1968Z" fill="white"/>
<path d="M33.0989 35.1141L31.2627 32.1964C30.3905 30.8237 29.1298 29.7995 27.6727 29.28L26.2182 28.7613L24.9601 28.7227C23.8416 30.2477 22.0424 31.2255 20.0062 31.2255C19.995 31.2255 19.9839 31.225 19.9727 31.2249V39.9995C19.982 39.9995 19.9912 39.9998 20.0005 39.9998C25.0103 39.9998 29.5898 38.1578 33.0989 35.1141Z" fill="#E9EDF5"/>
<path d="M20.0019 32.0507C22.5318 32.0507 24.7824 30.62 26.2188 28.7624L24.9599 28.3135C23.8414 29.8386 22.0365 30.8287 20.0003 30.8287C17.9694 30.8287 16.1686 29.8437 15.0495 28.3254L13.7935 28.7732C15.2303 30.6247 17.4769 32.0507 20.0019 32.0507Z" fill="#E9EDF5"/>
<path d="M24.9596 28.3135C23.8411 29.8386 22.0361 30.8287 20 30.8287C19.9907 30.8287 19.9815 30.8283 19.9722 30.8283V32.0503C19.982 32.0503 19.9917 32.0508 20.0015 32.0508C22.5315 32.0508 24.782 30.6201 26.2184 28.7625L24.9596 28.3135Z" fill="#CDD2E1"/>
<path d="M15.4844 18.3473C15.7209 16.9065 14.7446 15.5469 13.3039 15.3104C11.8632 15.0739 10.5035 16.0502 10.267 17.4909C10.0306 18.9317 11.0068 20.2913 12.4476 20.5278C13.8883 20.7643 15.2479 19.788 15.4844 18.3473Z" fill="#FFBEAA"/>
<path d="M29.7442 18.3443C29.9807 16.9036 29.0044 15.544 27.5637 15.3075C26.1229 15.071 24.7633 16.0473 24.5268 17.488C24.2903 18.9287 25.2666 20.2884 26.7073 20.5249C28.1481 20.7613 29.5077 19.7851 29.7442 18.3443Z" fill="#FAA68E"/>
<path d="M20.0002 26.6794C15.8466 26.6794 12.4795 23.3123 12.4795 19.1587V16.5617C12.4795 12.4081 15.8466 9.04102 20.0002 9.04102C24.1538 9.04102 27.5209 12.4081 27.5209 16.5617V19.1587C27.5209 23.3123 24.1538 26.6794 20.0002 26.6794Z" fill="#FFDECF"/>
<path d="M20 9.04102C19.9907 9.04102 19.9815 9.04133 19.9722 9.04141V26.679C19.9815 26.679 19.9907 26.6793 20 26.6793C24.1536 26.6793 27.5207 23.3122 27.5207 19.1586V16.5616C27.5207 12.4081 24.1536 9.04102 20 9.04102Z" fill="#FFCDBE"/>
<path d="M28.2892 14.4661C28.2892 9.87829 24.5621 6.16087 19.9705 6.17681C15.3891 6.19267 11.7104 9.9747 11.7104 14.5561V17.2818C11.7104 17.8092 12.1379 18.2366 12.6652 18.2366C12.7787 13.0324 16.0178 9.86095 19.9998 9.86095C23.9819 9.86095 27.2209 13.0324 27.3344 18.2366C27.8617 18.2366 28.2891 17.8091 28.2891 17.2818V14.4661H28.2892Z" fill="#707789"/>
<path d="M19.9722 6.1768V9.86126C19.9815 9.86126 19.9907 9.86087 20 9.86087C23.982 9.86087 27.2211 13.0324 27.3346 18.2365C27.8619 18.2365 28.2893 17.809 28.2893 17.2817V14.4661C28.2893 9.87876 24.563 6.16173 19.9722 6.1768Z" fill="#555A66"/>
</svg>
