<svg width="120" height="160" viewBox="0 0 120 160" fill="none" xmlns="http://www.w3.org/2000/svg">
<path d="M118.63 160H1.37109C0.680781 160 0.121094 159.44 0.121094 158.75V19.1887C0.121094 8.59094 8.71235 0 19.3099 0H100.691C111.289 0 119.88 8.59094 119.88 19.1887V158.75C119.88 159.44 119.32 160 118.63 160Z" fill="#6D8089"/>
<path d="M100.691 0H91.0332C101.631 0 110.222 8.59094 110.222 19.1884V160H118.63C119.32 160 119.88 159.44 119.88 158.75V19.1884C119.88 8.59094 111.289 0 100.691 0V0Z" fill="#6D8089"/>
<path d="M9.7793 160V19.1883C9.7793 13.933 14.0549 9.65771 19.3099 9.65771H100.691C105.946 9.65771 110.222 13.933 110.222 19.1883V160H9.7793Z" fill="#90A4AE"/>
<path d="M100.691 9.65771H91.0332C96.2882 9.65771 100.564 13.933 100.564 19.1883V160H110.222V19.1883C110.222 13.9333 105.946 9.65771 100.691 9.65771V9.65771Z" fill="#90A4AE"/>
<path d="M100.508 160H19.4932V45.0163C19.4932 44.3051 20.0697 43.7285 20.781 43.7285H99.221C99.9322 43.7285 100.509 44.3051 100.509 45.0163V160H100.508Z" fill="#EEECE8"/>
<path d="M99.2203 43.7285H89.5625C90.2737 43.7285 90.8503 44.3051 90.8503 45.0163V160H100.508V45.0163C100.508 44.3051 99.9315 43.7285 99.2203 43.7285Z" fill="#EEECE8"/>
<path d="M83.0201 80.0098H35.6457C34.682 80.0098 33.9004 79.2285 33.9004 78.2645V65.0051C33.9004 64.0413 34.6816 63.2598 35.6457 63.2598H83.0204C83.9842 63.2598 84.7657 64.041 84.7657 65.0051V78.2645C84.7654 79.2282 83.9842 80.0098 83.0201 80.0098V80.0098Z" fill="#F3C76F"/>
<path d="M49.3629 140.236H35.1882C34.477 140.236 33.9004 139.659 33.9004 138.948V124.773C33.9004 124.062 34.477 123.485 35.1882 123.485H49.3629C50.0741 123.485 50.6507 124.062 50.6507 124.773V138.948C50.6507 139.659 50.0741 140.236 49.3629 140.236Z" fill="#F3C76F"/>
<path d="M75.1074 63.2598V80.0098H83.0199C83.9837 80.0098 84.7652 79.2285 84.7652 78.2645V65.0051C84.7652 64.0413 83.984 63.2598 83.0199 63.2598H75.1074Z" fill="#F3C76F"/>
<path d="M35.0986 91.853H84.903C86.1974 91.853 87.2468 90.804 87.2468 89.5093C87.2468 88.2146 86.1974 87.1655 84.903 87.1655H35.0986C33.8043 87.1655 32.7549 88.2146 32.7549 89.5093C32.7549 90.804 33.8043 91.853 35.0986 91.853V91.853Z" fill="#90A4AE"/>
<path d="M84.903 96.0806H35.0986C33.8043 96.0806 32.7549 97.1296 32.7549 98.4243C32.7549 99.719 33.8043 100.768 35.0986 100.768H84.903C86.1974 100.768 87.2468 99.719 87.2468 98.4243C87.2468 97.1296 86.1974 96.0806 84.903 96.0806Z" fill="#90A4AE"/>
<path d="M84.903 104.996H35.0986C33.8043 104.996 32.7549 106.045 32.7549 107.339C32.7549 108.634 33.8043 109.683 35.0986 109.683H84.903C86.1974 109.683 87.2468 108.634 87.2468 107.339C87.2468 106.045 86.1974 104.996 84.903 104.996Z" fill="#90A4AE"/>
<path d="M83.3629 124.96H61.3301C60.0357 124.96 58.9863 126.01 58.9863 127.304C58.9863 128.599 60.0357 129.648 61.3301 129.648H83.3629C84.6573 129.648 85.7067 128.599 85.7067 127.304C85.7067 126.01 84.6573 124.96 83.3629 124.96Z" fill="#90A4AE"/>
<path d="M83.3629 134.073H61.3301C60.0357 134.073 58.9863 135.122 58.9863 136.417C58.9863 137.712 60.0357 138.761 61.3301 138.761H83.3629C84.6573 138.761 85.7067 137.712 85.7067 136.417C85.7067 135.122 84.6573 134.073 83.3629 134.073Z" fill="#90A4AE"/>
<path d="M64.1857 29.9272H55.8154C53.1485 29.9272 50.9863 27.7653 50.9863 25.0981C50.9863 22.4312 53.1482 20.269 55.8154 20.269H64.1857C66.8526 20.269 69.0148 22.4309 69.0148 25.0981C69.0148 27.7653 66.8529 29.9272 64.1857 29.9272Z" fill="#F3C76F"/>
</svg>
