<svg width="100" height="100" viewBox="0 0 100 100" fill="none" xmlns="http://www.w3.org/2000/svg">
<path fill-rule="evenodd" clip-rule="evenodd" d="M71.474 83.7423C70.7236 82.9942 70.3681 81.9481 70.0365 80.9417C69.1676 82.1999 67.2279 82.2404 65.8958 81.4897C64.5637 80.7389 63.6647 79.4279 62.7083 78.2349C60.9957 76.0989 53.6601 70.824 53.5395 69.2327C53.4756 68.3887 55.93 66.8521 55.93 66.8521L51.5194 64.2571C51.5194 64.2571 49.2319 66.0118 47.9167 66.2204C44.2578 66.8007 41.6699 66.4553 41.6668 67.1138C41.6556 69.4964 56.0712 81.5845 51.4742 81.4897C44.5752 81.3474 31.9745 67.9192 27.8928 66.8521C26.1835 66.4052 14.4595 67.1138 14.4595 64.276C14.4595 60.4645 24.9314 57.8421 24.9314 57.8421C24.9314 57.8421 22.2021 48.6387 25.5054 41.1125C26.262 39.3888 27.1987 37.3862 27.29 35.6926C27.315 35.228 40.5216 22.7186 42.2183 22.0936C46.1741 20.6365 50.3821 19.8665 54.5976 19.8282C55.1596 19.8231 71.1828 22.0936 78.3881 33.9868C79.6903 36.1362 85.6056 52.0982 79.5998 62.111C78.6523 63.6907 78.7685 65.6512 79.4235 67.3903C80.0786 69.1293 80.884 71.0637 80.1417 72.7674C79.7363 70.0378 79.0244 67.3539 78.0235 64.7824C76.628 65.797 77.3346 67.9802 78.1666 69.4918C79.2151 71.3967 80.2636 73.3016 81.3121 75.2066C81.7482 75.9988 82.199 76.8718 82.0421 77.7624C81.8628 78.7808 80.9552 79.4853 80.1147 80.0877C78.1957 81.4629 76.2767 82.838 74.3577 84.2132C73.4964 84.8305 72.2244 84.4905 71.474 83.7423Z" fill="#EEECE8"/>
<path fill-rule="evenodd" clip-rule="evenodd" d="M45.5512 41.5932C45.6982 41.1954 46.2272 41.0311 46.6176 41.1969C47.008 41.3627 47.2503 41.7772 47.3114 42.1969C47.3726 42.6166 47.2797 43.0432 47.1603 43.4501C47.0514 43.8212 46.9199 44.1857 46.7668 44.5408C46.7526 44.5738 46.7335 44.6108 46.6985 44.6187C46.6612 44.6271 46.6267 44.598 46.5998 44.5708C45.9365 43.8987 45.5366 42.9732 45.5019 42.0296C45.4964 41.8824 45.5001 41.7315 45.5512 41.5932ZM46.6979 41.6903C46.5891 41.597 46.4485 41.5359 46.3052 41.5402C45.9707 41.5504 45.7373 41.9153 45.7448 42.2499C45.7522 42.5844 45.9304 42.8882 46.1034 43.1747C46.2273 43.3799 46.3512 43.585 46.4751 43.7902C46.5173 43.8601 46.6004 43.9399 46.6661 43.8915C46.6926 43.8719 46.7029 43.8377 46.7115 43.806C46.7623 43.6196 46.813 43.4332 46.8637 43.2468C46.9362 42.9803 47.0092 42.7094 47.0047 42.4333C47.0002 42.1572 46.9076 41.8701 46.6979 41.6903L46.6979 41.6903Z" fill="#111111"/>
<path fill-rule="evenodd" clip-rule="evenodd" d="M46.4792 42.7618C46.3977 42.7848 46.3088 42.7804 46.2299 42.7497C46.0768 42.69 45.9711 42.5261 45.98 42.362C45.9889 42.198 46.1116 42.0464 46.2702 42.0036C46.5105 41.9388 46.7811 42.1602 46.7651 42.4085C46.7548 42.5697 46.6347 42.7181 46.4792 42.7618Z" fill="#111111"/>
<path fill-rule="evenodd" clip-rule="evenodd" d="M50.8591 81.7608C51.1336 81.797 51.0323 82.2229 50.8542 82.4349C49.1537 84.4593 46.9335 86.0434 44.466 86.9928C43.9127 87.2057 43.3403 87.3887 42.7488 87.4294C41.6519 87.505 40.5592 87.0766 39.6918 86.401C38.8244 85.7253 38.1634 84.8171 37.6248 83.8586C36.1517 81.2374 35.5342 78.1442 35.8878 75.1583C35.9211 74.8774 36.1127 74.5047 36.3716 74.6188C36.2966 75.617 36.285 76.6201 36.3368 77.6198C36.3878 78.6018 36.5011 79.5865 36.7831 80.5285C37.0442 81.4006 37.4459 82.2234 37.8647 83.0317C38.2952 83.8626 38.7513 84.6912 39.373 85.3906C39.9947 86.09 40.8016 86.6584 41.7197 86.8397C42.8706 87.0671 44.0518 86.6705 45.1129 86.1703C47.3135 85.1328 49.2875 83.618 50.8591 81.7608Z" fill="#00160A"/>
<path fill-rule="evenodd" clip-rule="evenodd" d="M58.82 70.3831C60.8185 68.4169 62.8171 66.4507 64.8156 64.4845C64.9275 64.3744 65.0931 64.2569 65.2254 64.3413C65.4019 64.4539 65.2608 64.7248 65.112 64.872C62.9609 66.9994 60.8099 69.1267 58.6589 71.2541C58.5039 71.1754 58.4588 70.9634 58.5135 70.7984C58.5681 70.6334 58.6961 70.505 58.82 70.3831H58.82Z" fill="#00160A"/>
<path fill-rule="evenodd" clip-rule="evenodd" d="M43.5205 59.0745C43.3987 59.0956 43.2768 59.1166 43.155 59.1377C42.9185 58.7828 42.6765 58.4145 42.6023 57.9946C42.528 57.5746 42.667 57.0858 43.0398 56.8787C43.4616 56.6442 43.5887 56.0677 43.4543 55.6042C43.32 55.1408 42.9871 54.7652 42.6611 54.4095C42.3299 54.0482 41.7988 53.6646 41.4057 53.9573C41.1494 54.1481 40.7659 54.0402 40.5365 53.8178C40.3071 53.5954 40.1858 53.2881 40.0374 53.0052C39.7568 52.4698 39.3475 51.9869 38.8122 51.7062C38.2769 51.4255 37.6069 51.3699 37.068 51.6438C36.5335 51.9156 36.1964 52.4562 35.7407 52.846C35.2851 53.2359 34.5327 53.4429 34.1222 53.0058C34.0178 52.8947 33.9477 52.7298 34.0071 52.5894C34.0664 52.449 34.2968 52.4007 34.3703 52.5342C34.5577 52.8746 35.0755 52.8697 35.3993 52.655C35.7231 52.4402 35.9258 52.0892 36.1914 51.8056C36.7111 51.251 37.5009 50.9623 38.2557 51.051C39.0105 51.1397 39.7118 51.6036 40.0888 52.2635C40.2704 52.5815 40.3823 52.9432 40.6195 53.2223C40.8566 53.5013 41.2875 53.6723 41.5917 53.4684C41.9353 53.238 42.3835 53.5243 42.685 53.8075C43.0931 54.1906 43.4907 54.6048 43.7205 55.1153C43.9503 55.6257 43.9867 56.2538 43.6864 56.7262C43.4364 57.1195 42.958 57.438 42.9995 57.9022C43.0382 58.335 43.5362 58.6403 43.5205 59.0745Z" fill="#00160A"/>
<path fill-rule="evenodd" clip-rule="evenodd" d="M48.7958 39.5835C49.5275 39.9261 50.1784 40.4739 50.5546 41.1889C50.9307 41.9039 51.0072 42.7918 50.67 43.5259C49.9724 45.0447 47.7542 45.6358 47.5096 47.2891C47.4473 47.7102 47.5321 48.1479 47.428 48.5607C47.3561 48.8459 47.1985 49.1006 47.0725 49.3664C46.8022 49.9366 46.6746 50.5738 46.7043 51.2042C46.4224 51.3568 46.0908 51.0318 46.0548 50.7133C46.0188 50.3947 46.1464 50.0784 46.1395 49.7578C46.1267 49.1553 45.6607 48.6757 45.2631 48.2228C44.6667 47.5435 44.1485 46.7437 44.0517 45.845C44.0205 45.5554 44.0337 45.26 43.9686 44.9761C43.8985 44.6708 43.7416 44.394 43.6029 44.1131C43.229 43.3556 42.9759 42.4813 43.2061 41.6685C43.4363 40.8556 44.2946 40.1832 45.1092 40.4069C45.3406 40.4704 45.567 40.6002 45.8044 40.5648C46.2213 40.5027 46.3894 40.0054 46.68 39.7C47.2009 39.1527 48.1116 39.2632 48.7958 39.5835M45.253 47.4835C45.715 48.0912 46.1769 48.699 46.6389 49.3068C47.1688 48.7489 46.9496 47.8463 47.1107 47.094C47.3301 46.069 48.2469 45.3733 49.0412 44.6894C49.8355 44.0056 50.6243 43.07 50.4458 42.0371C50.3024 41.2072 49.5783 40.6174 48.8838 40.1408C48.4923 39.8721 48.0404 39.6019 47.5735 39.6883C47.1014 39.7756 46.778 40.1942 46.4378 40.533C46.0977 40.8718 45.5848 41.1662 45.1591 40.9441C44.56 40.6317 43.7973 41.1647 43.6282 41.8189C43.4592 42.4731 43.7023 43.1575 43.9691 43.7782C44.2359 44.399 44.5369 45.0423 44.4863 45.7161C44.4369 46.3716 44.8552 46.9601 45.253 47.4835Z" fill="#00160A"/>
<path fill-rule="evenodd" clip-rule="evenodd" d="M8.40448 33.5245C8.37448 33.4433 8.51695 33.4204 8.59333 33.4612C8.59004 33.5457 8.46014 33.5884 8.40734 33.5224L8.40448 33.5245Z" fill="#00160A"/>
<path fill-rule="evenodd" clip-rule="evenodd" d="M63.8134 66.8068C63.9702 66.8287 64.0536 67.0217 64.0179 67.176C63.9823 67.3303 63.8662 67.4512 63.7548 67.5638C62.8545 68.4738 61.9541 69.3838 61.0538 70.2939C60.9873 70.3611 60.9092 70.4332 60.8147 70.4302C60.6876 70.4262 60.6045 70.2792 60.62 70.1531C60.6355 70.0269 60.7185 69.9208 60.7989 69.8224C61.6268 68.8094 62.5252 67.8541 63.4856 66.9657C63.5779 66.8803 63.6889 66.7895 63.8134 66.8068V66.8068Z" fill="#00160A"/>
<path fill-rule="evenodd" clip-rule="evenodd" d="M37.3393 53.6483C37.8353 53.6932 38.2168 54.1594 38.3019 54.6501C38.3871 55.1408 38.2341 55.6426 38.0266 56.0954C37.9122 56.3448 37.7808 56.5865 37.6336 56.8181C37.5276 56.9847 37.3927 57.1599 37.1979 57.1922C36.8727 57.2461 36.6443 56.8881 36.5188 56.5833C36.3422 56.1542 36.1801 55.7192 36.033 55.2792C35.9608 55.0631 35.8913 54.8357 35.9282 54.6109C35.9847 54.2673 36.2767 54.0102 36.5827 53.8439C36.815 53.7177 37.076 53.6244 37.3393 53.6483M36.8733 56.1765C36.9113 56.2359 36.9519 56.2967 37.0115 56.3343C37.0604 56.3652 37.1204 56.3781 37.1776 56.3702C37.3252 56.3497 37.42 56.2076 37.4953 56.0791C37.6925 55.7429 37.895 55.3901 37.9171 55.0009C37.9393 54.6117 37.7182 54.1788 37.3367 54.0985C36.8904 54.0047 36.4746 54.4519 36.4367 54.9064C36.3989 55.3609 36.6271 55.7926 36.8733 56.1765Z" fill="#111111"/>
<path fill-rule="evenodd" clip-rule="evenodd" d="M37.3187 54.572C37.4411 54.6116 37.5467 54.701 37.6059 54.8152C37.6586 54.9169 37.6745 55.0372 37.6499 55.1491C37.5932 55.4074 37.3012 55.5877 37.0449 55.5227C36.7885 55.4578 36.6177 55.1601 36.6909 54.906C36.7641 54.6519 37.067 54.4907 37.3187 54.572ZM37.2617 55.1082C37.3551 55.0591 37.2717 54.8801 37.1741 54.92C37.0983 54.9301 37.0482 55.0253 37.0828 55.0934C37.1174 55.1614 37.2239 55.1771 37.2766 55.1219L37.2617 55.1082Z" fill="#111111"/>
<path fill-rule="evenodd" clip-rule="evenodd" d="M63.5724 59.4599C63.2958 59.1612 63.0473 58.8367 62.831 58.4919C62.7619 58.3816 62.9051 58.2381 63.0341 58.2553C63.1631 58.2725 63.2579 58.3807 63.3401 58.4815C63.6266 58.8329 63.9132 59.1844 64.1997 59.5358C64.1669 59.6612 64.0085 59.718 63.8832 59.6847C63.7578 59.6514 63.6605 59.555 63.5724 59.4599L63.5724 59.4599Z" fill="#00160A"/>
<path fill-rule="evenodd" clip-rule="evenodd" d="M73.0135 75.7431C73.0167 75.7841 73.0015 75.8241 72.9859 75.8622C72.8285 76.2453 72.5943 76.5966 72.3012 76.8893C71.8349 77.3549 71.2029 77.6999 70.9532 78.3097C70.8941 78.4541 70.6734 78.475 70.5588 78.3691C70.4441 78.2632 70.4283 78.0815 70.4792 77.934C70.53 77.7864 70.6349 77.6648 70.7375 77.5472C71.0717 77.1639 71.406 76.7806 71.7402 76.3973C71.9963 76.1036 72.2638 75.8013 72.6186 75.6403C72.7647 75.574 73.0012 75.5833 73.0135 75.7431V75.7431Z" fill="#00160A"/>
<path fill-rule="evenodd" clip-rule="evenodd" d="M63.912 57.8651C64.242 58.2528 64.5719 58.6404 64.9018 59.0281C64.9572 59.0932 65.0159 59.1672 65.0121 59.2527C65.0062 59.3854 64.8431 59.4646 64.7139 59.4337C64.5846 59.4027 64.4869 59.2995 64.4001 59.1988C64.1206 58.8745 63.8702 58.5252 63.653 58.1563C63.5683 58.0124 63.5353 57.7609 63.7009 57.7394C63.7858 57.7284 63.8565 57.7999 63.912 57.8651L63.912 57.8651Z" fill="#00160A"/>
<path fill-rule="evenodd" clip-rule="evenodd" d="M60.1133 60.0228C60.0632 59.9524 60.0113 59.8605 60.0537 59.7851C60.1238 59.6607 60.3138 59.7573 60.4086 59.8641C60.7438 60.2421 61.0291 60.6643 61.2548 61.1164C61.0398 61.2252 60.8112 61.0037 60.6716 60.8074C60.4855 60.5459 60.2994 60.2843 60.1133 60.0228Z" fill="#00160A"/>
<path fill-rule="evenodd" clip-rule="evenodd" d="M60.41 61.1365C60.5443 61.2762 60.6801 61.5057 60.5402 61.6397C60.398 61.7761 60.1705 61.6223 60.0449 61.4705C59.7409 61.1035 59.4765 60.7037 59.2578 60.2802C59.3982 60.1598 59.606 60.2999 59.7341 60.4332C59.9594 60.6677 60.1847 60.9021 60.41 61.1365Z" fill="#00160A"/>
<path fill-rule="evenodd" clip-rule="evenodd" d="M60.7756 59.7647C60.7149 59.6754 60.6579 59.5527 60.7237 59.4671C60.8177 59.3449 61.0088 59.4571 61.114 59.5699C61.4193 59.8971 61.7245 60.2243 62.0298 60.5514C62.0161 60.6697 61.8776 60.7404 61.7598 60.723C61.6421 60.7055 61.544 60.6261 61.4557 60.5462C61.1992 60.3139 60.9703 60.0509 60.7756 59.7647L60.7756 59.7647Z" fill="#00160A"/>
<path fill-rule="evenodd" clip-rule="evenodd" d="M62.7009 59.0373C62.891 59.2798 63.0811 59.5223 63.2712 59.7648C63.3465 59.861 63.4261 59.9845 63.3769 60.0963C63.3296 60.2042 63.1799 60.2325 63.0716 60.1862C62.9633 60.1399 62.8874 60.0418 62.8168 59.9476C62.6184 59.6827 62.4218 59.4165 62.2271 59.1489C62.1841 59.0898 62.1391 59.0235 62.1457 58.9507C62.1565 58.8294 62.3117 58.7665 62.4277 58.8035C62.5437 58.8406 62.6258 58.9414 62.7009 59.0373H62.7009Z" fill="#00160A"/>
<path fill-rule="evenodd" clip-rule="evenodd" d="M62.5571 60.1575C62.5965 60.2004 62.6386 60.2505 62.6343 60.3086C62.6287 60.3861 62.5378 60.4341 62.4609 60.4226C62.3841 60.4111 62.3205 60.3586 62.2628 60.3066C61.8834 59.9655 61.5637 59.5582 61.3223 59.1087C61.3698 58.9852 61.5565 59.0691 61.6461 59.1665C61.9497 59.4968 62.2534 59.8272 62.5571 60.1575Z" fill="#00160A"/>
<path fill-rule="evenodd" clip-rule="evenodd" d="M66.2407 57.9677C66.2703 58.0017 66.3015 58.0406 66.2997 58.0857C66.297 58.1538 66.2161 58.1965 66.149 58.1849C66.0818 58.1734 66.0276 58.1255 65.9775 58.0793C65.6203 57.7493 65.2787 57.4024 64.9541 57.0403C65.0688 56.8861 65.3113 57.0098 65.4506 57.1422C65.7269 57.4046 65.9906 57.6802 66.2407 57.9677V57.9677Z" fill="#00160A"/>
<path fill-rule="evenodd" clip-rule="evenodd" d="M65.1093 58.2969C64.9095 58.0234 64.7098 57.7498 64.5101 57.4763C64.4734 57.4261 64.4349 57.3651 64.4545 57.3062C64.4932 57.1903 64.6692 57.2419 64.7639 57.3191C65.0643 57.5642 65.3193 57.8648 65.5121 58.2012C65.5495 58.2664 65.5856 58.3437 65.5591 58.4141C65.5254 58.5036 65.4026 58.53 65.3145 58.4925C65.2264 58.455 65.1657 58.3742 65.1093 58.2969L65.1093 58.2969Z" fill="#00160A"/>
<path fill-rule="evenodd" clip-rule="evenodd" d="M66.7036 57.2922C66.5063 57.08 66.309 56.8678 66.1117 56.6556C66.0414 56.58 66.1264 56.4458 66.2291 56.4348C66.3318 56.4238 66.4257 56.4887 66.507 56.5522C66.6567 56.6692 66.801 56.793 66.9395 56.923C67.0161 56.9949 67.0938 57.0736 67.1227 57.1746C67.1515 57.2756 67.1119 57.4039 67.0126 57.4382C66.8983 57.4776 66.786 57.3807 66.7036 57.2922L66.7036 57.2922Z" fill="#00160A"/>
<path fill-rule="evenodd" clip-rule="evenodd" d="M66.3207 57.7128C66.0476 57.4328 65.786 57.1415 65.5368 56.8399C65.4934 56.7875 65.4477 56.7227 65.4661 56.6572C65.487 56.5832 65.5839 56.5542 65.6567 56.579C65.7295 56.6037 65.7828 56.665 65.8324 56.7238C66.0607 56.9939 66.2889 57.264 66.5172 57.5341C66.5789 57.6071 66.6397 57.722 66.5696 57.7872C66.4989 57.8528 66.388 57.7819 66.3207 57.7128V57.7128Z" fill="#00160A"/>
<path fill-rule="evenodd" clip-rule="evenodd" d="M79.3123 75.026C79.6206 74.931 80.401 74.7192 80.7092 74.6241C80.8474 74.5815 81.0527 74.576 81.0787 74.7182C81.1 74.8353 80.9654 74.9149 80.8526 74.9528C80.5413 75.0574 79.7471 75.2468 79.4211 75.2861C79.3051 75.3001 79.1364 75.2569 79.1599 75.1424C79.1735 75.0765 79.2481 75.0459 79.3123 75.026Z" fill="#00160A"/>
<path fill-rule="evenodd" clip-rule="evenodd" d="M44.8704 62.1345C45.3584 62.1416 45.9354 62.2552 46.13 62.7027C46.3129 63.1231 46.0254 63.6285 45.6222 63.8466C45.219 64.0648 44.7387 64.0702 44.2803 64.0696C38.0256 64.0616 31.7712 63.9106 25.5234 63.6169C25.1341 63.5986 25.0972 63.0368 25.1862 62.6573C25.2393 62.4308 25.2989 62.1921 25.4623 62.0265C25.6973 61.7882 26.0701 61.772 26.4048 61.7709C30.8963 61.7564 35.3959 61.7423 39.8684 62.1556C40.5768 62.221 41.286 62.2972 41.9974 62.2903C42.9567 62.281 43.9111 62.1205 44.8704 62.1345M45.5706 63.2688C45.6754 63.0643 45.5212 62.8042 45.3114 62.7102C45.1016 62.6163 44.8605 62.6407 44.6318 62.6632C41.6998 62.9517 38.7478 62.6187 35.8067 62.4468C33.669 62.3219 31.5273 62.2821 29.3863 62.2424C28.4938 62.2258 27.6013 62.2092 26.7088 62.1926C26.424 62.1874 26.1121 62.1911 25.8934 62.3734C25.6746 62.5558 25.6673 62.9855 25.9388 63.0715C25.9878 63.0871 26.0399 63.0897 26.0913 63.0922C32.3751 63.3977 38.667 63.5348 44.9581 63.5033C45.1887 63.5021 45.4654 63.474 45.5706 63.2688V63.2688Z" fill="#00160A"/>
<path fill-rule="evenodd" clip-rule="evenodd" d="M40.8769 67.1928C41.4347 68.4137 42.6362 69.3176 43.9639 69.5149C44.5887 69.6078 45.0151 70.1759 45.3708 70.6978C45.7406 71.2401 46.0118 72.1594 45.4006 72.3989C47.7727 75.0147 50.1448 77.6305 52.5169 80.2463C52.7925 80.5502 53.0602 81.0574 52.7407 81.3147C52.622 81.4102 52.4594 81.4252 52.3072 81.4303C50.3528 81.4959 48.5087 80.5811 46.8174 79.5996C44.3818 78.1864 42.0556 76.5847 39.8665 74.8135C38.2671 73.5196 35.9694 73.1494 34.0446 73.8756C33.046 74.2524 31.7942 73.4843 31.6776 72.4234C31.5611 71.3625 32.6163 70.3411 33.6729 70.4921C32.0844 68.1352 29.2435 66.6786 26.4027 66.7644C22.9738 66.868 19.5312 66.5083 16.1978 65.698C15.905 65.6268 15.5906 65.538 15.407 65.2991C15.0408 64.8228 15.4249 64.1456 15.8274 63.6996C18.7928 60.4132 23.3557 58.6403 27.762 59.0622C27.9498 59.0802 28.0519 58.8522 28.0959 58.6688C29.216 54.0007 30.3361 49.3326 31.4563 44.6645C31.5913 44.1016 32.4481 44.0238 32.8726 44.4173C33.2971 44.8109 33.3904 45.4383 33.4393 46.0151C33.8042 50.3149 33.1671 54.9439 35.3046 58.6926C35.4041 58.8672 35.5167 59.0461 35.6915 59.1452C35.8638 59.2428 36.0713 59.2488 36.2693 59.2523C40.2269 59.3224 44.1846 59.3925 48.1422 59.4627C48.6353 59.4714 49.2407 59.4128 49.4399 58.9616C49.9504 57.8055 50.4608 56.6495 50.9713 55.4934C51.1337 55.1256 51.3576 54.7084 51.7551 54.6478C52.3244 54.561 52.6845 55.276 52.6661 55.8516C52.6477 56.4272 52.4541 57.0386 52.7076 57.5557C53.6374 56.5675 54.583 55.5664 55.7456 54.8668C56.9082 54.1673 58.3362 53.7956 59.64 54.1715C58.4874 56.0041 57.3348 57.8367 56.1822 59.6692C57.1449 60.3063 57.2208 61.9173 56.3222 62.642C55.9385 62.9514 56.243 63.562 56.5608 63.9387C57.5565 65.1189 58.5522 66.299 59.5478 67.4792C58.698 67.8733 57.7082 67.4677 56.8725 67.0443C55.3791 66.2877 53.9213 65.4607 52.5055 64.5672C51.8185 64.1335 51.0613 64.9465 50.4377 65.4673C49.4478 66.294 48.0811 66.4586 46.798 66.5894C44.8243 66.7905 42.8506 66.9916 40.8769 67.1928ZM44.32 64.6262C45.5326 64.6925 46.7682 64.7766 47.9447 64.476C49.1495 64.1682 50.2458 63.4517 51.0113 62.4718C51.1972 62.2339 51.5229 62.1666 51.8204 62.1153C52.8477 61.9386 53.9297 61.7658 54.911 62.1173C55.3538 62.2758 55.894 62.0943 56.1512 61.7005C56.4084 61.3068 56.3575 60.7392 56.0344 60.3975C55.6847 60.3879 55.6209 60.8841 55.4355 61.1808C55.1918 61.5705 54.6602 61.6339 54.2012 61.657C52.5171 61.7417 50.8331 61.8264 49.149 61.911C48.7401 61.9316 48.177 61.8126 48.1892 61.4034C48.1946 61.2234 48.3261 61.0747 48.455 60.9488C48.9072 60.5074 49.4233 60.1317 49.9822 59.8369C43.1442 59.8887 36.3052 59.8119 29.4702 59.6063C26.1091 59.5053 22.525 59.4288 19.6611 61.1908C19.3937 61.3553 19.1846 61.8404 19.4949 61.8882C20.4085 62.0292 21.322 62.1701 22.2356 62.3111C22.3444 62.3279 22.4608 62.3483 22.5396 62.4252C22.7757 62.6558 22.4449 63.0266 22.1408 63.1547C20.8858 63.683 19.3904 63.6024 18.1995 62.9422C17.9296 62.7926 17.6094 62.6107 17.3344 62.7507C17.0022 62.9199 17.0479 63.454 17.3297 63.6981C17.6114 63.9421 18.0128 63.9765 18.3849 63.9995C21.7275 64.2057 25.0701 64.412 28.4127 64.6183C29.3523 64.6763 30.2948 64.7342 31.2343 64.6757C35.5903 64.4042 39.9621 64.3876 44.32 64.6262ZM49.1989 77.5841C48.029 75.9745 46.6964 74.4831 45.228 73.1403C44.7472 72.7006 44.3237 72.2029 43.9016 71.7066C42.0559 69.5368 40.2102 67.367 38.3645 65.1971C38.1803 64.9805 37.8617 64.952 37.5775 64.943C35.1534 64.8662 32.7212 65.0463 30.3348 65.4795C30.1584 65.5115 29.968 65.5528 29.8515 65.6891C29.5813 66.0053 29.9189 66.4672 30.2356 66.7368C33.4041 69.4347 36.6891 71.9958 40.0783 74.4106C40.7021 74.855 41.3352 75.2978 42.0396 75.5986C43.3685 76.1661 44.6974 76.7336 46.0263 77.3011C47.043 77.7353 48.2551 78.1599 49.1989 77.5841ZM33.3295 53.6291C33.2806 52.9952 33.2804 52.3502 33.1062 51.7388C32.7924 50.6374 31.9555 49.7725 31.1226 48.9865C31.058 48.9255 30.9727 48.8599 30.8892 48.8904C30.8133 48.9182 30.7858 49.0093 30.7685 49.0882C30.1477 51.9153 29.5269 54.7423 28.9061 57.5694C28.7889 58.1029 28.6711 58.644 28.6964 59.1897C30.8729 59.2171 33.0493 59.2446 35.2257 59.272C34.1414 57.5859 33.4834 55.6279 33.3295 53.6291ZM58.9024 54.5679C57.5505 54.4523 56.158 54.9492 55.1847 55.8945C53.4019 57.626 51.4981 59.233 49.4918 60.6997C49.2171 60.9005 48.9228 61.123 48.8296 61.4503C50.5105 61.3744 52.1914 61.2986 53.8723 61.2228C54.3156 61.2028 54.8375 61.1363 55.0494 60.7464C56.2094 58.6127 57.4967 56.5483 58.9024 54.5679ZM15.7568 64.5772C15.7109 64.6752 15.6704 64.7842 15.6958 64.8894C15.7408 65.0752 15.9578 65.1525 16.1437 65.1976C19.902 66.1095 23.801 66.227 27.6667 66.3401C28.0514 66.3514 28.4505 66.36 28.8037 66.2072C29.1569 66.0545 29.4504 65.6912 29.393 65.3107C26.8802 64.9625 24.3439 64.7841 21.8071 64.7771C20.2874 64.7729 18.7244 64.8233 17.2998 64.2943C16.9561 64.1667 16.5671 63.911 16.6109 63.547C16.2449 63.8104 15.9478 64.1687 15.7568 64.5772ZM51.5951 63.8995C51.4602 63.607 51.0804 63.4987 50.7654 63.5663C50.4504 63.6338 50.1829 63.8333 49.9187 64.0177C49.309 64.4434 48.6497 64.819 47.9261 64.9906C47.2953 65.1401 46.639 65.1294 45.9907 65.1179C43.6244 65.076 41.258 65.0341 38.8916 64.9922C39.4186 65.7784 40.1408 66.6618 41.0817 66.5585C42.9224 66.3563 44.787 66.4046 46.6189 66.1343C48.4508 65.864 50.3069 65.2297 51.5951 63.8995ZM57.069 65.9244C57.155 65.9128 57.2555 65.8839 57.2825 65.8014C57.3053 65.7321 57.2637 65.6596 57.2233 65.5988C56.5417 64.5733 55.7023 63.664 54.8667 62.7595C54.7393 62.6215 54.6063 62.4796 54.4332 62.4068C54.254 62.3314 54.052 62.3386 53.8581 62.3531C53.0654 62.4125 52.2805 62.5741 51.5289 62.8327C51.4675 62.8538 51.3962 62.8877 51.3892 62.9523C51.3838 63.0025 51.4214 63.046 51.4568 63.082C52.2465 63.8849 53.2343 64.4584 54.2092 65.0221C55.0915 65.5322 56.0591 66.0605 57.069 65.9244ZM34.5981 71.0799C34.5245 71.0229 34.4461 70.9638 34.3537 70.9518C34.2788 70.9421 34.2038 70.9648 34.1316 70.9872C33.9646 71.039 33.7976 71.0909 33.6306 71.1427C33.4669 71.1935 33.2625 71.344 33.3569 71.487C33.6514 71.933 33.771 72.4913 33.6849 73.0188C33.657 73.1899 33.9032 73.2511 34.0761 73.2389C34.9702 73.1758 35.8643 73.1127 36.7583 73.0496C36.8516 73.043 36.9774 72.9957 36.9557 72.9048C36.1698 72.2965 35.3839 71.6882 34.5981 71.0799ZM49.918 58.9883C49.8551 59.1526 50.0225 59.331 50.1975 59.3491C50.3725 59.3672 50.5389 59.2789 50.6926 59.1933C51.2466 58.885 51.844 58.5269 52.0533 57.9284C52.1215 57.7334 52.1425 57.5255 52.1631 57.3199C52.1984 56.9672 52.2336 56.6145 52.2689 56.2617C52.2767 56.1834 52.2832 56.0985 52.2417 56.0316C52.2002 55.9647 52.0902 55.9376 52.0442 56.0015C51.8584 56.2597 51.5855 56.454 51.2808 56.5453C51.1489 56.5848 51.0073 56.6075 50.8962 56.6887C50.7639 56.7854 50.6989 56.947 50.6404 57.1001C50.3996 57.7295 50.1588 58.3589 49.918 58.9883ZM44.4089 70.2924C44.1675 69.8422 43.5025 69.691 43.0902 69.9925C43.6218 70.4079 43.9216 71.0488 44.3728 71.5504C44.5281 71.723 44.7299 71.8899 44.9616 71.8747C45.1933 71.8595 45.3848 71.5498 45.2206 71.3856C44.8986 71.0635 44.6241 70.6939 44.4089 70.2924ZM32.5899 71.5203C32.2311 71.8706 32.3534 72.4639 32.5014 72.9431C32.5514 73.1047 32.7105 73.3056 32.8426 73.2C32.8875 73.1642 32.9035 73.1041 32.9169 73.0483C32.9831 72.773 33.0498 72.4912 33.0202 72.2096C32.9906 71.9281 32.8456 71.6419 32.5899 71.5203Z" fill="#00160A"/>
<path fill-rule="evenodd" clip-rule="evenodd" d="M72.2745 84.4109C71.5241 83.6627 71.1686 82.6167 70.837 81.6103C69.9681 82.8685 68.8411 83.7617 67.509 83.0109C66.177 82.2601 64.4652 80.0964 63.5087 78.9034C61.7962 76.7674 59.7618 74.8899 57.4955 73.354C58.7059 74.6819 59.4297 76.4438 59.5023 78.2391C60.4204 78.2296 61.3385 78.22 62.2566 78.2104C59.1699 79.2623 55.863 79.6632 52.6144 79.3792C54.3796 77.8948 55.76 75.9566 56.5857 73.803C56.4015 73.2203 55.5259 73.3553 55.0146 73.69C54.5033 74.0247 53.8417 74.4496 53.3492 74.0878C52.7429 73.6424 52.7847 72.2473 52.0647 72.4654C50.1955 73.0318 47.9796 71.9067 47.3339 70.0634C46.893 70.339 46.4521 70.6145 46.0112 70.8901C45.7989 70.2072 46.7819 69.6796 47.4444 69.9489C48.1068 70.2182 48.495 70.8883 48.9544 71.4364C49.4138 71.9844 50.1509 72.4683 50.8065 72.1827C52.0282 71.6505 53.6352 72.6116 53.7443 73.9397C54.6917 73.1794 55.9912 72.878 57.1766 73.1436C56.4203 72.0483 55.5765 71.0135 54.6557 70.0524C55.3557 69.1195 56.2214 68.3112 57.2001 67.6767C56.7197 68.5847 56.0539 69.3941 55.2556 70.0406C59.35 74.0548 63.4445 78.069 67.5389 82.0832C67.7966 82.3359 68.0921 82.6051 68.4531 82.6101C68.8485 82.6156 69.1674 82.3041 69.4371 82.0147C71.3587 79.9526 73.2804 77.8904 75.2021 75.8282C75.7027 75.291 76.2295 74.6986 76.3046 73.9681C76.399 73.0506 75.7584 72.237 75.1469 71.5466C72.6863 68.7688 70.0683 66.1304 67.3096 63.6483C66.0996 62.5596 64.5044 61.4275 62.9823 62.004C61.1456 62.6996 60.7085 65.4637 58.8219 66.0097C59.386 65.2344 59.9501 64.459 60.5142 63.6837C59.3958 62.8747 57.9969 61.069 57.9241 59.6906C58.8219 58.8727 59.9288 58.2535 60.8468 57.7786C59.9288 55.6171 60.0378 55.1676 61.2655 54.8724C62.4933 54.5772 63.5569 54.2847 64.6852 53.9073C67.8135 52.8611 69.3066 47.9006 66.6808 45.8401C65.2362 44.7066 54.4099 33.5801 49.7614 29.4778C50.1135 31.0479 48.0451 32.5283 46.6724 31.6886C46.9358 32.5937 46.3027 33.689 45.3677 33.8084C44.4327 33.9278 43.5206 32.891 43.8478 32.0071C44.1296 31.2462 45.0309 30.9315 45.5543 30.3115C46.0777 29.6916 45.6211 28.329 44.9098 28.7192C44.5341 30.2313 42.3229 30.8755 41.1939 29.8018C40.7965 29.4238 40.2759 29.3309 39.7436 29.4202C39.0914 29.5296 37.9634 29.7828 37.4809 30.2504C36.7252 30.983 36.5546 32.0532 35.6548 32.5504C35.5114 32.6297 35.3611 32.6977 35.2023 32.7518C34.0472 33.1454 32.4299 32.0024 33.0297 30.9396C29.7431 33.97 27.4869 38.0984 26.7113 42.501C28.4267 42.9901 28.7524 45.2429 28.7475 47.0267C26.8124 47.5177 28.6328 51.2116 26.9591 52.3C25.0513 53.5408 25.5817 56.4264 26.3372 58.5732C24.4032 54.411 24.1705 49.4879 25.7033 45.1618C25.5518 47.9064 25.4003 50.6509 25.2488 53.3955C26.5465 53.2056 27.0707 51.6241 27.178 50.317C27.2853 49.0099 27.367 47.4719 28.4659 46.7561C28.0557 45.7103 27.8873 44.5705 27.9778 43.4507C27.5002 43.2965 27.0225 43.1424 26.5449 42.9882C26.258 45.0089 24.0136 46.003 22.1627 46.8633C20.1647 47.7922 18.2849 48.9752 16.583 50.3747C14.7575 51.8759 13.0192 53.9397 13.2214 56.2944C13.4158 58.5585 15.3668 60.2898 17.4151 61.2739C15.2217 61.2691 13.3391 59.3178 12.9855 57.1531C12.6319 54.9884 13.5751 52.7615 15.0498 51.1377C16.5244 49.514 18.4799 48.4102 20.4628 47.4725C23.0594 46.2445 26.209 44.6518 26.3059 41.7811C26.3867 39.388 29.0114 37.0427 27.754 35.0049C25.9879 32.1427 25.0028 28.8037 24.9323 25.4412C24.8976 23.7823 25.2004 21.9045 26.5602 20.9538C27.2373 20.4804 28.0796 20.3152 28.9003 20.2209C31.9438 19.8714 35.0792 20.3591 37.8728 21.6165C39.5216 22.3586 41.3221 23.3871 43.0188 22.7622C46.9746 21.3051 51.1826 20.535 55.3981 20.4967C55.9601 20.4916 56.4265 20.079 56.8177 19.6756C58.3574 18.0882 59.6423 16.2514 61.3178 14.8082C62.9933 13.365 65.2223 12.326 67.3881 12.7727C69.6555 13.2403 71.3481 15.2594 72.0888 17.4528C72.8294 19.6462 72.7874 22.0158 72.7374 24.3303C72.6479 28.4753 77.8469 30.7326 79.1886 34.6554C79.9797 36.9683 82.5897 38.0401 84.937 38.7225C87.2843 39.4048 89.9136 40.1608 91.1234 42.2849C92.2502 44.2633 91.693 46.8551 90.3628 48.7028C89.0326 50.5506 87.063 51.8167 85.1416 53.0382C82.0307 55.0158 82.904 60.074 80.4003 62.7795C79.1381 64.1435 79.569 66.3198 80.224 68.0588C80.8791 69.7979 81.6845 71.7323 80.9422 73.4359C80.5368 70.7064 79.8249 68.0225 78.824 65.4509C77.4285 66.4656 78.1351 68.6488 78.9671 70.1604C80.0156 72.0653 81.0641 73.9702 82.1126 75.8751C82.5487 76.6674 82.9995 77.5403 82.8426 78.431C82.6633 79.4494 81.7557 80.1539 80.9152 80.7562C78.9962 82.1314 77.0772 83.5066 75.1582 84.8818C74.2969 85.499 73.0249 85.1591 72.2745 84.4109ZM76.3705 66.8555C76.2022 66.6661 75.8942 66.7585 75.6642 66.8648C75.4337 66.9712 75.2031 67.0777 74.9726 67.1842C74.9221 67.2075 74.8663 67.2313 74.8127 67.2167C74.7115 67.1893 74.6945 67.0394 74.758 66.9561C74.8216 66.8727 74.9292 66.8392 75.0289 66.8068C75.2413 66.7379 75.4486 66.6532 75.6485 66.5537C75.7628 66.4968 75.8855 66.4217 75.9166 66.2978C75.9476 66.174 75.8055 66.0236 75.7004 66.096C75.391 66.3092 75.0429 66.4661 74.6783 66.5568C74.5689 66.584 74.3984 66.5498 74.4241 66.44C74.434 66.398 74.4731 66.3704 74.5097 66.3474C74.835 66.1428 75.19 65.9856 75.5602 65.8822C75.6935 65.8449 75.6603 65.6207 75.5333 65.5656C75.4063 65.5106 75.2612 65.5663 75.1343 65.6216C74.8275 65.7554 74.5207 65.8891 74.2139 66.0229C74.148 66.0516 74.0742 66.0892 74.0565 66.159C74.0408 66.2214 74.0769 66.284 74.1116 66.3383C74.3346 66.6875 74.5576 67.0366 74.7807 67.3858C74.8146 67.439 74.8532 67.4959 74.9133 67.5154C74.9784 67.5366 75.0482 67.5072 75.1103 67.4782C75.5349 67.28 75.9551 67.0724 76.3705 66.8555ZM55.4087 28.872C54.6865 28.8843 54.1442 28.0633 54.2785 27.3536C54.4129 26.644 55.0509 26.1129 55.7419 25.9025C56.6808 25.6166 57.8019 25.7839 58.5503 25.1489C58.8865 24.8637 59.0917 24.454 59.3978 24.1367C60.0652 23.4452 61.2261 23.2989 62.0441 23.8032C62.2278 23.3213 61.6843 22.8552 61.1757 22.7694C60.6671 22.6836 60.1187 22.7861 59.6502 22.5704C58.8271 22.1915 57.858 22.6783 57.1993 23.3004C56.5405 23.9226 56.0004 24.7063 55.1886 25.1086C54.3767 25.5109 53.1483 25.2865 52.9251 24.4084C52.8555 24.1347 52.8469 23.7722 52.58 23.6799C52.1592 23.5344 51.9402 23.043 51.9652 22.5984C51.9902 22.1537 52.2033 21.7444 52.4119 21.3509C51.5871 21.3094 50.7589 21.335 49.9382 21.4274C49.7413 21.4496 49.491 21.5327 49.4914 21.7308C49.4923 22.1402 49.1122 22.4339 48.7707 22.6597C48.0477 23.1376 47.3248 23.6154 46.6018 24.0933C46.6246 24.5705 47.3282 24.6847 47.7404 24.443C48.1526 24.2013 48.443 23.7692 48.8873 23.5935C49.1246 23.4997 49.3853 23.4882 49.6403 23.4778C50.0758 23.4601 50.5113 23.4424 50.9469 23.4246C51.505 23.4019 52.2579 23.5436 52.2874 24.1014C52.3116 24.5589 51.8037 24.8261 51.4786 25.1488C50.7384 25.8833 50.7411 27.305 49.7697 27.6841C49.4246 27.8188 49.3317 28.2969 49.4832 28.6351C49.6346 28.9733 49.9503 29.2031 50.2491 29.4223C55.4635 33.2484 64.5472 43.1123 64.746 43.1387C64.9448 43.1651 65.1779 43.0224 65.1668 42.8222C65.1381 42.3046 65.1102 41.7776 65.2368 41.2749C65.3634 40.7722 65.6707 40.2883 66.1446 40.0782C66.5813 39.8844 67.2168 39.8406 67.3113 39.3723C67.5229 38.3246 68.5717 37.5145 69.6388 37.5744C70.1631 37.6038 70.7416 37.8039 71.178 37.5117C70.8261 37.178 70.306 37.1091 69.8698 36.8972C69.4335 36.6853 69.0497 36.1488 69.3104 35.7398C69.6954 35.1358 69.1346 34.3459 69.2499 33.6389C69.2989 33.3389 69.4683 33.0733 69.6474 32.8277C70.2548 31.9952 71.022 31.2798 71.8948 30.7319C72.0977 30.6046 72.1486 30.3364 72.1805 30.0989C72.2577 29.5256 72.3349 28.9523 72.412 28.379C72.4659 27.9791 72.5023 27.5201 72.2279 27.2242C71.3347 26.2614 69.8476 26.2299 68.535 26.2727C67.2223 26.3155 65.7391 26.2986 64.8298 25.351C64.5475 25.0569 64.0321 25.1569 63.726 25.4261C63.4198 25.6952 63.2507 26.0828 63.0228 26.4208C62.311 27.4767 60.9328 28.0364 59.6863 27.7757C59.0187 27.636 58.3456 27.2842 57.6901 27.4726C56.8163 27.7238 56.3177 28.8565 55.4087 28.872ZM80.4949 54.8594C80.535 55.0051 80.5937 55.1715 80.7366 55.2206C80.8512 55.2599 80.9748 55.2062 81.084 55.1536C81.4467 54.9789 81.8093 54.8043 82.1719 54.6296C82.358 54.54 82.5671 54.421 82.6002 54.2171C83.2716 50.0818 83.0771 45.808 82.033 41.7508C81.786 40.7914 81.4915 39.842 81.099 38.9323C80.5976 37.7703 79.9407 36.6826 79.2664 35.6117C78.2957 34.0702 77.2843 32.5544 76.2334 31.0664C76.0385 31.3705 75.9804 31.7388 75.8812 32.0861C75.7821 32.4334 75.6158 32.7934 75.2967 32.9628C74.9777 33.1321 74.4877 32.9884 74.4311 32.6317C74.3088 31.8604 73.4812 31.2773 72.7138 31.4217C72.5488 31.4527 72.4942 31.6579 72.4737 31.8246C72.2869 33.3395 72.1001 34.8543 71.9133 36.3692C71.8997 36.4793 71.8941 36.6104 71.9807 36.6798C72.0528 36.7375 72.1557 36.7246 72.2481 36.7232C72.7703 36.7154 73.2258 37.2609 73.1249 37.7734C73.0241 38.2859 72.3957 38.618 71.9154 38.4128C71.7081 38.3242 71.5457 38.6053 71.4937 38.8247C71.18 40.1489 70.8663 41.4732 70.5526 42.7975C70.4601 43.188 70.7973 43.5567 71.1602 43.7283C71.523 43.9 71.9376 43.9621 72.2705 44.1863C73.1045 44.7479 73.0685 46.0252 73.7429 46.771C74.2922 47.3784 75.3087 47.4889 75.9757 47.0137C76.5726 46.5885 76.8319 45.8119 76.8323 45.079C76.8325 44.5793 77.1429 44.0928 77.5959 43.882C78.0489 43.6711 78.6211 43.747 79.0035 44.0686C79.376 44.3819 79.5448 44.8687 79.6974 45.3309C79.7647 45.5347 79.832 45.7572 79.7598 45.9593C79.6416 46.2898 79.2354 46.3877 78.9033 46.5012C78.2932 46.7096 77.7585 47.1318 77.4142 47.6768C77.2462 47.9428 77.1322 48.3158 77.3403 48.5519C77.8486 49.1286 78.357 49.7054 78.8653 50.2822C79.1312 50.5838 79.405 50.8999 79.5117 51.2875C79.8394 52.4782 80.1671 53.6688 80.4949 54.8594ZM28.7112 35.8995C29.5079 34.4126 30.3123 32.9141 31.3945 31.6202C32.3423 30.4871 33.4838 29.5344 34.6237 28.5948C36.1255 27.3569 37.6365 26.1301 39.1564 24.9145C39.7891 24.4085 40.4316 23.8993 41.1692 23.5643C38.9579 22.5898 36.7325 21.6105 34.3848 21.0381C32.0371 20.4658 29.5364 20.3165 27.2199 21.0043C26.9967 21.0706 26.7725 21.146 26.5799 21.2767C26.2545 21.4974 26.049 21.8549 25.8949 22.2166C25.289 23.638 25.323 25.2485 25.5201 26.781C25.9339 29.9983 27.0286 33.1263 28.7112 35.8995ZM78.6398 80.0242C78.6189 80.2402 78.386 80.4432 78.1904 80.3494C78.098 80.3051 78.0417 80.2111 77.9908 80.1222C77.2109 78.7605 76.4309 77.3988 75.651 76.0371C75.1477 76.2265 74.9059 76.8332 74.9624 77.368C75.0189 77.9027 75.304 78.3822 75.5824 78.8423C76.0081 79.5461 76.4338 80.2498 76.8596 80.9535C76.6357 81.1839 76.2753 80.8775 76.1096 80.6023C75.5188 79.6216 74.928 78.6409 74.3372 77.6601C73.2089 78.8207 72.0806 79.9812 70.9523 81.1418C71.6871 82.2904 72.4219 83.4389 73.1567 84.5875C73.3298 84.8582 73.7006 84.9446 74.0147 84.8766C74.3287 84.8086 74.6002 84.618 74.862 84.4318C76.8313 83.0312 78.8005 81.6307 80.7698 80.2301C80.9195 80.1236 81.0798 80.0021 81.1238 79.8237C81.1697 79.6371 81.0742 79.448 80.9817 79.2796C76.5271 71.1758 71.7727 63.2368 66.7317 55.4842C66.5833 55.256 66.3957 55.0039 66.1241 54.9859C65.943 54.9739 65.7752 55.0725 65.6206 55.1676C63.6213 56.3979 61.622 57.6282 59.6227 58.8585C59.2526 59.0863 58.8824 59.3141 58.5122 59.5419C58.4159 59.6012 58.3121 59.6698 58.2798 59.7783C58.2417 59.9064 58.3174 60.0381 58.3903 60.1502C59.1186 61.269 59.8874 62.3615 60.6948 63.4246C61.6488 62.3977 62.784 61.2917 64.1852 61.3265C65.3951 61.3566 66.3932 62.2365 67.2744 63.066C67.7898 63.5512 68.3053 64.0364 68.8207 64.5216C68.0061 62.9954 67.0429 61.5485 65.9491 60.2081C65.9019 59.9824 66.2994 60.0441 66.4526 60.2164C67.9789 61.9333 68.819 64.1896 70.4263 65.8309C72.0687 67.5081 73.7112 69.1854 75.3536 70.8626C76.0512 71.575 76.7915 72.3799 76.8465 73.3755C76.8968 74.2847 76.3577 75.1118 75.8157 75.8436C76.7712 76.9713 77.6451 78.1682 78.4283 79.4217C78.5433 79.6056 78.6606 79.8083 78.6398 80.0242ZM61.2453 21.5399C61.9369 21.6769 62.6294 21.8142 63.308 22.0058C65.0557 22.4993 66.6807 23.3438 68.2915 24.1826C69.6973 24.9146 71.1108 25.6515 72.3726 26.6107C72.5097 23.1817 72.3738 19.777 71.2329 16.5405C70.9039 15.6072 70.1093 14.6007 69.3362 13.9829C68.4286 13.2574 67.1686 13.1298 66.0183 13.2943C64.009 13.5818 62.1789 14.6579 60.6716 16.0172C59.1644 17.3766 57.9421 19.0167 56.7305 20.6451C58.2354 20.9434 59.7404 21.2416 61.2453 21.5399ZM81.4307 38.1836C83.3721 43.1366 84.0061 48.5955 83.2515 53.8616C85.7153 52.4497 87.9173 50.5828 89.7134 48.3834C90.6084 47.2873 91.4378 45.9973 91.3795 44.5834C91.3316 43.4216 90.6706 42.349 89.7979 41.5805C88.9251 40.812 87.8532 40.3095 86.776 39.8715C85.0433 39.1669 83.2538 38.6019 81.4307 38.1836ZM77.6229 46.6506C78.0791 46.3158 78.5673 46.0247 79.0786 45.7824C79.0773 45.4562 79.0738 45.1192 78.9428 44.8204C78.8119 44.5216 78.5181 44.2686 78.1926 44.2911C77.8504 44.3146 77.5923 44.6271 77.4837 44.9524C77.3751 45.2778 77.3732 45.6285 77.298 45.9632C77.0903 46.8886 76.2701 47.6441 75.3307 47.7753C74.3914 47.9065 73.3956 47.4047 72.9422 46.5716C72.5768 45.9002 72.5219 45.0314 71.9397 44.5361C71.6172 44.2617 71.188 44.1564 70.7757 44.0595C70.68 44.037 70.5782 44.0147 70.4852 44.0465C70.3357 44.0977 70.2655 44.2647 70.2128 44.4137C69.8598 45.4116 69.5069 46.4096 69.1539 47.4075C69.0234 47.7766 68.916 48.2485 69.2078 48.5096C71.9021 50.9208 72.9987 54.7559 75.7388 57.115C75.82 57.1848 75.9199 57.2578 76.0241 57.2331C77.3312 56.9228 78.5984 56.4449 79.7849 55.8147C79.8793 55.7646 79.9778 55.7092 80.0319 55.617C80.0869 55.5235 80.0866 55.4085 80.0809 55.3002C80.0419 54.5546 79.8202 53.8191 79.4407 53.1761C79.2612 52.872 79.041 52.5717 79.0067 52.2202C78.9775 51.9201 79.0891 51.6124 79.0178 51.3194C78.9596 51.0802 78.7881 50.8872 78.6226 50.705C78.1547 50.19 77.6868 49.675 77.2189 49.1601C76.9875 48.9053 76.7471 48.6336 76.6762 48.2969C76.538 47.6408 77.0823 47.0472 77.6229 46.6506ZM48.2977 31.4894C48.8496 31.1573 49.1841 30.495 49.1238 29.8537C49.0357 28.9179 48.2298 28.236 47.4858 27.6615C46.2669 26.7202 43.4794 24.4333 42.2539 23.9417C41.0284 23.4501 35.6062 28.2867 33.722 30.1412C33.6269 30.2348 33.5277 30.337 33.5011 30.4678C33.4746 30.5987 32.8988 32.0068 34.0581 32.3491C35.2174 32.6914 35.3417 32.4276 35.8153 32.0068C36.2889 31.586 36.5646 30.9891 36.7871 30.3959C36.9771 29.8893 37.5518 29.6469 38.082 29.5389C38.6122 29.4309 39.1835 29.3906 39.622 29.0737C40.0788 28.7436 40.7166 28.7628 41.2371 28.9786C41.7577 29.1944 42.1876 29.5783 42.6065 29.9551C42.9566 30.27 43.5224 29.9179 43.7382 29.4995C43.9539 29.081 44.0446 28.5648 44.4219 28.2833C44.9615 27.8808 45.7896 28.241 46.1218 28.8265C46.5943 29.6591 46.2602 30.8479 45.4232 31.3125C44.9382 31.5818 44.2284 31.7622 44.2091 32.3166C44.1995 32.5922 44.3919 32.8347 44.6063 33.0082C44.991 33.3194 45.6174 33.467 45.9451 33.0963C46.4121 32.5681 45.8906 31.4518 46.5374 31.1712C47.1087 30.9234 47.7641 31.8104 48.2977 31.4894ZM63.0477 25.581C63.2412 25.2808 63.4352 24.9519 63.7579 24.799C64.1704 24.6034 64.6657 24.7587 65.057 24.9938C65.4483 25.2289 65.7978 25.5436 66.227 25.6991C66.6638 25.8573 67.1424 25.836 67.6065 25.8125C68.3783 25.7736 69.15 25.7346 69.9218 25.6957C65.2566 22.9927 60.0092 21.097 54.6178 21.0437C54.1633 21.0392 53.6984 21.0496 53.272 21.2068C52.8456 21.364 52.4583 21.695 52.3489 22.1361C52.1825 22.8079 52.7936 23.526 53.4854 23.5474C53.124 23.812 53.1797 24.4264 53.524 24.7128C53.8682 24.9993 54.3834 24.9971 54.7967 24.8246C55.21 24.6521 55.5449 24.3375 55.8699 24.0295C56.4749 23.4562 57.0799 22.8829 57.6849 22.3096C58.0652 21.9493 58.6572 21.934 59.1711 22.0357C59.685 22.1374 60.1881 22.3342 60.7118 22.3215C61.8114 22.2948 62.7854 23.4237 62.5978 24.5076C62.1043 24.0421 61.3864 23.8264 60.718 23.9427C60.0497 24.0591 59.4468 24.5047 59.1396 25.1095C58.8905 25.5999 58.3345 25.859 57.7938 25.9599C57.2532 26.0608 56.6946 26.0397 56.156 26.151C55.6174 26.2623 55.0682 26.5458 54.8479 27.0497C54.6276 27.5537 54.9154 28.2724 55.4631 28.3232C56.101 28.3824 56.4734 27.6333 57.01 27.2833C57.5206 26.9503 58.1871 26.9939 58.7829 27.1234C59.3787 27.2528 59.9743 27.457 60.5818 27.4045C61.6373 27.3132 62.4737 26.4715 63.0477 25.581ZM80.1323 56.298C78.9099 56.7693 77.6875 57.2406 76.4651 57.7119C76.295 57.7775 76.088 57.945 76.1903 58.0959C77.3562 59.8168 78.2538 61.7191 78.8405 63.7132C78.8976 63.9074 79.1922 63.7621 79.3073 63.5957C80.3764 62.05 81.2288 60.3547 81.8318 58.5747C81.9409 58.2525 82.0426 57.9044 81.949 57.5774C81.8019 57.0635 81.2495 56.8045 80.8425 56.458C80.7301 56.3623 80.6163 56.2515 80.4703 56.2303C80.3553 56.2136 80.2408 56.2561 80.1323 56.298ZM66.0304 41.0116C65.4689 41.6078 65.9406 42.6179 65.6521 43.3844C65.5882 43.5543 65.4849 43.7336 65.5438 43.9053C65.5732 43.9909 65.639 44.058 65.7029 44.122C65.9026 44.3221 66.1022 44.5221 66.3019 44.7222C66.4586 44.8792 66.7129 45.042 66.8762 44.8918C67.5478 44.2742 68.3613 43.8118 69.2356 43.551C69.4873 43.4759 69.7597 43.4079 69.9354 43.2126C70.0904 43.0404 70.1404 42.8008 70.1845 42.5733C70.4314 41.2997 70.6765 40.0259 70.92 38.7516C70.939 38.6522 70.9573 38.5456 70.9168 38.4528C70.8739 38.3545 70.7745 38.2942 70.6776 38.248C69.6942 37.7796 68.3715 38.2596 67.9175 39.2498C67.7634 39.5859 67.6923 39.975 67.4335 40.239C67.0563 40.6238 66.3998 40.6193 66.0304 41.0116ZM46.422 24.721C46.2319 24.5484 46.0353 24.3318 46.054 24.0758C46.074 23.8028 46.3268 23.6146 46.5558 23.4648C47.3673 22.934 48.1788 22.4033 48.9903 21.8725C48.9706 21.7149 48.7496 21.6982 48.5934 21.7266C46.4921 22.1088 44.4334 22.7247 42.4675 23.5595C44.6599 24.9109 46.7631 26.4069 48.7591 28.0345C49.0013 27.4847 49.6247 27.214 49.9938 26.7399C50.46 26.1409 50.4949 25.2514 51.0683 24.7541C51.3497 24.51 51.7676 24.3408 51.824 23.9727C51.3317 23.9761 50.8394 23.9796 50.3472 23.983C49.7484 23.9872 49.1109 24.0027 48.6133 24.3359C48.1791 24.6267 47.8454 25.1556 47.323 25.1705C46.9787 25.1804 46.677 24.9524 46.422 24.721ZM70.9642 57.4679C71.3463 58.1529 71.7283 58.838 72.1104 59.523C71.4105 57.296 70.5758 55.1115 69.6125 52.9851C69.5783 52.9096 69.5391 52.8289 69.4658 52.7901C69.3754 52.7422 69.2653 52.7738 69.1683 52.8063C66.4544 53.7136 63.7405 54.621 61.0266 55.5284C60.9441 55.556 60.8548 55.5889 60.8105 55.6638C60.7573 55.7536 60.7892 55.8679 60.8247 55.966C60.9837 56.4049 61.1919 56.826 61.444 57.2188C63.1461 56.2284 64.8482 55.2381 66.5502 54.2477C66.8122 54.0953 67.088 53.9387 67.391 53.9272C67.6416 53.9177 67.8852 54.0096 68.1091 54.1226C69.4389 54.7933 70.2387 56.1673 70.9642 57.4679ZM58.6414 76.0029C58.2993 75.2722 57.7123 74.6741 57.0384 74.2305C56.2107 75.7679 55.261 77.2396 54.2011 78.6271C54.12 78.7333 54.0901 78.9504 54.2234 78.9411C55.5158 78.8502 56.8082 78.7594 58.1006 78.6685C58.36 78.6502 58.6718 78.5957 58.7671 78.3537C59.0628 77.6031 58.9835 76.7336 58.6414 76.0029ZM78.1542 65.2203C78.2589 65.06 78.3654 64.8953 78.4078 64.7086C78.4639 64.4617 78.4019 64.2047 78.3353 63.9604C77.8227 62.0819 77.0163 60.289 76.0097 58.6222C75.8926 58.4281 75.7664 58.2293 75.5756 58.1069C75.3848 57.9846 75.1105 57.9621 74.944 58.1159C74.7217 58.3214 74.8061 58.6844 74.9074 58.9698C75.7098 61.2305 76.5122 63.4912 77.3147 65.7519C77.3625 65.8866 77.4714 66.0523 77.6047 66.0006C77.6566 65.9805 77.6903 65.9311 77.7207 65.8845C77.8652 65.6631 78.0097 65.4417 78.1542 65.2203ZM70.101 36.4704C70.3333 36.6663 70.6416 36.7405 70.9377 36.8087C71.1751 36.8634 71.3156 36.5538 71.3567 36.3136C71.6312 34.7095 71.8075 33.0905 71.9837 31.4727C71.849 31.4155 71.706 31.5256 71.601 31.6275C71.2235 31.9937 70.846 32.36 70.4684 32.7262C70.2056 32.9812 69.9309 33.2566 69.8476 33.6131C69.6889 34.2917 70.2673 35.0651 69.9017 35.6584C69.7423 35.9171 69.8688 36.2745 70.101 36.4704ZM69.279 49.299C69.1884 49.1971 69.0906 49.0921 68.9608 49.0501C68.8311 49.008 68.6619 49.0556 68.6169 49.1843C68.215 50.334 67.813 51.4837 67.4111 52.6335C67.3729 52.7427 67.3986 52.9267 67.5096 52.894C68.1874 52.6939 68.8128 52.3399 69.4936 52.1498C70.1743 51.9597 70.9703 51.9621 71.5142 52.4134C70.8799 51.3015 70.1295 50.2558 69.279 49.299ZM75.0849 32.4882C75.2887 31.9351 75.4926 31.3821 75.6965 30.829C75.736 30.7218 75.6577 30.6102 75.5843 30.5227C74.8564 29.6557 74.1224 28.7826 73.2412 28.072C73.2036 28.0417 73.1611 28.0102 73.1129 28.0127C73.0214 28.0176 72.9848 28.1315 72.9719 28.2223C72.8621 28.9935 72.7524 29.7647 72.6426 30.5358C72.6107 30.7605 72.8177 30.9558 73.0348 31.0223C73.2518 31.0888 73.4855 31.0703 73.7086 31.1118C74.1202 31.1884 74.4846 31.483 74.6458 31.8693C74.748 32.1144 74.8236 32.4404 75.0849 32.4882ZM68.5768 47.3845C68.9622 46.3989 69.3157 45.4007 69.6365 44.3922C69.6581 44.3243 69.6796 44.2506 69.6567 44.1831C69.5956 44.003 69.3289 44.0496 69.1588 44.1348C68.4905 44.4696 67.8479 44.8555 67.2383 45.2881C67.1626 45.3419 67.08 45.4096 67.0771 45.5024C67.0749 45.5726 67.1201 45.6343 67.1633 45.6897C67.6161 46.2696 68.0876 46.835 68.5768 47.3845ZM74.2302 63.6305C74.158 63.5517 74.0394 63.5395 73.9325 63.5413C73.6909 63.5453 73.4501 63.5945 73.2263 63.6858C73.1162 63.7306 73.0067 63.7864 72.888 63.7925C72.7693 63.7985 72.6361 63.7367 72.6068 63.6215C72.9207 63.397 73.3013 63.2672 73.6869 63.2532C73.8585 63.2469 73.8634 62.9558 73.7129 62.8733C73.5623 62.7909 73.3768 62.8512 73.2165 62.9128C72.9517 63.0145 72.6869 63.1162 72.4221 63.218C72.3451 63.2476 72.2658 63.1544 72.2769 63.0726C72.2881 62.9908 72.3545 62.9287 72.4201 62.8785C72.6583 62.6966 72.9425 62.5755 73.2388 62.5297C73.3799 62.508 73.4027 62.2889 73.2995 62.1901C73.1964 62.0913 73.0377 62.0848 72.895 62.0923C72.4802 62.114 72.069 62.2039 71.683 62.3573C72.0121 62.9479 72.3482 63.5347 72.6912 64.1174C72.78 64.2683 72.8764 64.426 73.0302 64.5095C73.3065 64.1605 73.7266 63.9292 74.1692 63.8823C74.2755 63.8711 74.3024 63.7093 74.2302 63.6305ZM79.9002 74.2855C79.6465 74.3502 79.3951 74.4241 79.1468 74.5069C79.0788 74.5295 79.0002 74.565 78.9887 74.6357C78.9818 74.6778 79.0021 74.7191 79.0218 74.7569C79.1677 75.0373 79.3136 75.3177 79.4595 75.598C79.5187 75.7118 79.6378 75.8453 79.7483 75.7803C80.1122 75.5663 80.5187 75.4251 80.9369 75.3673C81.0519 75.3514 81.1272 75.228 81.1298 75.1119C81.1325 74.9958 81.0811 74.8861 81.0308 74.7813C80.9447 74.6018 80.8501 74.4127 80.6807 74.308C80.4529 74.1673 80.1597 74.2193 79.9002 74.2855ZM80.8792 77.368C80.78 77.3861 80.6653 77.4161 80.6264 77.5091C80.5947 77.585 80.6282 77.6709 80.6614 77.7461C80.7879 78.0333 80.9145 78.3205 81.0411 78.6076C81.0806 78.6973 81.1329 78.798 81.2286 78.8193C81.2967 78.8345 81.3656 78.8036 81.4286 78.7734C81.6236 78.68 81.8187 78.5865 82.0138 78.4931C82.1235 78.4405 82.2399 78.382 82.3001 78.2762C82.3603 78.1704 82.3284 78.0048 82.211 77.9725C82.1483 77.9553 82.0822 77.9799 82.0238 78.0083C81.8491 78.0932 81.6917 78.2166 81.5052 78.2708C81.3187 78.325 81.0813 78.2834 80.9928 78.1105C81.4523 77.9473 81.8915 77.7272 82.2973 77.4568C82.2609 77.2032 81.9054 77.1807 81.6534 77.2267C81.3953 77.2738 81.1372 77.3209 80.8792 77.368ZM77.1248 70.776C77.1995 70.6948 77.3079 70.655 77.4119 70.618C77.6981 70.5163 77.9843 70.4145 78.2705 70.3128C78.4193 70.2599 78.3828 70.0126 78.2424 69.9403C78.1021 69.8679 77.9325 69.9131 77.7816 69.9596C77.4543 70.0604 77.127 70.1612 76.7996 70.262C76.7569 70.2752 76.712 70.2897 76.6821 70.3229C76.6137 70.3988 76.6597 70.5182 76.7083 70.608C76.838 70.8476 76.9677 71.0873 77.0974 71.3269C77.1125 71.3549 77.1295 71.3847 77.1583 71.3981C77.1932 71.4144 77.2339 71.402 77.2702 71.3894C77.6686 71.2518 78.0669 71.1141 78.4652 70.9764C78.5602 70.9436 78.6744 70.8834 78.6664 70.7832C78.6555 70.6464 78.455 70.6454 78.3243 70.6869C77.9146 70.8169 77.5048 70.9469 77.0951 71.077C77.0228 70.9936 77.0501 70.8573 77.1248 70.776ZM82.2174 55.1437C81.8647 55.343 81.512 55.5423 81.1593 55.7416C81.1169 55.7656 81.0723 55.7917 81.0491 55.8344C80.9875 55.9477 81.1092 56.0707 81.2162 56.1424C81.4356 56.2894 81.655 56.4364 81.8744 56.5834C81.9176 56.6124 81.9641 56.6424 82.0161 56.6429C82.1342 56.644 82.1951 56.5049 82.2254 56.3907C82.3227 56.0241 82.42 55.6575 82.5173 55.2909C82.5296 55.2449 82.5415 55.1944 82.5217 55.1511C82.4741 55.0466 82.3174 55.0872 82.2174 55.1437ZM77.5739 71.5959C77.4887 71.6178 77.3917 71.6497 77.3598 71.7317C77.336 71.7927 77.3576 71.8616 77.3854 71.9208C77.4568 72.0734 77.5698 72.2063 77.709 72.3012C78.079 72.1599 78.4491 72.0187 78.8191 71.8774C78.9782 71.8167 79.1664 71.7145 79.1597 71.5444C79.1548 71.4227 79.0399 71.3283 78.9203 71.3048C78.8008 71.2813 78.6781 71.3119 78.5601 71.3422C78.2314 71.4268 77.9026 71.5113 77.5739 71.5959ZM72.2119 58.2857C72.3413 58.5385 72.6616 58.6117 72.9419 58.6571C73.3889 58.7295 73.8359 58.802 74.2829 58.8744C74.2907 58.6207 74.0289 58.4521 73.7964 58.3502C73.3703 58.1635 72.9255 58.0193 72.4709 57.9205C72.4218 57.9099 72.3708 57.8998 72.322 57.9115C72.1763 57.9466 72.1436 58.1524 72.2119 58.2857ZM70.555 58.0928C70.59 58.0795 70.6254 58.066 70.6556 58.0438C70.789 57.9459 70.7484 57.7155 70.6123 57.6213C70.4762 57.527 70.292 57.5397 70.134 57.5893C69.9761 57.639 69.8288 57.7211 69.6673 57.7576C69.4492 57.8069 69.1638 57.8046 69.0802 58.0121C69.0089 58.1892 69.1725 58.3898 69.359 58.4308C69.5455 58.4719 69.7367 58.4031 69.9153 58.3354C70.1285 58.2545 70.3418 58.1736 70.555 58.0928ZM71.4136 59.692C71.5937 59.5745 71.5104 59.265 71.3188 59.1672C71.1273 59.0693 70.8971 59.1151 70.6874 59.1631C70.4662 59.2136 70.2301 59.2728 70.0795 59.4425C69.9289 59.6121 69.929 59.93 70.1345 60.026C70.4139 60.1565 70.6758 59.788 70.9807 59.7424C71.1264 59.7206 71.2902 59.7725 71.4136 59.692ZM77.7367 69.6062C77.7971 69.5861 77.8611 69.5633 77.8999 69.5129C77.9432 69.4567 77.9448 69.3766 77.9203 69.3101C77.8629 69.1543 77.6834 69.0714 77.5174 69.0744C77.3514 69.0774 77.1951 69.148 77.0442 69.2172C76.8521 69.3054 76.66 69.3935 76.468 69.4817C76.3624 69.5302 76.243 69.596 76.2255 69.7109C76.2077 69.8277 76.315 69.9338 76.4305 69.9585C76.546 69.9832 76.6651 69.9486 76.778 69.9138C77.0987 69.815 77.4184 69.7125 77.7367 69.6062ZM78.6019 73.6736C79.0155 73.4997 79.4292 73.3257 79.8429 73.1518C79.882 73.1354 79.9224 73.118 79.9509 73.0865C80.0349 72.9935 79.9582 72.8313 79.8411 72.7866C79.7241 72.7418 79.5933 72.7764 79.4729 72.8113C79.1934 72.8923 78.9138 72.9732 78.6343 73.0542C78.4796 73.099 78.3066 73.1592 78.2414 73.3064C78.1524 73.5077 78.399 73.7589 78.6019 73.6736ZM81.3949 76.0852C81.5601 76.0214 81.4998 75.743 81.3358 75.6763C81.1717 75.6095 80.9875 75.6781 80.8213 75.7393C80.4956 75.8593 80.1598 75.9521 79.8187 76.0165C79.6998 76.1765 79.8447 76.4218 80.0366 76.4762C80.2284 76.5305 80.4308 76.4577 80.6167 76.3858C80.8761 76.2856 81.1355 76.1854 81.3949 76.0852ZM72.5882 57.5466C72.9216 57.634 73.2549 57.7214 73.5883 57.8087C73.7151 57.842 73.9107 57.8233 73.9014 57.6925C73.3258 57.2945 72.6634 57.0226 71.9741 56.9014C71.9376 56.895 71.8991 56.8892 71.8642 56.9018C71.7447 56.9453 71.7903 57.1305 71.8803 57.2203C72.0665 57.4062 72.3337 57.4799 72.5882 57.5466ZM73.8475 56.2601C73.9653 56.5436 74.0832 56.8271 74.2011 57.1105C74.2721 57.2812 74.3519 57.4627 74.5085 57.5609C74.6651 57.6591 74.92 57.6175 74.9713 57.4399C75.0104 57.3045 74.9189 57.1693 74.832 57.0584C74.5001 56.6352 74.1582 56.2197 73.8069 55.8125C73.7291 55.9472 73.7877 56.1165 73.8475 56.2601ZM73.2766 56.793C73.3392 56.8145 73.4153 56.8339 73.4659 56.7912C73.525 56.7412 73.5037 56.6446 73.4635 56.5784C73.3174 56.3379 73.0218 56.2426 72.7511 56.1657C72.3872 56.0624 72.0233 55.959 71.6594 55.8556C71.5463 55.8235 71.4612 55.9885 71.5142 56.0935C71.5671 56.1984 71.6888 56.2456 71.8 56.284C72.2922 56.4536 72.7844 56.6233 73.2766 56.793ZM78.1417 72.4218C78.0394 72.4527 77.9282 72.4903 77.8723 72.5814C77.7728 72.7433 77.9182 72.9546 78.0892 73.0377C78.4751 72.7237 78.9668 72.5422 79.4642 72.5302C79.6335 72.5261 79.6483 72.2424 79.5047 72.1526C79.3611 72.0628 79.175 72.1091 79.0129 72.1581C78.7225 72.246 78.4321 72.3339 78.1417 72.4218ZM76.5261 67.9898C76.2914 68.0518 76.0568 68.1139 75.8222 68.1759C75.607 68.2328 75.3373 68.3736 75.3889 68.59C75.4329 68.7743 75.6903 68.8162 75.8632 68.7386C76.036 68.6609 76.1677 68.5105 76.3398 68.4311C76.6209 68.3014 77.0168 68.3487 77.1745 68.0822C77.0402 67.8914 76.7516 67.9301 76.5261 67.9898ZM67.7318 55.5811C67.6867 55.6006 67.6403 55.6228 67.6106 55.6619C67.5339 55.7627 67.6176 55.9195 67.7362 55.9638C67.8549 56.008 67.9867 55.9762 68.1098 55.9467C68.5238 55.8476 68.9451 55.779 69.3691 55.7416C69.4104 55.5089 69.1063 55.3786 68.8702 55.3692C68.4813 55.3538 68.0891 55.4268 67.7318 55.5811ZM74.5938 64.6035C74.7154 64.4746 74.6466 64.1876 74.4727 64.2215C74.0117 64.3115 73.5673 64.4859 73.1681 64.7334C73.0748 64.9234 73.3329 65.1205 73.542 65.0875C73.7511 65.0545 73.9191 64.9011 74.115 64.8209C74.2789 64.7537 74.4722 64.7323 74.5938 64.6035ZM74.8464 60.4366C74.7918 60.3676 74.7045 60.3348 74.6216 60.3052C74.2186 60.1611 73.8157 60.017 73.4128 59.873C73.3025 59.8335 73.179 59.7943 73.0718 59.8413C72.9645 59.8883 72.9217 60.0661 73.0267 60.118C73.5429 60.3732 74.0917 60.5625 74.6555 60.6798C74.7141 60.692 74.7797 60.7023 74.8302 60.6702C74.9044 60.6229 74.9011 60.5056 74.8464 60.4366ZM72.9491 55.696C73.0065 55.7301 73.0821 55.6657 73.0836 55.5989C73.0851 55.5321 73.0402 55.474 72.995 55.4248C72.5621 54.9525 71.927 54.732 71.3194 54.5289C71.1653 54.4774 70.9398 54.4599 70.8949 54.616C71.5973 54.941 72.2832 55.3016 72.9491 55.696ZM81.9115 76.6462C81.8752 76.5197 81.7415 76.4409 81.6105 76.4277C81.4795 76.4145 81.3495 76.4534 81.2235 76.4919C81.0037 76.5591 80.7839 76.6263 80.5641 76.6935C80.4122 76.74 80.2276 76.8313 80.2403 76.9896C80.2507 77.1184 80.4008 77.1955 80.5294 77.1831C80.6581 77.1708 80.7715 77.0981 80.888 77.0423C81.1423 76.9205 81.4325 76.875 81.7118 76.913C81.8423 76.9307 81.9478 76.7728 81.9115 76.6462ZM68.125 56.547C68.1232 56.666 68.2162 56.7794 68.3332 56.801C68.4089 56.8149 68.4861 56.7941 68.5602 56.7734C68.9881 56.6542 69.416 56.5349 69.8438 56.4156C69.8506 56.2954 69.7467 56.1915 69.6314 56.1566C69.5161 56.1218 69.3923 56.1396 69.2732 56.1577C68.9625 56.205 68.6517 56.2523 68.341 56.2996C68.2233 56.3175 68.1269 56.428 68.125 56.547ZM75.1929 65.1021C75.2099 64.9903 75.1 64.8917 74.9878 64.8776C74.8757 64.8635 74.7656 64.9093 74.6618 64.9541C74.3316 65.0967 74.0014 65.2393 73.6712 65.3818C73.573 65.5065 73.6939 65.7043 73.8487 65.7393C74.0035 65.7743 74.1605 65.7036 74.3034 65.6346C74.529 65.5259 74.7546 65.4171 74.9801 65.3084C75.0729 65.2636 75.1773 65.2039 75.1929 65.1021ZM70.4699 53.6702C70.5079 53.7381 70.5835 53.774 70.6545 53.8058C71.2429 54.0694 71.8312 54.333 72.4196 54.5966C72.524 54.6434 72.6764 54.6752 72.7279 54.573C72.7832 54.4633 72.6468 54.3585 72.5337 54.3105C71.9008 54.0416 71.2678 53.7727 70.6348 53.5038C70.6031 53.4903 70.5691 53.4765 70.535 53.4822C70.4583 53.495 70.4318 53.6024 70.4699 53.6702ZM73.5167 61.2605C73.4969 61.2522 73.4757 61.2437 73.4547 61.2478C73.4329 61.2521 73.4147 61.2712 73.4115 61.2932C73.4629 61.6454 73.8581 61.8189 74.1966 61.9288C74.639 62.0724 75.0814 62.216 75.5237 62.3596C75.63 62.2419 75.4565 62.0791 75.3104 62.0174C74.7125 61.7651 74.1146 61.5128 73.5167 61.2605ZM70.2458 57.1357C70.2951 57.0428 70.2208 56.9265 70.1272 56.8783C69.9636 56.7942 69.7663 56.8412 69.5889 56.8899C69.3869 56.9453 69.1849 57.0007 68.9828 57.0562C68.8373 57.0961 68.6618 57.1716 68.6564 57.3225C68.6523 57.4354 68.7588 57.5277 68.8699 57.5484C68.981 57.5691 69.0943 57.5365 69.2025 57.5041C69.4907 57.4181 69.7788 57.3321 70.067 57.2461C70.136 57.2255 70.212 57.1994 70.2458 57.1357ZM80.2621 73.5171C80.142 73.4476 79.9909 73.4882 79.8587 73.5305C79.4382 73.6649 79.0177 73.7994 78.5972 73.9338C78.5042 74.0828 78.6734 74.2808 78.8487 74.2913C79.0239 74.3017 79.1829 74.1994 79.3376 74.1165C79.6192 73.9657 79.9294 73.8686 80.2467 73.8322C80.3846 73.8163 80.3823 73.5866 80.2621 73.5171ZM72.2313 60.7524C72.0966 60.7163 71.9539 60.7414 71.8168 60.7667C71.6471 60.798 71.4775 60.8293 71.3078 60.8606C71.1154 60.8961 70.8714 60.9957 70.8918 61.1902C70.9039 61.3051 71.0172 61.388 71.1314 61.4046C71.2456 61.4213 71.3605 61.3873 71.4709 61.3537C71.8095 61.2506 72.1481 61.1474 72.4867 61.0443C72.4901 60.9049 72.366 60.7885 72.2313 60.7524ZM71.0762 58.4703C70.9821 58.3741 70.8269 58.3672 70.6976 58.4046C70.5683 58.4419 70.4525 58.5154 70.3261 58.5618C70.1772 58.6165 70.0162 58.6327 69.8678 58.6888C69.7193 58.7449 69.5759 58.857 69.5502 59.0136C69.6059 59.1439 69.793 59.1294 69.9299 59.0925C70.2925 58.9949 70.6552 58.8972 71.0178 58.7995C71.1477 58.7645 71.1704 58.5664 71.0762 58.4703ZM70.5712 60.2437C70.4201 60.2876 70.4461 60.5372 70.5839 60.6132C70.7217 60.6891 70.8918 60.6472 71.043 60.6035C71.36 60.512 71.677 60.4204 71.994 60.3288C72.0172 60.1704 71.8724 60.0271 71.716 59.9926C71.5597 59.9582 71.3981 60.0033 71.2444 60.0479C71.02 60.1132 70.7956 60.1784 70.5712 60.2437ZM72.3702 37.9409C72.5718 37.7958 72.5408 37.4961 72.5467 37.2478C72.284 37.2157 71.9962 37.189 71.7747 37.3339C71.5532 37.4788 71.4938 37.8698 71.7309 37.9873C71.8124 38.0277 71.9075 38.0266 71.9984 38.0247C72.1275 38.0219 72.2654 38.0163 72.3702 37.9409ZM72.8782 59.0567C72.7512 59.0436 72.5662 59.0997 72.6024 59.2221C72.6197 59.2809 72.6843 59.3098 72.7419 59.3306C73.2944 59.5303 73.8712 59.6626 74.4555 59.7235C74.5279 59.7068 74.5491 59.6044 74.5113 59.5405C74.4734 59.4766 74.4005 59.4436 74.3316 59.4159C73.867 59.2292 73.3762 59.1079 72.8782 59.0567ZM70.3069 52.9238C70.7848 53.1693 71.2719 53.397 71.7667 53.6063C71.8629 53.6469 71.9719 53.6871 72.0685 53.6475C72.1651 53.6079 72.202 53.4461 72.1063 53.4043C71.5437 53.1581 70.9811 52.9118 70.4185 52.6656C70.3291 52.6265 70.2017 52.5985 70.1534 52.6833C70.1004 52.7762 70.2118 52.8749 70.3069 52.9238ZM75.0366 61.1602C74.9552 61.0863 74.8458 61.0532 74.7403 61.0222C74.2964 60.8918 73.8525 60.7613 73.4086 60.6309C73.3472 60.6129 73.2788 60.5953 73.2214 60.6236C73.1639 60.6518 73.1431 60.7485 73.2006 60.7767C73.8079 61.0744 74.4491 61.303 75.1077 61.4569C75.1622 61.3614 75.1181 61.2341 75.0366 61.1602ZM75.3842 68.0121C75.7008 67.9002 76.0173 67.7882 76.3338 67.6763C76.4731 67.627 76.6225 67.57 76.7023 67.4457C76.6819 67.3342 76.5613 67.264 76.448 67.2618C76.3347 67.2596 76.2275 67.3086 76.1248 67.3565C75.8474 67.4861 75.57 67.6158 75.2926 67.7454C75.1924 67.7922 75.077 67.8611 75.0752 67.9717C75.1273 68.0731 75.2768 68.0502 75.3842 68.0121ZM72.8698 61.6813C72.9437 61.599 72.8772 61.4561 72.7744 61.4151C72.6717 61.3741 72.5558 61.4023 72.4489 61.4309C72.0857 61.5281 71.7224 61.6253 71.3591 61.7225C71.2932 61.7989 71.3524 61.928 71.445 61.9679C71.5377 62.0078 71.644 61.9866 71.7425 61.9647C72.0703 61.892 72.3981 61.8192 72.7258 61.7464C72.7781 61.7348 72.834 61.7212 72.8698 61.6813ZM77.3087 68.4886C77.2338 68.4721 77.1573 68.5017 77.0863 68.5307C76.699 68.6889 76.3118 68.8472 75.9245 69.0055C75.8123 69.0513 75.8576 69.2417 75.9714 69.2833C76.0853 69.3249 76.2096 69.2711 76.3187 69.2183C76.6515 69.0572 76.9843 68.8961 77.3171 68.735C77.3549 68.7167 77.3953 68.6959 77.4139 68.6583C77.4478 68.5895 77.3836 68.505 77.3087 68.4886ZM74.4654 62.3381C74.3164 62.2829 74.1013 62.254 74.0418 62.4014C74.5666 62.6717 75.1234 62.8801 75.6967 63.0208C75.8139 62.9501 75.6676 62.7831 75.5393 62.7357C75.1813 62.6031 74.8234 62.4706 74.4654 62.3381ZM67.2452 55.0849C67.145 55.1988 67.2437 55.4147 67.3954 55.4134C67.7421 55.187 68.1469 55.0506 68.5599 55.0209C68.429 54.8572 68.2022 54.7951 67.9932 54.8114C67.7842 54.8278 67.5871 54.9111 67.3942 54.9933C67.3401 55.0164 67.2841 55.0408 67.2452 55.0849ZM75.7273 63.59C75.8409 63.6175 76.0196 63.5855 75.9914 63.4722C75.5172 63.2582 75.0175 63.1009 74.5064 63.0046C74.4499 63.0807 74.4838 63.1958 74.5544 63.259C74.625 63.3222 74.7212 63.3466 74.8133 63.3689C75.118 63.4426 75.4227 63.5163 75.7273 63.59ZM75.3687 64.1839C75.6342 64.266 75.9091 64.3178 76.1863 64.3378C76.2418 64.2644 76.21 64.1524 76.1422 64.0902C76.0743 64.0281 75.9812 64.0033 75.892 63.9807C75.6092 63.9087 75.3265 63.8368 75.0437 63.7649C74.941 63.9416 75.1735 64.1235 75.3687 64.1839ZM81.414 79.258C81.3507 79.4135 81.4331 79.631 81.5996 79.6526C81.8068 79.4536 81.9848 79.2242 82.126 78.9739C82.0456 78.8871 81.9039 78.9081 81.7929 78.949C81.6353 79.007 81.4774 79.1025 81.414 79.258ZM76.9862 66.3449C76.8513 66.2192 76.6847 66.1278 76.5062 66.0817C76.4775 66.3346 76.6227 66.5981 76.8518 66.709C76.9067 66.7356 76.9717 66.7538 77.0279 66.73C77.1696 66.6697 77.0989 66.4499 76.9862 66.3449ZM76.3221 64.7546C76.2294 64.6876 76.1094 64.6748 75.9956 64.6642C75.8552 64.6511 75.7149 64.6381 75.5745 64.625C75.5066 64.7887 75.6991 64.948 75.8745 64.9737C76.0499 64.9993 76.2419 64.9643 76.3951 65.0534C76.4645 64.9624 76.4149 64.8215 76.3221 64.7546ZM77.4096 67.8383C77.4647 67.8852 77.5324 67.9272 77.6043 67.9193C77.6296 67.5749 77.397 67.2545 77.1074 67.0664C77.0733 67.3522 77.1906 67.6516 77.4096 67.8383ZM76.5105 65.5202C76.348 65.4306 76.1568 65.3938 75.9727 65.4169C76.0394 65.5963 76.1984 65.7385 76.3841 65.785C76.4836 65.8099 76.6077 65.7989 76.6618 65.7118C76.716 65.6248 76.609 65.4808 76.5252 65.5398M67.4111 54.3617C67.2571 54.389 67.1125 54.4672 67.0055 54.5813C67.197 54.6351 67.415 54.5807 67.5587 54.4432C67.5233 54.3957 67.4683 54.3631 67.4095 54.355" fill="#00160A"/>
<path fill-rule="evenodd" clip-rule="evenodd" d="M64.1068 69.6809C65.678 68.1717 67.8834 68.3845 69.4258 70.0406C70.7672 71.4814 70.4484 73.3847 68.9251 74.9811C68.3504 75.5773 67.1967 75.9728 66.3618 75.876C65.6551 75.8058 64.5546 75.2849 63.901 74.8047C63.5984 74.5824 63.3216 74.1241 63.0606 73.428L63.0221 73.3239C62.5584 72.0383 62.8716 70.6794 63.922 69.8266L63.9712 69.7874L63.9823 69.7722C63.9914 69.7609 64.0019 69.7502 64.0139 69.7402L64.033 69.7255L64.0544 69.7118L64.0991 69.6893L64.1068 69.6809ZM66.8385 74.8633L66.3633 75.3715L66.4157 75.376C66.9028 75.4113 67.3794 75.3351 67.8128 75.1508L67.8369 75.1402L67.8033 75.1383C67.5039 75.1169 67.1875 75.0255 66.8587 74.8728L66.8385 74.8633ZM65.4513 73.9118L65.4068 73.8711L65.36 73.9167C65.1757 74.0962 64.9885 74.2801 64.797 74.4697L64.5801 74.6851C64.6415 74.7298 64.7054 74.7734 64.7719 74.8161C65.0725 75.012 65.397 75.1605 65.7328 75.257L65.805 75.2768L66.1524 74.9109L66.4123 74.6359L66.3953 74.6257C66.0686 74.4251 65.7475 74.1789 65.4513 73.9118ZM67.7187 73.9219L67.1523 74.528L67.1809 74.5404C67.6216 74.7252 68.0136 74.7602 68.3508 74.624L68.3863 74.6088L68.3522 74.5702C68.1818 74.3796 67.9986 74.1906 67.798 73.9976L67.7187 73.9219ZM64.3061 72.6442L64.2056 72.743C64.0608 72.8839 63.9147 73.0238 63.7673 73.1628L63.5354 73.3795L63.5549 73.4259C63.7119 73.7877 63.9306 74.1026 64.2155 74.378L64.2257 74.3877L64.258 74.3549C64.4643 74.1456 64.6774 73.9335 64.8994 73.7164L65.0721 73.5481L65.0251 73.5009C64.7669 73.2382 64.5459 72.9809 64.36 72.7211L64.3061 72.6442ZM68.644 72.9332L68.0258 73.5946L68.0321 73.6005C68.2693 73.8268 68.4861 74.0488 68.6873 74.2731L68.7484 74.342L68.7502 74.3398C68.9612 74.0533 68.925 73.5864 68.6715 72.9958L68.644 72.9332ZM66.4811 72.8436L66.4353 72.8866C66.2239 73.0849 66.0096 73.2885 65.7911 73.4986L65.7294 73.5578L65.787 73.6086C66.0892 73.8727 66.3787 74.0946 66.6681 74.2734L66.7227 74.3064L67.1108 73.8946L67.3778 73.61L67.2896 73.5317C67.1294 73.3902 66.9563 73.242 66.7387 73.0591L66.4811 72.8436ZM69.7834 71.7141L68.9281 72.6289L68.9559 72.6827C69.003 72.7754 69.0492 72.8696 69.0945 72.9653L69.1619 73.11L69.2246 73.2493C69.2885 73.3841 69.3325 73.5184 69.3561 73.6506L69.3597 73.673L69.3852 73.6272C69.7313 72.9927 69.8731 72.3396 69.7863 71.7329L69.7834 71.7141ZM67.9022 71.7027L67.8583 71.6445L67.7023 71.7755L67.2678 72.1349L67.19 72.2001C67.11 72.2676 67.0383 72.3295 66.972 72.3882L66.895 72.4573L66.8154 72.5308L66.9946 72.6803C67.1946 72.848 67.3686 72.9971 67.5314 73.1409L67.6862 73.2789L68.1833 72.7464L68.4197 72.492L68.4179 72.4886C68.2693 72.2264 68.0926 71.9586 67.9022 71.7027ZM65.2546 71.7592L65.2174 71.7227L65.2056 71.7352C65.0602 71.8874 64.9136 72.0384 64.7657 72.1883L64.6182 72.3365L64.649 72.3836C64.8286 72.653 65.0509 72.9158 65.3103 73.1707L65.3759 73.2343L65.3878 73.2455L65.408 73.2262C65.5578 73.083 65.7114 72.9375 65.8703 72.7884L66.1262 72.5488L66.0909 72.5193C65.8029 72.274 65.5248 72.0212 65.2546 71.7592ZM63.6737 70.7852L63.6595 70.8087C63.3077 71.4003 63.1991 72.1356 63.3625 72.8361L63.3771 72.8961L63.3845 72.9246L63.4583 72.8558C63.6125 72.7105 63.7656 72.5639 63.9176 72.4159L64.0721 72.264L64.0574 72.2371C63.8043 71.7659 63.6718 71.2875 63.6737 70.7961L63.6737 70.7852ZM66.4686 70.3442L66.2851 70.5549C66.0769 70.792 65.8657 71.0265 65.6515 71.2585L65.5254 71.3939L65.5569 71.4245C65.8062 71.6656 66.0646 71.9004 66.3344 72.1312L66.4598 72.2374L66.5796 72.1271C66.6565 72.0573 66.7389 71.9853 66.8321 71.9062L66.9849 71.7781L67.344 71.4823C67.4088 71.4287 67.4667 71.3804 67.5205 71.335L67.5731 71.2903L67.5477 71.2606C67.4245 71.1176 67.3084 70.9948 67.2121 70.9046L67.1838 70.8785C66.988 70.702 66.7741 70.5404 66.5357 70.3867L66.4686 70.3442ZM69.0624 70.3203L69.0432 70.354C68.8449 70.6902 68.5717 71.0049 68.2 71.3476L68.1689 71.3759L68.1801 71.3913C68.3425 71.6194 68.4964 71.8581 68.6423 72.1071L68.6952 72.1988L69.111 71.7498L69.637 71.1788L69.6248 71.1489C69.5039 70.8616 69.3242 70.5917 69.0853 70.3435L69.0624 70.3203ZM64.1395 70.5741L64.1375 70.5934C64.0947 71.0467 64.1835 71.4926 64.3915 71.9312L64.3969 71.9421L64.4523 71.8866C64.5749 71.7624 64.6968 71.6372 64.8179 71.5111L64.9103 71.4142L64.8728 71.376C64.6597 71.1564 64.4506 70.9297 64.2441 70.6945L64.1395 70.5741ZM64.3467 70.0728L64.3149 70.0881L64.3231 70.098C64.6045 70.4337 64.8913 70.7516 65.188 71.0566L65.2184 71.0876L65.3422 70.9548C65.5595 70.7193 65.7738 70.4812 65.9851 70.2403L66.088 70.122L66.0769 70.116C66.0246 70.0876 65.9711 70.0592 65.9161 70.0307L65.8326 69.9879C65.3429 69.7475 64.9811 69.7742 64.396 70.0493L64.3467 70.0728ZM67.4092 69.2152L67.2288 69.4389C67.107 69.5887 66.9841 69.7375 66.86 69.8855L66.7731 69.9884L66.7952 70.0024C67.1233 70.214 67.4028 70.4436 67.6326 70.6982L67.6847 70.7574C67.7356 70.8164 67.7858 70.8764 67.8353 70.9372L67.8921 71.008L67.9 71.0008C68.2659 70.6597 68.5245 70.3489 68.7018 70.015L68.7069 70.0048L68.66 69.9677C68.1855 69.5948 67.838 69.3732 67.4702 69.2369L67.4092 69.2152ZM66.6836 69.0869C66.2188 69.0835 65.7955 69.1666 65.4049 69.3373L65.3826 69.3472L65.4215 69.3523C65.5071 69.3649 65.591 69.3865 65.6736 69.4177L65.7148 69.4342C65.9361 69.5316 66.1397 69.6292 66.3305 69.7307L66.3943 69.7652L66.5194 69.6176C66.6467 69.466 66.7729 69.3134 66.8978 69.1598L66.9426 69.1042L66.8882 69.098C66.8429 69.0934 66.7975 69.0902 66.752 69.0885L66.6836 69.0869Z" fill="#111111"/>
<path fill-rule="evenodd" clip-rule="evenodd" d="M74.5844 37.2612C74.7314 36.8634 75.2605 36.6991 75.6508 36.8649C76.0412 37.0307 76.2835 37.4452 76.3447 37.8649C76.4058 38.2846 76.313 38.7111 76.1935 39.1181C76.0846 39.4892 75.9531 39.8536 75.8001 40.2088C75.7858 40.2418 75.7668 40.2787 75.7317 40.2866C75.6944 40.295 75.6599 40.266 75.6331 40.2387C74.9697 39.5667 74.5698 38.6412 74.5351 37.6976C74.5296 37.5503 74.5333 37.3994 74.5844 37.2612ZM75.7311 37.3583C75.6223 37.265 75.4818 37.2039 75.3384 37.2082C75.0039 37.2184 74.7705 37.5833 74.778 37.9178C74.7854 38.2524 74.9636 38.5562 75.1366 38.8427C75.2605 39.0478 75.3844 39.253 75.5083 39.4582C75.5505 39.5281 75.6336 39.6079 75.6993 39.5594C75.7258 39.5399 75.7361 39.5057 75.7447 39.4739C75.7955 39.2875 75.8462 39.1011 75.8969 38.9147C75.9694 38.6482 76.0424 38.3774 76.0379 38.1013C76.0334 37.8252 75.9408 37.538 75.7311 37.3583L75.7311 37.3583Z" fill="#111111"/>
<path fill-rule="evenodd" clip-rule="evenodd" d="M75.5124 38.4298C75.4309 38.4527 75.342 38.4484 75.2631 38.4176C75.11 38.358 75.0043 38.194 75.0132 38.03C75.0221 37.866 75.1448 37.7144 75.3034 37.6716C75.5437 37.6067 75.8143 37.8281 75.7983 38.0765C75.788 38.2377 75.6679 38.386 75.5124 38.4298Z" fill="#111111"/>
</svg>
