<svg width="100" height="100" viewBox="0 0 100 100" fill="none" xmlns="http://www.w3.org/2000/svg">
<path fill-rule="evenodd" clip-rule="evenodd" d="M77.9972 51.8464C78.172 73.3697 68.7573 89.0928 50.758 89.9855C37.6392 90.6361 45.487 70.0529 29.0452 56.3867C18.5209 47.6389 11.5746 24.9101 37.513 19.0334C63.4514 13.1566 77.8225 30.3232 77.9972 51.8464Z" fill="#F3C76F"/>
<path d="M24.8825 83.1006C23.2496 80.0905 23.5163 76.4481 23.8534 73.0403C24.6288 65.2017 25.8226 56.7606 31.3131 51.1127C32.7653 49.6188 34.5379 48.3523 36.5721 47.9025C38.1485 47.554 39.6671 46.9459 41.0483 46.1101C41.3812 44.1604 39.5467 42.6252 38.2651 41.1188C36.8298 39.4318 35.9345 37.2924 35.7403 35.086C35.6254 33.78 35.3512 32.0005 34.0413 31.9449C32.9646 31.8991 32.154 30.5998 32.5862 29.6126C33.0184 28.6254 34.5229 28.3398 35.2869 29.0999C34.1971 25.0143 36.4993 20.3006 40.3914 18.6481C39.7568 17.7405 41.142 16.6528 42.2418 16.7828C43.3416 16.9128 44.4061 17.5771 45.4861 17.3317C45.1159 16.68 45.7089 15.8142 46.4395 15.6473C47.1701 15.4804 47.9198 15.7975 48.5752 16.1611C52.7818 18.4949 55.5617 23.2015 55.575 28.0121C55.6837 27.134 57.0014 26.8333 57.6459 27.4395C58.2904 28.0458 58.2597 29.1308 57.8021 29.888C57.3445 30.6453 56.5644 31.1425 55.7924 31.5747C55.8119 34.7648 54.5987 37.9469 52.4603 40.3143C50.9042 42.037 48.6996 43.8643 49.2102 46.1288C50.038 45.9457 50.8754 46.9006 50.5857 47.6974C54.1348 47.4017 57.4468 49.5438 59.9612 52.0659C63.6472 55.7632 66.2965 60.4834 67.5325 65.5557C67.7484 66.4417 69.0089 66.6832 69.7888 66.2105C70.5687 65.7378 70.9695 64.8438 71.3249 64.004L78.3454 47.4134C77.8929 45.1784 78.259 42.8683 78.6257 40.6176L79.8427 33.1479C79.9532 32.4699 80.4274 31.5751 81.0536 31.8578C81.2699 31.9555 81.3907 32.1666 81.467 32.3993C81.5023 32.5071 81.5282 32.6196 81.5496 32.7276C81.9292 34.6429 82.0505 36.6093 81.9092 38.5568L84.3395 34.3995C84.7328 33.7267 85.5477 32.9825 86.156 33.2608C86.3846 33.3057 86.5397 33.5339 86.5724 33.7665C86.6591 34.0828 86.5856 34.4631 86.4866 34.7913C86.0433 36.2608 85.3207 37.6455 84.3687 38.8496C85.6522 39.2874 87.1388 39.9522 87.3635 41.2895C87.2302 43.7139 85.4431 46.4974 84.1256 47.9424C84.4279 47.76 84.6256 48.3027 84.5655 48.6507C83.1203 57.0118 79.5988 65.006 74.405 71.7158C72.8723 73.696 71.0923 75.2284 68.3 75.5047C64.4947 75.8812 61.9996 70.2682 59.9332 70.4184C59.9332 70.4184 57.9996 80.4016 56.5996 81.7349C55.1996 83.0682 45.9996 85.8682 43.2273 84.9349C40.4549 84.0016 37.6818 86.4974 34.0413 86.2473C30.2682 85.988 24.8825 83.1006 24.8825 83.1006Z" fill="white"/>
<path d="M82.7026 49.7483C82.6695 49.7042 82.647 49.6523 82.6374 49.5981C82.6012 49.3935 82.7843 49.1794 82.9921 49.1837C83.1999 49.1879 83.3742 49.4091 83.3297 49.6121C83.2852 49.8151 83.0343 49.9431 82.8438 49.86C82.7882 49.8357 82.739 49.7968 82.7026 49.7483Z" fill="#00160A"/>
<path d="M48.7902 28.4009C48.649 28.369 48.5802 28.192 48.6192 28.0526C48.6582 27.9132 48.7729 27.8087 48.8913 27.7253C49.6972 27.1572 50.9233 27.3042 51.5721 28.0467C51.6238 28.1059 51.6745 28.1753 51.672 28.2538C51.6694 28.3323 51.5835 28.4084 51.5139 28.3721C51.1486 28.1816 50.7763 27.9886 50.371 27.9151C49.9657 27.8416 49.5148 27.9044 49.2063 28.1774C49.0832 28.2864 48.9505 28.4371 48.7902 28.4009Z" fill="#00160A"/>
<path d="M41.8719 28.3738C41.8277 28.51 41.6504 28.5598 41.5125 28.5212C41.3746 28.4827 41.2638 28.3833 41.147 28.3006C40.7628 28.0287 40.2756 27.9249 39.8059 27.9554C39.3362 27.9859 38.882 28.1431 38.4613 28.3542C38.3649 28.4025 38.2501 28.2903 38.2561 28.1826C38.262 28.0749 38.343 27.9874 38.4247 27.9171C38.8623 27.5402 39.4571 27.3681 40.0338 27.3978C40.6106 27.4275 41.1681 27.649 41.6431 27.9774C41.7781 28.0707 41.9226 28.2178 41.8719 28.3738Z" fill="black"/>
<path d="M82.9004 51.2706C82.8515 51.336 82.7814 51.3819 82.7104 51.4222C82.6367 51.464 82.5555 51.5021 82.471 51.4956C82.3588 51.4869 82.2649 51.3986 82.2187 51.296C82.105 51.0431 82.2984 50.6975 82.5755 50.6877C82.8526 50.6779 83.0665 51.0486 82.9004 51.2706Z" fill="#00160A"/>
<path d="M58.2376 61.812C58.3722 61.8737 58.2762 62.0912 58.139 62.1467C58.0017 62.2022 57.8288 62.2039 57.7393 62.3219C57.6756 62.4059 57.6783 62.521 57.6846 62.6263C57.6975 62.8412 57.7111 63.0694 57.6087 63.2589C57.5063 63.4483 57.2392 63.5651 57.0684 63.434C56.9116 63.3136 56.9256 63.0798 56.9201 62.8822C56.9147 62.6845 56.8153 62.4371 56.6178 62.4462C55.6509 62.4903 54.6839 62.5345 53.717 62.5787C53.5944 62.5843 53.455 62.5834 53.3715 62.4936C53.257 62.3705 53.3347 62.1532 53.4791 62.0673C53.6236 61.9813 53.8029 61.9884 53.9707 61.9981C54.6812 62.0391 55.3917 62.0802 56.1022 62.1212C56.2125 62.1276 56.3283 62.133 56.4281 62.0856C56.528 62.0382 56.6031 61.9191 56.5626 61.8162C56.4541 61.5406 56.5983 61.1917 56.8697 61.0731C56.964 61.0319 57.0067 60.9231 57.0301 60.823C57.0535 60.7228 57.0703 60.6138 57.1416 60.5397C57.2129 60.4656 57.3628 60.4609 57.4002 60.5567C57.4867 60.7777 57.6982 60.9204 57.8468 61.1054C57.9955 61.2904 58.0643 61.5978 57.8761 61.7424C57.8865 61.878 58.114 61.7552 58.2376 61.812Z" fill="#00160A"/>
<path d="M39.3263 36.8517C39.1914 36.8435 39.1354 36.6273 39.2493 36.5546C39.3926 36.5444 39.4557 36.7898 39.3252 36.85L39.3263 36.8517Z" fill="#FFB61D"/>
<path d="M50.1119 33.4668C50.0732 33.397 50.1137 33.2962 50.19 33.2726C50.2663 33.249 50.3566 33.3093 50.364 33.3888C50.3429 33.4922 50.192 33.5392 50.116 33.466L50.1119 33.4668Z" fill="#FFB61D"/>
<path d="M49.6595 32.1344C49.6025 32.2472 49.3963 32.2157 49.3756 32.0911C49.4173 32.0343 49.4771 31.9911 49.5441 31.9693C49.6009 32.0111 49.6446 32.0704 49.6677 32.137L49.6595 32.1344Z" fill="#FFB61D"/>
<path d="M46.8994 37.1604C46.9839 37.1548 47.0693 37.2055 47.1048 37.2824C47.0763 37.3694 46.9684 37.4297 46.8874 37.387C46.8064 37.3443 46.8142 37.1948 46.9041 37.1775L46.8994 37.1604Z" fill="#FFB61D"/>
<path d="M49.4319 37.2864C49.4736 37.1825 49.6671 37.2221 49.6646 37.334C49.6062 37.392 49.5304 37.4322 49.4496 37.448C49.3846 37.4257 49.3684 37.3232 49.4234 37.282L49.4319 37.2864Z" fill="#FFB61D"/>
<path d="M45.0725 32.594C44.9871 32.5944 44.9244 32.7042 44.9674 32.7779C45.0104 32.8516 45.1368 32.8511 45.1792 32.777C45.2215 32.7028 45.1578 32.5937 45.0725 32.594Z" fill="#FFB61D"/>
<path d="M39.9253 33.8948C39.8565 33.8432 39.7395 33.8933 39.7293 33.9787C39.7191 34.064 39.821 34.1403 39.9 34.1065C39.979 34.0726 39.9941 33.9463 39.9253 33.8948Z" fill="#FFB61D"/>
<path d="M51.4285 34.0997C51.3463 34.1267 51.253 34.0347 51.2777 33.9518C51.3024 33.8688 51.4288 33.8418 51.4862 33.9066C51.5436 33.9713 51.5035 34.0923 51.419 34.1112L51.4285 34.0997Z" fill="#FFB61D"/>
<path d="M44.5821 36.6384C44.5504 36.5585 44.4243 36.5401 44.371 36.6076C44.3177 36.6751 44.3648 36.7935 44.4499 36.8059C44.535 36.8183 44.6139 36.7184 44.5821 36.6384Z" fill="#FFB61D"/>
<path d="M44.4477 38.75C44.3879 38.7674 44.3417 38.6947 44.3315 38.6332C44.3905 38.5214 44.5948 38.5526 44.6177 38.6769C44.5816 38.7314 44.512 38.7615 44.4475 38.7505L44.4477 38.75Z" fill="#FFB61D"/>
<path d="M45.2638 38.65C45.1711 38.6729 45.0407 38.6275 45.05 38.5325C45.1053 38.4755 45.1916 38.4344 45.2636 38.468C45.3356 38.5016 45.3395 38.634 45.2612 38.6471L45.2638 38.65Z" fill="#FFB61D"/>
<path d="M49.4495 38.6064C49.4112 38.5782 49.3849 38.5342 49.3784 38.4871C49.4184 38.4296 49.4781 38.3861 49.5451 38.3656C49.5846 38.4055 49.6242 38.4454 49.6637 38.4853C49.6201 38.5604 49.536 38.6101 49.4492 38.6121L49.4495 38.6064Z" fill="#FFB61D"/>
<path d="M45.7927 32.8336C45.725 32.9256 45.5487 32.8808 45.5331 32.7676C45.5906 32.6452 45.8199 32.6998 45.8162 32.835L45.7927 32.8336Z" fill="#FFB61D"/>
<path d="M47.6705 37.3542C47.5939 37.4281 47.4388 37.351 47.4513 37.2454C47.4638 37.1397 47.6327 37.1011 47.6899 37.1908C47.6477 37.2218 47.6305 37.2827 47.6504 37.3312L47.6705 37.3542Z" fill="#FFB61D"/>
<path d="M42.9969 32.6289C43.0791 32.6019 43.1723 32.6939 43.1476 32.7768C43.123 32.8597 42.9966 32.8868 42.9391 32.822C42.8817 32.7573 42.9219 32.6363 43.0063 32.6174L42.9969 32.6289Z" fill="#FFB61D"/>
<path d="M45.0036 35.3153C45.0843 35.2479 45.231 35.3065 45.2431 35.4109C45.1879 35.4611 45.1124 35.5024 45.041 35.4809C44.9695 35.4594 44.9356 35.3461 45.0006 35.3093L45.0036 35.3153Z" fill="#FFB61D"/>
<path d="M46.8344 35.9892C46.8897 35.8768 47.0947 35.9064 47.1159 36.0299C47.0545 36.1422 46.8494 36.1121 46.823 35.9868L46.8344 35.9892Z" fill="#FFB61D"/>
<path d="M46.9475 36.6344C47.0041 36.551 47.1654 36.6051 47.1602 36.7058C47.1235 36.764 47.0644 36.8077 46.998 36.8258C46.9317 36.7903 46.9047 36.6967 46.9418 36.6314L46.9475 36.6344Z" fill="#FFB61D"/>
<path d="M49.6177 32.7148C49.5649 32.646 49.4377 32.6627 49.4044 32.7428C49.3712 32.8229 49.4493 32.9248 49.5353 32.9135C49.6212 32.9022 49.6704 32.7836 49.6177 32.7148Z" fill="#FFB61D"/>
<path d="M48.2491 39.0913C48.2655 39.0163 48.3974 39.0526 48.4056 39.1289C48.4138 39.2052 48.352 39.2691 48.2952 39.3208C48.2522 39.2932 48.2066 39.2625 48.1884 39.2147C48.1702 39.167 48.1974 39.0998 48.2485 39.0984L48.2491 39.0913Z" fill="#FFB61D"/>
<path d="M41.8889 32.0695C41.8571 31.9896 41.731 31.9712 41.6777 32.0387C41.6244 32.1062 41.6715 32.2245 41.7566 32.2369C41.8417 32.2493 41.9206 32.1494 41.8889 32.0695Z" fill="#FFB61D"/>
<path d="M45.1625 39.0914C45.119 39.0222 44.998 39.0268 44.9599 39.0991C44.9217 39.1714 44.9862 39.2739 45.0679 39.2708C45.1496 39.2677 45.2061 39.1606 45.1625 39.0914Z" fill="#FFB61D"/>
<path d="M39.8038 36.5165C39.8497 36.4645 39.9438 36.5277 39.9417 36.597C39.9397 36.6664 39.8838 36.7206 39.8319 36.7666C39.7202 36.7488 39.7012 36.5575 39.8073 36.5181L39.8038 36.5165Z" fill="#FFB61D"/>
<path d="M45.7949 37.9824C45.7476 38.0117 45.7003 38.041 45.653 38.0703C45.5665 38.0385 45.5563 37.8948 45.6375 37.8512C45.7187 37.8076 45.8329 37.8953 45.8117 37.985L45.7949 37.9824Z" fill="#FFB61D"/>
<path d="M51.3094 36.5844C51.283 36.5026 51.4428 36.4762 51.4743 36.5562C51.5057 36.6362 51.4422 36.7227 51.3712 36.7713C51.3012 36.7402 51.2558 36.6611 51.2642 36.585L51.3094 36.5844Z" fill="#FFB61D"/>
<path d="M49.3776 36.6591C49.4295 36.5843 49.543 36.5612 49.62 36.6098C49.6402 36.7218 49.4982 36.8248 49.3979 36.7709C49.388 36.7341 49.3782 36.6973 49.3683 36.6605L49.3776 36.6591Z" fill="#FFB61D"/>
<path d="M41.7464 35.8993C41.8286 35.8723 41.9219 35.9643 41.8972 36.0472C41.8725 36.1302 41.7461 36.1572 41.6887 36.0925C41.6313 36.0277 41.6714 35.9067 41.7559 35.8878L41.7464 35.8993Z" fill="#FFB61D"/>
<path d="M50.6715 31.5128C50.6725 31.4407 50.7477 31.3791 50.8185 31.3924C50.8894 31.4058 50.9372 31.4904 50.9119 31.5579C50.8372 31.6144 50.7176 31.5969 50.6622 31.5214L50.6715 31.5128Z" fill="#FFB61D"/>
<path d="M48.8476 35.3118C48.9169 35.2561 49.0407 35.3192 49.0364 35.4079C48.9755 35.5027 48.813 35.5027 48.752 35.4081C48.7839 35.3761 48.8159 35.3441 48.8479 35.3121L48.8476 35.3118Z" fill="#FFB61D"/>
<path d="M40.9819 37.2101C41.0518 37.1362 41.1907 37.1488 41.2462 37.2342C41.2041 37.2923 41.1489 37.3518 41.0771 37.3553C41.0054 37.3587 40.9377 37.2655 40.9873 37.2136L40.9819 37.2101Z" fill="#FFB61D"/>
<path d="M51.4449 37.9569C51.4164 37.995 51.3726 38.0213 51.3255 38.0286C51.24 37.9797 51.2401 37.8273 51.3321 37.792C51.424 37.7566 51.5233 37.8993 51.4497 37.9647L51.4449 37.9569Z" fill="#FFB61D"/>
<path d="M39.8884 37.9959C39.9556 37.9491 39.9454 37.8283 39.8713 37.7935C39.7973 37.7586 39.6977 37.8279 39.7046 37.9094C39.7114 37.991 39.8211 38.0426 39.8884 37.9959Z" fill="#FFB61D"/>
<path d="M51.4073 35.5116C51.3401 35.5802 51.2267 35.4376 51.2918 35.3669C51.3568 35.2963 51.4827 35.3324 51.5408 35.4089C51.5008 35.4488 51.4609 35.4887 51.4209 35.5286L51.4073 35.5116Z" fill="#FFB61D"/>
<path d="M39.1412 32.2327C39.1228 32.1161 39.3116 32.0399 39.3793 32.1366C39.3231 32.2105 39.2669 32.2844 39.2106 32.3582C39.1697 32.3297 39.1413 32.2839 39.1339 32.2345L39.1412 32.2327Z" fill="#FFB61D"/>
<path d="M39.8646 35.5116C39.7974 35.5802 39.684 35.4376 39.7491 35.3669C39.8141 35.2963 39.94 35.3324 39.9981 35.4089C39.9582 35.4488 39.9182 35.4887 39.8783 35.5286L39.8646 35.5116Z" fill="#FFB61D"/>
<path d="M50.1087 32.1781C50.0512 32.1234 50.0624 32.0148 50.1298 31.9729C50.1971 31.931 50.2995 31.969 50.3232 32.0447C50.2898 32.1211 50.2048 32.1715 50.1218 32.1644L50.1087 32.1781Z" fill="#FFB61D"/>
<path d="M41.6372 32.7662C41.6902 32.6714 41.8492 32.6658 41.9086 32.7568C41.8899 32.8898 41.6519 32.897 41.6251 32.7653L41.6372 32.7662Z" fill="#FFB61D"/>
<path d="M46.4808 33.3154C46.4823 33.3832 46.4588 33.4512 46.4158 33.5037C46.3411 33.5457 46.2411 33.4516 46.267 33.37C46.2928 33.2883 46.4084 33.2591 46.4794 33.307L46.4808 33.3154Z" fill="#FFB61D"/>
<path d="M44.5194 37.8927C44.4953 37.8156 44.3786 37.7894 44.3239 37.8488C44.2692 37.9082 44.3048 38.0224 44.3836 38.0401C44.4624 38.0578 44.5435 37.9698 44.5194 37.8927Z" fill="#FFB61D"/>
<path d="M47.0337 38.5282C47.0684 38.6195 46.9996 38.7343 46.9027 38.7466C46.8388 38.7195 46.8089 38.6325 46.8427 38.5718C46.8764 38.5111 46.966 38.4906 47.0228 38.5306L47.0337 38.5282Z" fill="#FFB61D"/>
<path d="M42.927 39.2075C42.9271 39.1199 42.9788 39.0344 43.0563 38.9936C43.1124 39.0497 43.1526 39.1363 43.1183 39.2079C43.084 39.2794 42.9514 39.2816 42.9399 39.2031L42.927 39.2075Z" fill="#FFB61D"/>
<path d="M50.136 38.4793C50.2032 38.4107 50.3166 38.5533 50.2516 38.624C50.1865 38.6946 50.0606 38.6585 50.0025 38.582C50.0425 38.5421 50.0824 38.5022 50.1224 38.4623L50.136 38.4793Z" fill="#FFB61D"/>
<path d="M44.4128 32.7079C44.48 32.6393 44.5934 32.7819 44.5283 32.8526C44.4633 32.9233 44.3374 32.8871 44.2793 32.8106C44.3193 32.7707 44.3592 32.7309 44.3991 32.691L44.4128 32.7079Z" fill="#FFB61D"/>
<path d="M40.4571 36.731C40.4081 36.6778 40.475 36.5842 40.5473 36.5865C40.6196 36.5889 40.6763 36.6485 40.7164 36.7087C40.6593 36.792 40.5233 36.8046 40.4519 36.7332L40.4571 36.731Z" fill="#FFB61D"/>
<path d="M41.8487 34.5138C41.9171 34.5083 41.9446 34.6156 41.8976 34.6657C41.8507 34.7158 41.7726 34.7181 41.7044 34.7102C41.6422 34.6255 41.7506 34.4857 41.8482 34.5248L41.8487 34.5138Z" fill="#FFB61D"/>
<path d="M45.2164 40.5297C45.145 40.6208 44.9686 40.574 44.9518 40.4594C45.0128 40.3514 45.217 40.4061 45.2158 40.5301L45.2164 40.5297Z" fill="#FFB61D"/>
<path d="M41.6744 36.7674C41.6363 36.6929 41.6865 36.5866 41.7693 36.5742C41.8521 36.5618 41.9322 36.6567 41.9012 36.7345C41.8702 36.8123 41.7395 36.8214 41.7022 36.7464L41.6744 36.7674Z" fill="#FFB61D"/>
<path d="M44.3996 39.2789C44.3395 39.2983 44.2964 39.2216 44.2803 39.1606C44.3418 39.066 44.5038 39.065 44.5664 39.1589C44.5255 39.2159 44.4663 39.2596 44.3998 39.282L44.3996 39.2789Z" fill="#FFB61D"/>
<path d="M44.9429 34.0611C44.966 33.9373 45.1663 33.9021 45.2302 34.0105C45.2001 34.1263 45.0187 34.1615 44.9476 34.0653L44.9429 34.0611Z" fill="#FFB61D"/>
<path d="M51.445 36.017C51.4209 35.9399 51.3042 35.9137 51.2495 35.9731C51.1948 36.0325 51.2304 36.1467 51.3092 36.1644C51.388 36.1821 51.4691 36.0941 51.445 36.017Z" fill="#FFB61D"/>
<path d="M45.8663 36.7553C45.797 36.811 45.6733 36.7479 45.6775 36.6592C45.7384 36.5644 45.9009 36.5644 45.9619 36.659C45.93 36.691 45.898 36.723 45.866 36.755L45.8663 36.7553Z" fill="#FFB61D"/>
<path d="M44.4949 40.3389C44.555 40.3198 44.5982 40.3963 44.6142 40.4573C44.5527 40.552 44.3907 40.5529 44.3281 40.459C44.369 40.402 44.4281 40.3583 44.4946 40.3359L44.4949 40.3389Z" fill="#FFB61D"/>
<path d="M52.1664 31.4165C52.1979 31.448 52.2294 31.4795 52.2609 31.511C52.2051 31.5964 52.0606 31.6261 52.0044 31.541C51.9481 31.4559 52.1064 31.3351 52.1527 31.426L52.1664 31.4165Z" fill="#FFB61D"/>
<path d="M49.4527 33.5044C49.5147 33.5589 49.6304 33.5196 49.6465 33.4388C49.6626 33.3579 49.5708 33.2773 49.4927 33.3038C49.4146 33.3303 49.3907 33.45 49.4527 33.5044Z" fill="#FFB61D"/>
<path d="M45.6048 38.6094C45.6297 38.5517 45.7204 38.5385 45.7606 38.5867C45.8058 38.6595 45.7648 38.7768 45.6797 38.7866C45.5947 38.7963 45.5364 38.6584 45.611 38.6164L45.6048 38.6094Z" fill="#FFB61D"/>
<path d="M41.7535 37.2128C41.8137 37.1936 41.8568 37.2702 41.8729 37.3313C41.8326 37.3886 41.7731 37.4322 41.7063 37.4534C41.6684 37.4237 41.642 37.3796 41.6339 37.3321C41.6739 37.292 41.7139 37.2519 41.754 37.2119L41.7535 37.2128Z" fill="#FFB61D"/>
<path d="M50.3321 35.4291C50.3488 35.5412 50.1848 35.6273 50.102 35.5499C50.0666 35.4377 50.252 35.3337 50.3148 35.4332L50.3321 35.4291Z" fill="#FFB61D"/>
<path d="M43.8208 35.3381C43.8758 35.3717 43.9063 35.4412 43.8937 35.5044C43.8253 35.531 43.75 35.5394 43.6774 35.5288C43.655 35.4934 43.6464 35.4496 43.654 35.4084C43.71 35.3843 43.766 35.3603 43.822 35.3362L43.8208 35.3381Z" fill="#FFB61D"/>
<path d="M46.9995 37.8834C47.0245 37.9347 47.0304 37.995 47.0159 38.0502C46.9506 38.107 46.828 38.0544 46.8242 37.9679C46.8204 37.8814 46.9379 37.8183 47.008 37.8691L46.9995 37.8834Z" fill="#FFB61D"/>
<path d="M50.9604 36.7502C50.8843 36.8194 50.7378 36.7643 50.7262 36.6621C50.7515 36.6029 50.8272 36.5712 50.8871 36.5946C50.947 36.6179 50.9812 36.6925 50.9599 36.7532L50.9604 36.7502Z" fill="#FFB61D"/>
<path d="M44.5186 32.137C44.5626 32.1666 44.5823 32.2278 44.5636 32.2774C44.4975 32.34 44.3646 32.3189 44.3418 32.2307C44.319 32.1425 44.4656 32.0677 44.5101 32.1472L44.5186 32.137Z" fill="#FFB61D"/>
<path d="M39.9083 36.0567C39.9124 35.9758 39.8118 35.9105 39.7397 35.9474C39.6675 35.9842 39.6613 36.104 39.7293 36.148C39.7973 36.1921 39.9041 36.1375 39.9083 36.0567Z" fill="#FFB61D"/>
<path d="M46.3208 35.593C46.2412 35.5677 46.2353 35.4357 46.3089 35.3962C46.3825 35.3567 46.4846 35.4206 46.4904 35.5039C46.4559 35.5584 46.3864 35.5882 46.3232 35.5757L46.3208 35.593Z" fill="#FFB61D"/>
<path d="M39.7783 32.7061C39.7249 32.6344 39.8911 32.5731 39.9288 32.6541C39.9665 32.7351 39.8996 32.8265 39.8269 32.8784C39.7741 32.8445 39.7459 32.7762 39.7595 32.7149L39.7783 32.7061Z" fill="#FFB61D"/>
<path d="M45.1444 37.9571C45.1157 37.9953 45.0717 38.0216 45.0245 38.0288C44.9863 38.0009 44.9602 37.957 44.954 37.9102C44.9921 37.8527 45.0517 37.8097 45.1183 37.7916C45.1839 37.814 45.2014 37.9165 45.147 37.9593L45.1444 37.9571Z" fill="#FFB61D"/>
<path d="M50.8198 38.0054C50.7636 38.0295 50.7075 38.0535 50.6514 38.0776C50.6132 38.0472 50.5864 38.0027 50.5774 37.9548C50.6271 37.9139 50.6846 37.8721 50.7486 37.8772C50.8127 37.8824 50.868 37.9642 50.8257 38.0127L50.8198 38.0054Z" fill="#FFB61D"/>
<path d="M46.3337 38.4417C46.3885 38.4702 46.4433 38.4986 46.4981 38.527C46.4384 38.5901 46.3594 38.6346 46.2746 38.653C46.2363 38.6251 46.21 38.5813 46.2034 38.5344C46.2318 38.4961 46.2759 38.4699 46.3231 38.4633L46.3337 38.4417Z" fill="#FFB61D"/>
<path d="M39.9016 38.4855C39.9456 38.515 39.9652 38.5762 39.9466 38.6258C39.8804 38.6884 39.7475 38.6673 39.7247 38.5791C39.7019 38.4909 39.8485 38.4161 39.893 38.4956L39.9016 38.4855Z" fill="#FFB61D"/>
<path d="M44.3826 36.1285C44.4019 36.2433 44.6211 36.2065 44.6019 36.0917C44.5826 35.9769 44.3634 36.0137 44.3826 36.1285Z" fill="#FFB61D"/>
<path d="M46.8741 33.2254C46.9775 33.2143 47.0645 33.3461 47.0136 33.4369C46.9633 33.4755 46.8816 33.463 46.8452 33.411C46.8088 33.359 46.825 33.2779 46.8785 33.2439L46.8741 33.2254Z" fill="#FFB61D"/>
<path d="M39.2191 36.0258C39.2756 35.9695 39.3833 36.0546 39.3582 36.1304C39.3331 36.2061 39.2285 36.2301 39.1572 36.1943C39.1094 36.1395 39.1383 36.0386 39.2079 36.0175L39.2191 36.0258Z" fill="#FFB61D"/>
<path d="M44.3983 34.6619C44.4565 34.5789 44.6177 34.6345 44.6123 34.7357C44.5656 34.7998 44.4755 34.8284 44.4003 34.803C44.3652 34.7647 44.3637 34.6999 44.3972 34.6601L44.3983 34.6619Z" fill="#FFB61D"/>
<path d="M50.1696 32.6436C50.2088 32.6693 50.2346 32.7142 50.2371 32.761C50.1961 32.8643 50.0042 32.827 50.0049 32.7158C50.0377 32.6607 50.1076 32.6305 50.1703 32.6444L50.1696 32.6436Z" fill="#FFB61D"/>
<path d="M41.2083 39.1953C41.2464 39.2698 41.1962 39.3761 41.1134 39.3885C41.0306 39.4009 40.9505 39.306 40.9815 39.2282C41.0124 39.1504 41.1432 39.1413 41.1804 39.2163L41.2083 39.1953Z" fill="#FFB61D"/>
<path d="M42.9562 37.8876C43.0362 37.8789 43.1386 37.8827 43.1691 37.9571C43.133 38.0145 43.074 38.0569 43.0081 38.0728C42.9702 38.052 42.9297 38.0286 42.9122 37.989C42.8946 37.9494 42.9164 37.891 42.9596 37.8898L42.9562 37.8876Z" fill="#FFB61D"/>
<path d="M51.421 32.8353C51.4977 32.8086 51.5204 32.6904 51.4589 32.6372C51.3974 32.5841 51.2837 32.6236 51.2684 32.7034C51.2531 32.7832 51.3442 32.862 51.421 32.8353Z" fill="#FFB61D"/>
<path d="M48.3176 33.3407C48.4032 33.3928 48.349 33.5569 48.2492 33.5479C48.1923 33.5286 48.158 33.4593 48.177 33.4023C48.1961 33.3453 48.2651 33.3106 48.3223 33.3294L48.3176 33.3407Z" fill="#FFB61D"/>
<path d="M45.8039 39.1144C45.7818 39.0031 45.5692 39.0453 45.5914 39.1566C45.6135 39.2679 45.8261 39.2257 45.8039 39.1144Z" fill="#FFB61D"/>
<path d="M40.3492 32.8084C40.3713 32.9197 40.5839 32.8775 40.5617 32.7662C40.5396 32.6549 40.327 32.6971 40.3492 32.8084Z" fill="#FFB61D"/>
<path d="M50.8915 38.6534C50.8394 38.739 50.6753 38.6849 50.6843 38.5851C50.7036 38.5281 50.7729 38.4938 50.8299 38.5129C50.8869 38.5319 50.9216 38.601 50.9028 38.6581L50.8915 38.6534Z" fill="#FFB61D"/>
<path d="M39.8509 31.985C39.9339 31.9535 40.0307 32.0553 39.9951 32.1366C39.9217 32.1759 39.8289 32.1761 39.7553 32.1371C39.765 32.0783 39.8035 32.025 39.8563 31.9973L39.8509 31.985Z" fill="#FFB61D"/>
<path d="M44.4481 33.5079C44.4089 33.4822 44.3831 33.4372 44.3806 33.3904C44.4216 33.2872 44.6135 33.3245 44.6128 33.4356C44.58 33.4908 44.5101 33.521 44.4474 33.5071L44.4481 33.5079Z" fill="#FFB61D"/>
<path d="M48.1769 37.4281C48.1399 37.3609 48.2028 37.2643 48.2793 37.2701C48.3558 37.2758 48.4039 37.3792 48.3598 37.442C48.3158 37.5048 48.2034 37.4959 48.169 37.4274L48.1769 37.4281Z" fill="#FFB61D"/>
<path d="M46.2034 34.0625C46.2291 34.0233 46.274 33.9975 46.3208 33.9951C46.4241 34.0361 46.3868 34.228 46.2756 34.2273C46.2205 34.1945 46.1903 34.1245 46.2042 34.0619L46.2034 34.0625Z" fill="#FFB61D"/>
<path d="M51.5271 32.0161C51.5326 32.0565 51.5381 32.097 51.5437 32.1374C51.4692 32.1753 51.3768 32.1755 51.3022 32.1381C51.2996 32.0322 51.4334 31.9504 51.5264 32.0011L51.5271 32.0161Z" fill="#FFB61D"/>
<path d="M43.8934 39.7853C43.8429 39.6841 43.6496 39.7805 43.7001 39.8817C43.7505 39.9829 43.9438 39.8865 43.8934 39.7853Z" fill="#FFB61D"/>
<path d="M48.3697 34.636C48.2897 34.5565 48.1378 34.7093 48.2179 34.7888C48.2979 34.8684 48.4498 34.7155 48.3697 34.636Z" fill="#FFB61D"/>
<path d="M46.3943 32.0421C46.3438 31.9409 46.1505 32.0372 46.201 32.1385C46.2515 32.2397 46.4448 32.1433 46.3943 32.0421Z" fill="#FFB61D"/>
<path d="M50.8255 37.3775C50.7766 37.2722 50.5754 37.3656 50.6243 37.4709C50.6732 37.5762 50.8743 37.4829 50.8255 37.3775Z" fill="#FFB61D"/>
<path d="M39.6885 37.3549C39.738 37.4553 39.9298 37.3607 39.8803 37.2603C39.8307 37.1599 39.6389 37.2544 39.6885 37.3549Z" fill="#FFB61D"/>
<path d="M47.6449 39.2551C47.6191 39.2942 47.5742 39.3201 47.5274 39.3225C47.4241 39.2815 47.4614 39.0896 47.5726 39.0903C47.6277 39.1231 47.6579 39.193 47.644 39.2557L47.6449 39.2551Z" fill="#FFB61D"/>
<path d="M43.9156 36.0108C43.8661 35.9103 43.6743 36.0049 43.7238 36.1054C43.7733 36.2058 43.9651 36.1112 43.9156 36.0108Z" fill="#FFB61D"/>
<path d="M50.1681 33.9903C50.229 34.0538 50.1644 34.1818 50.0772 34.1707C50.0138 34.1524 49.9788 34.0698 50.0098 34.0115C50.0407 33.9533 50.1287 33.936 50.1794 33.9782L50.1681 33.9903Z" fill="#FFB61D"/>
<path d="M45.6256 40.5544C45.5937 40.5225 45.5618 40.4906 45.5299 40.4587C45.5892 40.3636 45.7512 40.3617 45.8127 40.4554C45.782 40.5272 45.7021 40.5747 45.6244 40.5673L45.6256 40.5544Z" fill="#FFB61D"/>
<path d="M51.5652 33.4605C51.5333 33.4924 51.5014 33.5242 51.4694 33.5561C51.3744 33.4968 51.3725 33.3349 51.4662 33.2734C51.538 33.3041 51.5855 33.3839 51.5781 33.4617L51.5652 33.4605Z" fill="#FFB61D"/>
<path d="M42.3558 33.3411C42.3815 33.3019 42.4265 33.2761 42.4733 33.2737C42.5766 33.3147 42.5392 33.5066 42.4281 33.5059C42.3729 33.473 42.3427 33.4031 42.3566 33.3405L42.3558 33.3411Z" fill="#FFB61D"/>
<path d="M40.0155 33.5097C39.9558 33.5418 39.8714 33.511 39.8465 33.448C39.8216 33.385 39.8622 33.3047 39.9277 33.2874C40.0153 33.3018 40.0632 33.4231 40.0091 33.4935L40.0155 33.5097Z" fill="#FFB61D"/>
<path d="M47.6522 34.1097C47.6517 33.9978 47.4378 33.9987 47.4383 34.1106C47.4388 34.2226 47.6526 34.2217 47.6522 34.1097Z" fill="#FFB61D"/>
<path d="M46.4424 37.9577C46.3919 37.8565 46.1986 37.9529 46.2491 38.0541C46.2995 38.1553 46.4928 38.0589 46.4424 37.9577Z" fill="#FFB61D"/>
<path d="M51.8918 32.8084C51.914 32.9197 52.1265 32.8775 52.1044 32.7662C52.0823 32.6549 51.8697 32.6971 51.8918 32.8084Z" fill="#FFB61D"/>
<path d="M45.5509 36.0075C45.6215 35.9335 45.761 35.9469 45.8162 36.033C45.7767 36.0901 45.7174 36.1334 45.6509 36.1536C45.6006 36.1207 45.5626 36.0695 45.5457 36.0118L45.5509 36.0075Z" fill="#FFB61D"/>
<path d="M50.0166 35.9945C50.0951 35.9477 50.2126 35.9973 50.2337 36.0862C50.1882 36.1484 50.1 36.1754 50.0275 36.1493C49.9923 36.1113 49.9907 36.0467 50.0241 36.0071L50.0166 35.9945Z" fill="#FFB61D"/>
<path d="M45.6349 35.3572C45.6067 35.3056 45.6706 35.2419 45.7289 35.2499C45.7872 35.258 45.8295 35.3092 45.8579 35.3607C45.814 35.4513 45.6608 35.4546 45.6131 35.366L45.6349 35.3572Z" fill="#FFB61D"/>
<path d="M51.9985 36.636C52.0506 36.5504 52.2147 36.6045 52.2057 36.7043C52.1863 36.7613 52.1171 36.7956 52.0601 36.7765C52.0031 36.7575 51.9684 36.6884 51.9872 36.6313L51.9985 36.636Z" fill="#FFB61D"/>
<path d="M45.0246 35.9637C45.0918 35.9267 45.1884 35.9896 45.1826 36.0661C45.1768 36.1426 45.0734 36.1907 45.0106 36.1466C44.9478 36.1026 44.9568 35.9903 45.0253 35.9558L45.0246 35.9637Z" fill="#FFB61D"/>
<path d="M45.5786 37.2846C45.6191 37.2502 45.6843 37.2493 45.7257 37.2827C45.7293 37.369 45.6781 37.4552 45.6006 37.4933C45.5235 37.4573 45.5093 37.3339 45.5762 37.2813L45.5786 37.2846Z" fill="#FFB61D"/>
<path d="M51.2498 37.383C51.3299 37.4625 51.4817 37.3096 51.4017 37.2301C51.3216 37.1506 51.1698 37.3035 51.2498 37.383Z" fill="#FFB61D"/>
<path d="M43.8426 33.5357C43.7512 33.4597 43.8581 33.2774 43.9691 33.3201C44.0192 33.4057 43.9448 33.5332 43.8456 33.5318L43.8426 33.5357Z" fill="#FFB61D"/>
<path d="M43.8675 32.7403C43.818 32.6399 43.6262 32.7345 43.6757 32.8349C43.7252 32.9354 43.9171 32.8408 43.8675 32.7403Z" fill="#FFB61D"/>
<path d="M39.1091 32.8831C39.0709 32.855 39.0447 32.811 39.0381 32.764C39.0774 32.7071 39.1361 32.664 39.202 32.6435C39.2689 32.7241 39.2131 32.8698 39.1095 32.8851L39.1091 32.8831Z" fill="#FFB61D"/>
<path d="M50.077 38.0905C50.0014 38.0903 49.9438 37.9953 49.9797 37.9287C50.0155 37.8621 50.128 37.8588 50.1667 37.9238C50.2054 37.9888 50.1472 38.0868 50.0716 38.0829L50.077 38.0905Z" fill="#FFB61D"/>
<path d="M51.3751 31.4331C51.4427 31.4553 51.5022 31.5014 51.5404 31.5615C51.4864 31.6401 51.3644 31.6609 51.2875 31.6046C51.3095 31.5475 51.3315 31.4903 51.3536 31.4332L51.3751 31.4331Z" fill="#FFB61D"/>
<path d="M45.0245 37.2843C45.0256 37.2179 45.0966 37.1621 45.1614 37.1768C45.2262 37.1914 45.2663 37.2723 45.2387 37.3328C45.1638 37.3838 45.0484 37.3592 45.0008 37.282L45.0245 37.2843Z" fill="#FFB61D"/>
<path d="M46.1907 34.7413C46.1554 34.6741 46.211 34.5788 46.2869 34.5766C46.3627 34.5743 46.4239 34.6661 46.3927 34.7352C46.3366 34.7727 46.258 34.7729 46.2017 34.7357L46.1907 34.7413Z" fill="#FFB61D"/>
<path d="M41.1891 32.1163C41.1657 32.2066 41.0353 32.2463 40.9656 32.1843C40.9393 32.1286 40.9677 32.0526 41.0255 32.0315C41.0834 32.0105 41.1564 32.0547 41.1607 32.1161L41.1891 32.1163Z" fill="#FFB61D"/>
<path d="M40.3023 36.1103C40.2807 36.0547 40.3122 35.9843 40.3682 35.9635C40.4241 35.9427 40.494 35.9754 40.5139 36.0316C40.4958 36.1197 40.3773 36.1687 40.3023 36.1191L40.3023 36.1103Z" fill="#FFB61D"/>
<path d="M42.3793 37.404C42.3413 37.3751 42.3149 37.3312 42.3072 37.284C42.3469 37.2448 42.3865 37.2057 42.4262 37.1665C42.5288 37.2104 42.4912 37.4009 42.3796 37.4025L42.3793 37.404Z" fill="#FFB61D"/>
<path d="M40.4543 38.0706C40.3782 38.0984 40.3136 37.9744 40.3697 37.916C40.4258 37.8575 40.5353 37.8871 40.5744 37.9581C40.5347 37.9979 40.4951 38.0377 40.4554 38.0776L40.4543 38.0706Z" fill="#FFB61D"/>
<path d="M40.3591 32.2583C40.303 32.1894 40.3662 32.0653 40.4549 32.0702C40.5102 32.103 40.5408 32.1729 40.5274 32.2358C40.4758 32.261 40.4157 32.2684 40.3595 32.2563L40.3591 32.2583Z" fill="#FFB61D"/>
<path d="M49.5913 35.3846C49.6592 35.403 49.631 35.5206 49.5623 35.5358C49.4935 35.551 49.4279 35.5041 49.3739 35.4589C49.422 35.3933 49.514 35.3639 49.5912 35.3894L49.5913 35.3846Z" fill="#FFB61D"/>
<path d="M50.7375 35.447C50.7001 35.4196 50.6627 35.3922 50.6253 35.3648C50.6842 35.2661 50.8515 35.263 50.914 35.3595C50.8805 35.4144 50.8107 35.4445 50.7478 35.4311L50.7375 35.447Z" fill="#FFB61D"/>
<path d="M51.8899 32.227C51.8477 32.1681 51.9035 32.0717 51.9759 32.0744C52.0484 32.077 52.0983 32.1694 52.0651 32.2338C52.0105 32.2719 51.9323 32.2723 51.8773 32.2347L51.8899 32.227Z" fill="#FFB61D"/>
<path d="M47.6458 36.13C47.5767 36.1858 47.4528 36.1228 47.4573 36.0341C47.4803 35.9941 47.5253 35.9679 47.5714 35.9677C47.636 35.9907 47.6766 36.0668 47.6596 36.1334L47.6458 36.13Z" fill="#FFB61D"/>
<path d="M41.8134 38.3995C41.851 38.4281 41.8887 38.4567 41.9264 38.4853C41.8652 38.5439 41.7881 38.5858 41.7056 38.6052C41.6491 38.5371 41.7139 38.413 41.802 38.4205L41.8134 38.3995Z" fill="#FFB61D"/>
<path d="M41.2001 33.3407C41.1496 33.2394 40.9563 33.3358 41.0068 33.437C41.0573 33.5382 41.2506 33.4419 41.2001 33.3407Z" fill="#FFB61D"/>
<path d="M40.3354 38.5347C40.3641 38.4965 40.4081 38.4702 40.4554 38.4628C40.4934 38.4916 40.5198 38.5355 40.5274 38.5826C40.4875 38.6225 40.4475 38.6623 40.4076 38.7022C40.3534 38.6673 40.3238 38.598 40.336 38.5347L40.3354 38.5347Z" fill="#FFB61D"/>
<path d="M44.9559 32.183C45.0231 32.2653 45.1803 32.1371 45.1131 32.0548C45.046 31.9725 44.8888 32.1007 44.9559 32.183Z" fill="#FFB61D"/>
<path d="M50.6743 34.7364C50.6685 34.626 50.859 34.5819 50.9023 34.6836C50.8883 34.7851 50.7286 34.8233 50.6701 34.7393L50.6743 34.7364Z" fill="#FFB61D"/>
<path d="M51.9988 36.106C51.9595 36.1807 51.8163 36.114 51.8482 36.0359C51.8562 35.9753 51.9324 35.9352 51.9869 35.9629C52.0414 35.9906 52.0539 36.0757 52.0097 36.1179L51.9988 36.106Z" fill="#FFB61D"/>
<path d="M45.7447 34.0787C45.6686 34.1066 45.6039 33.9826 45.6601 33.9241C45.7162 33.8657 45.8257 33.8953 45.8648 33.9663C45.8251 34.0061 45.7855 34.0459 45.7458 34.0857L45.7447 34.0787Z" fill="#FFB61D"/>
<path d="M41.1306 38.4719C41.1821 38.4424 41.2472 38.5069 41.239 38.5657C41.2308 38.6245 41.1789 38.6669 41.1272 38.696C41.0404 38.6538 41.0439 38.5034 41.1326 38.4654L41.1306 38.4719Z" fill="#FFB61D"/>
<path d="M42.9825 32.2833C42.9581 32.1818 43.0888 32.0647 43.1645 32.1367C43.1598 32.1939 43.1529 32.2561 43.1127 32.2971C43.0725 32.3382 42.9872 32.3352 42.971 32.2801L42.9825 32.2833Z" fill="#FFB61D"/>
<path d="M47.7429 39.7354C47.7487 39.8459 47.5582 39.89 47.5149 39.7882C47.5289 39.6868 47.6886 39.6485 47.7471 39.7326L47.7429 39.7354Z" fill="#FFB61D"/>
<path d="M42.4511 38.4845C42.3413 38.4995 42.37 38.7091 42.4797 38.6942C42.5895 38.6792 42.5608 38.4695 42.4511 38.4845Z" fill="#FFB61D"/>
<path d="M47.5238 38.4639C47.6189 38.5247 47.6202 38.6873 47.5261 38.7496C47.4313 38.6876 47.4309 38.5249 47.5255 38.4625L47.5238 38.4639Z" fill="#FFB61D"/>
<path d="M43.1235 34.0611C43.0476 34.1126 42.9311 34.0882 42.8821 34.0107C42.9321 33.9702 42.9896 33.9284 43.0537 33.9335C43.1179 33.9387 43.1731 34.021 43.1303 34.0691L43.1235 34.0611Z" fill="#FFB61D"/>
<path d="M45.1213 39.9055C45.082 39.9802 44.9388 39.9134 44.9707 39.8353C44.9787 39.7748 45.0549 39.7347 45.1094 39.7623C45.1638 39.79 45.1764 39.8752 45.1322 39.9173L45.1213 39.9055Z" fill="#FFB61D"/>
<path d="M39.2519 34.8001C39.1758 34.828 39.1112 34.704 39.1673 34.6455C39.2234 34.5871 39.3329 34.6167 39.372 34.6877C39.3324 34.7275 39.2927 34.7673 39.253 34.8071L39.2519 34.8001Z" fill="#FFB61D"/>
<path d="M49.6421 31.5852C49.6029 31.6599 49.4597 31.5931 49.4916 31.515C49.4996 31.4544 49.5758 31.4143 49.6303 31.442C49.6847 31.4697 49.6973 31.5549 49.6531 31.597L49.6421 31.5852Z" fill="#FFB61D"/>
<path d="M46.9175 32.7178C46.9467 32.7937 46.917 32.8879 46.8496 32.9334C46.8054 32.8789 46.7584 32.8137 46.7734 32.7451C46.7883 32.6765 46.9067 32.6492 46.9232 32.7174L46.9175 32.7178Z" fill="#FFB61D"/>
<path d="M45.1208 36.6345C45.1767 36.7035 45.1136 36.8274 45.0249 36.8229C44.985 36.8 44.9588 36.7549 44.9585 36.7088C44.9816 36.6442 45.0577 36.6037 45.1242 36.6206L45.1208 36.6345Z" fill="#FFB61D"/>
<path d="M45.6105 32.2106C45.6039 32.3154 45.804 32.3279 45.8106 32.2232C45.8172 32.1184 45.6171 32.1058 45.6105 32.2106Z" fill="#FFB61D"/>
<path d="M48.9196 33.9417C48.958 33.9698 48.9842 34.0139 48.9906 34.061C48.9565 34.1156 48.8871 34.1457 48.824 34.1332C48.767 34.0653 48.8315 33.9403 48.9199 33.9476L48.9196 33.9417Z" fill="#FFB61D"/>
<path d="M46.3467 40.458C46.318 40.4962 46.274 40.5225 46.2268 40.5298C46.1886 40.5012 46.1623 40.4573 46.1551 40.4102C46.1916 40.3667 46.2438 40.3275 46.2999 40.3361C46.3559 40.3447 46.3929 40.4272 46.3472 40.4607L46.3467 40.458Z" fill="#FFB61D"/>
<path d="M50.8671 34.0121C50.8184 34.0875 50.7052 34.1114 50.6302 34.0621C50.596 34.0108 50.6501 33.9371 50.7116 33.9324C50.773 33.9278 50.8285 33.9687 50.8705 34.0139L50.8671 34.0121Z" fill="#FFB61D"/>
<path d="M41.6948 33.475C41.6481 33.4185 41.702 33.3172 41.7752 33.3203C41.8484 33.3233 41.8956 33.4213 41.8559 33.4829C41.8162 33.5445 41.7133 33.5462 41.6678 33.4888L41.6948 33.475Z" fill="#FFB61D"/>
<path d="M43.8431 39.2081C43.8571 39.2462 43.8489 39.2918 43.8224 39.3226C43.7487 39.3571 43.6445 39.2873 43.6629 39.208C43.6812 39.1286 43.8277 39.1313 43.8318 39.2126L43.8431 39.2081Z" fill="#FFB61D"/>
<path d="M50.1241 37.3491C50.0704 37.3444 50.0665 37.2564 50.1109 37.2258C50.1552 37.1952 50.2149 37.2053 50.2675 37.2167C50.2926 37.2501 50.3015 37.2951 50.291 37.3356C50.239 37.36 50.1789 37.3668 50.1227 37.3546L50.1241 37.3491Z" fill="#FFB61D"/>
<path d="M45.0244 33.3162C45.0725 33.3162 45.1207 33.3161 45.1689 33.3161C45.1915 33.3517 45.2001 33.3959 45.1923 33.4374C45.1381 33.459 45.0756 33.4803 45.0237 33.4538C44.9717 33.4272 44.9682 33.3295 45.0262 33.3229L45.0244 33.3162Z" fill="#FFB61D"/>
<path d="M47.7505 33.3701C47.713 33.2721 47.5257 33.3437 47.5632 33.4417C47.6007 33.5398 47.788 33.4682 47.7505 33.3701Z" fill="#FFB61D"/>
<path d="M50.6783 33.5334C50.666 33.4792 50.6776 33.4144 50.7236 33.3831C50.7696 33.3518 50.8489 33.3801 50.8491 33.4357C50.8405 33.4841 50.8291 33.5373 50.7898 33.5668C50.7504 33.5963 50.6767 33.5758 50.6787 33.5266L50.6783 33.5334Z" fill="#FFB61D"/>
<path d="M39.2627 33.5794C39.187 33.6049 39.1017 33.5148 39.1313 33.4407C39.161 33.3665 39.2849 33.3601 39.3221 33.4307C39.2989 33.4725 39.2756 33.5143 39.2524 33.5561L39.2627 33.5794Z" fill="#FFB61D"/>
<path d="M42.259 39.882C42.251 39.7935 42.3765 39.7284 42.4443 39.7859C42.4735 39.8346 42.4534 39.9061 42.403 39.9324C42.3527 39.9587 42.2825 39.9344 42.2592 39.8826L42.259 39.882Z" fill="#FFB61D"/>
<path d="M48.329 36.7661C48.4058 36.6956 48.2712 36.5488 48.1944 36.6193C48.1175 36.6898 48.2522 36.8365 48.329 36.7661Z" fill="#FFB61D"/>
<path d="M44.495 37.4951C44.4288 37.5162 44.3617 37.4308 44.3898 37.3673C44.4179 37.3038 44.5125 37.2883 44.5667 37.3316C44.5829 37.3946 44.5513 37.4667 44.4939 37.4974L44.495 37.4951Z" fill="#FFB61D"/>
<path d="M48.7921 31.7131C48.7198 31.6424 48.8276 31.4961 48.9164 31.5443C48.9858 31.6127 48.8827 31.7536 48.7964 31.7082L48.7921 31.7131Z" fill="#FFB61D"/>
<path d="M44.5433 34.0353C44.4626 34.0444 44.3595 34.0389 44.3288 33.9637C44.3773 33.9008 44.4667 33.8729 44.5424 33.8972C44.5774 33.9358 44.5788 34.0004 44.5455 34.0404L44.5433 34.0353Z" fill="#FFB61D"/>
<path d="M48.1712 32.7074C48.2529 32.6736 48.351 32.7763 48.3135 32.8563C48.275 32.8969 48.2023 32.8974 48.1633 32.8573C48.1243 32.8172 48.1269 32.7445 48.1686 32.7072L48.1712 32.7074Z" fill="#FFB61D"/>
<path d="M47.5015 32.09C47.5302 32.0518 47.5742 32.0255 47.6214 32.0182C47.6596 32.0468 47.6859 32.0908 47.693 32.1379C47.6644 32.176 47.6205 32.2023 47.5734 32.2094C47.5351 32.181 47.5089 32.1368 47.5022 32.0896L47.5015 32.09Z" fill="#FFB61D"/>
<path d="M44.536 35.4169C44.4845 35.5049 44.3316 35.5001 44.2857 35.409C44.3295 35.3178 44.4832 35.3136 44.5319 35.4022L44.536 35.4169Z" fill="#FFB61D"/>
<path d="M41.1273 37.8816C41.179 37.8748 41.218 37.9402 41.2011 37.9895C41.1843 38.0389 41.1318 38.0678 41.0805 38.077C41.0424 38.0483 41.0163 38.0044 41.0091 37.9574C41.0375 37.9191 41.0817 37.8928 41.1289 37.8862L41.1273 37.8816Z" fill="#FFB61D"/>
<path d="M46.4315 39.2292C46.4337 39.2668 46.4359 39.3043 46.4381 39.3419C46.3916 39.4084 46.2639 39.3726 46.2589 39.2916C46.2538 39.2106 46.376 39.1592 46.4304 39.2194L46.4315 39.2292Z" fill="#FFB61D"/>
<path d="M48.9198 37.2121C48.958 37.2408 48.9843 37.2848 48.9916 37.3321C48.963 37.3702 48.9191 37.3965 48.8719 37.4037C48.8338 37.3751 48.8075 37.3311 48.8004 37.284C48.8289 37.2457 48.873 37.2195 48.9203 37.2128L48.9198 37.2121Z" fill="#FFB61D"/>
<path d="M42.9852 39.9291C42.9676 39.8758 42.9824 39.8093 43.03 39.7796C43.0776 39.75 43.1539 39.7763 43.162 39.8318C43.1416 39.8733 43.1212 39.9149 43.1009 39.9564C43.0602 39.9517 43.0196 39.9471 42.9789 39.9424L42.9852 39.9291Z" fill="#FFB61D"/>
<path d="M46.4474 32.8114C46.453 32.8759 46.3842 32.935 46.3213 32.9198C46.2585 32.9047 46.2242 32.8207 46.2586 32.7659C46.3114 32.7152 46.4152 32.7439 46.4345 32.8145L46.4474 32.8114Z" fill="#FFB61D"/>
<path d="M41.0283 36.68C41.0763 36.6103 41.2125 36.6706 41.193 36.753C41.1728 36.7945 41.1278 36.8227 41.0817 36.8226C41.0286 36.8023 41.0024 36.7311 41.0296 36.6812L41.0283 36.68Z" fill="#FFB61D"/>
<path d="M50.7518 32.6419C50.8107 32.7334 50.6949 32.8722 50.5944 32.8307C50.5805 32.7404 50.6566 32.6467 50.7479 32.6418L50.7518 32.6419Z" fill="#FFB61D"/>
<path d="M40.3332 34.6874C40.3304 34.5975 40.4542 34.5341 40.5256 34.5889C40.5626 34.6885 40.392 34.7775 40.3315 34.69L40.3332 34.6874Z" fill="#FFB61D"/>
<path d="M51.9011 34.6141C51.9338 34.5712 51.9946 34.5522 52.0459 34.5688C52.0696 34.602 52.0781 34.6456 52.0687 34.6852C52.029 34.7083 51.9894 34.7315 51.9498 34.7546C51.8973 34.7333 51.872 34.6626 51.899 34.6128L51.9011 34.6141Z" fill="#FFB61D"/>
<path d="M46.975 32.0856C47.0447 32.1336 46.9844 32.2698 46.902 32.2503C46.8605 32.2301 46.8324 32.1851 46.8324 32.1389C46.8527 32.0858 46.9239 32.0596 46.9738 32.0869L46.975 32.0856Z" fill="#FFB61D"/>
<path d="M41.1556 32.759C41.2253 32.8069 41.165 32.9431 41.0826 32.9236C41.0411 32.9035 41.0129 32.8584 41.013 32.8123C41.0333 32.7592 41.1045 32.733 41.1544 32.7602L41.1556 32.759Z" fill="#FFB61D"/>
<path d="M47.0675 34.5905C47.0158 34.6653 46.9023 34.6883 46.8255 34.6396C46.8241 34.5261 47.0204 34.4875 47.0621 34.5931L47.0675 34.5905Z" fill="#FFB61D"/>
<path d="M42.9325 37.3804C42.9612 37.3422 43.0052 37.3159 43.0525 37.3086C43.0906 37.3372 43.1169 37.3812 43.1241 37.4283C43.0955 37.4664 43.0515 37.4927 43.0044 37.4998C42.9661 37.4714 42.9399 37.4272 42.9332 37.38L42.9325 37.3804Z" fill="#FFB61D"/>
<path d="M43.8939 34.1096C43.8652 34.1477 43.8212 34.1741 43.774 34.1813C43.7358 34.1527 43.7095 34.1088 43.7024 34.0617C43.7309 34.0235 43.7749 33.9973 43.822 33.9901C43.8603 34.0186 43.8865 34.0628 43.8932 34.11L43.8939 34.1096Z" fill="#FFB61D"/>
<path d="M50.6807 36.0848C50.7186 35.9969 50.8676 35.9934 50.9095 36.0795C50.8668 36.1716 50.7121 36.1769 50.6631 36.088L50.6807 36.0848Z" fill="#FFB61D"/>
<path d="M46.9705 40.4555C46.9307 40.4798 46.8908 40.5041 46.8509 40.5284C46.8131 40.5008 46.7873 40.4571 46.7815 40.4106C46.8159 40.3561 46.8853 40.3261 46.9485 40.3384C46.9715 40.3732 46.9796 40.4174 46.9706 40.458L46.9705 40.4555Z" fill="#FFB61D"/>
<path d="M46.8761 39.1601C46.8538 39.1065 46.9413 39.08 46.9988 39.0884C47.0237 39.14 47.0308 39.2 47.0187 39.256C46.9842 39.2791 46.9403 39.2876 46.8997 39.2793C46.8767 39.2447 46.8685 39.2005 46.8776 39.16L46.8761 39.1601Z" fill="#FFB61D"/>
<path d="M42.9325 33.4848C42.9612 33.4466 43.0052 33.4203 43.0525 33.413C43.0906 33.4416 43.1169 33.4855 43.1241 33.5326C43.0955 33.5708 43.0515 33.597 43.0044 33.6042C42.9661 33.5757 42.9399 33.5315 42.9332 33.4843L42.9325 33.4848Z" fill="#FFB61D"/>
<path d="M49.4966 34.615C49.5496 34.5915 49.5769 34.6793 49.5682 34.7367C49.5167 34.7618 49.4569 34.7694 49.4007 34.7581C49.3779 34.7232 49.3694 34.6793 49.3775 34.6384C49.4122 34.6155 49.4563 34.6073 49.4969 34.6164L49.4966 34.615Z" fill="#FFB61D"/>
<path d="M41.1983 34.0623C41.2104 34.1023 41.2028 34.1478 41.1784 34.1817C41.1368 34.1916 41.0912 34.183 41.056 34.1588C41.0563 34.1105 41.0567 34.0623 41.0571 34.014C41.0976 33.9619 41.1999 33.9957 41.2013 34.0617L41.1983 34.0623Z" fill="#FFB61D"/>
<path d="M43.1529 36.1566C43.1049 36.2263 42.9687 36.166 42.9882 36.0836C43.0084 36.0421 43.0534 36.014 43.0995 36.014C43.1527 36.0344 43.1788 36.1055 43.1516 36.1554L43.1529 36.1566Z" fill="#FFB61D"/>
<path d="M41.872 33.9239C41.9188 33.9342 41.9361 34.0058 41.8992 34.0363C41.8193 34.0444 41.7173 34.0402 41.6867 33.9659C41.7203 33.8996 41.8144 33.8731 41.8776 33.9121L41.872 33.9239Z" fill="#FFB61D"/>
<path d="M44.4951 39.8092C44.5333 39.8379 44.5596 39.8819 44.5669 39.9292C44.5383 39.9673 44.4944 39.9936 44.4472 40.0008C44.4091 39.9722 44.3828 39.9282 44.3757 39.8811C44.4042 39.8428 44.4483 39.8166 44.4956 39.8099L44.4951 39.8092Z" fill="#FFB61D"/>
<path d="M46.2021 35.9843C46.2631 35.9399 46.3624 35.9667 46.3927 36.0358C46.3441 36.0986 46.2547 36.1262 46.1792 36.1019C46.1468 36.0694 46.1618 36.0045 46.2051 35.9894L46.2021 35.9843Z" fill="#FFB61D"/>
<path d="M42.4795 35.5314C42.4316 35.6011 42.2954 35.5408 42.3149 35.4584C42.335 35.4169 42.3801 35.3887 42.4262 35.3888C42.4793 35.4091 42.5055 35.4803 42.4783 35.5302L42.4795 35.5314Z" fill="#FFB61D"/>
<path d="M46.3253 37.2584C46.273 37.1781 46.1197 37.278 46.1719 37.3583C46.2242 37.4386 46.3776 37.3387 46.3253 37.2584Z" fill="#FFB61D"/>
<path d="M41.186 36.0581C41.1755 36.1587 41.0004 36.1771 40.9693 36.0808C41.0038 36.0034 41.1279 35.9891 41.179 36.0567L41.186 36.0581Z" fill="#FFB61D"/>
<path d="M45.6526 39.9459C45.5487 39.9066 45.5861 39.7132 45.6972 39.7155C45.7484 39.7898 45.725 39.9047 45.6489 39.9529L45.6526 39.9459Z" fill="#FFB61D"/>
<path d="M40.4936 34.0523C40.4569 34.0255 40.4202 33.9986 40.3835 33.9718C40.4216 33.8794 40.5785 33.876 40.6207 33.9666C40.5935 34.0048 40.5497 34.0308 40.5032 34.0364L40.4936 34.0523Z" fill="#FFB61D"/>
<path d="M47.5489 37.86C47.6194 37.9081 47.6058 38.0359 47.5267 38.0681C47.4312 38.0364 47.4485 37.8632 47.5484 37.851L47.5489 37.86Z" fill="#FFB61D"/>
<path d="M50.6971 32.2597C50.7494 32.34 50.9028 32.2401 50.8505 32.1598C50.7982 32.0795 50.6449 32.1794 50.6971 32.2597Z" fill="#FFB61D"/>
<path d="M46.2078 39.7398C46.2463 39.6517 46.396 39.649 46.4377 39.7357C46.3972 39.8237 46.246 39.8229 46.2065 39.7344L46.2078 39.7398Z" fill="#FFB61D"/>
<path d="M43.7351 32.1279C43.762 32.0913 43.7889 32.0546 43.8157 32.0179C43.9081 32.056 43.9115 32.2129 43.8209 32.2551C43.7827 32.2279 43.7567 32.1841 43.7511 32.1376L43.7351 32.1279Z" fill="#FFB61D"/>
<path d="M49.5001 34.0315C49.4387 34.0216 49.4464 33.9157 49.5049 33.8947C49.5635 33.8737 49.6275 33.9146 49.6635 33.9653C49.6296 34.0198 49.5601 34.0495 49.4973 34.0364L49.5001 34.0315Z" fill="#FFB61D"/>
<path d="M48.8051 36.0361C48.8355 35.9681 48.9319 35.9404 48.9938 35.9819C49.0125 36.0344 48.9785 36.0993 48.9246 36.1138C48.8708 36.1283 48.8088 36.0892 48.7987 36.0343L48.8051 36.0361Z" fill="#FFB61D"/>
<path d="M43.0977 35.2942C43.159 35.3041 43.1514 35.41 43.0928 35.431C43.0343 35.452 42.9703 35.4111 42.9343 35.3604C42.9681 35.3059 43.0376 35.2762 43.1004 35.2893L43.0977 35.2942Z" fill="#FFB61D"/>
<path d="M48.1962 36.1553C48.2485 36.2356 48.4019 36.1358 48.3496 36.0555C48.2973 35.9752 48.144 36.075 48.1962 36.1553Z" fill="#FFB61D"/>
<path d="M43.9438 38.633C44.0241 38.5807 43.9242 38.4274 43.8439 38.4797C43.7636 38.532 43.8635 38.6853 43.9438 38.633Z" fill="#FFB61D"/>
<path d="M50.1124 34.7737C50.0758 34.7469 50.0391 34.72 50.0024 34.6932C50.0405 34.6008 50.1974 34.5974 50.2396 34.688C50.2124 34.7262 50.1686 34.7522 50.1221 34.7578L50.1124 34.7737Z" fill="#FFB61D"/>
<path d="M49.6123 36.0305C49.5738 36.1187 49.4241 36.1214 49.3824 36.0347C49.4229 35.9466 49.5741 35.9475 49.6136 36.036L49.6123 36.0305Z" fill="#FFB61D"/>
<path d="M51.488 34.6839C51.4495 34.772 51.2997 34.7747 51.2581 34.688C51.2986 34.6 51.4498 34.6008 51.4893 34.6893L51.488 34.6839Z" fill="#FFB61D"/>
<path d="M42.2398 37.9964C42.2661 37.9414 42.2923 37.8863 42.3186 37.8313C42.371 37.8673 42.4184 37.9272 42.4035 37.9889C42.3885 38.0507 42.2797 38.0682 42.2671 38.006L42.2398 37.9964Z" fill="#FFB61D"/>
<path d="M52.0852 34.0568C52.0302 34.0305 51.9752 34.0042 51.9202 33.9779C51.9561 33.9255 52.016 33.8781 52.0778 33.8931C52.1395 33.908 52.1571 34.0169 52.0948 34.0295L52.0852 34.0568Z" fill="#FFB61D"/>
<path d="M48.8248 38.4646C48.8671 38.4531 48.9143 38.4614 48.9501 38.4865C48.9312 38.5547 48.885 38.615 48.8241 38.6512C48.7494 38.6235 48.7506 38.4939 48.8258 38.4676L48.8248 38.4646Z" fill="#FFB61D"/>
<path d="M39.1542 35.4169C39.1241 35.3076 39.3347 35.2525 39.362 35.3626C39.3315 35.4284 39.237 35.4537 39.1777 35.412L39.1542 35.4169Z" fill="#FFB61D"/>
<path d="M39.1598 34.0796C39.0984 34.0697 39.1061 33.9638 39.1646 33.9428C39.2232 33.9218 39.2872 33.9627 39.3232 34.0134C39.2893 34.0679 39.2198 34.0976 39.157 34.0845L39.1598 34.0796Z" fill="#FFB61D"/>
<path d="M48.3228 37.8609C48.3201 37.9091 48.2901 37.955 48.2468 37.9767C48.1582 37.936 48.1592 37.7838 48.2482 37.7442C48.2862 37.7715 48.3121 37.8152 48.3177 37.8616L48.3228 37.8609Z" fill="#FFB61D"/>
<path d="M40.4564 37.5081C40.3837 37.5089 40.3726 37.4037 40.3872 37.3324C40.4238 37.296 40.4899 37.2957 40.5269 37.3317C40.543 37.3947 40.5113 37.4667 40.4539 37.4974L40.4564 37.5081Z" fill="#FFB61D"/>
<path d="M48.9858 37.9589C48.9622 37.8649 48.7826 37.9098 48.8061 38.0039C48.8297 38.0979 49.0093 38.053 48.9858 37.9589Z" fill="#FFB61D"/>
<path d="M48.8926 32.9015C48.8407 32.9307 48.7845 32.8465 48.8149 32.7954C48.8454 32.7442 48.9148 32.7329 48.974 32.7382C48.9982 32.8009 48.9577 32.8801 48.8927 32.8973L48.8926 32.9015Z" fill="#FFB61D"/>
<path d="M46.9452 33.9475C47.0066 33.9575 46.9989 34.0634 46.9404 34.0844C46.8818 34.1054 46.8178 34.0644 46.7818 34.0137C46.8157 33.9593 46.8852 33.9295 46.948 33.9426L46.9452 33.9475Z" fill="#FFB61D"/>
<path d="M39.929 34.6302C39.9591 34.7395 39.7485 34.7946 39.7212 34.6846C39.7517 34.6188 39.8462 34.5934 39.9055 34.6351L39.929 34.6302Z" fill="#FFB61D"/>
<path d="M43.147 36.6349C43.1956 36.6888 43.1712 36.7891 43.1032 36.8146C42.9959 36.7902 43.0483 36.5845 43.1542 36.6142L43.147 36.6349Z" fill="#FFB61D"/>
<path d="M45.0816 34.5653C45.0882 34.6062 45.0948 34.6471 45.1014 34.688C45.0404 34.7336 44.9398 34.7076 44.9086 34.6382C44.941 34.5835 45.0106 34.5539 45.0724 34.5684L45.0816 34.5653Z" fill="#FFB61D"/>
<path d="M41.7315 39.304C41.6325 39.3276 41.6185 39.1465 41.7047 39.0923C41.7827 39.1283 41.7984 39.2522 41.7319 39.3066L41.7315 39.304Z" fill="#FFB61D"/>
<path d="M43.9153 40.4403C43.9767 40.4503 43.969 40.5562 43.9104 40.5772C43.8519 40.5982 43.7879 40.5572 43.7519 40.5065C43.7858 40.452 43.8552 40.4223 43.918 40.4354L43.9153 40.4403Z" fill="#FFB61D"/>
<path d="M48.8935 34.5914C48.9053 34.6313 48.8979 34.6765 48.874 34.7105C48.8109 34.7251 48.7381 34.6968 48.7081 34.6394C48.7418 34.5731 48.8359 34.5465 48.8994 34.5853L48.8935 34.5914Z" fill="#FFB61D"/>
<path d="M48.704 32.1386C48.7308 32.0997 48.7756 32.0737 48.8226 32.0696C48.8962 32.0999 48.8967 32.2261 48.8234 32.257C48.7835 32.2173 48.7435 32.1776 48.7036 32.1379L48.704 32.1386Z" fill="#FFB61D"/>
<path d="M41.1045 34.6853C41.0506 34.7339 40.9503 34.7094 40.9248 34.6414C40.9492 34.5342 41.1549 34.5865 41.1251 34.6924L41.1045 34.6853Z" fill="#FFB61D"/>
<path d="M46.4218 36.6983C46.4519 36.8076 46.2413 36.8627 46.214 36.7526C46.2444 36.6868 46.339 36.6614 46.3983 36.7031L46.4218 36.6983Z" fill="#FFB61D"/>
<path d="M47.4504 32.7097C47.5026 32.6849 47.5727 32.7109 47.596 32.7637C47.5567 32.8029 47.5173 32.8421 47.4779 32.8814C47.4132 32.8571 47.3969 32.7558 47.4508 32.7125L47.4504 32.7097Z" fill="#FFB61D"/>
<path d="M48.1232 32.2396C48.0754 32.2063 48.0747 32.1242 48.1219 32.09C48.1692 32.0559 48.2469 32.0822 48.2636 32.1381C48.2358 32.1903 48.184 32.2291 48.1261 32.241L48.1232 32.2396Z" fill="#FFB61D"/>
<path d="M48.2782 38.5827C48.2732 38.6494 48.1711 38.6815 48.1289 38.6295C48.1071 38.5663 48.1476 38.4951 48.2046 38.4601C48.2291 38.4994 48.2536 38.5387 48.2781 38.578L48.2782 38.5827Z" fill="#FFB61D"/>
<path d="M52.6707 33.458C52.6308 33.4698 52.5856 33.4624 52.5516 33.4385C52.537 33.3754 52.5653 33.3026 52.6227 33.2726C52.689 33.3064 52.7156 33.4005 52.6768 33.464L52.6707 33.458Z" fill="#FFB61D"/>
<path d="M45.6009 33.4611C45.5558 33.4015 45.5818 33.3022 45.6505 33.2724C45.7048 33.3057 45.7344 33.3748 45.721 33.437C45.6863 33.4598 45.6423 33.4679 45.6017 33.4589L45.6009 33.4611Z" fill="#FFB61D"/>
<path d="M48.7851 33.3784C48.8122 33.3413 48.8394 33.3042 48.8665 33.267C48.9255 33.2973 48.9586 33.3707 48.9423 33.435C48.9032 33.4882 48.7997 33.4541 48.8 33.388L48.7851 33.3784Z" fill="#FFB61D"/>
<path d="M49.5447 39.2805C49.4995 39.2209 49.5256 39.1216 49.5942 39.0919C49.6485 39.1251 49.6781 39.1942 49.6648 39.2564C49.6301 39.2792 49.586 39.2873 49.5455 39.2784L49.5447 39.2805Z" fill="#FFB61D"/>
<path d="M42.3307 34.7129C42.3 34.6706 42.3173 34.6021 42.3645 34.5795C42.4117 34.557 42.4758 34.5864 42.4895 34.6369C42.47 34.7026 42.3919 34.7441 42.3266 34.7235L42.3307 34.7129Z" fill="#FFB61D"/>
<path d="M41.763 39.6456C41.8177 39.6717 41.8724 39.6978 41.927 39.7239C41.8963 39.7852 41.8222 39.8215 41.7549 39.8081C41.7206 39.7681 41.7189 39.7038 41.751 39.662L41.763 39.6456Z" fill="#FFB61D"/>
<path d="M47.0056 39.8074C47.0118 39.8479 47.0179 39.8883 47.0241 39.9287C46.9897 39.9529 46.9441 39.9604 46.9039 39.9484C46.8335 39.8933 46.9234 39.7556 47.0021 39.7977L47.0056 39.8074Z" fill="#FFB61D"/>
<path d="M48.9482 39.2557C48.945 39.3042 48.915 39.3499 48.8718 39.3722C48.8152 39.3422 48.7846 39.2703 48.8021 39.2087C48.8414 39.1559 48.9444 39.1905 48.9439 39.2563L48.9482 39.2557Z" fill="#FFB61D"/>
<path d="M47.6215 34.7109C47.5899 34.7406 47.5582 34.7704 47.5266 34.8001C47.4606 34.7866 47.4351 34.6859 47.4868 34.6426C47.5384 34.5993 47.6331 34.642 47.6349 34.7094L47.6215 34.7109Z" fill="#FFB61D"/>
<path d="M52.0663 33.3895C52.0943 33.4628 52.0297 33.5544 51.9512 33.5526C51.884 33.4813 51.9848 33.3419 52.0736 33.3833L52.0663 33.3895Z" fill="#FFB61D"/>
<path d="M52.0467 35.4805C51.993 35.5031 51.9663 35.4151 51.9749 35.3574C52.0355 35.314 52.1335 35.3414 52.1628 35.41C52.1357 35.4479 52.0921 35.4737 52.0458 35.4793L52.0467 35.4805Z" fill="#FFB61D"/>
<path d="M40.5263 33.4362C40.5382 33.5076 40.4457 33.5712 40.3833 33.5346C40.381 33.4823 40.3816 33.4224 40.4208 33.3877C40.46 33.353 40.5433 33.3877 40.5241 33.4364L40.5263 33.4362Z" fill="#FFB61D"/>
<path d="M48.1512 39.9048C48.1123 39.8779 48.0863 39.8332 48.0822 39.7861C48.1125 39.7125 48.2387 39.712 48.2696 39.7853C48.2299 39.8253 48.1902 39.8652 48.1505 39.9052L48.1512 39.9048Z" fill="#FFB61D"/>
<path d="M43.7741 38.0293C43.736 38.0005 43.7096 37.9565 43.7023 37.9093C43.7311 37.8711 43.775 37.8448 43.8222 37.8374C43.8687 37.8962 43.8411 37.9969 43.7713 38.0239L43.7741 38.0293Z" fill="#FFB61D"/>
<path d="M48.1478 35.5311C48.1102 35.4702 48.1714 35.3773 48.2422 35.3878C48.3132 35.4426 48.2245 35.5816 48.1449 35.5403L48.1478 35.5311Z" fill="#FFB61D"/>
<path d="M40.5918 35.3498C40.6375 35.4304 40.4946 35.5255 40.4379 35.4523C40.3887 35.3844 40.5201 35.2986 40.5756 35.3614L40.5918 35.3498Z" fill="#FFB61D"/>
<path d="M50.1229 31.5398C50.1612 31.525 50.2076 31.5339 50.2377 31.5618C50.2701 31.6216 50.2032 31.7057 50.1377 31.6875C50.0721 31.6694 50.058 31.5629 50.1166 31.5282L50.1229 31.5398Z" fill="#FFB61D"/>
<path d="M49.5961 37.8345C49.6337 37.8955 49.5725 37.9884 49.5016 37.9778C49.4307 37.923 49.5194 37.7841 49.599 37.8254L49.5961 37.8345Z" fill="#FFB61D"/>
<path d="M47.5485 35.5496C47.4854 35.579 47.446 35.4772 47.454 35.4081C47.488 35.3678 47.5609 35.3717 47.5904 35.4154C47.6199 35.459 47.5962 35.5281 47.5462 35.5446L47.5485 35.5496Z" fill="#FFB61D"/>
<path d="M43.1507 34.6612C43.1802 34.705 43.1605 34.7734 43.1123 34.795C43.064 34.8165 43 34.7854 42.9871 34.7342C43.0177 34.6789 43.088 34.649 43.1491 34.6652L43.1507 34.6612Z" fill="#FFB61D"/>
<path d="M43.8475 34.7442C43.8071 34.7506 43.7666 34.7571 43.7261 34.7635C43.6858 34.7038 43.7493 34.6085 43.8199 34.6228C43.8673 34.6333 43.8845 34.7059 43.8469 34.7365L43.8475 34.7442Z" fill="#FFB61D"/>
<path d="M42.381 32.8849C42.2946 32.9066 42.3061 32.7491 42.3776 32.6959C42.4531 32.7212 42.4528 32.8524 42.3772 32.8774L42.381 32.8849Z" fill="#FFB61D"/>
<path d="M41.7567 37.8826C41.7943 37.9436 41.7331 38.0364 41.6622 38.0259C41.5913 37.9711 41.68 37.8321 41.7596 37.8734L41.7567 37.8826Z" fill="#FFB61D"/>
<path d="M40.9923 35.4944C41.0185 35.4613 41.0447 35.4282 41.0709 35.395C41.1312 35.3975 41.1719 35.4778 41.1381 35.5278C41.1044 35.5778 41.0147 35.5701 40.9899 35.5152L40.9923 35.4944Z" fill="#FFB61D"/>
<path d="M48.1941 33.9921C48.1674 33.9411 48.1943 33.8698 48.2479 33.8491C48.2864 33.8748 48.3121 33.9187 48.3155 33.9648C48.2995 34.0108 48.2306 34.0265 48.1962 33.992L48.1941 33.9921Z" fill="#FFB61D"/>
<path d="M41.6532 35.483C41.6266 35.432 41.6534 35.3607 41.707 35.34C41.7455 35.3657 41.7712 35.4096 41.7747 35.4557C41.7586 35.5017 41.6897 35.5174 41.6554 35.4829L41.6532 35.483Z" fill="#FFB61D"/>
<path d="M52.6811 32.7382C52.6874 32.7804 52.6938 32.8226 52.7001 32.8647C52.6582 32.873 52.6162 32.8813 52.5743 32.8895C52.5347 32.8268 52.5969 32.73 52.6704 32.7399L52.6811 32.7382Z" fill="#FFB61D"/>
<path d="M42.4317 36.0072C42.4662 36.0717 42.403 36.1631 42.3305 36.1537C42.3082 36.1183 42.2998 36.0744 42.3075 36.0332C42.3422 36.0102 42.3864 36.002 42.4271 36.0111L42.4317 36.0072Z" fill="#FFB61D"/>
<path d="M42.3338 34.1271C42.2583 34.1046 42.2561 33.9738 42.3309 33.9487C42.4059 33.9735 42.4041 34.1046 42.3285 34.1273L42.3338 34.1271Z" fill="#FFB61D"/>
<path d="M42.453 39.2548C42.4574 39.3013 42.4254 39.3487 42.3806 39.362C42.3217 39.3547 42.2882 39.273 42.3249 39.2265C42.3616 39.1799 42.4489 39.1936 42.4696 39.2492L42.453 39.2548Z" fill="#FFB61D"/>
<path d="M42.9999 38.6572C42.9732 38.6063 43.0001 38.535 43.0537 38.5142C43.0922 38.5399 43.1179 38.5838 43.1213 38.63C43.1053 38.6759 43.0364 38.6916 43.002 38.6571L42.9999 38.6572Z" fill="#FFB61D"/>
<path d="M42.3519 32.0905C42.3567 32.0184 42.442 31.9462 42.4973 31.9928C42.5048 32.0399 42.505 32.0947 42.4702 32.1272C42.4354 32.1598 42.3599 32.1354 42.3696 32.0888L42.3519 32.0905Z" fill="#FFB61D"/>
<path d="M48.8954 36.7985C48.8497 36.8211 48.7938 36.766 48.8038 36.716C48.8139 36.666 48.8682 36.6347 48.9192 36.6342C48.9612 36.6827 48.9496 36.7674 48.8961 36.8029L48.8954 36.7985Z" fill="#FFB61D"/>
<path d="M43.7332 37.2735C43.7597 37.2411 43.7862 37.2087 43.8128 37.1763C43.8697 37.1739 43.9134 37.2478 43.8839 37.2965C43.8544 37.3453 43.7686 37.3408 43.7444 37.2892L43.7332 37.2735Z" fill="#FFB61D"/>
<path d="M47.621 36.825C47.58 36.8353 47.5349 36.8285 47.4988 36.8065C47.4993 36.7418 47.5556 36.6735 47.6188 36.687C47.6821 36.7004 47.6819 36.8199 47.6173 36.8164L47.621 36.825Z" fill="#FFB61D"/>
<path d="M46.9936 35.2956C47.048 35.3106 47.0759 35.3844 47.045 35.4316C46.9994 35.4425 46.9492 35.4319 46.912 35.4033C46.9374 35.3633 46.9628 35.3232 46.9882 35.2832L46.9936 35.2956Z" fill="#FFB61D"/>
<path d="M42.3526 36.602C42.4311 36.5991 42.3927 36.7281 42.3305 36.7761C42.2895 36.7281 42.3022 36.6446 42.3556 36.6109L42.3526 36.602Z" fill="#FFB61D"/>
<path d="M50.0973 36.6105C50.16 36.6409 50.1435 36.7551 50.0748 36.7665C49.9932 36.7505 50.0174 36.596 50.1 36.6057L50.0973 36.6105Z" fill="#FFB61D"/>
<path d="M45.5703 34.703C45.5311 34.6816 45.5556 34.6137 45.5991 34.6033C45.6426 34.5928 45.6858 34.6179 45.7235 34.6419C45.7216 34.7077 45.6171 34.7383 45.58 34.6839L45.5703 34.703Z" fill="#FFB61D"/>
<path d="M43.8703 36.778C43.8399 36.8407 43.7257 36.8242 43.7143 36.7555C43.7303 36.6739 43.8848 36.698 43.8751 36.7807L43.8703 36.778Z" fill="#FFB61D"/>
<path d="M40.4358 39.1136C40.4535 39.0571 40.5511 39.0556 40.5706 39.1115C40.5514 39.1676 40.4535 39.1662 40.4359 39.1096L40.4358 39.1136Z" fill="#FFB61D"/>
<path d="M43.0329 40.4122C43.0506 40.3557 43.1482 40.3541 43.1677 40.41C43.1485 40.4661 43.0506 40.4647 43.033 40.4081L43.0329 40.4122Z" fill="#FFB61D"/>
<path d="M52.6397 32.1348C52.6263 32.1886 52.5537 32.2172 52.5072 32.187C52.4842 32.1437 52.502 32.081 52.5478 32.0635C52.5936 32.046 52.6526 32.0906 52.6417 32.1383L52.6397 32.1348Z" fill="#FFB61D"/>
<path d="M51.3623 38.6714C51.3299 38.6449 51.2975 38.6183 51.2651 38.5918C51.2627 38.5348 51.3366 38.4911 51.3854 38.5206C51.4341 38.5502 51.4297 38.6359 51.3781 38.6602L51.3623 38.6714Z" fill="#FFB61D"/>
<path d="M50.0985 39.3056C50.0513 39.2847 50.0688 39.197 50.1204 39.1958C50.1893 39.198 50.1529 39.3408 50.1003 39.2963L50.0985 39.3056Z" fill="#FFB61D"/>
<path d="M43.2273 84.5349C40.1999 81.7693 37.6374 78.4962 35.6792 74.8937C34.8532 73.3742 34.1151 71.6668 34.4243 69.9652C35.0026 66.7822 33.8074 63.5838 32.8658 60.4887C31.9243 57.3937 31.2573 53.8986 32.7718 51.0399C30.3827 53.243 29.4246 56.5813 28.9124 59.7905C27.725 67.2306 28.3933 74.9596 30.8401 82.0854C27.9671 76.8262 27.8542 70.5339 28.1266 64.5474C28.3386 59.889 28.8596 54.9284 31.7858 51.2977C27.2809 54.9716 25.9101 61.1736 24.916 66.9011C23.9826 72.2792 23.1518 77.9237 24.8825 83.1006C23.2496 80.0905 23.5163 76.4481 23.8534 73.0403C24.6288 65.2017 25.8226 56.7606 31.3131 51.1127C32.7653 49.6188 34.5379 48.3523 36.5721 47.9025C38.1485 47.554 39.6671 46.9459 41.0483 46.1101C41.3812 44.1604 39.5467 42.6252 38.2651 41.1188C36.8298 39.4318 35.9345 37.2924 35.7403 35.086C35.6254 33.78 35.3512 32.0005 34.0413 31.9449C32.9646 31.8991 32.154 30.5998 32.5862 29.6126C33.0184 28.6254 34.5229 28.3398 35.2869 29.0999C34.1971 25.0143 36.4993 20.3006 40.3914 18.6481C39.7568 17.7405 41.142 16.6528 42.2418 16.7828C43.3416 16.9128 44.4061 17.5771 45.4861 17.3317C45.116 16.68 45.7089 15.8142 46.4395 15.6473C47.1701 15.4804 47.9198 15.7975 48.5752 16.1611C52.7818 18.4949 55.5617 23.2015 55.575 28.0121C55.6837 27.134 57.0014 26.8333 57.6459 27.4395C58.2904 28.0458 58.2597 29.1308 57.8021 29.888C57.3445 30.6453 56.5644 31.1425 55.7924 31.5747C55.8119 34.7648 54.5987 37.9469 52.4603 40.3143C50.9042 42.037 48.6996 43.8643 49.2102 46.1288C50.038 45.9457 50.8754 46.9006 50.5857 47.6974C54.1348 47.4017 57.4468 49.5438 59.9612 52.0659C63.6472 55.7632 66.2965 60.4834 67.5325 65.5557C67.7484 66.4417 69.0089 66.6832 69.7888 66.2105C70.5687 65.7378 70.9695 64.8438 71.3249 64.004C73.665 58.4738 76.0052 52.9436 78.3454 47.4134C77.5621 42.6002 78.259 42.8683 78.6257 40.6176C79.6287 38.0016 79.4371 35.6378 79.8427 33.1479C79.9532 32.4699 80.4274 31.5751 81.0536 31.8578C81.3702 32.0007 81.482 32.3868 81.5496 32.7276C81.9292 34.6429 82.0505 36.6093 81.9092 38.5568C82.7193 37.171 83.5294 35.7853 84.3395 34.3995C84.7829 33.641 85.7622 32.7918 86.3771 33.4192C86.7148 33.7639 86.626 34.3293 86.4866 34.7913C86.0433 36.2608 85.3207 37.6455 84.3687 38.8496C85.6522 39.2874 87.1388 39.9522 87.3635 41.2895C87.4567 41.8442 87.2995 42.4088 87.1133 42.9396C86.4659 44.7848 85.4431 46.4974 84.1256 47.9424C84.4279 47.76 84.6256 48.3027 84.5655 48.6507C83.1203 57.0118 79.5988 65.006 74.405 71.7158C72.8723 73.696 70.7931 75.7383 68.3 75.5047C66.7395 75.3585 65.4208 74.3345 64.1999 73.3517C62.8852 72.2935 61.5705 71.2353 60.2559 70.1771C63.3162 70.8607 65.0204 74.6784 68.1334 75.0553C70.6645 75.3617 72.7892 73.2418 74.319 71.2022C79.3105 64.5467 82.7197 56.7126 84.1878 48.5239C82.1918 48.859 80.114 48.6955 78.195 48.0524C76.2907 53.9562 73.8926 59.7007 71.0339 65.206C70.5398 66.1576 69.6608 67.2637 68.6459 66.9177C68.1917 66.7628 67.8847 66.3458 67.6288 65.9399C65.0706 61.8826 64.4762 56.4724 60.7452 53.4583C62.2489 62.7841 59.8781 72.2675 57.1946 81.3245C59.249 74.267 60.5004 66.9761 60.917 59.6375C61.0127 57.9527 61.0604 56.2307 60.5836 54.6119C60.1068 52.9932 59.0183 51.47 57.4382 50.8773C56.4092 57.5704 50.3815 62.5491 48.8563 69.1469C47.6229 74.4818 45.7275 79.6634 43.2273 84.5349ZM49.4232 66.2129C51.7164 61.8533 54.7228 57.8623 56.5895 53.3038C57.0139 52.2674 57.3639 51.0354 56.787 50.0756C56.5786 49.729 56.2682 49.4578 55.9629 49.1927C55.4802 48.7735 54.9508 48.3339 54.3136 48.2821C53.468 48.2133 52.7347 48.8457 52.1907 49.4967C50.8715 51.0753 50.0196 52.9833 49.2096 54.8743C47.2718 59.3976 45.4705 64.0013 44.3377 68.79C43.2048 73.5787 42.7531 78.5771 43.5322 83.4359C44.5187 78.98 47.8359 75.2045 48.2905 70.6634C48.3654 69.9155 48.3605 69.1563 48.5232 68.4225C48.6959 67.6437 49.0518 66.9189 49.4232 66.2129ZM53.9629 25.0678C53.6524 24.4691 53.2649 23.8965 52.735 23.4792C51.5548 22.5498 49.8929 22.5473 48.4163 22.8235C47.4724 23.0001 46.5464 23.2723 45.6571 23.6347C45.425 23.7294 45.1784 23.8322 44.9318 23.7874C44.6851 23.7426 44.4632 23.4766 44.5643 23.2472C44.5837 23.2031 44.6139 23.1621 44.619 23.1142C44.6335 22.9799 44.4627 22.9126 44.3291 22.8934C42.2968 22.6003 40.1328 22.943 38.4244 24.0819C36.7159 25.2209 35.5332 27.2068 35.5965 29.2591C35.6107 29.7196 35.957 30.0964 36.3045 30.3988C36.8361 30.8615 37.4219 31.2618 38.0461 31.5888C38.3263 31.7357 38.7107 31.8522 38.9248 31.6193C39.3496 31.1576 40.0553 31.1217 40.6826 31.1351C42.863 31.1818 45.0551 31.4333 47.2165 31.1428C48.5332 30.9659 49.8157 30.5901 51.1273 30.3787C51.5291 30.3139 51.9439 30.265 52.3399 30.3588C52.7359 30.4527 53.1141 30.716 53.2401 31.103C53.7508 30.5259 54.2101 29.9033 54.6107 29.245C54.7309 29.0475 54.8477 28.8421 54.8922 28.6152C54.9316 28.4138 54.9121 28.2058 54.8853 28.0023C54.751 26.9806 54.4373 25.9826 53.9629 25.0678ZM50.6928 39.4038C51.4623 39.0663 51.8947 38.2481 52.1858 37.4598C52.8795 35.5813 53.1025 33.5309 52.8289 31.5471C52.8013 31.3477 52.7645 31.1388 52.6373 30.9827C52.4359 30.7355 52.0758 30.6972 51.7571 30.7102C51.0078 30.7407 50.2786 30.9472 49.5491 31.1213C48.0132 31.488 46.4398 31.7159 44.8607 31.7212C43.3002 31.7264 41.7423 31.5147 40.1829 31.5753C39.8725 31.5874 39.5444 31.6165 39.2925 31.7982C38.8931 32.0863 38.8228 32.6445 38.8069 33.1367C38.7462 35.008 38.967 36.8881 39.4597 38.6944C39.4893 38.8029 39.5226 38.9161 39.6016 38.9962C39.6867 39.0827 39.8102 39.1162 39.9266 39.1503C41.8105 39.702 43.4402 41.2821 45.3985 41.1458C46.8512 41.0447 48.0726 40.0027 49.4946 39.6888C49.8964 39.6001 50.316 39.5691 50.6928 39.4038ZM34.5875 70.3156C34.4707 72.0135 35.4314 73.5768 36.3553 75.0061C37.2905 76.4529 38.2257 77.8998 39.161 79.3466C37.7816 74.756 37.1309 69.9784 36.6884 65.2056C36.2263 60.222 35.9969 55.1096 37.3596 50.2937C37.5759 49.5296 37.835 48.7688 38.2533 48.0937C36.9989 48.0611 35.6644 48.1571 34.6411 48.8834C33.9759 49.3556 33.5037 50.0562 33.1539 50.7932C32.0732 53.0705 32.0705 55.7283 32.5483 58.2033C33.0261 60.6783 33.9531 63.0403 34.6794 65.4541C34.8904 66.1555 35.0865 66.8757 35.0608 67.6077C35.0286 68.5249 34.6506 69.4001 34.5875 70.3156ZM40.6804 39.8888C40.0338 39.6405 39.2496 39.4378 38.9925 38.7947C38.8718 38.4928 38.9012 38.155 38.8664 37.8317C38.8316 37.5083 38.696 37.1537 38.3936 37.0342C37.6648 36.7463 36.9658 36.3832 36.3111 35.9527C36.6359 37.8627 37.5008 39.6779 38.7796 41.1333C39.4201 41.8623 40.1625 42.5042 40.7301 43.2913C41.2976 44.0784 41.6835 45.0686 41.4745 46.0162C41.4079 46.3181 41.8417 46.4496 42.1509 46.4423C44.2043 46.3937 46.2575 46.3364 48.3104 46.2702C48.6583 46.259 48.8635 45.8526 48.8554 45.5047C48.8473 45.1567 48.7071 44.8204 48.7117 44.4724C48.7184 43.9609 49.032 43.5093 49.3511 43.1095C50.2966 41.9254 51.4008 40.8775 52.3836 39.7242C53.3664 38.5708 54.2421 37.2787 54.6158 35.8102C53.9654 36.9072 52.5932 37.4728 52.0844 38.6422C51.7956 39.306 51.0973 39.6965 50.4056 39.9099C49.7139 40.1233 48.9808 40.21 48.3206 40.5069C47.9822 40.6591 47.67 40.8637 47.3385 41.0306C46.1741 41.617 44.7709 41.7101 43.5392 41.2826C42.5366 40.9345 41.6711 40.2693 40.6804 39.8888ZM81.8002 42.7899C82.5135 42.7475 83.3754 43.025 83.8479 42.4889C83.9561 42.3662 84.0275 42.1972 83.9883 42.0384C83.9348 41.8221 83.7073 41.7032 83.5001 41.6214C82.177 41.0988 80.6961 40.9838 79.3082 41.296C78.8248 41.4047 78.5423 41.8509 78.4364 42.3349C78.3305 42.8189 78.3562 43.3428 78.4364 43.8317C78.6401 45.0735 78.8439 46.3153 79.0476 47.557C79.0568 47.613 79.0667 47.6709 79.0981 47.718C79.1454 47.7889 79.2311 47.8217 79.3117 47.8492C80.3144 48.1908 81.3812 48.3431 82.4394 48.2958C82.8602 48.277 83.3152 48.2104 83.6105 47.9102C85.056 46.4404 86.1128 44.5916 86.6456 42.6002C86.3555 42.8598 85.9829 43.0618 85.5948 43.0318C85.2067 43.0018 84.8294 42.6715 84.8548 42.2831C84.1107 42.8565 83.2342 43.4633 82.3143 43.2729C81.611 43.1273 80.8345 43.4389 80.427 44.0304C80.1785 43.9651 80.2741 43.5806 80.4549 43.3981C80.8092 43.0407 81.2978 42.8197 81.8002 42.7899ZM39.0757 53.8432C38.5886 53.919 38.1037 54.0098 37.6229 54.1184C37.2847 54.1947 36.8821 54.3501 36.8383 54.694C36.7511 55.3797 36.7037 56.0704 36.6966 56.7616C40.3742 55.8941 44.2792 56.0107 47.8986 57.0961C48.2831 56.1951 48.6677 55.2942 49.0523 54.3932C45.8139 53.5162 42.3909 53.3275 39.0757 53.8432ZM52.663 48.4386C52.0811 48.1306 51.4033 48.0069 50.7501 48.0895C50.6212 48.1058 50.4764 48.1414 50.4143 48.2556C50.1663 48.7113 49.6241 48.9083 49.1225 49.0411C46.5988 49.7096 43.9341 49.6946 41.3473 49.3419C40.8664 49.2764 40.3789 49.1969 39.942 48.9856C39.5051 48.7742 39.1188 48.4107 38.9891 47.943C38.6448 47.9379 38.438 48.314 38.3156 48.6359C37.9456 49.6095 37.6258 50.6021 37.3579 51.6085C41.5518 50.6585 45.9842 50.7813 50.119 51.9622C50.5136 51.4804 50.8065 50.9157 50.9731 50.3156C51.0508 50.0355 51.2658 49.8178 51.4727 49.6136C51.8695 49.2219 52.2662 48.8303 52.663 48.4386ZM45.813 62.6292C46.2183 61.7329 46.5625 60.809 46.8424 59.866C43.6134 59.3311 40.3066 59.2684 37.0597 59.6806C36.922 59.6981 36.7692 59.7249 36.686 59.836C36.6128 59.9337 36.6166 60.067 36.6236 60.1889C36.6582 60.7936 36.6928 61.3983 36.7274 62.003C36.7367 62.1655 36.8142 62.3851 36.9736 62.3522C39.8874 61.7514 42.9425 61.8471 45.813 62.6292ZM86.0903 34.8767C86.1827 34.6472 86.2715 34.406 86.2514 34.1594C86.2313 33.9129 86.0707 33.6603 85.8276 33.6145C85.676 33.586 85.5197 33.6409 85.3885 33.7219C85.0667 33.9204 84.865 34.2612 84.676 34.5887C83.8203 36.0712 82.9647 37.5538 82.109 39.0364C81.998 39.2286 81.6774 39.169 81.5557 38.9834C81.434 38.7978 81.4503 38.5577 81.4674 38.3364C81.6113 36.4822 81.5034 34.6085 81.1476 32.783C81.1255 32.6696 81.1007 32.5525 81.0325 32.4593C80.8349 32.1891 80.3737 32.283 80.1748 32.5522C79.9758 32.8213 79.9643 33.1808 79.9617 33.5155C79.9418 36.0653 79.9659 38.7055 78.9359 41.0381C79.9821 40.632 81.1598 40.5734 82.2412 40.8736C82.3957 40.9165 82.5559 40.967 82.7135 40.9372C82.8711 40.9074 83.0208 40.7638 82.9933 40.6058C82.8902 40.0137 83.3152 39.4754 83.6888 39.0047C84.682 37.7535 85.4936 36.3585 86.0903 34.8767ZM50.2147 47.0852C50.1435 46.7929 49.8815 46.5245 49.5818 46.5514C46.5249 46.8251 43.4504 46.9029 40.3835 46.7842C40.2019 46.7771 40.0107 46.7715 39.8497 46.8555C39.7359 46.9149 39.6471 47.0154 39.5868 47.1287C39.3421 47.5881 39.5906 48.1872 40.0078 48.4985C40.425 48.8097 40.9624 48.9006 41.4789 48.9658C43.7334 49.2505 46.0312 49.2205 48.2694 48.8273C48.7526 48.7424 49.2485 48.6341 49.6485 48.35C50.0484 48.0658 50.3309 47.5619 50.2147 47.0852ZM44.7648 65.8047C44.7826 65.7436 44.7994 65.6743 44.7673 65.6193C44.733 65.5608 44.6578 65.5434 44.5909 65.532C42.1607 65.1199 39.6733 65.3224 37.2168 65.526C37.1473 65.5317 37.0683 65.5428 37.0293 65.6006C36.9988 65.6456 37.0032 65.7047 37.0087 65.7588C37.0799 66.4562 37.151 67.1536 37.2222 67.851C37.2359 67.9849 37.2926 68.1585 37.427 68.1516C39.5631 68.0426 41.7095 68.1372 43.8276 68.4339C43.9622 68.4527 44.0432 68.2922 44.081 68.1617C44.309 67.376 44.5369 66.5904 44.7648 65.8047ZM43.3719 72.0796C43.3824 71.9793 43.3885 71.8649 43.319 71.7918C43.2658 71.7359 43.1834 71.7214 43.107 71.7107C41.4441 71.4792 39.7546 71.6435 38.0837 71.8082C38.0002 71.8164 37.9036 71.8329 37.8633 71.9065C37.8357 71.957 37.8445 72.0188 37.854 72.0756C37.9661 72.7438 38.0781 73.412 38.1902 74.0802C38.2064 74.1763 38.2572 74.2997 38.3536 74.2854C39.9473 74.0478 41.6434 73.978 43.101 74.6648C43.1913 73.8031 43.2816 72.9413 43.3719 72.0796ZM36.6871 35.6942C37.2891 36.1076 37.95 36.4352 38.6436 36.664C38.3417 35.2712 38.2825 33.8261 38.4696 32.4133C38.4933 32.2347 38.2921 32.1193 38.1261 32.0493C37.1549 31.6399 36.2735 31.0191 35.5609 30.2425C35.6345 31.7165 35.7939 33.1861 36.0379 34.6415C36.0744 34.8598 36.1153 35.0841 36.2335 35.2713C36.3447 35.4473 36.5155 35.5763 36.6871 35.6942ZM52.7353 37.1906C53.3821 36.6651 53.9485 36.0453 54.4498 35.3796C54.7202 35.0204 54.9751 34.6421 55.1249 34.2182C55.2756 33.792 55.3146 33.3351 55.3326 32.8835C55.3794 31.7013 55.2892 30.5137 55.0642 29.3522C54.545 30.0576 54.0257 30.7631 53.5064 31.4685C53.4267 31.5768 53.3452 31.689 53.3145 31.8199C53.2899 31.9248 53.2998 32.0343 53.3086 32.1417C53.4473 33.8406 53.2514 35.5661 52.7353 37.1906ZM42.7032 80.3334C42.8169 80.3564 42.869 80.1975 42.8718 80.0816C42.8882 79.3883 42.9047 78.6951 42.9212 78.0018C42.9227 77.9394 42.9236 77.8743 42.8966 77.818C42.8468 77.7139 42.7217 77.6743 42.61 77.6453C41.979 77.4812 41.3388 77.3159 40.6868 77.3238C40.1452 77.3304 39.609 77.4567 39.0675 77.4433C39.0062 77.4418 38.9262 77.452 38.9133 77.512C38.9088 77.5328 38.9147 77.5543 38.9206 77.5747C39.1595 78.404 39.474 79.2116 39.859 79.984C39.9094 80.0852 39.9697 80.194 40.0751 80.235C40.1495 80.2639 40.2325 80.2532 40.3117 80.2433C41.1068 80.1438 41.9179 80.1744 42.7032 80.3334ZM55.6924 28.2777C55.5686 28.4691 55.459 28.6784 55.4387 28.9055C55.4262 29.0448 55.4479 29.1846 55.4696 29.3228C55.5531 29.8552 55.6367 30.3877 55.7202 30.9201C55.725 30.951 55.7307 30.9838 55.7513 31.0073C55.7997 31.0627 55.8895 31.0333 55.9551 31C56.2195 30.8657 56.4869 30.7295 56.7101 30.5343C56.8891 30.3777 57.035 30.1872 57.1724 29.9931C57.4595 29.5874 57.7231 29.1349 57.7417 28.6382C57.7604 28.1415 57.4556 27.6016 56.9668 27.5119C56.4491 27.4169 55.9783 27.8358 55.6924 28.2777ZM33.198 29.332C32.9996 29.5059 32.9278 29.782 32.8948 30.0437C32.8646 30.2833 32.8594 30.5329 32.9425 30.7597C33.0572 31.0726 33.3297 31.3071 33.6312 31.4488C33.9328 31.5906 34.2649 31.6514 34.5928 31.7108C34.7546 31.7402 34.9165 31.7695 35.0783 31.7989C35.1184 31.8061 35.1658 31.8112 35.1942 31.782C35.2177 31.7577 35.2177 31.7197 35.2162 31.6859C35.1894 31.0866 35.1627 30.4872 35.1359 29.8879C35.1246 29.6333 34.9425 29.409 34.7182 29.2881C34.4938 29.1672 34.2326 29.1347 33.9778 29.1282C33.7027 29.1212 33.405 29.1507 33.198 29.332ZM85.2153 39.5879C85.0963 39.4579 84.9205 39.3983 84.7517 39.3477C84.5726 39.2941 84.3794 39.2451 84.2019 39.3035C84.0004 39.3698 83.8671 39.5583 83.7607 39.7418C83.5999 40.0194 83.4664 40.3129 83.363 40.6167C83.3264 40.7242 83.2932 40.8373 83.3085 40.9499C83.3238 41.0624 83.4005 41.1743 83.5122 41.1952C83.968 41.2807 84.3662 41.6242 84.5176 42.0626C84.7293 41.6189 84.9411 41.1752 85.1528 40.7316C85.2404 40.5481 85.3291 40.3611 85.3592 40.16C85.3893 39.959 85.3527 39.7379 85.2153 39.5879ZM86.802 40.5171C86.5852 40.3132 86.2244 40.3275 85.9737 40.4879C85.723 40.6484 85.567 40.9227 85.466 41.2027C85.3511 41.5216 85.2952 41.8617 85.302 42.2006C85.3036 42.2815 85.3095 42.3651 85.3468 42.437C85.4368 42.6103 85.6744 42.649 85.8638 42.6012C86.2775 42.4968 86.5531 42.1124 86.7576 41.7379C86.8629 41.545 86.9609 41.3425 86.9884 41.1244C87.0158 40.9063 86.9622 40.6676 86.802 40.5171ZM43.1715 83.7899C43.0697 83.2016 42.968 82.6133 42.8662 82.025C42.8544 81.9566 42.8385 81.8813 42.7827 81.8398C42.7461 81.8127 42.6989 81.8055 42.6537 81.7996C42.1292 81.7314 41.5964 81.728 41.0712 81.7894C41.6912 82.5341 42.3975 83.2069 43.1715 83.7899Z" fill="#00160A"/>
<path d="M13.0572 26.4307C12.5337 27.4343 12.2621 28.5477 12.2687 29.6741C11.834 28.8177 11.3134 27.9322 10.3097 27.6726C9.46897 27.4478 8.49535 27.9097 8.38152 28.8179C8.24536 29.9089 9.22789 30.8615 9.96488 31.5339C10.8283 32.3283 11.8262 32.9663 12.8491 33.5413C13.3728 33.8345 13.9021 34.1055 14.4336 34.3823C14.3161 34.7544 14.2037 35.1782 14.4282 35.5131C14.6043 35.7716 14.9597 35.8841 15.2184 35.6555C15.477 35.427 15.4703 35.033 15.3003 34.7724C15.1514 34.5511 14.9188 34.4006 14.6725 34.2685C14.6859 34.2301 14.6953 34.1997 14.7087 34.1613C14.8051 33.844 14.9098 33.5304 15.0226 33.2206C15.2401 32.5972 15.48 31.979 15.6953 31.3497C16.0786 30.2427 16.4002 29.0976 16.4514 27.9233C16.4884 27.0296 16.4468 25.6942 15.5831 25.162C14.5381 24.5076 13.5049 25.5757 13.0572 26.4307ZM15.1723 34.9467C15.253 35.1121 15.2639 35.3299 15.1251 35.4745C14.891 35.7142 14.5976 35.4716 14.5294 35.2277C14.4611 34.9838 14.5282 34.7175 14.6079 34.4667C14.8357 34.5854 15.0639 34.7241 15.1723 34.9467ZM16.2531 27.3034C16.2801 27.8848 16.2381 28.4645 16.131 29.0343C15.9255 30.1976 15.5159 31.3075 15.1063 32.4174C14.894 32.9986 14.6778 33.588 14.4961 34.1782C14.3546 34.1088 14.2174 34.0512 14.0901 33.9833C13.5875 33.7295 13.0949 33.4653 12.6039 33.1871C11.6013 32.6114 10.6314 31.9565 9.80208 31.143C9.32311 30.6723 8.79192 30.1333 8.58888 29.4815C8.37505 28.8001 8.64122 28.085 9.3579 27.8376C10.7128 27.3714 11.6985 28.7461 12.2649 29.7763C12.2688 29.8622 12.2728 29.9481 12.2767 30.034C12.2854 30.1518 12.4592 30.1222 12.4548 30.0162C12.4197 28.8868 12.6163 27.7738 13.1087 26.7412C13.353 26.229 13.6693 25.6704 14.1841 25.3755C14.7549 25.0468 15.4381 25.1207 15.8214 25.6665C16.1481 26.1322 16.2286 26.7479 16.2531 27.3034Z" fill="#FFB61D"/>
<path d="M82.6727 12.5347C81.6266 12.967 80.7028 13.6454 79.9839 14.5125C80.2013 13.577 80.3717 12.564 79.7697 11.72C79.2701 11.0074 78.2274 10.7354 77.5565 11.3579C76.7509 12.1062 76.8912 13.4675 77.0235 14.4563C77.1743 15.6199 77.5287 16.75 77.9426 17.848C78.1554 18.4092 78.3867 18.957 78.6159 19.5108C78.2867 19.7202 77.9282 19.9727 77.8848 20.3735C77.8536 20.6847 78.0536 20.9993 78.3986 20.9905C78.7436 20.9817 78.9918 20.6756 79.029 20.3667C79.0572 20.1014 78.9758 19.8367 78.872 19.5771C78.907 19.5563 78.9337 19.5391 78.9687 19.5182C79.2465 19.3372 79.5282 19.1642 79.8138 18.9994C80.3811 18.6617 80.9622 18.3424 81.5317 17.9987C82.5369 17.397 83.5193 16.7265 84.3133 15.8598C84.9162 15.1991 85.7426 14.1493 85.4231 13.1864C85.0433 12.0135 83.5652 12.1675 82.6727 12.5347ZM78.819 20.4179C78.7745 20.5965 78.6428 20.7703 78.4436 20.7919C78.1102 20.8251 78.0413 20.4506 78.1458 20.2199C78.2503 19.9892 78.4729 19.8283 78.6951 19.6875C78.7933 19.9248 78.879 20.1777 78.819 20.4179ZM84.5599 15.2575C84.2069 15.7203 83.8021 16.1374 83.3538 16.505C82.4486 17.264 81.4214 17.851 80.3942 18.438C79.8579 18.7467 79.3135 19.0592 78.7949 19.3945C78.7312 19.2504 78.6631 19.1181 78.6092 18.9843C78.3874 18.4668 78.1798 17.9478 77.9825 17.4191C77.5845 16.3336 77.2625 15.2085 77.1501 14.0522C77.0858 13.3838 77.0253 12.6294 77.2887 11.9996C77.5629 11.3401 78.2265 10.9635 78.9345 11.2346C80.2721 11.7484 80.1436 13.4351 79.9153 14.5883C79.863 14.6567 79.8108 14.725 79.7586 14.7933C79.6895 14.8891 79.8417 14.9781 79.9065 14.8942C80.6056 14.0064 81.4716 13.2801 82.5125 12.8057C83.0289 12.5703 83.6302 12.3457 84.2141 12.4508C84.8627 12.5659 85.3386 13.0616 85.2814 13.7261C85.2323 14.2928 84.8983 14.8163 84.5599 15.2575Z" fill="#FFB61D"/>
</svg>
