<svg width="40" height="40" viewBox="0 0 40 40" fill="none" xmlns="http://www.w3.org/2000/svg">
<path d="M20 40C31.0457 40 40 31.0457 40 20C40 8.9543 31.0457 0 20 0C8.9543 0 0 8.9543 0 20C0 31.0457 8.9543 40 20 40Z" fill="#F44B1E"/>
<path d="M39.9291 21.6917L32.273 14.0356L30.9536 14.7256L25.1342 8.90625L12.2132 17.8184L5.67529 27.1366L18.4801 39.9414C18.9818 39.9791 19.4886 39.9983 19.9998 39.9983C30.4751 39.9983 39.0694 31.9448 39.9291 21.6917Z" fill="#AF281B"/>
<path d="M18.2917 11.8984H27.9896C30.9728 11.8984 33.3912 14.3168 33.3912 17.3001V32.3409L29.2998 28.5281H18.2917C15.3085 28.5281 12.8901 26.1097 12.8901 23.1264V17.3C12.8901 14.3168 15.3085 11.8984 18.2917 11.8984Z" fill="#D3BC6A"/>
<path d="M27.9895 11.8984H23.1406V28.5281H29.2998L33.3912 32.3409V17.3C33.3912 14.3168 30.9727 11.8984 27.9895 11.8984Z" fill="#B7A45F"/>
<path d="M20.7748 6.69531H11.0769C8.09373 6.69531 5.67529 9.11367 5.67529 12.097V27.1377L9.7667 23.3249H20.7748C23.758 23.3249 26.1765 20.9066 26.1765 17.9233V12.0969C26.1764 9.11367 23.758 6.69531 20.7748 6.69531Z" fill="white"/>
<path d="M20.7748 6.69531H15.9258V23.3249H20.7748C23.758 23.3249 26.1764 20.9066 26.1764 17.9233V12.0969C26.1763 9.11367 23.758 6.69531 20.7748 6.69531Z" fill="#E0E0E0"/>
<path d="M16.142 20.3156C16.6411 20.1971 16.9496 19.6964 16.8311 19.1973C16.7126 18.6982 16.212 18.3896 15.7128 18.5081C15.2137 18.6266 14.9051 19.1273 15.0236 19.6264C15.1421 20.1255 15.6428 20.4341 16.142 20.3156Z" fill="#0E4089"/>
<path d="M16.7896 17.2338H15.062V14.0636H15.9258C16.2971 14.0636 16.6426 13.915 16.8988 13.6452C17.1547 13.3756 17.285 13.0219 17.2657 12.6493C17.2295 11.9518 16.6533 11.3945 15.9539 11.3804C15.276 11.3704 14.6908 11.8625 14.5971 12.5336C14.5885 12.5953 14.5841 12.6588 14.5841 12.7219H12.8564C12.8564 12.5793 12.8664 12.4357 12.886 12.2951C13.1006 10.7576 14.435 9.61992 15.9887 9.65305C17.5894 9.68524 18.9082 10.962 18.9911 12.5598C19.0352 13.4104 18.7371 14.2183 18.1518 14.8348C17.7773 15.2291 17.3045 15.5144 16.7897 15.6661V17.2338H16.7896Z" fill="#0E4089"/>
<path d="M16.8546 19.4093C16.8546 18.8963 16.4387 18.4805 15.9258 18.4805V20.3381C16.4388 20.3381 16.8546 19.9223 16.8546 19.4093Z" fill="#002859"/>
<path d="M18.991 12.5597C18.9081 10.962 17.5894 9.68523 15.9887 9.65297C15.9677 9.6525 15.9467 9.65234 15.9258 9.65234V11.3802C15.9352 11.3802 15.9445 11.3802 15.9539 11.3803C16.6533 11.3944 17.2295 11.9518 17.2657 12.6492C17.285 13.0219 17.1547 13.3755 16.8987 13.6452C16.6426 13.9149 16.297 14.0635 15.9258 14.0635V17.2337H16.7896V15.666C17.3043 15.5142 17.7772 15.2291 18.1516 14.8348C18.737 14.2182 19.0352 13.4103 18.991 12.5597Z" fill="#002859"/>
</svg>
