<svg width="237" height="237" viewBox="0 0 237 237" fill="none" xmlns="http://www.w3.org/2000/svg">
<path d="M118.5 237C183.946 237 237 183.946 237 118.5C237 53.0543 183.946 0 118.5 0C53.0543 0 0 53.0543 0 118.5C0 183.946 53.0543 237 118.5 237Z" fill="#ACE852"/>
<path d="M236.88 123.705L163.561 50.3862L161.973 51.0375L149.869 38.9329L144.592 60.9998H91.5408L69.4739 38.9329L45.2277 176.922L104.476 236.17C109.076 236.713 113.754 237 118.5 237C182.201 237 234.155 186.735 236.88 123.705Z" fill="#6BC800"/>
<path d="M71.1403 55.0149H57.2535V43.4426C57.2535 39.608 60.3623 36.4993 64.1969 36.4993C68.0315 36.4993 71.1403 39.608 71.1403 43.4426V55.0149Z" fill="#5A5A5A"/>
<path d="M151.535 55.0149H137.648V43.4426C137.648 39.608 140.757 36.4993 144.592 36.4993C148.426 36.4993 151.535 39.608 151.535 43.4426V55.0149Z" fill="#32393F"/>
<path d="M45.2277 50.386V78.1594L104.094 87.4172L104.394 87.3705L109.023 66.6149L104.394 50.386H45.2277Z" fill="#FF641A"/>
<path d="M45.2277 176.922H104.394L109.023 173.046L104.394 163.048L45.2277 167.664V176.922Z" fill="#DDDDE1"/>
<path d="M163.561 50.386H104.394V87.3705L163.561 78.1594V50.386Z" fill="#EF3800"/>
<path d="M163.561 176.922V167.664L104.552 163.035L104.394 163.048V176.922H163.561Z" fill="#B8B8BE"/>
<path d="M45.2277 78.1594V167.664H104.394L109.023 124.939L104.394 78.1594H45.2277Z" fill="white"/>
<path d="M104.394 78.1594H163.561V167.664H104.394V78.1594Z" fill="#E3EAEE"/>
<path d="M58.7996 91.8887H80.1481V113.237H58.7996V91.8887Z" fill="#A7EAF9"/>
<path d="M58.7996 132.586H80.1481V153.935H58.7996V132.586Z" fill="#A7EAF9"/>
<path d="M93.7201 153.934H104.394L109.023 143.26L104.394 132.586H93.7201V153.934Z" fill="#A7EAF9"/>
<path d="M93.7201 91.8887V113.237H104.394L109.023 102.563L104.394 91.8887H93.7201Z" fill="#A7EAF9"/>
<path d="M104.394 91.8887H115.069V113.237H104.394V91.8887Z" fill="#2AD7F5"/>
<path d="M104.394 132.586H115.069V153.934H104.394V132.586Z" fill="#2AD7F5"/>
<path d="M128.826 91.8887H150.174V113.237H128.826V91.8887Z" fill="#2AD7F5"/>
<path d="M128.826 165.87C128.826 180.972 141.068 193.214 156.169 193.214L160.798 166.828L156.169 138.527C141.067 138.527 128.826 150.769 128.826 165.87Z" fill="#FF641A"/>
<path d="M156.169 138.527V193.213C171.27 193.213 183.512 180.971 183.512 165.87C183.512 150.768 171.27 138.527 156.169 138.527Z" fill="#EF3800"/>
<path d="M146.252 151.043L141.342 155.953L151.259 165.87L141.342 175.787L146.252 180.697L156.169 170.78L159.409 165.87L156.169 160.96L146.252 151.043Z" fill="white"/>
<path d="M170.995 155.953L166.086 151.043L156.169 160.96V170.78L166.086 180.697L170.995 175.787L161.079 165.87L170.995 155.953Z" fill="#E3EAEE"/>
</svg>
