<svg width="40" height="40" viewBox="0 0 40 40" fill="none" xmlns="http://www.w3.org/2000/svg">
<g clip-path="url(#clip0_6492_10858)">
<path d="M20 40C31.0457 40 40 31.0457 40 20C40 8.9543 31.0457 0 20 0C8.9543 0 0 8.9543 0 20C0 31.0457 8.9543 40 20 40Z" fill="#9CC4FF"/>
<path d="M40.0001 20C40.0001 19.0318 39.9299 18.0801 39.7968 17.1486L32.5536 9.90624C32.1382 9.4689 31.5522 9.19507 30.9052 9.19507H7.88408C6.63221 9.19507 5.60791 10.2194 5.60791 11.4712V25.7608C5.60791 26.3566 5.8401 26.9006 6.2183 27.3073L18.9231 39.971C19.2797 39.9898 19.6387 40 20.0001 40C31.0458 40 40.0001 31.0457 40.0001 20Z" fill="#009DE0"/>
<path d="M30.9049 28.0369H7.88384C6.63196 28.0369 5.60767 27.0126 5.60767 25.7608V11.4712C5.60767 10.2194 6.63196 9.19507 7.88384 9.19507H30.9049C32.1568 9.19507 33.1811 10.2194 33.1811 11.4712V25.7608C33.1811 27.0126 32.1568 28.0369 30.9049 28.0369Z" fill="#E6CD49"/>
<path d="M33.1812 25.7606V11.4711C33.1812 10.2247 32.1658 9.20422 30.9213 9.19531H19.3945V28.0367H30.9051C32.157 28.0368 33.1812 27.0125 33.1812 25.7606Z" fill="#C0AC43"/>
<path d="M33.1813 12.9673H5.60791V17.0938H33.1813V12.9673Z" fill="#3C3B41"/>
<path d="M33.1813 12.9673H19.3945V17.0939H33.1813V12.9673Z" fill="#171719"/>
<path d="M28.7546 26.0007C29.9566 26.0007 30.9311 25.0262 30.9311 23.8242C30.9311 22.6222 29.9566 21.6477 28.7546 21.6477C27.5526 21.6477 26.5781 22.6222 26.5781 23.8242C26.5781 25.0262 27.5526 26.0007 28.7546 26.0007Z" fill="#00D9E0"/>
<path d="M25.2461 26.0007C26.4481 26.0007 27.4226 25.0262 27.4226 23.8242C27.4226 22.6222 26.4481 21.6477 25.2461 21.6477C24.044 21.6477 23.0696 22.6222 23.0696 23.8242C23.0696 25.0262 24.044 26.0007 25.2461 26.0007Z" fill="#FF623E"/>
<path d="M21.7829 22.7422H7.85791V24.9059H21.7829V22.7422Z" fill="white"/>
<path d="M21.7828 22.7429H19.3945V24.9068H21.7828V22.7429Z" fill="#FFF5CB"/>
<path d="M27.7461 32.2524C31.5107 32.2524 34.5625 29.2006 34.5625 25.436C34.5625 21.6714 31.5107 18.6196 27.7461 18.6196C23.9815 18.6196 20.9297 21.6714 20.9297 25.436C20.9297 29.2006 23.9815 32.2524 27.7461 32.2524Z" fill="#FF623E"/>
<path d="M34.563 25.4358C34.563 29.2004 31.5112 32.2522 27.7458 32.2522V18.6187C31.5112 18.6187 34.563 21.6714 34.563 25.4358Z" fill="#EE2600"/>
<path d="M29.8946 21.6113L27.7462 23.7597L25.5978 21.6113L23.9216 23.2875L26.07 25.4359L23.9216 27.5843L25.5978 29.2605L27.7462 27.1121L29.8946 29.2605L31.5708 27.5843L29.4224 25.4359L31.5708 23.2875L29.8946 21.6113Z" fill="white"/>
<path d="M29.8945 29.2605L31.5708 27.5843L29.4224 25.4359L31.5708 23.2875L29.8945 21.6113L27.7462 23.7597L27.7458 23.7594V27.1124L27.7462 27.1121L29.8945 29.2605Z" fill="#FFF5CB"/>
</g>
<defs>
<clipPath id="clip0_6492_10858">
<rect width="40" height="40" fill="white"/>
</clipPath>
</defs>
</svg>
