<svg width="56" height="56" viewBox="0 0 56 56" fill="none" xmlns="http://www.w3.org/2000/svg">
<path d="M56 28C56 43.4642 43.4642 56 28 56C12.5358 56 0 43.4642 0 28C0 12.5358 12.5358 0 28 0C43.4642 0 56 12.5358 56 28Z" fill="#00B2FF"/>
<path d="M56 28.0001C56 27.217 55.9662 26.4415 55.903 25.6746L38.9012 8.67236L17.1061 46.6785L26.3799 55.9523C26.9165 55.983 27.4561 56.0001 28 56.0001C43.4642 56.0001 56 43.4643 56 28.0001Z" fill="#128CFD"/>
<path d="M37.3041 47.3187H18.6958C17.4282 47.3187 16.4006 46.2912 16.4006 45.0236V10.3201C16.4006 9.05243 17.4282 8.0249 18.6958 8.0249H37.3041C38.5717 8.0249 39.5992 9.05243 39.5992 10.3201V45.0236C39.5992 46.2912 38.5717 47.3187 37.3041 47.3187Z" fill="#414952"/>
<path d="M37.3042 8.0249H27.9612V47.3187H37.3042C38.5718 47.3187 39.5994 46.2912 39.5994 45.0236V10.3201C39.5994 9.05243 38.5718 8.0249 37.3042 8.0249Z" fill="#333940"/>
<path d="M18.0679 11.6021H37.9323V42.6086H18.0679V11.6021Z" fill="white"/>
<path d="M27.9612 11.6021H37.9323V42.6086H27.9612V11.6021Z" fill="#F2F6FC"/>
<path d="M32.0845 18.2281C32.0845 20.4839 30.2559 22.3126 28 22.3126C25.7441 22.3126 23.9155 20.4839 23.9155 18.2281C23.9155 15.9727 25.7441 14.144 28 14.144C30.2559 14.144 32.0845 15.9727 32.0845 18.2281Z" fill="#4A7AFF"/>
<path d="M28.0001 14.144C27.9868 14.144 27.974 14.1449 27.9612 14.1449V22.3117C27.974 22.3117 27.9868 22.3126 28.0001 22.3126C30.2559 22.3126 32.0845 20.4839 32.0845 18.2281C32.0845 15.9727 30.2559 14.144 28.0001 14.144Z" fill="#2864F0"/>
<path d="M21.6562 28.6562C21.6562 25.1528 24.4966 22.3125 28 22.3125C31.5034 22.3125 34.3438 25.1528 34.3438 28.6562H21.6562Z" fill="#4A7AFF"/>
<path d="M28.0001 22.3125C27.9868 22.3125 27.974 22.3134 27.9612 22.3134V28.6562H34.3438C34.3438 25.1528 31.5035 22.3125 28.0001 22.3125Z" fill="#2864F0"/>
<path d="M19.4688 30.9531H25.9449V34.0156H19.4688V30.9531Z" fill="#4A7AFF"/>
<path d="M26.7144 30.9531H36.5312V34.0156H26.7144V30.9531Z" fill="#87C7FF"/>
<path d="M27.9612 30.9531H36.5313V34.0156H27.9612V30.9531Z" fill="#65B1FC"/>
<path d="M19.4688 36.3125H25.9449V39.375H19.4688V36.3125Z" fill="#4A7AFF"/>
<path d="M26.7144 36.3125H36.5312V39.375H26.7144V36.3125Z" fill="#87C7FF"/>
<path d="M27.9612 36.3125H36.5313V39.375H27.9612V36.3125Z" fill="#65B1FC"/>
</svg>
