<svg id="Layer_1" enable-background="new 0 0 512 512" height="512" viewBox="0 0 512 512" width="512" xmlns="http://www.w3.org/2000/svg"><g><path d="m12.7 295.849 56.897 130.128c14.999 17.57 32.437 32.988 51.792 45.741l269.022.131c66.605-43.792 110.587-119.178 110.587-204.848 0-7.108-.32-14.14-.914-21.094l-51.698-130.608c-44.866-56.823-114.365-93.297-192.386-93.297-135.309 0-244.999 109.69-244.999 244.999 0 9.762.589 19.384 1.699 28.848z" fill="#3b3868"/><path d="m299.215 260.875c40.365-30.13 73.602-101.275 91.915-193.988h-270.486c18.313 92.713 51.551 163.858 91.915 193.988 6.841 5.107 6.841 15.457 0 20.565-39.824 29.727-72.709 99.38-91.17 190.278 1.916 1.263 3.85 2.5 5.803 3.71h257.616c1.885-1.168 3.753-2.361 5.604-3.578-18.456-90.963-51.353-160.669-91.197-190.41-6.841-5.108-6.841-15.458 0-20.565z" fill="#e9efff"/><path d="m221.046 471.78c-8.697-8.128-6.585-23.36-6.585-23.36 7.191-53.961 31.866-81.861 39.294-89.173 1.192-1.174 1.577-2.944.957-4.498-3.51-8.793-.243-16.102 2.467-20.134 1.205-1.794.772-4.174-.884-5.563-5.556-4.656-4.667-12.017-4.667-12.017l4.121-27.171c.156-1.026-.074-2.078-.654-2.939-8.013-11.901-3.107-22.163-.459-26.217.742-1.136.937-2.564.417-3.817-2.884-6.949-1.201-14.111.022-17.69.503-1.472.15-3.098-.919-4.228-19.856-20.994-19.535-40.244-30.872-56.021-7.344-10.221-5.449-17.8-3.033-22.017 1.187-2.069.461-4.667-1.625-5.823-13.009-7.21-16.187-23.478-16.476-25.111-.018-.101-.039-.198-.065-.297l-5.958-23.169c-4.834-18.802 11.756-29.799 18.383-33.362.935-.503 1.609-1.33 1.946-2.286h-95.813c18.314 92.713 51.55 163.858 91.915 193.988 6.841 5.107 6.841 15.457 0 20.565-39.824 29.727-72.709 99.38-91.17 190.278 1.916 1.263 3.85 2.5 5.803 3.71h95.121c.194-1.306-.227-2.678-1.266-3.648z" fill="#bec8f7"/><path d="m343.798 402.923c4.154 11.817 8.02 24.371 11.549 37.571 1.069 3.996-1.949 7.926-6.085 7.926h-186.75c-4.136 0-7.154-3.93-6.085-7.926 3.586-13.41 7.519-26.155 11.748-38.136 2.373-6.723 8.237-11.633 15.297-12.623 14.174-1.989 39.243-8.117 58.122-27 7.52-7.521 19.86-7.319 27.013.552 10.456 11.506 28.586 24.18 58.689 26.88 7.536.675 13.993 5.618 16.502 12.756z" fill="#ffdd40"/><path d="m254.881 357.249c-4.801-.001-9.618 1.816-13.286 5.485-18.879 18.884-43.948 25.012-58.122 27-7.061.991-12.924 5.9-15.297 12.623-4.23 11.982-8.163 24.726-11.749 38.136-1.068 3.996 1.949 7.926 6.085 7.926h51.948c7.191-53.961 31.866-81.861 39.294-89.173.568-.559.947-1.255 1.127-1.997z" fill="#ffb332"/><path d="m252.139 290.329-10.128 16.954c-6.436 10.773 1.326 24.452 13.876 24.452 12.549 0 20.311-13.678 13.876-24.452l-10.128-16.954c-1.694-2.836-5.802-2.836-7.496 0z" fill="#ffdd40"/><path d="m256.294 329.052c-5.556-4.656-4.667-12.017-4.667-12.017l4.121-27.171c.084-.554.047-1.113-.088-1.648-1.373.071-2.717.769-3.52 2.113l-10.128 16.954c-6.436 10.773 1.326 24.452 13.876 24.452.649 0 1.283-.045 1.906-.116-.177-.97-.689-1.888-1.5-2.567z" fill="#ffb332"/><path d="m327.463 165.945c-1.57-2.451-3.682-4.536-6.225-6.045-13.008-7.717-36.531-14.558-65.359 8.676-.212.171-.422.329-.633.497.214.17.427.33.641.503 36.418 29.352 64.362 10.713 73.342 2.94.019-3.15-1.156-5.549-1.766-6.571z" fill="#ffb332"/><path d="m329.198 171.543c-9.019 7.792-36.94 26.347-73.311-2.966-29.72-23.954-53.803-15.94-66.538-7.957-6.088 3.816-8.293 11.677-5.165 18.146 13.366 27.637 28.547 48.535 44.531 60.467 3.727 2.782 6.89 6.185 9.394 10.007 8.401 12.823 27.147 12.834 35.557-.001 2.504-3.822 5.667-7.225 9.395-10.007 16.086-12.008 31.356-33.107 44.784-61.009 1.21-2.461 1.493-4.74 1.353-6.68z" fill="#ffdd40"/><path d="m228.715 239.233c3.727 2.782 6.89 6.185 9.393 10.007 4.084 6.233 10.612 9.429 17.209 9.604.077-.656-.005-1.327-.265-1.954-1.176-2.834-1.593-5.704-1.59-8.351.007-8.604-2.921-16.938-7.786-24.035-11.6-16.922-12.968-32.438-22.392-45.553-7.344-10.221-5.449-17.8-3.033-22.017.768-1.339.724-2.893.041-4.141-13.187-1.09-23.834 3.37-30.943 7.826-6.087 3.816-8.294 11.675-5.166 18.143 13.367 27.639 28.547 48.539 44.532 60.471z" fill="#ffb332"/><path d="m461.859 134.135c-4.2-6.495-8.693-12.783-13.472-18.836-35.492 4.662-62.896 35.005-62.896 71.769 0 39.992 32.42 72.412 72.412 72.412 15.744 0 30.301-5.04 42.182-13.573-.663-7.775-1.692-15.445-3.064-22.996z" fill="#42c3fc"/><path d="m493.192 250.292c-9.608-1.96-10.415-8.986-9.917-13.366.241-2.121-1-4.126-2.996-4.883-21.93-8.313-19.982-27.006-19.017-32.039.169-.884.073-1.79-.268-2.623l-6.765-16.55c-.473-1.157-1.393-2.079-2.552-2.549-18.364-7.447-20.238-26.277-20.198-34.006.01-1.87-1.13-3.544-2.846-4.288-8.83-3.83-6.452-15.477-6.355-15.935-21.957 12.432-36.787 35.98-36.787 63.015 0 39.992 32.42 72.412 72.412 72.412 12.818 0 24.848-3.342 35.289-9.188z" fill="#1aa9e8"/><path d="m54.097 282.834c-15.398 0-29.662 4.82-41.397 13.014.877 7.479 2.097 14.853 3.632 22.11l39.497 90.313c4.323 6.114 8.917 12.022 13.768 17.705 32.541-7.1 56.911-36.062 56.911-70.732 0-39.99-32.419-72.41-72.411-72.41z" fill="#ff4155"/><path d="m85.089 400.908c.24-1.682-.847-3.272-2.518-3.584-24.38-4.554-24.254-24.904-23.867-29.76.056-.704-.121-1.4-.506-1.992l-10.954-16.831c-.419-.643-1.061-1.102-1.796-1.325-21.612-6.569-18.3-28.797-16.383-36.657.366-1.502-.379-3.075-1.806-3.671-9.543-3.983-7.631-12.247-6.576-15.212.109-.306.156-.625.167-.944-2.828 1.467-5.554 3.104-8.15 4.916.877 7.479 2.097 14.853 3.632 22.11l39.497 90.313c4.323 6.114 8.916 12.022 13.768 17.705 9.077-1.98 17.516-5.665 24.97-10.698-9.57-2.945-10.074-10.197-9.478-14.37z" fill="#e80054"/><path d="m461.849 134.111c-1.304-.096-2.617-.161-3.946-.161-29.337 0-53.119 23.782-53.119 53.119s23.782 53.12 53.119 53.12c15.493 0 29.432-6.636 39.142-17.217-5.855-32.266-18.031-62.327-35.196-88.861z" fill="#e9efff"/><path d="m482.66 234.06c-.528-.9-1.351-1.626-2.381-2.017-21.93-8.313-19.982-27.006-19.017-32.039.169-.884.073-1.79-.268-2.623l-6.765-16.55c-.473-1.157-1.393-2.079-2.552-2.549-18.364-7.447-20.238-26.277-20.198-34.006.005-1.017-.338-1.969-.92-2.752-15.442 9.291-25.775 26.209-25.775 45.544 0 29.337 23.782 53.12 53.119 53.12 8.944 0 17.363-2.222 24.757-6.128z" fill="#dae2fe"/><g><path d="m483.452 205.26c-.957 0-1.929-.184-2.868-.573l-14.403-5.966c-3.828-1.586-5.646-5.974-4.06-9.801 1.586-3.829 5.975-5.649 9.802-4.06l14.403 5.966c3.828 1.586 5.646 5.974 4.06 9.802-1.196 2.888-3.99 4.632-6.934 4.632z" fill="#bec8f7"/></g><g><path d="m457.903 182.35c-4.143 0-7.502-3.358-7.502-7.502v-23.178c0-4.144 3.359-7.502 7.502-7.502s7.502 3.358 7.502 7.502v23.178c0 4.144-3.359 7.502-7.502 7.502z" fill="#bec8f7"/></g><path d="m54.097 302.126c-14.784 0-28.153 6.044-37.783 15.791 6.995 33.091 20.66 63.718 39.537 90.404 28.523-.927 51.365-24.326 51.365-53.075 0-29.337-23.782-53.12-53.119-53.12z" fill="#e9efff"/><path d="m84.612 398.717c-.447-.703-1.159-1.229-2.041-1.393-24.38-4.554-24.254-24.904-23.867-29.76.056-.704-.121-1.4-.506-1.992l-10.954-16.831c-.419-.643-1.061-1.102-1.796-1.325-21.612-6.569-18.3-28.797-16.383-36.657.188-.771.079-1.559-.261-2.226-4.618 2.508-8.826 5.676-12.49 9.384 6.995 33.091 20.66 63.718 39.537 90.404 10.685-.347 20.573-3.849 28.761-9.604z" fill="#dae2fe"/><g><path d="m81.908 362.747h-15.59c-4.143 0-7.502-3.358-7.502-7.502s3.359-7.502 7.502-7.502h15.59c4.143 0 7.502 3.358 7.502 7.502s-3.359 7.502-7.502 7.502z" fill="#bec8f7"/></g><g><path d="m54.097 350.527c-4.143 0-7.502-3.358-7.502-7.502v-23.178c0-4.144 3.359-7.502 7.502-7.502s7.502 3.358 7.502 7.502v23.178c0 4.144-3.359 7.502-7.502 7.502z" fill="#bec8f7"/></g><g><path d="m45.276 198.365h-27.511c-4.143 0-7.502-3.358-7.502-7.502s3.359-7.502 7.502-7.502h27.511c4.143 0 7.502 3.358 7.502 7.502s-3.359 7.502-7.502 7.502z" fill="#ff7186"/></g><g><path d="m80.429 250.199h-62.664c-4.143 0-7.502-3.358-7.502-7.502s3.359-7.502 7.502-7.502h62.664c4.143 0 7.502 3.358 7.502 7.502s-3.359 7.502-7.502 7.502z" fill="#ff4155"/></g><g><path d="m80.429 224.282h-62.664c-4.143 0-7.502-3.358-7.502-7.502s3.359-7.502 7.502-7.502h62.664c4.143 0 7.502 3.358 7.502 7.502s-3.359 7.502-7.502 7.502z" fill="#ff4155"/></g><g><path d="m459.082 301.432h-27.511c-4.143 0-7.502-3.358-7.502-7.502s3.359-7.502 7.502-7.502h27.511c4.143 0 7.502 3.358 7.502 7.502s-3.359 7.502-7.502 7.502z" fill="#8ae1ff"/></g><g><path d="m494.235 353.267h-62.664c-4.143 0-7.502-3.358-7.502-7.502s3.359-7.502 7.502-7.502h62.664c4.143 0 7.502 3.358 7.502 7.502 0 4.143-3.358 7.502-7.502 7.502z" fill="#42c3fc"/></g><g><path d="m494.235 327.349h-62.664c-4.143 0-7.502-3.358-7.502-7.502s3.359-7.502 7.502-7.502h62.664c4.143 0 7.502 3.358 7.502 7.502s-3.358 7.502-7.502 7.502z" fill="#42c3fc"/></g><path d="m470.124 187.068c0 6.749-5.472 12.221-12.221 12.221s-12.221-5.472-12.221-12.221 5.472-12.221 12.221-12.221c6.75.001 12.221 5.472 12.221 12.221z" fill="#1aa9e8"/><path d="m66.318 355.246c0 6.75-5.472 12.221-12.221 12.221-6.75 0-12.221-5.471-12.221-12.221 0-6.749 5.472-12.221 12.221-12.221s12.221 5.471 12.221 12.221z" fill="#e80054"/><path d="m380.7 27.721c-1.489-15.556-14.59-27.721-30.535-27.721h-188.33c-15.945 0-29.046 12.165-30.535 27.721z" fill="#c04a27"/><path d="m219.862 0h-58.027c-15.946 0-29.046 12.165-30.536 27.721h88.755c-13.717-3.323-14.216-24.426-.192-27.721z" fill="#9b2b15"/><g><path d="m387.918 67.887h-263.836c-11.474 0-20.776-9.302-20.776-20.776s9.301-20.776 20.776-20.776h263.836c11.474 0 20.776 9.302 20.776 20.776 0 11.475-9.302 20.776-20.776 20.776z" fill="#d85e41"/></g><path d="m196.35 47.111c0-11.474 9.301-20.776 20.775-20.776h-93.043c-11.475 0-20.776 9.302-20.776 20.776s9.301 20.776 20.776 20.776h93.043c-11.473 0-20.775-9.301-20.775-20.776z" fill="#c04a27"/><path d="m125.589 474.427c37.767 23.794 82.477 37.573 130.411 37.573s92.644-13.779 130.411-37.573z" fill="#d85e41"/><path d="m221.741 509.614c-12.793-14.705-5.541-26.51-.503-31.943.846-.913 1.197-2.098 1.09-3.245h-96.738c28.604 18.023 61.195 30.293 96.151 35.188z" fill="#c04a27"/></g></svg>