<svg width="40" height="40" viewBox="0 0 40 40" fill="none" xmlns="http://www.w3.org/2000/svg">
<path d="M20 40C31.0457 40 40 31.0457 40 20C40 8.9543 31.0457 0 20 0C8.9543 0 0 8.9543 0 20C0 31.0457 8.9543 40 20 40Z" fill="#ACE852"/>
<path d="M39.9796 20.8779L27.6052 8.50336L27.3372 8.61328L25.2942 6.57031L24.4036 10.2947H15.4499L11.7255 6.57031L7.6333 29.8596L17.633 39.8593C18.4094 39.9509 19.1989 39.9994 19.9999 39.9994C30.7512 39.9994 39.5197 31.5158 39.9796 20.8779Z" fill="#6BC800"/>
<path d="M12.0068 9.28516H9.66309V7.33203C9.66309 6.68484 10.1878 6.16016 10.835 6.16016C11.4821 6.16016 12.0068 6.68484 12.0068 7.33203V9.28516Z" fill="#5A5A5A"/>
<path d="M25.5757 9.28516H23.2319V7.33203C23.2319 6.68484 23.7566 6.16016 24.4038 6.16016C25.051 6.16016 25.5757 6.68484 25.5757 7.33203V9.28516Z" fill="#32393F"/>
<path d="M7.6333 8.50391V13.1914L17.5686 14.7539L17.6192 14.746L18.4005 11.243L17.6192 8.50391H7.6333Z" fill="#FF641A"/>
<path d="M7.6333 29.8612H17.6192L18.4005 29.207L17.6192 27.5195L7.6333 28.2987V29.8612Z" fill="#DDDDE1"/>
<path d="M27.6051 8.50391H17.6191V14.746L27.6051 13.1914V8.50391Z" fill="#EF3800"/>
<path d="M27.6051 29.8594V28.2969L17.6457 27.5156L17.6191 27.5177V29.8594H27.6051Z" fill="#B8B8BE"/>
<path d="M7.6333 13.1914V28.2977H17.6192L18.4005 21.0867L17.6192 13.1914H7.6333Z" fill="white"/>
<path d="M17.6191 13.1914H27.6051V28.2977H17.6191V13.1914Z" fill="#E3EAEE"/>
<path d="M9.92383 15.5078H13.527V19.1109H9.92383V15.5078Z" fill="#F9E2A7"/>
<path d="M9.92383 22.3789H13.527V25.982H9.92383V22.3789Z" fill="#F9E2A7"/>
<path d="M15.8179 25.9781H17.6194L18.4007 24.1766L17.6194 22.375H15.8179V25.9781Z" fill="#F9E2A7"/>
<path d="M15.8179 15.5078V19.1109H17.6194L18.4007 17.3094L17.6194 15.5078H15.8179Z" fill="#F9E2A7"/>
<path d="M17.6196 15.5078H19.4212V19.1109H17.6196V15.5078Z" fill="#F5D52A"/>
<path d="M17.6196 22.375H19.4212V25.9781H17.6196V22.375Z" fill="#F5D52A"/>
<path d="M21.7427 15.5078H25.3458V19.1109H21.7427V15.5078Z" fill="#F5D52A"/>
<path d="M21.7427 27.9938C21.7427 30.5425 23.8088 32.6087 26.3576 32.6087L27.1388 28.1555L26.3576 23.3789C23.8088 23.3788 21.7427 25.445 21.7427 27.9938Z" fill="#FF641A"/>
<path d="M26.3574 23.3789V32.6087C28.9062 32.6087 30.9723 30.5425 30.9723 27.9937C30.9723 25.445 28.9062 23.3789 26.3574 23.3789Z" fill="#EF3800"/>
<path d="M24.6837 25.4922L23.855 26.3209L25.5287 27.9946L23.855 29.6683L24.6837 30.497L26.3574 28.8233L26.9043 27.9946L26.3574 27.1659L24.6837 25.4922Z" fill="white"/>
<path d="M28.8598 26.3209L28.0312 25.4922L26.3574 27.1659V28.8233L28.0312 30.497L28.8598 29.6683L27.1862 27.9946L28.8598 26.3209Z" fill="#E3EAEE"/>
</svg>
