<svg width="23" height="23" viewBox="0 0 23 23" fill="none" xmlns="http://www.w3.org/2000/svg">
<path d="M10 11H4C1.794 11 0 9.206 0 7V4C0 1.794 1.794 0 4 0H7C9.206 0 11 1.794 11 4V10C11 10.553 10.552 11 10 11ZM4 2C2.897 2 2 2.897 2 4V7C2 8.103 2.897 9 4 9H9V4C9 2.897 8.103 2 7 2H4Z" fill="url(#paint0_linear_7126_10475)"/>
<path d="M19 11H13C12.448 11 12 10.553 12 10V4C12 1.794 13.794 0 16 0H19C21.206 0 23 1.794 23 4V7C23 9.206 21.206 11 19 11ZM14 9H19C20.103 9 21 8.103 21 7V4C21 2.897 20.103 2 19 2H16C14.897 2 14 2.897 14 4V9Z" fill="url(#paint1_linear_7126_10475)"/>
<path d="M7 23H4C1.794 23 0 21.206 0 19V16C0 13.794 1.794 12 4 12H10C10.552 12 11 12.447 11 13V19C11 21.206 9.206 23 7 23ZM4 14C2.897 14 2 14.897 2 16V19C2 20.103 2.897 21 4 21H7C8.103 21 9 20.103 9 19V14H4Z" fill="url(#paint2_linear_7126_10475)"/>
<path d="M19 23H16C13.794 23 12 21.206 12 19V16C12 15.447 12.448 15 13 15C13.552 15 14 15.447 14 16V19C14 20.103 14.897 21 16 21H19C20.103 21 21 20.103 21 19V16C21 14.897 20.103 14 19 14H16C15.448 14 15 13.553 15 13C15 12.447 15.448 12 16 12H19C21.206 12 23 13.794 23 16V19C23 21.206 21.206 23 19 23Z" fill="url(#paint3_linear_7126_10475)"/>
<path d="M13 14C13.5523 14 14 13.5523 14 13C14 12.4477 13.5523 12 13 12C12.4477 12 12 12.4477 12 13C12 13.5523 12.4477 14 13 14Z" fill="url(#paint4_linear_7126_10475)"/>
<defs>
<linearGradient id="paint0_linear_7126_10475" x1="0" y1="5.5" x2="11" y2="5.5" gradientUnits="userSpaceOnUse">
<stop stop-color="#F3C76F"/>
<stop offset="1" stop-color="#FFB88C"/>
</linearGradient>
<linearGradient id="paint1_linear_7126_10475" x1="12" y1="5.5" x2="23" y2="5.5" gradientUnits="userSpaceOnUse">
<stop stop-color="#F3C76F"/>
<stop offset="1" stop-color="#FFB88C"/>
</linearGradient>
<linearGradient id="paint2_linear_7126_10475" x1="0" y1="17.5" x2="11" y2="17.5" gradientUnits="userSpaceOnUse">
<stop stop-color="#F3C76F"/>
<stop offset="1" stop-color="#FFB88C"/>
</linearGradient>
<linearGradient id="paint3_linear_7126_10475" x1="12" y1="17.5" x2="23" y2="17.5" gradientUnits="userSpaceOnUse">
<stop stop-color="#F3C76F"/>
<stop offset="1" stop-color="#FFB88C"/>
</linearGradient>
<linearGradient id="paint4_linear_7126_10475" x1="12" y1="13" x2="14" y2="13" gradientUnits="userSpaceOnUse">
<stop stop-color="#F3C76F"/>
<stop offset="1" stop-color="#FFB88C"/>
</linearGradient>
</defs>
</svg>
