<svg width="188" height="188" viewBox="0 0 188 188" fill="none" xmlns="http://www.w3.org/2000/svg">
<circle cx="94" cy="94" r="94" fill="#F3C76F"/>
<g clip-path="url(#clip0_5397:10845)">
<path d="M95 178C93.1351 178 91.4316 176.946 90.5972 175.279L75.4573 145C46.2798 136.397 26.0938 109.54 26.0938 78.9062C26.0938 40.9117 57.0054 10 95 10C132.995 10 163.906 40.9117 163.906 78.9062C163.906 109.54 143.72 136.399 114.541 145L99.4015 175.279C98.5684 176.946 96.8636 178 95 178Z" fill="#665F55"/>
<path d="M95.0928 10.001V177.996C96.9205 177.963 98.5829 176.918 99.402 175.279L114.542 145C143.721 136.398 163.907 109.539 163.907 78.9059C163.907 40.9421 133.045 10.051 95.0928 10.001Z" fill="#474032"/>
<path d="M95.9849 51.3438C95.9849 51.3438 70.4834 62.086 70.4834 64.8033V97.2812C70.4834 99.9998 72.6867 102.203 75.4053 102.203H114.78C117.499 102.203 119.702 99.9998 119.702 97.2812V64.4688C119.702 61.7502 95.9849 51.3438 95.9849 51.3438Z" fill="#F3EEE9"/>
<path d="M95.9849 51.3438C95.9849 51.3438 95.6619 51.4796 95.0928 51.7231V102.203H114.78C117.499 102.203 119.702 99.9998 119.702 97.2812V64.4688C119.702 61.7502 95.9849 51.3438 95.9849 51.3438Z" fill="#E9DFDA"/>
<path d="M65.4835 73.6784C63.7993 73.6784 62.1587 72.8132 61.2397 71.2572C59.8593 68.9154 60.6373 65.8982 62.9777 64.5165L92.4885 47.1053C94.0086 46.2081 95.8915 46.1927 97.4257 47.0682L126.958 63.891C129.321 65.2368 130.145 68.2412 128.799 70.6035C127.453 72.9657 124.447 73.7886 122.086 72.444L95.0327 57.0337L67.9804 72.9952C67.1959 73.4579 66.3346 73.6784 65.4835 73.6784Z" fill="#BABABA"/>
<path d="M126.958 63.8908L97.4255 47.0679C96.7014 46.6539 95.899 46.4424 95.0928 46.4258V57.0681L122.086 72.4438C124.447 73.7896 127.453 72.9655 128.799 70.6032C130.144 68.2423 129.32 65.2366 126.958 63.8908Z" fill="#ABABAB"/>
<path d="M109.566 88.3236C112.839 80.4267 109.091 71.3715 101.194 68.0982C93.2972 64.8249 84.242 68.5731 80.9688 76.47C77.6955 84.3669 81.4437 93.4221 89.3405 96.6953C97.2374 99.9686 106.293 96.2204 109.566 88.3236Z" fill="#BABABA"/>
<path d="M95.2422 66.9121C103.775 66.9121 110.717 73.854 110.717 82.3867C110.717 90.9194 103.775 97.8614 95.2422 97.8614V66.9121Z" fill="#ABABAB"/>
<path d="M99.8725 84.0693L98.1896 82.3864L99.8725 80.7035C100.686 79.8897 100.686 78.5705 99.8725 77.7568C99.0587 76.9431 97.7395 76.9431 96.9258 77.7568L95.2429 79.4397L93.5599 77.7568C92.7462 76.9431 91.427 76.9431 90.6132 77.7568C89.7995 78.5705 89.7995 79.8897 90.6132 80.7035L92.2961 82.3864L90.6132 84.0693C89.7995 84.883 89.7995 86.2022 90.6132 87.016C91.427 87.8297 92.7462 87.8297 93.5599 87.016L95.2429 85.3331L96.9258 87.016C97.7395 87.8297 99.0587 87.8297 99.8725 87.016C100.686 86.2024 100.686 84.883 99.8725 84.0693Z" fill="white"/>
<path d="M95.2422 85.3331L96.9251 87.016C97.7388 87.8297 99.0581 87.8297 99.8718 87.016C100.686 86.2022 100.686 84.883 99.8718 84.0693L98.1889 82.3864L99.8718 80.7035C100.686 79.8897 100.686 78.5705 99.8718 77.7568C99.0581 76.9431 97.7388 76.9431 96.9251 77.7568L95.2422 79.4397V85.3331Z" fill="#F3F3F3"/>
</g>
<defs>
<clipPath id="clip0_5397:10845">
<rect width="168" height="168" fill="white" transform="translate(11 10)"/>
</clipPath>
</defs>
</svg>
