<svg width="188" height="188" viewBox="0 0 188 188" fill="none" xmlns="http://www.w3.org/2000/svg">
<circle cx="94" cy="94" r="94" fill="#F3C76F"/>
<g clip-path="url(#clip0_5397:10576)">
<path d="M55.1889 172.251H26.0435C23.2967 172.251 21.0703 170.025 21.0703 167.278V150.657C21.0703 147.91 23.2967 145.684 26.0435 145.684H55.1889C57.9357 145.684 60.1633 147.91 60.1633 150.657V167.278C60.1633 170.025 57.9357 172.251 55.1889 172.251Z" fill="#474032"/>
<path d="M161.121 172.251H131.974C129.227 172.251 127.001 170.025 127.001 167.278V150.657C127.001 147.91 129.227 145.684 131.974 145.684H161.121C163.868 145.684 166.094 147.91 166.094 150.657V167.278C166.094 170.025 163.868 172.251 161.121 172.251Z" fill="#38342D"/>
<path d="M107.975 90.5778H14.9731C12.2264 90.5778 10 88.3501 10 85.6033V20.5526C10 17.8058 12.2264 15.5781 14.9731 15.5781H107.975C110.722 15.5781 112.948 17.8058 112.948 20.5526V85.6033C112.948 88.3501 110.722 90.5778 107.975 90.5778Z" fill="#474032"/>
<path d="M107.926 85.6046L107.975 15.5781H173.027C175.774 15.5781 178 17.8045 178 20.5513V85.6033L107.926 85.6046Z" fill="#38342D"/>
<path d="M107.975 155.63H14.9731C12.2264 155.63 10 153.403 10 150.657V85.6045H107.926L107.975 155.63Z" fill="#38342D"/>
<path d="M173.027 155.63H107.975L107.926 85.6045H178V150.657C178 153.403 175.774 155.63 173.027 155.63Z" fill="#24211D"/>
<path d="M178 20.5526C178 17.8058 175.774 15.5781 173.027 15.5781H14.9731C12.2264 15.5781 10 17.8058 10 20.5526V85.6033V85.6046V150.657C10 153.403 12.2264 155.631 14.9731 155.631H173.027C175.774 155.631 178 153.403 178 150.657V85.6046V20.5526ZM168.052 80.6302H112.948V25.5257H168.052V80.6302ZM19.9476 25.5257H103V80.6302H19.9476V25.5257ZM19.9476 90.579H103V145.684H19.9476V90.579ZM168.052 145.684H112.948V90.579H168.052V145.684Z" fill="#665F55"/>
<path d="M173.027 15.5781H107.926V155.63H173.026C175.773 155.63 178 153.403 178 150.657V85.6046C178 85.6033 178 85.6033 178 85.6033V20.5526C178 17.8045 175.774 15.5781 173.027 15.5781V15.5781ZM168.053 145.684H112.948V90.579H168.053V145.684ZM168.053 80.6302H112.948V25.5257H168.053V80.6302Z" fill="#474032"/>
<path d="M73.9878 146H57.4189C56.6423 146 56.0127 145.37 56.0127 144.594V137.062C56.0127 136.286 56.6423 135.656 57.4189 135.656H73.9877C74.7643 135.656 75.3939 136.286 75.3939 137.062V144.594C75.394 145.37 74.7644 146 73.9878 146Z" fill="#7BCE00"/>
<path d="M75.3938 144.594V137.062C75.3938 136.286 74.7642 135.656 73.9875 135.656H65.7031V146H73.9875C74.7642 146 75.3938 145.37 75.3938 144.594Z" fill="#60B735"/>
<path d="M73.9878 123.406H57.4189C56.6423 123.406 56.0127 122.777 56.0127 122V119.17C56.0127 116.734 56.9614 114.444 58.684 112.721C59.8754 111.53 60.5315 109.946 60.5315 108.262V100.812C60.5315 100.036 61.1612 99.4062 61.9378 99.4062H69.469C70.2456 99.4062 70.8753 100.036 70.8753 100.812V108.262C70.8753 109.946 71.5314 111.53 72.7228 112.721C74.4454 114.444 75.3941 116.734 75.3941 119.17V122C75.394 122.777 74.7644 123.406 73.9878 123.406Z" fill="#7BCE00"/>
<path d="M75.3938 122V119.17C75.3938 116.734 74.4451 114.444 72.7225 112.721C71.5311 111.53 70.8749 109.946 70.8749 108.262V100.812C70.8749 100.036 70.2453 99.4062 69.4687 99.4062H65.7031V123.406H73.9875C74.7642 123.406 75.3938 122.777 75.3938 122Z" fill="#60B735"/>
<path d="M73.9878 138.469H57.4189C56.6423 138.469 56.0127 137.839 56.0127 137.062V122C56.0127 121.223 56.6423 120.594 57.4189 120.594H61.5139C62.1026 118.844 63.7581 117.581 65.7034 117.581C67.6486 117.581 69.3041 118.844 69.8928 120.594H73.9878C74.7644 120.594 75.394 121.223 75.394 122V137.062C75.394 137.839 74.7644 138.469 73.9878 138.469Z" fill="#FFF900"/>
<path d="M75.3938 137.062V122C75.3938 121.223 74.7642 120.594 73.9875 120.594H69.8925C69.3039 118.844 67.6483 117.581 65.7031 117.581V138.469H73.9875C74.7642 138.469 75.3938 137.839 75.3938 137.062Z" fill="#FFC900"/>
<path d="M70.9748 100.812H60.4312C59.6545 100.812 59.0249 100.183 59.0249 99.4062C59.0249 98.6296 59.6545 98 60.4312 98H70.9749C71.7516 98 72.3812 98.6296 72.3812 99.4062C72.3812 100.183 71.7516 100.812 70.9748 100.812Z" fill="#A0EE00"/>
<path d="M67.9626 130.937H63.4438C62.6672 130.937 62.0376 130.308 62.0376 129.531C62.0376 128.755 62.6672 128.125 63.4438 128.125H67.9626C68.7392 128.125 69.3689 128.755 69.3689 129.531C69.3689 130.308 68.7392 130.937 67.9626 130.937Z" fill="#FFC900"/>
<path d="M72.3812 99.4062C72.3812 98.6296 71.7516 98 70.975 98H65.7031V100.812H70.975C71.7517 100.812 72.3812 100.183 72.3812 99.4062Z" fill="#7BCE00"/>
<path d="M69.3688 129.531C69.3688 128.755 68.7391 128.125 67.9625 128.125H65.7031V130.937H67.9625C68.7391 130.937 69.3688 130.308 69.3688 129.531Z" fill="#FB8B00"/>
<path d="M96.5815 146H80.0127C79.2361 146 78.6064 145.37 78.6064 144.594V137.062C78.6064 136.286 79.2361 135.656 80.0127 135.656H96.5814C97.358 135.656 97.9877 136.286 97.9877 137.062V144.594C97.9877 145.37 97.3581 146 96.5815 146Z" fill="#7BCE00"/>
<path d="M97.9875 144.594V137.062C97.9875 136.286 97.3579 135.656 96.5813 135.656H88.2969V146H96.5813C97.3579 146 97.9875 145.37 97.9875 144.594Z" fill="#60B735"/>
<path d="M96.5815 123.406H80.0127C79.2361 123.406 78.6064 122.777 78.6064 122V119.17C78.6064 116.734 79.5551 114.444 81.2778 112.721C82.4691 111.53 83.1253 109.946 83.1253 108.262V100.812C83.1253 100.036 83.7549 99.4062 84.5315 99.4062H92.0628C92.8394 99.4062 93.469 100.036 93.469 100.812V108.262C93.469 109.946 94.1252 111.53 95.3165 112.721C97.0392 114.444 97.9879 116.734 97.9879 119.17V122C97.9878 122.777 97.3581 123.406 96.5815 123.406Z" fill="#7BCE00"/>
<path d="M97.9875 122V119.17C97.9875 116.734 97.0389 114.444 95.3162 112.721C94.1248 111.53 93.4687 109.946 93.4687 108.262V100.812C93.4687 100.036 92.8391 99.4062 92.0624 99.4062H88.2969V123.406H96.5813C97.3579 123.406 97.9875 122.777 97.9875 122Z" fill="#60B735"/>
<path d="M96.5815 138.469H80.0127C79.2361 138.469 78.6064 137.839 78.6064 137.062V122C78.6064 121.223 79.2361 120.594 80.0127 120.594H84.1077C84.6964 118.844 86.3519 117.581 88.2971 117.581C90.2423 117.581 91.8979 118.844 92.4865 120.594H96.5815C97.3581 120.594 97.9878 121.223 97.9878 122V137.062C97.9878 137.839 97.3581 138.469 96.5815 138.469Z" fill="#FFF900"/>
<path d="M97.9875 137.062V122C97.9875 121.223 97.3579 120.594 96.5813 120.594H92.4863C91.8976 118.844 90.2421 117.581 88.2969 117.581V138.469H96.5813C97.3579 138.469 97.9875 137.839 97.9875 137.062Z" fill="#F3C76F"/>
<path d="M93.5686 100.812H83.0249C82.2483 100.812 81.6187 100.183 81.6187 99.4062C81.6187 98.6296 82.2483 98 83.0249 98H93.5687C94.3453 98 94.9749 98.6296 94.9749 99.4062C94.9749 100.183 94.3453 100.812 93.5686 100.812Z" fill="#A0EE00"/>
<path d="M90.5564 130.937H86.0376C85.261 130.937 84.6313 130.308 84.6313 129.531C84.6313 128.755 85.261 128.125 86.0376 128.125H90.5564C91.333 128.125 91.9626 128.755 91.9626 129.531C91.9626 130.308 91.333 130.937 90.5564 130.937Z" fill="#FFC900"/>
<path d="M94.975 99.4062C94.975 98.6296 94.3453 98 93.5687 98H88.2969V100.812H93.5687C94.3454 100.812 94.975 100.183 94.975 99.4062Z" fill="#7BCE00"/>
<path d="M91.9625 129.531C91.9625 128.755 91.3329 128.125 90.5563 128.125H88.2969V130.937H90.5563C91.3329 130.937 91.9625 130.308 91.9625 129.531Z" fill="#FB8B00"/>
<path d="M80.6545 142.347C88.3864 123.694 79.5327 102.304 60.8793 94.5723C42.2258 86.8404 20.8362 95.694 13.1043 114.347C5.37243 133.001 14.2261 154.391 32.8796 162.122C51.533 169.854 72.9226 161.001 80.6545 142.347Z" fill="#BABABA"/>
<path d="M46.8218 91.7686C66.9775 91.7686 83.3749 108.166 83.3749 128.322C83.3749 148.477 66.9772 164.875 46.8218 164.875V91.7686Z" fill="#ABABAB"/>
<path d="M57.7575 132.296L53.7822 128.321L57.7575 124.346C59.6796 122.424 59.6796 119.308 57.7575 117.385C55.8353 115.463 52.7191 115.463 50.7969 117.385L46.8217 121.361L42.8465 117.385C40.9243 115.463 37.8081 115.463 35.886 117.385C33.9638 119.308 33.9638 122.424 35.886 124.346L39.8612 128.321L35.886 132.296C33.9638 134.219 33.9638 137.335 35.886 139.257C37.8081 141.179 40.9243 141.179 42.8465 139.257L46.8217 135.282L50.7969 139.257C52.7191 141.179 55.8353 141.179 57.7575 139.257C59.6796 137.335 59.6796 134.219 57.7575 132.296Z" fill="white"/>
<path d="M46.8218 135.282L50.797 139.257C52.7192 141.179 55.8354 141.179 57.7575 139.257C59.6797 137.335 59.6797 134.219 57.7575 132.296L53.7823 128.321L57.7575 124.346C59.6797 122.424 59.6797 119.308 57.7575 117.385C55.8354 115.463 52.7192 115.463 50.797 117.385L46.8218 121.361V135.282Z" fill="#F3F3F3"/>
<path d="M41.9878 81H25.4189C24.6423 81 24.0127 80.3703 24.0127 79.5937V72.0625C24.0127 71.2859 24.6423 70.6562 25.4189 70.6562H41.9877C42.7643 70.6562 43.3939 71.2859 43.3939 72.0625V79.5937C43.394 80.3703 42.7644 81 41.9878 81Z" fill="#BABABA"/>
<path d="M43.3938 79.5937V72.0625C43.3938 71.2859 42.7642 70.6562 41.9875 70.6562H33.7031V81H41.9875C42.7642 81 43.3938 80.3703 43.3938 79.5937Z" fill="#ABABAB"/>
<path d="M41.9878 58.4062H25.4189C24.6423 58.4062 24.0127 57.7766 24.0127 57V54.1698C24.0127 51.7341 24.9614 49.4438 26.684 47.7213C27.8754 46.5299 28.5315 44.946 28.5315 43.2615V35.8125C28.5315 35.0359 29.1612 34.4062 29.9378 34.4062H37.469C38.2456 34.4062 38.8753 35.0359 38.8753 35.8125V43.2615C38.8753 44.946 39.5314 46.5298 40.7228 47.7213C42.4454 49.4438 43.3941 51.734 43.3941 54.1698V57C43.394 57.7766 42.7644 58.4062 41.9878 58.4062Z" fill="#BABABA"/>
<path d="M43.3938 57V54.1698C43.3938 51.7341 42.4451 49.4438 40.7225 47.7213C39.5311 46.5299 38.8749 44.946 38.8749 43.2615V35.8125C38.8749 35.0359 38.2453 34.4062 37.4687 34.4062H33.7031V58.4062H41.9875C42.7642 58.4062 43.3938 57.7766 43.3938 57Z" fill="#ABABAB"/>
<path d="M41.9878 73.4686H25.4189C24.6423 73.4686 24.0127 72.839 24.0127 72.0623V56.9998C24.0127 56.2232 24.6423 55.5935 25.4189 55.5935H29.5139C30.1026 53.8442 31.7581 52.5811 33.7034 52.5811C35.6486 52.5811 37.3041 53.8442 37.8928 55.5935H41.9878C42.7644 55.5935 43.394 56.2232 43.394 56.9998V72.0623C43.394 72.839 42.7644 73.4686 41.9878 73.4686Z" fill="#FFD600"/>
<path d="M43.3938 72.0623V56.9998C43.3938 56.2232 42.7642 55.5935 41.9875 55.5935H37.8925C37.3039 53.8442 35.6483 52.5811 33.7031 52.5811V73.4686H41.9875C42.7642 73.4686 43.3938 72.839 43.3938 72.0623Z" fill="#F3C76F"/>
<path d="M38.9748 35.8125H28.4312C27.6545 35.8125 27.0249 35.1829 27.0249 34.4062C27.0249 33.6296 27.6545 33 28.4312 33H38.9749C39.7516 33 40.3812 33.6296 40.3812 34.4062C40.3812 35.1829 39.7516 35.8125 38.9748 35.8125Z" fill="#C0C0C0"/>
<path d="M35.9626 65.9375H31.4438C30.6672 65.9375 30.0376 65.3079 30.0376 64.5312C30.0376 63.7546 30.6672 63.125 31.4438 63.125H35.9626C36.7392 63.125 37.3689 63.7546 37.3689 64.5312C37.3689 65.3079 36.7392 65.9375 35.9626 65.9375Z" fill="#FFC900"/>
<path d="M40.3812 34.4062C40.3812 33.6296 39.7516 33 38.975 33H33.7031V35.8125H38.975C39.7517 35.8125 40.3812 35.1829 40.3812 34.4062Z" fill="#C6C9C3"/>
<path d="M37.3688 64.5312C37.3688 63.7546 36.7391 63.125 35.9625 63.125H33.7031V65.9375H35.9625C36.7391 65.9375 37.3688 65.308 37.3688 64.5312Z" fill="#FB8B00"/>
<path d="M64.5815 81H48.0127C47.2361 81 46.6064 80.3703 46.6064 79.5937V72.0625C46.6064 71.2859 47.2361 70.6562 48.0127 70.6562H64.5814C65.358 70.6562 65.9877 71.2859 65.9877 72.0625V79.5937C65.9877 80.3703 65.3581 81 64.5815 81Z" fill="#BABABA"/>
<path d="M65.9875 79.5937V72.0625C65.9875 71.2859 65.3579 70.6562 64.5813 70.6562H56.2969V81H64.5813C65.3579 81 65.9875 80.3703 65.9875 79.5937Z" fill="#ABABAB"/>
<path d="M64.5815 58.4062H48.0127C47.2361 58.4062 46.6064 57.7766 46.6064 57V54.1698C46.6064 51.7341 47.5551 49.4438 49.2778 47.7213C50.4691 46.5299 51.1253 44.946 51.1253 43.2615V35.8125C51.1253 35.0359 51.7549 34.4062 52.5315 34.4062H60.0628C60.8394 34.4062 61.469 35.0359 61.469 35.8125V43.2615C61.469 44.946 62.1252 46.5298 63.3165 47.7213C65.0392 49.4438 65.9879 51.734 65.9879 54.1698V57C65.9878 57.7766 65.3581 58.4062 64.5815 58.4062Z" fill="#BABABA"/>
<path d="M65.9875 57V54.1698C65.9875 51.7341 65.0389 49.4438 63.3162 47.7213C62.1248 46.5299 61.4687 44.946 61.4687 43.2615V35.8125C61.4687 35.0359 60.8391 34.4062 60.0624 34.4062H56.2969V58.4062H64.5813C65.3579 58.4062 65.9875 57.7766 65.9875 57Z" fill="#ABABAB"/>
<path d="M64.5815 73.4686H48.0127C47.2361 73.4686 46.6064 72.839 46.6064 72.0623V56.9998C46.6064 56.2232 47.2361 55.5935 48.0127 55.5935H52.1077C52.6964 53.8442 54.3519 52.5811 56.2971 52.5811C58.2423 52.5811 59.8979 53.8442 60.4865 55.5935H64.5815C65.3581 55.5935 65.9878 56.2232 65.9878 56.9998V72.0623C65.9878 72.839 65.3581 73.4686 64.5815 73.4686Z" fill="#FFD600"/>
<path d="M65.9875 72.0623V56.9998C65.9875 56.2232 65.3579 55.5935 64.5813 55.5935H60.4863C59.8976 53.8442 58.2421 52.5811 56.2969 52.5811V73.4686H64.5813C65.3579 73.4686 65.9875 72.839 65.9875 72.0623Z" fill="#F3C76F"/>
<path d="M61.5686 35.8125H51.0249C50.2483 35.8125 49.6187 35.1829 49.6187 34.4062C49.6187 33.6296 50.2483 33 51.0249 33H61.5687C62.3453 33 62.9749 33.6296 62.9749 34.4062C62.9749 35.1829 62.3453 35.8125 61.5686 35.8125Z" fill="#C0C0C0"/>
<path d="M58.5564 65.9375H54.0376C53.261 65.9375 52.6313 65.3079 52.6313 64.5312C52.6313 63.7546 53.261 63.125 54.0376 63.125H58.5564C59.333 63.125 59.9626 63.7546 59.9626 64.5312C59.9626 65.3079 59.333 65.9375 58.5564 65.9375Z" fill="#FFC900"/>
<path d="M62.975 34.4062C62.975 33.6296 62.3453 33 61.5687 33H56.2969V35.8125H61.5687C62.3454 35.8125 62.975 35.1829 62.975 34.4062Z" fill="#C6C9C3"/>
<path d="M59.9625 64.5312C59.9625 63.7546 59.3329 63.125 58.5563 63.125H56.2969V65.9375H58.5563C59.3329 65.9375 59.9625 65.308 59.9625 64.5312Z" fill="#FB8B00"/>
</g>
<defs>
<clipPath id="clip0_5397:10576">
<rect width="168" height="168" fill="white" transform="translate(10 10)"/>
</clipPath>
</defs>
</svg>
