<svg width="188" height="188" viewBox="0 0 188 188" fill="none" xmlns="http://www.w3.org/2000/svg">
<circle cx="94" cy="94" r="94" fill="#F3C76F"/>
<path d="M38.6865 103.379L64.7712 105.642L67.9204 105.938L100.206 88.0234C101.977 84.1846 103.258 81.5275 103.355 81.1328C104.537 78.7705 103.454 75.8187 100.993 74.6369L83.1769 66.2697L65.2621 58.0025C62.8998 56.8208 59.9467 57.9038 58.7662 60.3648C58.1754 61.6439 42.4266 95.5049 38.6865 103.379Z" fill="#E2E2E7"/>
<path d="M83.1771 66.2695L64.77 105.643L67.9193 105.938L100.206 88.0232C101.978 84.1844 103.257 81.5273 103.355 81.1339C104.537 78.7716 103.454 75.8185 100.993 74.6367L83.1771 66.2695Z" fill="#D3D3D8"/>
<path d="M33.1745 173.364C35.7342 174.545 38.5886 173.463 39.7691 171.002L56.4048 135.271C57.5852 132.81 56.5022 129.955 54.0412 128.775C51.5816 127.593 48.6284 128.676 47.4467 131.137L30.8123 166.868C29.7292 169.329 30.7136 172.182 33.1745 173.364Z" fill="#D3D3D8"/>
<path d="M33.1738 173.364C35.7335 174.544 38.5879 173.463 39.7684 171.002L56.404 135.271C57.5845 132.81 56.5015 129.955 54.0405 128.775L33.1738 173.364Z" fill="#BABAC0"/>
<path d="M24.3139 169.23L33.1733 173.364L42.1301 177.498C44.591 178.679 47.5441 177.596 48.7259 175.135C49.8077 172.674 48.7259 169.721 46.265 168.638L37.3069 164.406L28.4488 160.272C25.9879 159.189 23.0347 160.174 21.9517 162.634C20.7712 165.095 21.853 168.049 24.3139 169.23Z" fill="#E2E2E7"/>
<path d="M35.7336 114.305C35.2414 123.952 40.5568 133.205 49.8083 137.732H49.907C62.113 143.441 76.7787 138.125 82.5862 125.822C82.8823 125.034 98.6311 91.2726 100.206 88.0234L69.3972 95.701L38.6854 103.379C38.2919 104.167 38.0958 104.757 37.9971 104.954C36.5206 108.006 35.831 111.155 35.7336 114.305Z" fill="#FF4B00"/>
<path d="M69.3969 95.701L49.8081 137.732H49.9068C62.1128 143.441 76.7784 138.125 82.586 125.822C82.8821 125.034 98.6308 91.2726 100.206 88.0234L69.3969 95.701Z" fill="#D03B00"/>
<path d="M33.1738 173.364L42.1306 177.499C44.5916 178.679 47.5447 177.596 48.7264 175.135C49.8082 172.674 48.7264 169.721 46.2655 168.64L37.3074 164.407L33.1738 173.364Z" fill="#E2E2E7"/>
<path d="M178 15.0206C178 15.6102 177.902 16.2997 177.607 16.988L161.463 47.3716C160.519 49.0738 158.937 49.9569 157.33 50.0223C157.264 50.0287 157.199 50.0287 157.132 50.0287C155.361 50.0287 153.262 49.143 152.376 47.3716L135.675 10H173.078C175.933 10 178 12.3622 178 15.0206Z" fill="#474032"/>
<path d="M135.674 10L119.301 47.3716C118.439 49.1007 116.733 49.9825 115.004 50.0261C114.961 50.0287 114.915 50.0287 114.872 50.0287C113.199 50.0287 111.525 49.143 110.541 47.3716L94.0049 10H135.674Z" fill="#665F55"/>
<path d="M94.0052 10L77.4683 47.3716C76.5236 49.0738 74.942 49.9569 73.3347 50.0223C73.268 50.0287 73.2026 50.0287 73.1373 50.0287C71.3659 50.0287 69.5933 49.143 68.7076 47.3716L52.0078 10H94.0052Z" fill="#474032"/>
<path d="M52.0083 10L35.6353 47.3716C34.7727 49.1007 33.0667 49.9825 31.3364 50.0261C31.2941 50.0287 31.248 50.0287 31.2057 50.0287C29.533 50.0287 27.859 49.143 26.8747 47.3716L10.4492 16.9432C8.98288 13.685 11.3656 10 14.9378 10H52.0083Z" fill="#665F55"/>
<path d="M135.674 10L119.302 47.3716C118.439 49.1007 116.733 49.9825 115.004 50.0261V10H135.674Z" fill="#665F55"/>
<path d="M178 15.0206C178 15.6102 177.901 16.2997 177.606 16.988L161.463 47.3716C160.518 49.0738 158.936 49.9569 157.329 50.0223V10H173.078C175.932 10 178 12.3622 178 15.0206Z" fill="#474032"/>
<path d="M178 74.6369C178 77.3926 175.835 79.5588 173.078 79.5588H168.156V84.4807C168.156 87.2364 165.991 89.4012 163.235 89.4012C160.478 89.4012 158.313 87.2364 158.313 84.4807V79.5588H153.063C150.308 79.5588 148.142 77.3926 148.142 74.6369C148.142 71.8812 150.308 69.715 153.063 69.715H158.313V64.7944C158.313 62.0374 160.478 59.8726 163.235 59.8726C165.991 59.8726 168.156 62.0374 168.156 64.7944V69.715H173.078C175.835 69.715 178 71.8812 178 74.6369Z" fill="#BABABA"/>
<path d="M19.8438 133.697C19.8438 136.414 17.6392 138.617 14.9219 138.617C12.2033 138.617 10 136.414 10 133.697C10 130.978 12.2033 128.775 14.9219 128.775C17.6392 128.775 19.8438 130.978 19.8438 133.697Z" fill="#BABABA"/>
<path d="M177.991 104.167C177.991 106.884 175.787 109.089 173.069 109.089C170.351 109.089 168.147 106.884 168.147 104.167C168.147 101.448 170.351 99.2451 173.069 99.2451C175.787 99.2451 177.991 101.448 177.991 104.167Z" fill="#ABABAB"/>
<path d="M52.0078 10L35.6349 47.3716C34.7723 49.1007 33.0663 49.9825 31.3359 50.0261V10H52.0078Z" fill="#665F55"/>
<path d="M94.0051 10L77.4681 47.3716C76.5234 49.0738 74.9418 49.9569 73.3345 50.0223V10H94.0051Z" fill="#474032"/>
<path d="M178 74.6369C178 77.3926 175.835 79.5588 173.078 79.5588H168.156V84.4807C168.156 87.2364 165.991 89.4012 163.235 89.4012V59.8726C165.991 59.8726 168.156 62.0374 168.156 64.7944V69.715H173.078C175.835 69.715 178 71.8812 178 74.6369Z" fill="#ABABAB"/>
<path d="M39.8669 84.4805C39.8669 87.2362 37.702 89.4011 34.945 89.4011H30.0244V94.3229C30.0244 97.0787 27.8583 99.2448 25.1025 99.2448C22.3455 99.2448 20.1807 97.0787 20.1807 94.3229V89.4011H14.9307C12.1749 89.4011 10.0088 87.2362 10.0088 84.4805C10.0088 81.7234 12.1749 79.5586 14.9307 79.5586H20.1807V74.6367C20.1807 71.881 22.3455 69.7148 25.1025 69.7148C27.8583 69.7148 30.0244 71.881 30.0244 74.6367V79.5586H34.945C37.702 79.5586 39.8669 81.7234 39.8669 84.4805Z" fill="#BABABA"/>
<path d="M39.8669 84.4805C39.8669 87.2362 37.702 89.4011 34.945 89.4011H30.0244V94.3229C30.0244 97.0787 27.8583 99.2448 25.1025 99.2448V69.7148C27.8583 69.7148 30.0244 71.881 30.0244 74.6367V79.5586H34.945C37.702 79.5586 39.8669 81.7234 39.8669 84.4805Z" fill="#ABABAB"/>
<path d="M150.603 103.379L124.518 105.642L121.369 105.938L89.0834 88.0234C87.312 84.1846 86.0316 81.5275 85.9329 81.1328C84.7524 78.7705 85.8355 75.8187 88.2964 74.6369L106.113 66.2697L124.026 58.0025C126.388 56.8208 129.343 57.9038 130.523 60.3648C131.114 61.6439 146.863 95.5049 150.603 103.379Z" fill="#ECECF1"/>
<path d="M124.518 105.643L150.603 103.379C146.863 95.5049 131.114 61.6439 130.523 60.3648C129.343 57.9038 126.388 56.8208 124.026 58.0025L106.112 66.2697L124.496 105.645L124.518 105.643Z" fill="#E2E2E7"/>
<path d="M156.115 173.364C153.556 174.545 150.701 173.463 149.521 171.002L132.885 135.271C131.705 132.81 132.787 129.955 135.248 128.775C137.708 127.593 140.662 128.676 141.842 131.137L158.478 166.868C159.56 169.329 158.576 172.182 156.115 173.364Z" fill="#D3D3D8"/>
<path d="M158.478 166.868L141.842 131.137C140.668 128.689 137.74 127.607 135.287 128.758L156.115 173.364C158.576 172.182 159.559 169.329 158.478 166.868Z" fill="#BABAC0"/>
<path d="M164.974 169.23L156.116 173.364L147.157 177.498C144.697 178.679 141.743 177.596 140.563 175.135C139.48 172.674 140.563 169.721 143.024 168.638L151.981 164.406L160.84 160.272C163.301 159.189 166.254 160.174 167.336 162.634C168.518 165.095 167.435 168.049 164.974 169.23Z" fill="#ECECF1"/>
<path d="M167.336 162.635C166.254 160.175 163.301 159.189 160.84 160.273L151.981 164.407L151.942 164.425L156.116 173.364L164.975 169.231C167.435 168.049 168.518 165.096 167.336 162.635Z" fill="#E2E2E7"/>
<path d="M153.556 114.305C154.048 123.952 148.733 133.205 139.48 137.732H139.381C127.176 143.441 112.509 138.125 106.702 125.822C106.407 125.034 90.657 91.2726 89.083 88.0234L119.892 95.701L150.603 103.379C150.996 104.167 151.193 104.757 151.292 104.954C152.767 108.006 153.457 111.155 153.556 114.305Z" fill="#FF7816"/>
<path d="M108.769 153.383C108.769 156.139 106.604 158.303 103.847 158.303H98.9255V163.225C98.9255 165.981 96.7606 168.147 94.0049 168.147C91.2479 168.147 89.083 165.981 89.083 163.225V158.303H84.1611C81.4054 158.303 79.2393 156.139 79.2393 153.383C79.2393 150.626 81.4054 148.461 84.1611 148.461H89.083V143.539C89.083 140.783 91.2479 138.617 94.0049 138.617C96.7606 138.617 98.9255 140.783 98.9255 143.539V148.461H103.847C106.604 148.461 108.769 150.626 108.769 153.383Z" fill="#BABABA"/>
<path d="M108.769 153.383C108.769 156.139 106.604 158.303 103.847 158.303H98.9255V163.225C98.9255 165.981 96.7606 168.147 94.0049 168.147V138.617C96.7606 138.617 98.9255 140.783 98.9255 143.539V148.461H103.847C106.604 148.461 108.769 150.626 108.769 153.383Z" fill="#ABABAB"/>
<path d="M151.292 104.954C151.194 104.757 150.996 104.167 150.603 103.378L119.892 95.702L119.849 95.6904L139.478 137.731H139.48C148.733 133.204 154.048 123.951 153.556 114.305C153.457 111.155 152.768 108.005 151.292 104.954Z" fill="#FF4B00"/>
</svg>
