<svg width="188" height="202" viewBox="0 0 188 202" fill="none" xmlns="http://www.w3.org/2000/svg">
<circle cx="94" cy="94" r="94" fill="#F3C76F"/>
<g clip-path="url(#clip0_5397:10711)">
<path d="M183.279 179.473C191.01 160.819 182.157 139.43 163.503 131.698C144.85 123.966 123.46 132.819 115.728 151.473C107.996 170.126 116.85 191.516 135.504 199.248C154.157 206.98 175.547 198.126 183.279 179.473Z" fill="#BABABA"/>
<path d="M149.445 128.894C169.601 128.894 185.998 145.292 185.998 165.447C185.998 185.603 169.601 202 149.445 202V128.894Z" fill="#ABABAB"/>
<path d="M160.382 169.422L156.406 165.447L160.382 161.472C162.304 159.55 162.304 156.434 160.382 154.511C158.459 152.589 155.343 152.589 153.421 154.511L149.446 158.487L145.47 154.511C143.548 152.589 140.432 152.589 138.51 154.511C136.588 156.434 136.588 159.55 138.51 161.472L142.485 165.447L138.51 169.422C136.588 171.345 136.588 174.461 138.51 176.383C140.432 178.305 143.548 178.305 145.47 176.383L149.446 172.408L153.421 176.383C155.343 178.305 158.459 178.305 160.382 176.383C162.304 174.461 162.304 171.345 160.382 169.422Z" fill="white"/>
<path d="M149.445 172.408L153.421 176.383C155.343 178.305 158.459 178.305 160.381 176.383C162.303 174.461 162.303 171.345 160.381 169.422L156.406 165.447L160.381 161.472C162.303 159.55 162.303 156.434 160.381 154.511C158.459 152.589 155.343 152.589 153.421 154.511L149.445 158.487V172.408Z" fill="#F3F3F3"/>
<path d="M52.8557 93.9403C46.7525 100.043 46.7525 109.938 52.8557 116.041C58.9588 122.145 68.8537 122.145 74.9568 116.041C85.5763 105.422 102.794 105.422 113.413 116.041C119.516 122.145 129.411 122.145 135.514 116.041C141.617 109.938 141.617 100.043 135.514 93.9403C112.689 71.115 75.681 71.115 52.8557 93.9403V93.9403Z" fill="#665F55"/>
<path d="M165.792 63.6609C126.244 24.113 62.1246 24.113 22.5764 63.6609C16.4732 69.7641 16.4732 79.659 22.5764 85.7621C28.6795 91.8652 38.5744 91.8652 44.6775 85.7621C72.0195 58.4201 116.35 58.4201 143.691 85.7621C149.794 91.8652 159.689 91.8652 165.792 85.7621C171.895 79.659 171.895 69.7641 165.792 63.6609V63.6609Z" fill="#665F55"/>
<path d="M105.214 146.316C111.316 140.213 111.316 130.32 105.214 124.218C99.1121 118.115 89.2185 118.115 83.1163 124.218C77.0142 130.32 77.0142 140.213 83.1163 146.316C89.2185 152.418 99.1121 152.418 105.214 146.316Z" fill="#665F55"/>
<path d="M135.516 116.041C141.619 109.938 141.619 100.043 135.516 93.9396C124.103 82.5267 109.145 76.8203 94.1865 76.8203V108.076C101.146 108.076 108.105 110.731 113.415 116.04C119.518 122.144 129.413 122.144 135.516 116.041Z" fill="#474032"/>
<path d="M165.794 85.762C171.897 79.6589 171.897 69.764 165.794 63.6609C146.02 43.8871 120.103 34 94.1865 34V65.2555C112.104 65.2555 130.022 72.091 143.693 85.762C149.797 91.8652 159.691 91.8652 165.794 85.762Z" fill="#474032"/>
<path d="M109.814 135.269C109.814 126.638 102.818 119.641 94.1865 119.641V150.897C102.818 150.897 109.815 143.9 109.814 135.269Z" fill="#474032"/>
</g>
<defs>
<clipPath id="clip0_5397:10711">
<rect width="168" height="168" fill="white" transform="translate(18 34)"/>
</clipPath>
</defs>
</svg>
