<svg width="188" height="188" viewBox="0 0 188 188" fill="none" xmlns="http://www.w3.org/2000/svg">
<circle cx="94" cy="94" r="94" fill="#F3C76F"/>
<g clip-path="url(#clip0_5405:10316)">
<path d="M153.766 178H34.2342C25.2911 178 18.0156 170.724 18.0156 161.781V14.9219C18.0156 12.2037 20.2193 10 22.9375 10H132.625C135.343 10 137.547 12.2037 137.547 14.9219V32.5937C137.547 35.3119 153.766 178 153.766 178Z" fill="#665F55"/>
<path d="M132.624 10H79.4209V178H153.765C153.765 178 137.546 35.3119 137.546 32.5937V14.9219C137.546 12.2037 135.343 10 132.624 10V10Z" fill="#474032"/>
<path d="M153.453 177.997C144.574 177.828 137.548 170.39 137.548 161.509V32.5938H165.063C167.782 32.5938 169.985 34.7974 169.985 37.5156V161.781C169.985 170.829 162.539 178.169 153.453 177.997Z" fill="#966857"/>
<path d="M113.312 65.0312H45.5312C42.8131 65.0312 40.6094 62.8275 40.6094 60.1093V37.5156C40.6094 34.7974 42.8131 32.5938 45.5312 32.5938H113.312C116.031 32.5938 118.234 34.7974 118.234 37.5156V60.1093C118.234 62.8279 116.031 65.0312 113.312 65.0312Z" fill="#BABABA"/>
<path d="M113.312 32.5938H79.4209V65.0312H113.312C116.03 65.0312 118.233 62.8275 118.233 60.1093V37.5156C118.233 34.7974 116.03 32.5938 113.312 32.5938Z" fill="#ABABAB"/>
<path d="M68.125 155.406H45.5313C42.8131 155.406 40.6094 153.203 40.6094 150.484V127.891C40.6094 125.172 42.8131 122.969 45.5313 122.969H68.125C70.8431 122.969 73.0468 125.172 73.0468 127.891V150.484C73.0468 153.203 70.8431 155.406 68.125 155.406Z" fill="#BABABA"/>
<path d="M68.125 110.219H45.5313C42.8131 110.219 40.6094 108.015 40.6094 105.297V82.7031C40.6094 79.9849 42.8131 77.7812 45.5313 77.7812H68.125C70.8431 77.7812 73.0468 79.9849 73.0468 82.7031V105.297C73.0468 108.015 70.8431 110.219 68.125 110.219Z" fill="#BABABA"/>
<path d="M113.312 87.625H90.7188C88.0006 87.625 85.7969 85.4213 85.7969 82.7031C85.7969 79.9849 88.0006 77.7812 90.7188 77.7812H113.312C116.031 77.7812 118.234 79.9849 118.234 82.7031C118.234 85.4213 116.031 87.625 113.312 87.625Z" fill="#ABABAB"/>
<path d="M113.312 110.219H90.7188C88.0006 110.219 85.7969 108.015 85.7969 105.297C85.7969 102.579 88.0006 100.375 90.7188 100.375H113.312C116.031 100.375 118.234 102.579 118.234 105.297C118.234 108.015 116.031 110.219 113.312 110.219Z" fill="#ABABAB"/>
<path d="M113.312 132.812H90.7188C88.0006 132.812 85.7969 130.609 85.7969 127.891C85.7969 125.172 88.0006 122.969 90.7188 122.969H113.312C116.031 122.969 118.234 125.172 118.234 127.891C118.234 130.609 116.031 132.812 113.312 132.812Z" fill="#ABABAB"/>
<path d="M113.312 155.406H90.7188C88.0006 155.406 85.7969 153.203 85.7969 150.484C85.7969 147.766 88.0006 145.562 90.7188 145.562H113.312C116.031 145.562 118.234 147.766 118.234 150.484C118.234 153.203 116.031 155.406 113.312 155.406Z" fill="#ABABAB"/>
</g>
<defs>
<clipPath id="clip0_5405:10316">
<rect width="168" height="168" fill="white" transform="translate(10 10)"/>
</clipPath>
</defs>
</svg>
