<svg width="188" height="188" viewBox="0 0 188 188" fill="none" xmlns="http://www.w3.org/2000/svg">
<circle cx="94" cy="94" r="94" fill="#F3C76F"/>
<path d="M94 96.1094C113.934 96.1094 130.094 79.9497 130.094 60.0156C130.094 40.0816 113.934 23.9219 94 23.9219C74.066 23.9219 57.9062 40.0816 57.9062 60.0156C57.9062 79.9497 74.066 96.1094 94 96.1094Z" fill="#F2F1F0"/>
<path d="M130.094 60.0156C130.094 40.0817 113.934 23.9219 94 23.9219V96.1094C113.934 96.1094 130.094 79.9495 130.094 60.0156Z" fill="#E3E1E4"/>
<path d="M94 101.031C71.384 101.031 52.9844 82.6316 52.9844 60.0156C52.9844 37.3996 71.384 19 94 19C116.616 19 135.016 37.3996 135.016 60.0156C135.016 82.6316 116.616 101.031 94 101.031ZM94 28.8438C76.8118 28.8438 62.8281 42.8275 62.8281 60.0156C62.8281 77.2038 76.8118 91.1875 94 91.1875C111.188 91.1875 125.172 77.2038 125.172 60.0156C125.172 42.8275 111.188 28.8438 94 28.8438Z" fill="#665F55"/>
<path d="M125.172 60.0156C125.172 77.2038 111.188 91.1875 94 91.1875V101.031C116.616 101.031 135.016 82.6316 135.016 60.0156C135.016 37.3996 116.616 19 94 19V28.8438C111.188 28.8438 125.172 42.8275 125.172 60.0156Z" fill="#474032"/>
<path d="M110.406 64.9375H94C91.2818 64.9375 89.0781 62.7338 89.0781 60.0156V43.6094C89.0781 40.8912 91.2818 38.6875 94 38.6875C96.7182 38.6875 98.9219 40.8912 98.9219 43.6094V55.0938H110.406C113.124 55.0938 115.328 57.2974 115.328 60.0156C115.328 62.7338 113.124 64.9375 110.406 64.9375Z" fill="#E8C98C"/>
<path d="M110.406 64.9375C113.124 64.9375 115.328 62.7338 115.328 60.0156C115.328 57.2974 113.124 55.0938 110.406 55.0938H98.9219V43.6094C98.9219 40.8912 96.7182 38.6875 94 38.6875V64.9375H110.406Z" fill="#DEB463"/>
<path d="M80.687 122.14L59.875 95.6522C57.5023 92.6321 53.9395 90.8465 50.0998 90.7523C46.2565 90.6617 42.6143 92.2682 40.0966 95.1685C37.6265 98.014 36.609 101.701 37.0677 105.24C35.4684 102.979 34.6094 100.276 34.6094 97.5061V51.8793C34.6094 45.16 29.3187 39.5061 22.601 39.3472C15.6812 39.1838 10 44.7652 10 51.6487V109.891C10 110.449 10.0948 111.003 10.2805 111.529L29.6875 166.515V182.078C29.6875 184.797 31.8912 187 34.6094 187H83.8281C86.5463 187 88.75 184.797 88.75 182.078V145.453C88.75 137.037 85.8865 128.758 80.687 122.14Z" fill="#FEDCCD"/>
<path d="M37.0679 105.241C35.4686 102.979 34.6095 100.277 34.6095 97.5063V86.7412C33.9264 87.3574 33.2734 88.0127 32.6631 88.7159C25.549 96.9114 25.2521 109.053 31.957 117.588L53.8659 145.472C55.4238 147.455 58.2283 147.939 60.3611 146.594C62.8303 145.037 63.4097 141.685 61.606 139.39L39.6971 111.506C38.2314 109.64 37.3569 107.47 37.0679 105.241Z" fill="#FFCDBE"/>
<path d="M99.25 145.453V182.078C99.25 184.796 101.454 187 104.172 187H153.391C156.109 187 158.312 184.796 158.312 182.078V166.515L177.719 111.529C177.905 111.003 178 110.449 178 109.891V51.6483C178 44.7649 172.319 39.1835 165.399 39.3473C158.681 39.5061 153.391 45.1597 153.391 51.879V97.5058C153.391 100.276 152.532 102.978 150.932 105.24C151.391 101.7 150.374 98.0137 147.903 95.1682C145.386 92.2679 141.744 90.6614 137.9 90.752C134.061 90.8458 130.498 92.6318 128.125 95.6519L107.313 122.14C102.114 128.758 99.25 137.037 99.25 145.453Z" fill="#FFD5C9"/>
<path d="M150.932 105.24C152.532 102.978 153.391 100.276 153.391 97.5058V86.7407C154.074 87.3569 154.727 88.0122 155.337 88.7154C162.451 96.911 162.748 109.053 156.043 117.587L134.134 145.471C132.576 147.454 129.772 147.939 127.639 146.594C125.17 145.037 124.59 141.685 126.394 139.389L148.303 111.506C149.769 109.64 150.643 107.469 150.932 105.24Z" fill="#F6BBA6"/>
</svg>
