<svg width="188" height="188" viewBox="0 0 188 188" fill="none" xmlns="http://www.w3.org/2000/svg">
<circle cx="94" cy="94" r="94" fill="#F3C76F"/>
<g clip-path="url(#clip0_5666:13172)">
<path d="M174.002 30.1748H15.991C13.2729 30.1748 11.0693 32.3784 11.0693 35.0964C11.0693 37.8145 13.2729 40.0181 15.991 40.0181H27.8206V56.2424L32.7422 66.0857C35.4603 66.0857 37.6639 63.8821 37.6639 61.164V40.0181H152.329V61.164C152.329 63.8821 154.533 66.0857 157.251 66.0857L162.172 56.2424V40.0181H174.002C176.72 40.0181 178.924 37.8145 178.924 35.0964C178.924 32.3784 176.72 30.1748 174.002 30.1748V30.1748Z" fill="#F2F1F0"/>
<path d="M174.001 30.1748H95.3984V40.0181H152.328V61.164C152.328 63.8821 154.532 66.0857 157.25 66.0857L162.172 56.2424V40.0181H174.001C176.719 40.0181 178.923 37.8145 178.923 35.0964C178.923 32.3784 176.719 30.1748 174.001 30.1748V30.1748Z" fill="#E3E1E4"/>
<path d="M178.992 77.7874C178.992 75.0608 176.79 72.8502 174.073 72.8489C167.514 72.8456 162.172 62.564 162.172 56H27.8202C27.8202 62.5673 22.4865 72.8492 15.9216 72.8492C14.6161 72.8492 13.364 73.3698 12.4411 74.2963C11.5181 75.2228 10.9997 76.4792 11 77.7893L11.0187 154.181C11.0194 156.908 13.2226 159.119 15.9403 159.119C22.4848 159.119 27.8091 164.476 27.8091 171.061C27.8091 173.789 30.0287 176 32.7468 176H157.256C159.974 176 162.177 173.789 162.177 171.061C162.177 164.494 167.516 159.151 174.078 159.151C175.384 159.151 176.636 158.63 177.559 157.704C178.482 156.778 179 155.521 179 154.212L178.992 77.7874Z" fill="#665F55"/>
<path d="M174.049 72.8489C167.458 72.8456 162.091 62.564 162.091 56H95V176H157.152C159.883 176 162.097 173.789 162.097 171.061C162.097 164.494 167.461 159.151 174.055 159.151C175.367 159.151 176.624 158.63 177.552 157.704C178.479 156.778 179 155.521 179 154.212L178.992 77.7874C178.991 75.0608 176.779 72.8502 174.049 72.8489V72.8489Z" fill="#474032"/>
<g clip-path="url(#clip1_5666:13172)">
<path d="M61.7791 96.2881C59.3936 96.8003 57.008 97.3142 54.624 97.8298C51.9346 98.3387 49.4181 99.6841 48.0088 102.184C51.9702 101.735 55.9348 101.282 59.8962 100.833C60.4263 99.2683 61.0567 97.7499 61.7791 96.2881Z" fill="#F0EFEE"/>
<path d="M67.5334 137.26C60.3767 137.414 53.22 137.554 46.0665 137.665C45.8322 137.679 45.5946 137.682 45.357 137.682C43.0329 137.665 40.6473 136.959 39.3301 134.821C39.9055 134.755 40.4825 134.693 41.0578 134.627C48.3551 133.807 55.6541 132.989 62.9514 132.169C63.1663 132.146 63.3813 132.119 63.5962 132.096C64.4625 133.473 65.4193 134.788 66.457 136.031L66.4634 136.037C66.8109 136.453 67.1665 136.86 67.5334 137.26Z" fill="#F0EFEE"/>
<path d="M122.225 93.7569C119.088 94.1112 115.951 94.4637 112.816 94.8213C108.559 90.2528 102.677 87.236 96.1103 86.7071C95.4234 86.6506 94.7301 86.6206 94.0302 86.6206C85.3995 86.6206 77.7434 90.9147 73.0644 97.4939C72.6086 98.1308 72.1819 98.7927 71.7859 99.4696C68.6618 99.8239 65.5376 100.18 62.4102 100.537C63.6175 97.2926 65.3032 94.2808 67.3736 91.5916C72.8187 84.5252 80.9452 79.6723 90.1852 78.6079C91.4475 78.4632 92.7275 78.3867 94.0286 78.3867C105.793 78.3851 116.173 84.5002 122.225 93.7569Z" fill="#F0EFEE"/>
<path d="M58.5231 108.971C58.0479 108.552 57.458 108.379 56.7533 108.459C54.6991 108.69 53.6744 108.806 51.6428 109.038C50.9494 109.117 50.3336 109.423 49.8132 109.959C49.2895 110.504 49.0099 111.131 48.9808 111.822C48.9097 113.402 48.8402 114.98 48.7691 116.556C48.6414 119.417 48.5121 122.279 48.3844 125.14C48.3553 125.833 48.5703 126.395 49.0358 126.824C49.5013 127.257 50.0702 127.436 50.7409 127.36C52.7127 127.139 53.7051 127.026 55.7076 126.801C56.3234 126.728 56.8761 126.463 57.361 126.018C57.4127 125.971 57.4644 125.921 57.5145 125.87C58.0479 125.324 58.3421 124.707 58.3873 124.017C58.6572 119.567 58.9271 115.116 59.197 110.667C59.2391 109.972 59.0144 109.407 58.5231 108.971ZM55.0078 123.422C55.0045 123.452 55.0045 123.482 55.0013 123.511C53.7067 123.656 53.065 123.729 51.785 123.876C51.8496 122.613 51.9127 121.351 51.9773 120.09C52.1082 117.501 52.2408 114.913 52.3717 112.327C53.6744 112.179 54.3306 112.103 55.6462 111.955C55.4344 115.776 55.2195 119.598 55.0078 123.422Z" fill="#F0EFEE"/>
<path d="M104.561 103.041C104.461 104.384 104.41 105.06 104.31 106.403C103.9 106.45 103.694 106.473 103.286 106.52C102.052 111.63 100.816 116.738 99.5779 121.845C98.4675 121.97 97.6739 122.06 96.8367 122.156C96.2015 122.229 95.5357 122.301 94.6887 122.397C94.6079 121.492 94.532 120.586 94.4544 119.681C94.1522 116.252 93.8564 112.823 93.5622 109.393C92.9675 111.898 92.3711 114.399 91.7779 116.902C91.3027 118.898 90.8276 120.894 90.3524 122.888C88.4097 123.106 87.4399 123.219 85.5069 123.437C85.0608 118.627 84.6115 113.816 84.1654 109.006C84.1557 108.9 84.146 108.795 84.1363 108.688L83.8858 108.718L83.1084 108.805C83.131 108.5 83.1537 108.229 83.173 107.978C83.2442 107.12 83.2926 106.481 83.3751 105.44C83.5545 105.417 83.645 105.407 83.8244 105.387C85.2919 105.222 86.0273 105.139 87.4949 104.971C87.9345 104.921 88.1527 104.898 88.5923 104.848C88.4856 106.192 88.4355 106.867 88.3256 108.211C88.0945 108.238 87.9781 108.251 87.747 108.278C87.844 109.848 87.9264 111.412 87.9975 112.982C88.101 115.229 88.1769 117.473 88.2545 119.718C88.6456 117.967 89.0384 116.215 89.4295 114.466C90.1714 111.146 90.9132 107.822 91.6583 104.502C93.5008 104.291 94.4221 104.188 96.2694 103.977C96.6185 108.883 96.9693 113.789 97.3264 118.695C98.0651 114.764 98.8102 110.835 99.6571 106.93C99.4259 106.957 99.3063 106.97 99.0752 106.997C99.1787 105.65 99.2288 104.978 99.3354 103.631C99.775 103.581 99.9965 103.558 100.436 103.508C101.907 103.34 102.642 103.257 104.11 103.092C104.291 103.07 104.381 103.06 104.561 103.041Z" fill="#F0EFEE"/>
<path d="M66.0568 125.631C67.3466 125.486 67.9947 125.413 69.2925 125.267C69.3911 123.906 69.4396 123.228 69.5382 121.869C69.5916 121.126 69.619 120.753 69.6724 120.01C68.3681 120.158 67.7183 120.231 66.4221 120.377C66.3704 121.121 66.3445 121.493 66.2928 122.237C65.635 122.311 65.3085 122.348 64.654 122.421C64.9158 118.55 65.1792 114.678 65.4411 110.806C65.7481 110.771 65.9033 110.753 66.2104 110.72C66.3025 109.376 66.3478 108.702 66.4399 107.36C66.1312 107.395 65.976 107.414 65.6673 107.448C64.2467 107.608 63.5388 107.69 62.1262 107.849L61.3375 107.939C61.2518 109.281 61.2098 109.953 61.1257 111.295C61.4393 111.26 61.596 111.242 61.9112 111.205C61.5912 116.206 61.2712 121.207 60.9512 126.208C62.9812 125.979 64.0026 125.864 66.0568 125.631Z" fill="#F0EFEE"/>
<path d="M45.7518 113.228C45.6047 117.03 45.456 120.837 45.3121 124.635C45.6112 124.602 45.7615 124.585 46.0637 124.552C46.0087 125.891 45.9829 126.558 45.9296 127.895C45.6305 127.931 45.4802 127.948 45.1845 127.981C43.8689 128.129 43.2127 128.202 41.9132 128.347C41.6401 128.377 41.5059 128.394 41.2328 128.424C41.2748 127.088 41.2942 126.421 41.333 125.084C41.6094 125.054 41.7435 125.038 42.0199 125.008L42.1476 120.898C40.9014 121.039 40.2824 121.109 39.0492 121.249C39.0104 122.89 38.9911 123.714 38.949 125.352C39.2254 125.322 39.3628 125.305 39.6392 125.275C39.6068 126.611 39.5874 127.278 39.5551 128.615C39.2787 128.645 39.1446 128.658 38.8715 128.691C37.593 128.833 36.9578 128.906 35.702 129.046C35.4159 129.079 35.2753 129.095 34.9893 129.129C35.0087 127.793 35.0151 127.126 35.0345 125.796C35.3206 125.763 35.4644 125.746 35.7537 125.713C35.8119 121.858 35.8717 118.003 35.9299 114.146C35.6341 114.179 35.4838 114.196 35.1881 114.229C35.2074 112.897 35.2139 112.23 35.2333 110.896C35.5323 110.863 35.6826 110.846 35.9816 110.813C37.3037 110.662 37.9696 110.589 39.3046 110.437C39.5939 110.404 39.7345 110.387 40.0206 110.354C39.985 111.69 39.9689 112.357 39.9333 113.694C39.6505 113.727 39.5099 113.74 39.2238 113.773C39.185 115.412 39.1656 116.228 39.1268 117.866C40.3697 117.725 40.9952 117.655 42.251 117.512C42.3027 115.874 42.3286 115.054 42.3787 113.416C42.0958 113.449 41.9552 113.466 41.6756 113.496C41.7144 112.16 41.7338 111.49 41.7726 110.156C42.0587 110.123 42.1993 110.106 42.4854 110.073C42.6098 110.06 42.7326 110.046 42.8474 110.033C43.9707 109.905 44.6446 109.832 45.8843 109.689C46.1962 109.652 46.3498 109.636 46.6585 109.599C46.6068 110.938 46.5777 111.608 46.5276 112.945C46.2189 112.979 46.0653 112.998 45.7566 113.032C45.755 113.1 45.7518 113.163 45.7518 113.228Z" fill="#F0EFEE"/>
<path d="M82.3367 105.558C82.2947 106.124 82.2559 106.569 82.2252 106.995C82.18 107.587 82.1347 108.141 82.0749 108.924C81.5868 108.977 81.346 109.007 80.8579 109.059C79.7249 112.072 78.5919 115.084 77.4606 118.098C77.37 119.274 77.3264 119.862 77.2359 121.035C77.5543 120.998 77.7111 120.982 78.0295 120.945L77.7693 124.308C75.7053 124.542 74.6774 124.659 72.6329 124.89C72.7331 123.546 72.7832 122.871 72.8834 121.527C73.1921 121.494 73.3456 121.474 73.6576 121.441C73.7448 120.271 73.7885 119.686 73.8757 118.517C73.1888 115.706 72.5019 112.894 71.8086 110.085C71.3269 110.138 71.0861 110.165 70.6045 110.22C70.7047 108.876 70.7483 108.201 70.8485 106.857C72.9092 106.626 73.9436 106.506 76.0173 106.272C75.9138 107.615 75.8637 108.291 75.7635 109.634C75.4904 109.664 75.353 109.681 75.0798 109.711C75.1122 109.965 75.1283 110.09 75.1607 110.344C75.4015 112.31 75.5211 113.295 75.757 115.261C75.7894 115.542 75.8055 115.683 75.8379 115.964C75.9154 115.67 75.951 115.525 76.027 115.231C76.57 113.175 76.8432 112.149 77.3878 110.09C77.4589 109.826 77.4945 109.694 77.564 109.43C77.2909 109.463 77.1567 109.476 76.8836 109.51C76.987 108.162 77.0371 107.491 77.1405 106.144C78.7131 105.966 79.6926 105.852 80.9872 105.708C81.3961 105.663 81.8357 105.615 82.3367 105.558Z" fill="#F0EFEE"/>
<path d="M142.477 118.981C135.476 119.78 128.469 120.579 121.463 121.375L98.5866 123.971C85.5614 125.445 72.5362 126.915 59.5109 128.382C51.6706 129.263 43.8302 130.146 35.9898 131.025C35.6456 131.064 35.3062 131.101 34.9619 131.141C35.4791 132.729 36.8109 133.669 38.3431 133.496C38.6679 133.459 38.988 133.423 39.3128 133.386C46.796 132.546 54.2775 131.705 61.7639 130.865C62.9293 130.734 64.0913 130.604 65.2566 130.472C71.2092 140.241 81.878 146.766 94.0272 146.766C101.536 146.766 108.481 144.274 114.096 140.058C118.828 136.514 122.62 131.746 125.006 126.22C125.374 125.362 125.712 124.485 126.014 123.591C131.996 122.91 137.981 122.23 143.964 121.545C145.758 121.34 147.55 121.136 149.345 120.931C151.008 120.74 152.478 119.461 152.97 117.78C149.474 118.181 145.978 118.581 142.477 118.981ZM108.378 134.128C104.274 136.907 99.3366 138.532 94.0289 138.532C86.2014 138.532 79.1805 134.999 74.4465 129.436C83.289 128.438 92.1282 127.437 100.966 126.436C106.261 125.837 111.554 125.237 116.848 124.635C114.851 128.462 111.925 131.73 108.378 134.128Z" fill="#F0EFEE"/>
<path d="M153.187 95.2735C150.541 95.5712 147.896 95.8722 145.25 96.1683C140.264 96.7304 135.278 97.2942 130.292 97.8563C124.185 98.5465 118.074 99.2367 111.968 99.9318L106.253 100.579L79.01 103.662L76.3901 103.96C64.5851 105.302 52.7817 106.636 40.98 107.978C39.0728 108.196 37.1689 108.41 35.2617 108.628C35.5607 107.77 36.0811 107.027 36.7293 106.478C37.3143 105.979 38.0045 105.638 38.7366 105.506C38.8174 105.493 38.8999 105.48 38.9839 105.47C51.521 104.046 64.0582 102.619 76.6002 101.197L76.6325 101.194L104.404 98.0459L112.164 97.1678C117.716 96.5408 123.266 95.9122 128.817 95.2852C133.944 94.7064 139.073 94.1327 144.199 93.5539C146.074 93.3427 147.949 93.1315 149.824 92.9203C151.39 92.739 152.754 93.7003 153.187 95.2735Z" fill="#F0EFEE"/>
</g>
<g clip-path="url(#clip2_5666:13172)">
<path d="M142.513 91.6334C137.858 92.1423 133.2 92.6546 128.545 93.1668C127.56 93.2732 126.579 93.3813 125.595 93.4911C124.563 91.8463 123.401 90.2897 122.122 88.8328C123.404 88.8195 124.687 88.8096 125.967 88.7996C129.366 88.7696 132.769 88.7464 136.168 88.7264C138.641 88.62 141.228 89.3401 142.513 91.6334Z" fill="#C8C6C1"/>
<path d="M149.319 122.545C148.78 123.406 148.08 124.118 147.28 124.695C145.539 125.968 143.325 126.644 141.265 127.04C136.967 127.877 132.672 128.708 128.374 129.538C127.802 129.648 127.228 129.759 126.656 129.869C126.937 129.36 127.205 128.845 127.46 128.322C128.018 127.183 128.517 126.006 128.953 124.803C134.701 124.166 140.447 123.528 146.194 122.891C147.234 122.776 148.278 122.661 149.319 122.545Z" fill="#C8C6C1"/>
<path d="M123.015 93.7569C119.787 94.1112 116.559 94.4637 113.332 94.8213C108.952 90.2528 102.9 87.236 96.1428 86.7071C95.436 86.6506 94.7225 86.6206 94.0024 86.6206C85.1215 86.6206 77.2435 90.9147 72.4289 97.4939C71.9599 98.1308 71.5208 98.7927 71.1134 99.4696C67.8986 99.8239 64.6839 100.18 61.4658 100.537C62.7081 97.2926 64.4427 94.2808 66.5732 91.5916C72.1761 84.5252 80.5381 79.6723 90.0459 78.6079C91.3448 78.4632 92.662 78.3867 94.0007 78.3867C106.106 78.3851 116.787 84.5002 123.015 93.7569Z" fill="#C8C6C1"/>
<path d="M151.278 104.078C151.298 102.969 151.307 102.41 151.324 101.295C150.35 101.405 149.729 101.473 148.939 101.56C148.655 101.59 148.347 101.623 147.998 101.663C147.968 102.819 147.955 103.398 147.928 104.55C147.908 105.33 148.464 105.656 149.58 105.535C149.924 105.498 150.25 105.481 150.567 105.491C151.602 105.521 152.48 105.809 153.217 106.335C154.238 107.068 154.75 108.132 154.737 109.523C154.723 111.026 154.713 111.783 154.7 113.286C154.697 113.749 154.572 114.178 154.328 114.572C154.21 114.766 154.063 114.954 153.889 115.134C153.366 115.669 152.743 115.987 152.019 116.065C149.902 116.3 148.838 116.42 146.697 116.657C145.964 116.741 145.34 116.564 144.818 116.142C144.299 115.716 144.051 115.157 144.071 114.467C144.118 112.99 144.138 112.254 144.185 110.78C145.631 110.622 146.355 110.542 147.788 110.384C147.762 111.5 147.748 112.059 147.722 113.18C149.089 113.029 149.774 112.952 151.131 112.804C151.148 111.648 151.161 111.073 151.181 109.92C151.194 109.134 150.639 108.801 149.513 108.926C148.043 109.087 146.817 108.826 145.849 108.139C144.815 107.406 144.319 106.341 144.362 104.948C144.409 103.438 144.432 102.681 144.479 101.171C144.499 100.481 144.777 99.8519 145.309 99.3114C145.834 98.7759 146.458 98.4716 147.165 98.3934C147.319 98.3768 147.469 98.3601 147.61 98.3468C149.392 98.1489 150.413 98.0358 152.302 97.8279C152.999 97.7514 153.591 97.9277 154.083 98.3468C154.589 98.7826 154.84 99.3447 154.833 100.032C154.82 101.498 154.813 102.232 154.797 103.695C153.395 103.847 152.691 103.921 151.278 104.078Z" fill="#C8C6C1"/>
<path d="M104.838 103.041C104.735 104.384 104.683 105.06 104.58 106.403C104.158 106.45 103.946 106.473 103.526 106.52C102.257 111.63 100.984 116.738 99.7105 121.845C98.568 121.97 97.7514 122.06 96.8899 122.156C96.2363 122.229 95.5511 122.301 94.6797 122.397C94.5965 121.492 94.5184 120.586 94.4385 119.681C94.1275 116.252 93.8232 112.823 93.5205 109.393C92.9085 111.898 92.2948 114.399 91.6845 116.902C91.1955 118.898 90.7066 120.894 90.2176 122.888C88.2186 123.106 87.2207 123.219 85.2317 123.437C84.7727 118.627 84.3103 113.816 83.8513 109.006C83.8414 108.9 83.8314 108.795 83.8214 108.688L83.5636 108.718L82.7637 108.805C82.787 108.5 82.8102 108.229 82.8302 107.978C82.9034 107.12 82.9533 106.481 83.0381 105.44C83.2227 105.417 83.3158 105.407 83.5004 105.387C85.0105 105.222 85.7672 105.139 87.2773 104.971C87.7296 104.921 87.9542 104.898 88.4065 104.848C88.2968 106.192 88.2452 106.867 88.1321 108.211C87.8943 108.238 87.7746 108.251 87.5367 108.278C87.6365 109.848 87.7213 111.412 87.7945 112.982C87.9009 115.229 87.9791 117.473 88.0589 119.718C88.4614 117.967 88.8655 116.215 89.268 114.466C90.0314 111.146 90.7947 107.822 91.5614 104.502C93.4573 104.291 94.4053 104.188 96.3062 103.977C96.6654 108.883 97.0263 113.789 97.3938 118.695C98.1539 114.764 98.9206 110.835 99.792 106.93C99.5542 106.957 99.4311 106.97 99.1933 106.997C99.2997 105.65 99.3513 104.978 99.4611 103.631C99.9134 103.581 100.141 103.558 100.594 103.508C102.107 103.34 102.864 103.257 104.374 103.092C104.56 103.07 104.653 103.06 104.838 103.041Z" fill="#C8C6C1"/>
<path d="M112.261 102.224C112.165 103.567 112.117 104.239 112.02 105.583C111.689 105.62 111.525 105.64 111.197 105.676C111.174 105.991 111.151 106.306 111.127 106.621C110.866 110.191 110.605 113.764 110.344 117.338C110.678 117.301 110.843 117.281 111.174 117.245C111.077 118.588 111.029 119.264 110.933 120.607C110.598 120.644 110.434 120.661 110.099 120.7C108.593 120.865 107.836 120.948 106.326 121.113C105.995 121.149 105.83 121.169 105.496 121.206C105.599 119.862 105.647 119.187 105.751 117.843C106.085 117.807 106.249 117.787 106.58 117.75C106.875 113.862 107.169 109.974 107.462 106.085C107.134 106.122 106.97 106.142 106.639 106.178C106.742 104.831 106.79 104.159 106.896 102.812C107.224 102.779 107.389 102.759 107.716 102.723C107.871 102.706 108.017 102.689 108.155 102.673C109.371 102.541 110.108 102.461 111.44 102.312C111.769 102.277 111.934 102.26 112.261 102.224Z" fill="#C8C6C1"/>
<path d="M128.766 100.435C128.69 101.777 128.653 102.447 128.578 103.787C128.267 103.824 128.113 103.841 127.798 103.874C127.514 108.873 127.008 113.867 126.724 118.867C124.652 119.094 123.612 119.211 121.53 119.442C120.747 115.614 119.977 111.783 119.217 107.952C119.032 110.772 118.848 113.598 118.661 116.422C119.002 116.385 119.174 116.365 119.515 116.329C119.481 116.844 119.455 117.263 119.428 117.657C119.388 118.288 119.352 118.86 119.297 119.686C118.956 119.726 118.785 119.743 118.44 119.783C116.934 119.948 116.18 120.031 114.673 120.199C114.352 120.235 114.191 120.252 113.87 120.285C113.967 118.943 114.011 118.269 114.108 116.926C114.426 116.889 114.587 116.872 114.908 116.839C115.018 115.253 115.126 113.671 115.239 112.088C115.473 108.665 115.711 105.243 115.949 101.82C118.008 101.595 119.034 101.479 121.083 101.254C121.833 105.106 122.596 108.955 123.37 112.805C123.544 109.964 123.717 107.122 123.892 104.281C123.554 104.318 123.386 104.338 123.049 104.374C123.132 103.032 123.173 102.359 123.257 101.018C123.591 100.982 123.759 100.962 124.093 100.925C125.563 100.764 126.521 100.684 127.985 100.523C128.297 100.488 128.455 100.468 128.766 100.435Z" fill="#C8C6C1"/>
<path d="M141.779 108.409C141.733 109.748 141.709 110.414 141.661 111.752C141.347 111.788 141.189 111.805 140.874 111.841C140.841 112.671 140.821 113.208 140.801 113.86C140.788 114.151 140.778 114.466 140.765 114.832C140.738 115.518 140.437 116.14 139.883 116.684C139.334 117.223 138.687 117.542 137.947 117.626C135.774 117.863 134.683 117.986 132.496 118.228C131.746 118.311 131.112 118.138 130.593 117.712C130.074 117.286 129.833 116.728 129.87 116.034C130.101 111.587 130.335 107.14 130.57 102.694C130.607 102.004 130.904 101.372 131.461 100.828C131.812 100.487 132.201 100.236 132.631 100.078C132.872 99.9919 133.123 99.9337 133.387 99.9037C135.518 99.6693 136.579 99.5528 138.689 99.3217C139.409 99.2418 140.018 99.4148 140.514 99.8339C141.026 100.266 141.27 100.832 141.247 101.522C141.19 102.995 141.164 103.729 141.112 105.199C139.665 105.357 138.942 105.44 137.485 105.598C137.532 104.482 137.555 103.923 137.601 102.806C136.329 102.947 135.646 103.024 134.45 103.153C134.36 103.163 134.265 103.173 134.169 103.183C133.988 107.035 133.806 110.883 133.623 114.737C135.024 114.582 135.721 114.506 137.116 114.351C137.146 113.647 137.162 113.293 137.192 112.59C137.196 112.455 137.199 112.385 137.206 112.249C136.881 112.282 136.72 112.302 136.392 112.339C136.452 110.997 136.482 110.326 136.537 108.989C137.009 108.936 137.432 108.889 137.823 108.848C139.165 108.696 140.159 108.587 141.779 108.409Z" fill="#C8C6C1"/>
<path d="M143.853 118.981C136.649 119.781 129.439 120.579 122.23 121.376L98.6906 123.972C85.2878 125.445 71.885 126.916 58.4822 128.382C50.4146 129.264 42.347 130.147 34.2794 131.025C33.9252 131.065 33.5759 131.102 33.2217 131.141C33.7539 132.73 35.1242 133.669 36.7008 133.496C37.0351 133.46 37.3644 133.423 37.6987 133.387C45.3988 132.547 53.0972 131.705 60.8006 130.865C61.9997 130.734 63.1954 130.604 64.3945 130.473C70.5196 140.242 81.4976 146.766 93.999 146.766C101.726 146.766 108.872 144.275 114.65 140.059C119.519 136.515 123.421 131.747 125.875 126.22C126.255 125.362 126.602 124.486 126.913 123.591C133.068 122.911 139.227 122.231 145.383 121.545C147.229 121.341 149.074 121.136 150.92 120.932C152.631 120.741 154.144 119.462 154.65 117.78C151.053 118.181 147.455 118.582 143.853 118.981ZM108.766 134.128C104.543 136.907 99.4623 138.532 94.0007 138.532C85.9464 138.532 78.722 135 73.8508 129.437C82.9495 128.439 92.0449 127.438 101.139 126.437C106.587 125.838 112.033 125.238 117.482 124.635C115.426 128.462 112.416 131.73 108.766 134.128Z" fill="#C8C6C1"/>
<path d="M154.874 95.2735C152.151 95.5712 149.429 95.8722 146.706 96.1683C141.576 96.7304 136.445 97.2942 131.315 97.8563C125.031 98.5465 118.743 99.2367 112.46 99.9318L106.58 100.579L78.5466 103.662L75.8507 103.96C63.7036 105.302 51.5581 106.636 39.4143 107.978C37.4518 108.196 35.4927 108.41 33.5303 108.628C33.8379 107.77 34.3735 107.027 35.0404 106.478C35.6424 105.979 36.3525 105.638 37.1059 105.506C37.1891 105.493 37.2739 105.48 37.3604 105.47C50.2609 104.046 63.1614 102.619 76.0669 101.197L76.1002 101.194L104.677 98.0459L112.661 97.1678C118.374 96.5408 124.085 95.9122 129.798 95.2852C135.073 94.7064 140.35 94.1327 145.625 93.5539C147.555 93.3427 149.484 93.1315 151.413 92.9203C153.024 92.739 154.428 93.7003 154.874 95.2735Z" fill="#C8C6C1"/>
</g>
</g>
<defs>
<clipPath id="clip0_5666:13172">
<rect width="168" height="168" fill="white" transform="translate(11 19)"/>
</clipPath>
<clipPath id="clip1_5666:13172">
<rect width="69" height="99" fill="white" transform="translate(26 63)"/>
</clipPath>
<clipPath id="clip2_5666:13172">
<rect width="69" height="99" fill="white" transform="translate(95 63)"/>
</clipPath>
</defs>
</svg>
