<svg width="188" height="188" viewBox="0 0 188 188" fill="none" xmlns="http://www.w3.org/2000/svg">
<circle cx="94" cy="94" r="94" fill="#F3C76F"/>
<g clip-path="url(#clip0_5405:10317)">
<path d="M178 148.783C178 151.808 175.547 154.261 172.522 154.261H15.4784C12.4527 154.261 10 151.808 10 148.783V39.2171C10 36.1918 12.4527 33.7388 15.4784 33.7388H172.522C175.547 33.7388 178 36.1915 178 39.2171V148.783H178Z" fill="#665F55"/>
<path d="M51.9999 125.775C48.9736 125.775 46.5215 123.323 46.5215 120.296V102.767C46.5215 99.7403 48.9736 97.2882 51.9999 97.2882C55.0262 97.2882 57.4782 99.7403 57.4782 102.767V120.296C57.4782 123.323 55.0262 125.775 51.9999 125.775ZM51.9999 90.7135C48.9736 90.7135 46.5215 88.2615 46.5215 85.2352V67.7054C46.5215 64.6791 48.9736 62.2271 51.9999 62.2271C55.0262 62.2271 57.4782 64.6791 57.4782 67.7054V85.2352C57.4782 88.2615 55.0262 90.7135 51.9999 90.7135Z" fill="#BABABA"/>
<path d="M46.5215 33.7393V50.1741C46.5215 53.2004 48.9736 55.6524 51.9999 55.6524C55.0262 55.6524 57.4782 53.2004 57.4782 50.1741V33.7393H46.5215Z" fill="#BABABA"/>
<path d="M51.9999 132.348C48.9736 132.348 46.5215 134.8 46.5215 137.827V154.261H57.4779V137.827C57.4782 134.8 55.0262 132.348 51.9999 132.348Z" fill="#BABABA"/>
<path d="M172.522 154.261C174.035 154.261 175.404 153.648 176.396 152.657C177.387 151.665 178 150.296 178 148.783V94.0001V39.2173C178 37.7043 177.387 36.3347 176.396 35.3431C175.404 34.3519 174.035 33.7393 172.522 33.7393H94V154.261H172.522Z" fill="#474032"/>
<path d="M95.8264 88.5214C86.7639 88.5214 79.3916 81.1491 79.3916 72.0866C79.3916 63.0242 86.7639 55.6519 95.8264 55.6519C104.889 55.6519 112.261 63.0242 112.261 72.0866C112.261 81.1491 104.889 88.5214 95.8264 88.5214ZM95.8264 66.6086C92.8057 66.6086 90.348 69.0663 90.348 72.087C90.348 75.1077 92.8057 77.5654 95.8264 77.5654C98.8471 77.5654 101.305 75.1077 101.305 72.087C101.305 69.0663 98.8471 66.6086 95.8264 66.6086Z" fill="#BABABA"/>
<path d="M95.826 55.6519C95.2013 55.6519 94.6074 55.7677 94 55.8363V66.9443C94.5742 66.7402 95.1829 66.6083 95.826 66.6083C98.8467 66.6083 101.304 69.0659 101.304 72.0866C101.304 75.1074 98.8467 77.565 95.826 77.565C95.1829 77.565 94.5739 77.4331 94 77.229V88.337C94.6074 88.4056 95.2013 88.5214 95.826 88.5214C104.889 88.5214 112.261 81.1491 112.261 72.0866C112.261 63.0242 104.889 55.6519 95.826 55.6519Z" fill="#ABABAB"/>
<path d="M139.652 132.348C130.589 132.348 123.217 124.975 123.217 115.913C123.217 106.85 130.589 99.478 139.652 99.478C148.714 99.478 156.086 106.85 156.086 115.913C156.086 124.975 148.714 132.348 139.652 132.348ZM139.652 110.434C136.631 110.434 134.173 112.892 134.173 115.913C134.173 118.934 136.631 121.391 139.652 121.391C142.672 121.391 145.13 118.934 145.13 115.913C145.13 112.892 142.672 110.434 139.652 110.434Z" fill="#ABABAB"/>
<path d="M94.4955 122.723C93.0938 122.723 91.692 122.188 90.6224 121.118C88.4827 118.98 88.4827 115.51 90.6224 113.371L137.107 66.8865C139.247 64.7468 142.714 64.7468 144.854 66.8865C146.994 69.0246 146.994 72.4948 144.854 74.6332L98.3691 121.118C97.299 122.188 95.8973 122.723 94.4955 122.723Z" fill="#BABABA"/>
<path d="M137.107 66.887L94 109.994V122.627C94.168 122.643 94.3271 122.724 94.4955 122.724C95.8972 122.724 97.299 122.189 98.3687 121.119L144.853 74.6337C146.993 72.4957 146.993 69.0254 144.853 66.887C142.714 64.7466 139.247 64.7466 137.107 66.887Z" fill="#ABABAB"/>
</g>
<defs>
<clipPath id="clip0_5405:10317">
<rect width="168" height="168" fill="white" transform="translate(10 10)"/>
</clipPath>
</defs>
</svg>
