<svg width="188" height="194" viewBox="0 0 188 194" fill="none" xmlns="http://www.w3.org/2000/svg">
<circle cx="94" cy="94" r="94" fill="#F3C76F"/>
<g clip-path="url(#clip0_5397:10871)">
<path d="M44.4414 144.515L30.2874 57.2211C29.7315 53.7945 26.7731 51.2764 23.3015 51.2764H23.2307C19.7599 51.2764 16.8008 53.7945 16.2449 57.2211L2.09126 144.515C1.7592 146.563 2.34282 148.653 3.68724 150.234C5.03202 151.814 7.00211 152.724 9.07714 152.724H37.4555C39.5298 152.724 41.5006 151.813 42.8454 150.234C44.1898 148.654 44.7734 146.563 44.4414 144.515Z" fill="#474032"/>
<path d="M185.908 144.515L171.754 57.2211C171.198 53.7945 168.24 51.2764 164.768 51.2764H23.3018C21.2275 51.2764 19.2567 52.1874 17.9119 53.7668C16.5671 55.3474 15.9838 57.4378 16.3159 59.4859L30.4699 146.78C31.0258 150.206 33.9842 152.724 37.4557 152.724H178.923C180.998 152.724 182.968 151.813 184.313 150.234C185.657 148.654 186.241 146.563 185.908 144.515Z" fill="#665F55"/>
<path d="M185.909 144.515L171.755 57.2211C171.199 53.7945 168.24 51.2764 164.769 51.2764H93.0361L109.485 152.724H178.923C180.998 152.724 182.968 151.813 184.313 150.234C185.657 148.654 186.241 146.563 185.909 144.515Z" fill="#474032"/>
<path d="M143.539 109.077H58.6159C54.7077 109.077 51.5391 105.908 51.5391 102.001C51.5391 98.0917 54.7077 94.9238 58.6159 94.9238H143.539C147.447 94.9238 150.616 98.0921 150.616 102.001C150.616 105.908 147.447 109.077 143.539 109.077Z" fill="#E8C98C"/>
<path d="M143.539 94.9238H100.113L102.408 109.078H143.539C147.447 109.078 150.615 105.909 150.615 102.001C150.615 98.0921 147.447 94.9238 143.539 94.9238Z" fill="#DEB463"/>
</g>
<defs>
<clipPath id="clip0_5397:10871">
<rect width="184" height="184" fill="white" transform="translate(2 10)"/>
</clipPath>
</defs>
</svg>
