<svg width="188" height="188" viewBox="0 0 188 188" fill="none" xmlns="http://www.w3.org/2000/svg">
<circle cx="94" cy="94" r="94" fill="#F3C76F"/>
<path d="M93.6719 178C90.9514 178 88.75 175.799 88.75 173.078V123.203C88.75 120.483 90.9514 118.281 93.6719 118.281C96.3924 118.281 98.5938 120.483 98.5938 123.203V173.078C98.5938 175.799 96.3924 178 93.6719 178Z" fill="#665F55"/>
<path d="M98.5938 173.078V123.203C98.5938 120.483 96.3924 118.281 93.6719 118.281V178C96.3924 178 98.5938 175.799 98.5938 173.078Z" fill="#474032"/>
<path d="M49.4307 83.7349C49.4307 106.635 67.8713 128.125 93.6718 128.125C118.098 128.125 137.969 108.255 137.969 83.8281C137.969 59.7592 118.235 39.5312 93.6718 39.5312C68.6713 39.5312 49.4307 59.7864 49.4307 83.7349Z" fill="#665F55"/>
<path d="M137.969 83.8281C137.969 75.9357 135.892 68.2599 131.96 61.6318C131.076 60.1368 129.471 59.2188 127.731 59.2188H118.281V49.7691C118.281 48.034 117.368 46.4238 115.868 45.5346C109.255 41.6076 101.574 39.5312 93.6719 39.5312V128.125C118.098 128.125 137.969 108.255 137.969 83.8281Z" fill="#474032"/>
<path d="M93.6718 118.281C84.2391 118.281 75.4802 114.535 69.0076 107.732C62.8221 101.231 59.2744 92.4844 59.2744 83.7349C59.2744 74.6377 62.7955 66.052 69.1897 59.5597C75.6577 52.9919 84.3523 49.375 93.6718 49.375C102.853 49.375 111.509 53.0018 118.044 59.5876C124.545 66.1382 128.125 74.7473 128.125 83.8281C128.125 102.826 112.669 118.281 93.6718 118.281Z" fill="#E6F7FF"/>
<path d="M128.125 83.8281C128.125 74.7473 124.545 66.1382 118.044 59.5876C111.509 53.0018 102.853 49.375 93.6719 49.375V118.281C112.669 118.281 128.125 102.826 128.125 83.8281Z" fill="#CCE6FF"/>
<path d="M169.598 79.3079L151.353 61.0625H114.016C111.295 61.0625 109.094 58.8611 109.094 56.1406V16.7656C109.094 14.0451 111.295 11.8438 114.016 11.8438H173.078C175.799 11.8438 178 14.0451 178 16.7656V75.8281C178 77.8179 176.798 79.6157 174.962 80.375C173.173 81.1277 171.03 80.7398 169.598 79.3079Z" fill="#BABABA"/>
<path d="M178 16.7656C178 14.0451 175.799 11.8438 173.078 11.8438H143.547V61.0625H151.353L169.598 79.3079C171.03 80.7395 173.173 81.1277 174.962 80.375C176.798 79.6157 178 77.8179 178 75.8281V16.7656Z" fill="#ABABAB"/>
<path d="M78.9062 87.9844V112.594L54.2969 147.047H44.4531L11.3781 160.434C10.5906 159.45 10 158.269 10 156.891V87.9844C10 85.2278 12.1653 83.0625 14.9219 83.0625H73.9844C76.741 83.0625 78.9062 85.2278 78.9062 87.9844Z" fill="#59ABFF"/>
<path d="M78.9061 112.594V156.891C78.9061 159.609 76.7024 161.812 73.9842 161.812H14.9217C13.5436 161.812 12.3623 161.222 11.3779 160.434L40.9725 130.84C42.8947 128.918 46.0109 128.918 47.933 130.84L50.8163 133.723C52.7384 135.645 55.8546 135.645 57.7768 133.723L78.9061 112.594Z" fill="#00DA80"/>
<path d="M34.6094 112.594C37.3277 112.594 39.5312 110.39 39.5312 107.672C39.5312 104.954 37.3277 102.75 34.6094 102.75C31.8911 102.75 29.6875 104.954 29.6875 107.672C29.6875 110.39 31.8911 112.594 34.6094 112.594Z" fill="#E6F7FF"/>
<path d="M133.703 41.375C136.421 41.375 138.625 39.1714 138.625 36.4531C138.625 33.7348 136.421 31.5312 133.703 31.5312C130.985 31.5312 128.781 33.7348 128.781 36.4531C128.781 39.1714 130.985 41.375 133.703 41.375Z" fill="#F3C76F"/>
<path d="M153.391 41.375C156.109 41.375 158.312 39.1714 158.312 36.4531C158.312 33.7348 156.109 31.5312 153.391 31.5312C150.672 31.5312 148.469 33.7348 148.469 36.4531C148.469 39.1714 150.672 41.375 153.391 41.375Z" fill="#F3C76F"/>
</svg>
