<svg width="188" height="188" viewBox="0 0 188 188" fill="none" xmlns="http://www.w3.org/2000/svg">
<circle cx="94" cy="94" r="94" fill="#F3C76F"/>
<path d="M25.0938 24.7656C25.0938 74.6344 25.0938 113.366 25.0938 163.234C25.0938 171.389 31.7045 178 39.8594 178C45.2026 178 49.2818 178 54.625 178C54.625 128.131 54.625 89.4 54.625 39.5313L51.684 26.7465L44.8807 19.9432L29.4184 14.3247C26.7465 16.9966 25.0938 20.688 25.0938 24.7656Z" fill="#966857"/>
<path d="M153.063 24.7656V34.6094C153.063 37.3653 150.897 39.5312 148.141 39.5312H54.6253L29.4253 14.3312C32.0834 11.6731 35.8241 10 39.8597 10H138.297C146.468 10 153.063 16.595 153.063 24.7656Z" fill="#BABABA"/>
<path d="M153.062 24.7656V34.6094C153.062 37.3653 150.897 39.5312 148.141 39.5312H103.844V10H138.297C146.468 10 153.062 16.595 153.062 24.7656Z" fill="#ABABAB"/>
<path d="M162.906 44.4531V163.234C162.906 171.404 156.311 178 148.141 178H44.7812V29.6875H148.141C156.311 29.6875 162.906 36.2825 162.906 44.4531Z" fill="#665F55"/>
<path d="M64.4688 29.6875V73.9844C64.4688 75.9741 65.6654 77.7719 67.5065 78.5312C69.3473 79.3003 71.4624 78.8774 72.8707 77.4641L79.2344 71.1005L85.5984 77.4645C87.0191 78.8853 89.1474 79.2888 90.9625 78.5315C92.8033 77.7723 94.0003 75.9745 94.0003 73.9847V29.6875H64.4688Z" fill="#ABABAB"/>
<path d="M143.219 114.016C143.219 116.772 141.053 118.938 138.297 118.938H69.3906C66.634 118.938 64.4688 116.772 64.4688 114.016C64.4688 111.259 66.634 109.094 69.3906 109.094H138.297C141.053 109.094 143.219 111.259 143.219 114.016Z" fill="#BABABA"/>
<path d="M133.375 133.703C133.375 136.459 131.21 138.625 128.453 138.625H79.2344C76.4778 138.625 74.3125 136.459 74.3125 133.703C74.3125 130.947 76.4778 128.781 79.2344 128.781H128.453C131.21 128.781 133.375 130.947 133.375 133.703Z" fill="#BABABA"/>
<path d="M123.531 153.391C123.531 156.147 121.366 158.312 118.609 158.312H89.0781C86.3215 158.312 84.1562 156.147 84.1562 153.391C84.1562 150.634 86.3215 148.469 89.0781 148.469H118.609C121.366 148.469 123.531 150.634 123.531 153.391Z" fill="#BABABA"/>
<path d="M162.906 44.4531V163.234C162.906 171.404 156.311 178 148.141 178H103.844V29.6875H148.141C156.311 29.6875 162.906 36.2825 162.906 44.4531Z" fill="#474032"/>
<path d="M123.531 153.391C123.531 156.147 121.366 158.312 118.609 158.312H103.844V148.469H118.609C121.366 148.469 123.531 150.634 123.531 153.391Z" fill="#ABABAB"/>
<path d="M133.375 133.703C133.375 136.459 131.21 138.625 128.453 138.625H103.844V128.781H128.453C131.21 128.781 133.375 130.947 133.375 133.703Z" fill="#ABABAB"/>
<path d="M143.219 114.016C143.219 116.772 141.053 118.938 138.297 118.938H103.844V109.094H138.297C141.053 109.094 143.219 111.259 143.219 114.016Z" fill="#ABABAB"/>
</svg>
