<svg width="188" height="188" viewBox="0 0 188 188" fill="none" xmlns="http://www.w3.org/2000/svg">
<circle cx="94" cy="94" r="94" fill="#F3C76F"/>
<path d="M38.4701 80.4711H161.062V54.9531C161.062 52.2349 158.859 50.0312 156.141 50.0312H38.4701C30.0642 50.0312 23.25 56.8454 23.25 65.2513C23.25 73.6569 30.0642 80.4711 38.4701 80.4711Z" fill="#474032"/>
<path d="M161.062 54.9531V80.4714H97.0781V50.0312H156.141C158.857 50.0312 161.062 52.2362 161.062 54.9531Z" fill="#38342D"/>
<path d="M165.984 79.5621H38.0534C29.8778 79.5621 23.25 72.9343 23.25 64.7588V158.312C23.25 169.185 32.0644 178 42.9375 178H165.984C168.703 178 170.906 175.796 170.906 173.078V84.484C170.906 81.7658 168.703 79.5621 165.984 79.5621Z" fill="#665F55"/>
<path d="M170.906 84.4844V173.078C170.906 175.795 168.701 178 165.984 178H97.0781V79.5625H165.984C168.701 79.5625 170.906 81.7675 170.906 84.4844Z" fill="#474032"/>
<path d="M175.828 108.766H141.375C140.069 108.766 138.817 109.284 137.895 110.207L123.129 124.973C121.207 126.895 121.207 130.011 123.129 131.934L137.895 146.699C138.817 147.622 140.069 148.141 141.375 148.141H175.828C178.546 148.141 180.75 145.937 180.75 143.219V113.688C180.75 110.969 178.546 108.766 175.828 108.766Z" fill="#665F55"/>
<path d="M97.0781 10C94.3599 10 92.1562 12.2037 92.1562 14.9219V25.75C92.1562 28.4682 94.3599 30.6719 97.0781 30.6719C99.7963 30.6719 102 28.4682 102 25.75V14.9219C102 12.2037 99.7963 10 97.0781 10Z" fill="#BABABA"/>
<path d="M102 14.9219V25.75C102 28.4669 99.795 30.6719 97.0781 30.6719V10C99.795 10 102 12.205 102 14.9219Z" fill="#ABABAB"/>
<path d="M78.0717 31.858L69.777 24.8978C67.6941 23.1502 64.59 23.4222 62.8431 25.5045C61.0958 27.5868 61.3672 30.6912 63.4498 32.4384L71.7445 39.3986C73.8402 41.1571 76.9423 40.8608 78.6784 38.7919C80.4257 36.71 80.1543 33.6053 78.0717 31.858Z" fill="#BABABA"/>
<path d="M131.312 25.5054C129.565 23.4231 126.46 23.1514 124.378 24.8986L116.084 31.8588C114.001 33.6061 113.73 36.7108 115.477 38.7928C117.219 40.8688 120.323 41.152 122.411 39.3995L130.706 32.4393C132.788 30.6924 133.059 27.5876 131.312 25.5054Z" fill="#ABABAB"/>
</svg>
