<svg width="188" height="188" viewBox="0 0 188 188" fill="none" xmlns="http://www.w3.org/2000/svg">
<circle cx="94" cy="94" r="94" fill="#F3C76F"/>
<g clip-path="url(#clip0_5397_10776)">
<path d="M11.9256 117.045C9.26698 119.704 9.26698 124.014 11.9256 126.673L19.5468 134.294C20.6813 135.428 22.4717 135.518 23.7456 134.542C32.0366 128.192 43.9513 128.81 51.5367 136.396C59.1224 143.981 59.7402 155.896 53.3903 164.187C52.4145 165.461 52.504 167.251 53.6385 168.386L61.2597 176.007C63.9183 178.665 68.2286 178.665 70.8869 176.007L108.945 137.948L88.4366 99.4957L49.9841 78.9873L11.9256 117.045Z" fill="#474032"/>
<path d="M108.945 137.948L158.973 87.9201C161.631 85.2615 161.631 80.9512 158.973 78.2929L109.639 28.9588C106.98 26.3002 102.67 26.3002 100.012 28.9588L49.9834 78.9867L108.945 137.948Z" fill="#ABABAB"/>
<path d="M89.8903 149.867L93.4582 153.435L100.864 146.03L97.2961 142.462C95.2509 140.416 91.9354 140.416 89.8903 142.462C87.8452 144.507 87.8452 147.822 89.8903 149.867Z" fill="#C3E4F9"/>
<path d="M71.8697 131.847L75.0789 135.056C77.124 137.102 80.4394 137.102 82.4846 135.056C84.5297 133.011 84.5297 129.696 82.4846 127.651L79.2754 124.442C77.2302 122.396 73.9148 122.396 71.8697 124.442C69.8245 126.487 69.8249 129.802 71.8697 131.847Z" fill="#E7DEC8"/>
<path d="M53.8493 113.827L57.0585 117.036C59.1036 119.081 62.419 119.081 64.4642 117.036C66.5093 114.991 66.5093 111.675 64.4642 109.63L61.255 106.421C59.2098 104.376 55.8944 104.376 53.8493 106.421C51.8041 108.466 51.8041 111.782 53.8493 113.827Z" fill="#E7DEC8"/>
<path d="M39.0385 99.0155C41.0836 101.061 44.3991 101.061 46.4442 99.0155C48.4893 96.9703 48.4893 93.6549 46.4442 91.6098L41.9067 87.0723L34.501 94.478L39.0385 99.0155Z" fill="#E7DEC8"/>
<path d="M164.07 171.193C164.07 174.953 161.022 178.001 157.262 178.001H146.484C144.88 178.001 143.551 176.798 143.34 175.207C141.967 164.854 133.105 156.866 122.378 156.866C111.65 156.866 102.788 164.854 101.415 175.207C101.204 176.797 99.8754 178.001 98.2707 178.001H87.4932C83.7334 178.001 80.6855 174.953 80.6855 171.193V117.37L122.378 104.682L164.069 117.37V171.193H164.07Z" fill="#665F55"/>
<path d="M157.262 178H146.484C144.88 178 143.551 176.797 143.34 175.206C141.967 164.854 133.105 156.865 122.377 156.865C122.369 156.865 122.36 156.866 122.352 156.866V104.69L122.377 104.682L164.069 117.37V171.193C164.07 174.952 161.022 178 157.262 178Z" fill="#474032"/>
<path d="M80.6855 117.37V16.8076C80.6855 13.0479 83.7334 10 87.4931 10H157.262C161.022 10 164.069 13.0479 164.069 16.8076V117.37H80.6855Z" fill="#BABABA"/>
<path d="M159.024 139.273H164.069V128.799H159.024C156.132 128.799 153.787 131.144 153.787 134.036C153.787 136.928 156.132 139.273 159.024 139.273Z" fill="#E7DEC8"/>
<path d="M133.539 139.273H138.078C140.97 139.273 143.314 136.928 143.314 134.036C143.314 131.144 140.97 128.799 138.078 128.799H133.539C130.647 128.799 128.303 131.144 128.303 134.036C128.303 136.928 130.647 139.273 133.539 139.273Z" fill="#E7DEC8"/>
<path d="M108.054 139.273H112.593C115.485 139.273 117.829 136.928 117.829 134.036C117.829 131.144 115.485 128.799 112.593 128.799H108.054C105.162 128.799 102.817 131.144 102.817 134.036C102.817 136.928 105.162 139.273 108.054 139.273Z" fill="#F0EFEB"/>
<path d="M87.1075 139.273C89.9997 139.273 92.3442 136.928 92.3442 134.036C92.3442 131.144 89.9997 128.799 87.1075 128.799H80.6904V139.273H87.1075Z" fill="#F0EFEB"/>
<path d="M164.069 16.8076V117.37H122.352V10H157.262C161.021 10 164.069 13.0479 164.069 16.8076Z" fill="#ABABAB"/>
<path d="M142.046 55.2867C140.162 55.4926 138.278 55.6998 136.394 55.9071C135.996 55.9501 135.599 55.9939 135.201 56.0383C134.784 55.3728 134.313 54.743 133.796 54.1536C134.315 54.1482 134.833 54.1442 135.352 54.1401C136.727 54.128 138.104 54.1186 139.479 54.1105C140.479 54.0675 141.526 54.3588 142.046 55.2867Z" fill="white"/>
<path d="M108.992 57.1699C107.998 57.3772 107.005 57.5851 106.013 57.7937C104.893 57.9996 103.846 58.5439 103.259 59.5552C104.908 59.3735 106.558 59.1905 108.208 59.0089C108.428 58.3757 108.691 57.7614 108.992 57.1699Z" fill="white"/>
<path d="M144.799 67.793C144.581 68.1415 144.298 68.4295 143.974 68.663C143.27 69.1777 142.374 69.4516 141.54 69.6117C139.802 69.9502 138.064 70.2866 136.325 70.6223C136.093 70.6668 135.861 70.7118 135.63 70.7562C135.744 70.5504 135.852 70.3418 135.955 70.1305C136.181 69.6696 136.383 69.1932 136.559 68.7067C138.885 68.449 141.209 68.1906 143.535 67.9329C143.955 67.8865 144.378 67.8401 144.799 67.793Z" fill="white"/>
<path d="M111.388 73.7474C108.408 73.81 105.429 73.8665 102.451 73.9116C102.353 73.917 102.254 73.9183 102.156 73.9183C101.188 73.9116 100.195 73.6256 99.6465 72.761C99.886 72.7341 100.126 72.7092 100.366 72.6823C103.404 72.3506 106.442 72.0195 109.48 71.6878C109.57 71.6784 109.659 71.6676 109.749 71.6582C110.109 72.2153 110.508 72.7476 110.94 73.2502L110.942 73.2529C111.087 73.4211 111.235 73.5859 111.388 73.7474Z" fill="white"/>
<path d="M134.157 56.1463C132.851 56.2896 131.545 56.4323 130.239 56.5769C128.467 54.7286 126.018 53.508 123.285 53.294C122.999 53.2712 122.71 53.2591 122.419 53.2591C118.826 53.2591 115.638 54.9964 113.69 57.6582C113.501 57.9159 113.323 58.1837 113.158 58.4576C111.857 58.6009 110.557 58.7449 109.255 58.8895C109.758 57.5768 110.459 56.3582 111.321 55.2702C113.588 52.4113 116.971 50.4479 120.818 50.0172C121.343 49.9587 121.876 49.9277 122.418 49.9277C127.316 49.9271 131.637 52.4012 134.157 56.1463Z" fill="white"/>
<path d="M107.637 62.3008C107.439 62.1313 107.194 62.0613 106.9 62.0936C106.045 62.1871 105.618 62.2342 104.773 62.3278C104.484 62.36 104.228 62.4839 104.011 62.7005C103.793 62.9212 103.677 63.1749 103.664 63.4541C103.635 64.0933 103.606 64.7319 103.576 65.3697C103.523 66.527 103.469 67.685 103.416 68.8423C103.404 69.1229 103.494 69.3504 103.687 69.5239C103.881 69.6989 104.118 69.7716 104.397 69.7406C105.218 69.6511 105.631 69.6054 106.465 69.5145C106.721 69.4849 106.951 69.3779 107.153 69.1976C107.175 69.1788 107.196 69.1586 107.217 69.1377C107.439 68.917 107.562 68.6674 107.58 68.3882C107.693 66.5876 107.805 64.787 107.918 62.9872C107.935 62.7059 107.842 62.4771 107.637 62.3008ZM106.174 68.1473C106.172 68.1594 106.172 68.1715 106.171 68.1836C105.632 68.2422 105.365 68.2718 104.832 68.331C104.859 67.8203 104.885 67.3096 104.912 66.7996C104.966 65.7519 105.022 64.705 105.076 63.6587C105.618 63.5988 105.892 63.5678 106.439 63.5079C106.351 65.0542 106.262 66.6004 106.174 68.1473Z" fill="white"/>
<path d="M145.592 60.3218C145.6 59.873 145.604 59.6469 145.611 59.1961C145.216 59.2405 144.965 59.2681 144.646 59.3031C144.531 59.3152 144.406 59.3286 144.265 59.3448C144.253 59.8124 144.247 60.0466 144.237 60.5129C144.229 60.8284 144.453 60.9603 144.905 60.9112C145.044 60.8964 145.176 60.8897 145.304 60.8937C145.723 60.9058 146.078 61.0222 146.376 61.2348C146.789 61.5316 146.997 61.9622 146.991 62.5247C146.986 63.133 146.982 63.4391 146.976 64.0474C146.975 64.2345 146.925 64.4081 146.826 64.5675C146.778 64.6462 146.719 64.7223 146.648 64.795C146.437 65.0116 146.184 65.1401 145.892 65.1717C145.035 65.2666 144.605 65.3151 143.739 65.4113C143.442 65.4449 143.19 65.3736 142.978 65.2027C142.768 65.0305 142.668 64.8044 142.676 64.5251C142.695 63.9276 142.703 63.6296 142.722 63.0334C143.307 62.9695 143.6 62.9372 144.18 62.8733C144.169 63.3248 144.164 63.5508 144.153 64.0043C144.706 63.9431 144.983 63.9122 145.532 63.8523C145.539 63.3846 145.545 63.1518 145.553 62.6855C145.558 62.3673 145.333 62.2327 144.878 62.2832C144.283 62.3484 143.787 62.2428 143.396 61.9649C142.977 61.6682 142.776 61.2375 142.794 60.6737C142.813 60.0627 142.822 59.7566 142.841 59.1456C142.849 58.8664 142.962 58.612 143.177 58.3934C143.389 58.1767 143.642 58.0536 143.928 58.0219C143.99 58.0152 144.051 58.0085 144.108 58.0031C144.829 57.923 145.242 57.8773 146.006 57.7932C146.288 57.7622 146.528 57.8335 146.727 58.0031C146.931 58.1794 147.033 58.4068 147.03 58.6847C147.025 59.2782 147.022 59.5749 147.015 60.167C146.448 60.2283 146.164 60.2585 145.592 60.3218Z" fill="white"/>
<path d="M126.803 59.9023C126.761 60.446 126.74 60.7192 126.699 61.2629C126.528 61.2817 126.442 61.2911 126.272 61.31C125.759 63.3777 125.244 65.444 124.729 67.5103C124.266 67.5608 123.936 67.5971 123.587 67.6362C123.323 67.6658 123.046 67.6947 122.693 67.7337C122.659 67.3677 122.628 67.001 122.596 66.635C122.47 65.2475 122.347 63.8601 122.224 62.4727C121.977 63.486 121.728 64.498 121.481 65.5106C121.283 66.318 121.086 67.1255 120.888 67.9322C120.079 68.0204 119.675 68.0661 118.871 68.1543C118.685 66.2084 118.498 64.2618 118.312 62.3159C118.308 62.2728 118.304 62.2304 118.3 62.1874L118.196 62.1995L117.872 62.2345C117.881 62.1113 117.891 62.0017 117.899 61.9001C117.929 61.5529 117.949 61.2945 117.983 60.8733C118.058 60.8639 118.095 60.8598 118.17 60.8517C118.781 60.7851 119.087 60.7515 119.698 60.6835C119.881 60.6633 119.972 60.6539 120.155 60.6337C120.111 61.1774 120.09 61.4506 120.044 61.9943C119.948 62.005 119.899 62.0104 119.803 62.0212C119.844 62.6563 119.878 63.2895 119.907 63.9247C119.951 64.8337 119.982 65.7414 120.014 66.6498C120.177 65.9412 120.341 65.2327 120.504 64.5249C120.812 63.1819 121.121 61.8368 121.431 60.4938C122.199 60.4083 122.582 60.3666 123.351 60.2812C123.497 62.2661 123.643 64.251 123.791 66.236C124.099 64.6453 124.409 63.056 124.761 61.4762C124.665 61.4869 124.615 61.4923 124.519 61.5031C124.562 60.9581 124.583 60.6862 124.628 60.1412C124.811 60.121 124.903 60.1116 125.086 60.0914C125.698 60.0235 126.004 59.9898 126.615 59.9232C126.691 59.9145 126.728 59.9104 126.803 59.9023Z" fill="white"/>
<path d="M129.806 59.5713C129.767 60.115 129.747 60.3868 129.708 60.9305C129.574 60.9453 129.507 60.9533 129.375 60.9681C129.366 61.0953 129.356 61.2232 129.347 61.3503C129.241 62.795 129.135 64.2403 129.03 65.6862C129.165 65.6714 129.232 65.6634 129.366 65.6486C129.326 66.1922 129.307 66.4654 129.268 67.0091C129.133 67.0239 129.066 67.0306 128.931 67.0468C128.321 67.1134 128.015 67.147 127.404 67.2136C127.27 67.2284 127.204 67.2365 127.068 67.2513C127.11 66.7076 127.13 66.4345 127.171 65.8908C127.307 65.876 127.373 65.8679 127.507 65.8531C127.626 64.28 127.745 62.7068 127.864 61.1337C127.731 61.1485 127.665 61.1565 127.531 61.1713C127.572 60.6263 127.592 60.3545 127.635 59.8095C127.767 59.796 127.834 59.7879 127.967 59.7731C128.029 59.7664 128.088 59.7597 128.144 59.753C128.636 59.6998 128.934 59.6675 129.473 59.607C129.606 59.5928 129.673 59.5861 129.806 59.5713Z" fill="white"/>
<path d="M136.484 58.8486C136.453 59.3916 136.438 59.6628 136.408 60.2051C136.282 60.2199 136.219 60.2266 136.092 60.2401C135.977 62.2627 135.773 64.2833 135.658 66.3059C134.819 66.3981 134.399 66.4452 133.556 66.5387C133.239 64.9898 132.928 63.4402 132.62 61.8899C132.546 63.0311 132.471 64.1743 132.396 65.3168C132.533 65.302 132.603 65.2939 132.741 65.2791C132.727 65.4877 132.716 65.6573 132.706 65.8167C132.69 66.0717 132.675 66.3032 132.653 66.6376C132.515 66.6538 132.445 66.6605 132.306 66.6766C131.696 66.7432 131.392 66.7769 130.782 66.8448C130.652 66.8596 130.587 66.8664 130.457 66.8798C130.496 66.3368 130.514 66.0643 130.553 65.5207C130.682 65.5059 130.747 65.4991 130.877 65.4857C130.921 64.8438 130.965 64.2039 131.011 63.5633C131.106 62.1786 131.202 60.7939 131.298 59.4091C132.131 59.3183 132.546 59.2712 133.375 59.1804C133.679 60.7387 133.988 62.2957 134.3 63.8533C134.371 62.7041 134.441 61.5542 134.512 60.4049C134.375 60.4197 134.307 60.4278 134.171 60.4426C134.204 59.8996 134.221 59.6271 134.255 59.0848C134.39 59.07 134.458 59.0619 134.593 59.0471C135.188 58.9819 135.575 58.9496 136.168 58.8843C136.294 58.8702 136.358 58.8621 136.484 58.8486Z" fill="white"/>
<path d="M110.774 69.0414C111.311 68.9829 111.581 68.9533 112.121 68.8941C112.162 68.3437 112.182 68.0691 112.223 67.5194C112.246 67.2187 112.257 67.0679 112.279 66.7672C111.736 66.8271 111.466 66.8567 110.926 66.9159C110.905 67.2166 110.894 67.3674 110.872 67.6681C110.598 67.6984 110.462 67.7132 110.19 67.7428C110.299 66.1764 110.409 64.61 110.518 63.0436C110.645 63.0294 110.71 63.022 110.838 63.0086C110.876 62.4649 110.895 62.1924 110.933 61.6494C110.805 61.6635 110.74 61.6709 110.612 61.6851C110.02 61.7497 109.726 61.7826 109.138 61.8472L108.809 61.8836C108.774 62.4266 108.756 62.6984 108.721 63.2414C108.852 63.2273 108.917 63.2199 109.048 63.2051C108.915 65.2283 108.782 67.2516 108.648 69.2749C109.494 69.1821 109.919 69.1356 110.774 69.0414Z" fill="white"/>
<path d="M102.32 64.0238C102.259 65.562 102.197 67.1022 102.137 68.639C102.262 68.6255 102.324 68.6188 102.45 68.6053C102.427 69.147 102.417 69.4168 102.394 69.9578C102.27 69.9726 102.207 69.9793 102.084 69.9928C101.537 70.0526 101.263 70.0823 100.722 70.1408C100.609 70.1529 100.553 70.1596 100.439 70.1717C100.457 69.6314 100.465 69.3616 100.481 68.8206C100.596 68.8085 100.652 68.8018 100.767 68.7897L100.82 67.1271C100.301 67.1843 100.043 67.2125 99.5301 67.269C99.5139 67.9331 99.5058 68.2662 99.4883 68.929C99.6034 68.9169 99.6606 68.9101 99.7756 68.898C99.7622 69.4383 99.7541 69.7081 99.7407 70.2491C99.6256 70.2612 99.5698 70.2666 99.456 70.2801C98.9238 70.3373 98.6594 70.3669 98.1366 70.4234C98.0175 70.4368 97.9589 70.4436 97.8398 70.457C97.8479 69.9167 97.8506 69.6469 97.8587 69.1086C97.9778 69.0952 98.0377 69.0884 98.1581 69.075C98.1823 67.5153 98.2072 65.9556 98.2314 64.3953C98.1083 64.4087 98.0457 64.4154 97.9226 64.4289C97.9307 63.8899 97.9334 63.6201 97.9414 63.0805C98.0659 63.067 98.1285 63.0603 98.253 63.0468C98.8034 62.9856 99.0806 62.956 99.6364 62.8948C99.7568 62.8813 99.8153 62.8746 99.9344 62.8611C99.9196 63.4014 99.9129 63.6713 99.8981 64.2122C99.7804 64.2257 99.7218 64.2311 99.6027 64.2445C99.5866 64.9073 99.5785 65.2377 99.5624 65.9004C100.08 65.8432 100.34 65.815 100.863 65.7571C100.885 65.0944 100.895 64.7626 100.916 64.0999C100.798 64.1133 100.74 64.1201 100.623 64.1322C100.64 63.5919 100.648 63.3207 100.664 62.7811C100.783 62.7676 100.841 62.7609 100.961 62.7474C101.012 62.742 101.063 62.7367 101.111 62.7313C101.579 62.6795 101.859 62.6499 102.376 62.592C102.505 62.5772 102.569 62.5705 102.698 62.5557C102.676 63.0973 102.664 63.3685 102.643 63.9095C102.515 63.9229 102.451 63.931 102.322 63.9444C102.322 63.972 102.32 63.9976 102.32 64.0238Z" fill="white"/>
<path d="M141.75 62.0748C141.731 62.6164 141.721 62.8862 141.702 63.4272C141.575 63.442 141.511 63.4487 141.384 63.4635C141.37 63.7993 141.362 64.0166 141.354 64.2804C141.349 64.3981 141.345 64.5253 141.339 64.6733C141.328 64.9512 141.207 65.2029 140.982 65.4229C140.76 65.6409 140.499 65.7701 140.199 65.8037C139.32 65.9 138.878 65.9497 137.994 66.0473C137.69 66.081 137.434 66.011 137.224 65.8387C137.014 65.6665 136.916 65.4404 136.931 65.1598C137.025 63.3606 137.12 61.5614 137.214 59.7628C137.229 59.4836 137.35 59.2279 137.575 59.0079C137.717 58.87 137.875 58.7684 138.048 58.7044C138.146 58.6694 138.247 58.6459 138.354 58.6338C139.216 58.5389 139.646 58.4918 140.499 58.3983C140.791 58.366 141.037 58.436 141.238 58.6055C141.445 58.7805 141.544 59.0092 141.534 59.2885C141.511 59.8846 141.501 60.1814 141.48 60.7762C140.894 60.8401 140.602 60.8737 140.012 60.9376C140.031 60.4862 140.04 60.2601 140.059 59.8079C139.545 59.8651 139.268 59.8961 138.784 59.9485C138.748 59.9526 138.71 59.9566 138.671 59.9607C138.597 61.519 138.524 63.076 138.45 64.635C139.016 64.5724 139.298 64.5415 139.863 64.4789C139.875 64.1943 139.882 64.0509 139.894 63.7663C139.895 63.7118 139.896 63.6836 139.899 63.6284C139.768 63.6419 139.703 63.6499 139.57 63.6647C139.594 63.1217 139.606 62.8506 139.629 62.3096C139.82 62.2881 139.991 62.2692 140.149 62.2524C140.692 62.1912 141.094 62.1468 141.75 62.0748Z" fill="white"/>
<path d="M117.551 60.9209C117.534 61.1497 117.518 61.33 117.505 61.5022C117.486 61.7418 117.467 61.9658 117.442 62.2828C117.239 62.3043 117.139 62.3164 116.936 62.3373C116.464 63.5565 115.992 64.775 115.521 65.9943C115.484 66.47 115.465 66.7082 115.428 67.1825C115.56 67.1677 115.626 67.161 115.758 67.1462L115.65 68.5067C114.791 68.6016 114.363 68.6487 113.511 68.7422C113.553 68.1985 113.574 67.9254 113.616 67.3817C113.744 67.3682 113.808 67.3602 113.938 67.3467C113.974 66.8737 113.993 66.6368 114.029 66.1638C113.743 65.0267 113.457 63.8889 113.168 62.7524C112.968 62.774 112.868 62.7847 112.667 62.8069C112.709 62.2633 112.727 61.9901 112.769 61.4464C113.626 61.3529 114.057 61.3044 114.92 61.2096C114.877 61.7532 114.856 62.0264 114.815 62.5701C114.701 62.5822 114.644 62.5889 114.53 62.601C114.544 62.704 114.55 62.7544 114.564 62.8574C114.664 63.6527 114.714 64.051 114.812 64.8464C114.826 64.9601 114.832 65.0173 114.846 65.131C114.878 65.0119 114.893 64.9533 114.924 64.8342C115.15 64.0026 115.264 63.5874 115.491 62.7544C115.521 62.6475 115.535 62.5943 115.564 62.4873C115.451 62.5008 115.395 62.5062 115.281 62.5196C115.324 61.9746 115.345 61.7028 115.388 61.1577C116.043 61.0858 116.45 61.04 116.989 60.9815C117.16 60.9633 117.343 60.9438 117.551 60.9209Z" fill="white"/>
<path d="M142.588 66.352C139.673 66.6757 136.756 66.9986 133.839 67.3209L124.316 68.3713C118.893 68.9674 113.471 69.5622 108.048 70.1557C104.784 70.5123 101.52 70.8696 98.2561 71.2248C98.1127 71.241 97.9714 71.2558 97.8281 71.2719C98.0434 71.9145 98.5979 72.2947 99.2357 72.2247C99.371 72.2099 99.5042 72.1951 99.6395 72.1803C102.755 71.8405 105.869 71.5 108.986 71.1603C109.471 71.1071 109.955 71.0546 110.44 71.0015C112.918 74.9538 117.36 77.5934 122.418 77.5934C125.544 77.5934 128.435 76.5855 130.773 74.8798C132.743 73.4459 134.321 71.5169 135.314 69.281C135.468 68.9338 135.608 68.5792 135.734 68.2172C138.224 67.942 140.716 67.6668 143.207 67.3896C143.954 67.3068 144.7 67.224 145.447 67.1413C146.139 67.0639 146.752 66.5465 146.956 65.8662C145.501 66.0284 144.045 66.1905 142.588 66.352ZM128.392 72.4804C126.684 73.6047 124.628 74.2621 122.418 74.2621C119.16 74.2621 116.237 72.833 114.266 70.5823C117.947 70.1786 121.627 69.7735 125.306 69.3684C127.511 69.1262 129.714 68.8833 131.918 68.6397C131.087 70.188 129.869 71.5101 128.392 72.4804Z" fill="white"/>
<path d="M147.047 56.7588C145.945 56.8792 144.844 57.001 143.742 57.1208C141.667 57.3482 139.591 57.5763 137.515 57.8037C134.973 58.083 132.429 58.3622 129.887 58.6435L127.508 58.9052L116.166 60.1527L115.075 60.2731C110.161 60.8161 105.247 61.3557 100.334 61.8987C99.5397 61.9869 98.7471 62.0737 97.9531 62.1618C98.0776 61.8146 98.2943 61.5139 98.5641 61.2918C98.8077 61.09 99.095 60.952 99.3998 60.8989C99.4334 60.8935 99.4677 60.8881 99.5027 60.8841C104.722 60.3081 109.941 59.7308 115.163 59.1555L115.176 59.1542L126.738 57.8804L129.968 57.5252C132.28 57.2715 134.59 57.0172 136.902 56.7635C139.036 56.5293 141.171 56.2972 143.305 56.063C144.086 55.9776 144.866 55.8921 145.647 55.8067C146.299 55.7333 146.867 56.1223 147.047 56.7588Z" fill="white"/>
<path d="M79.0295 152.847C86.7614 134.194 77.9077 112.804 59.2543 105.072C40.6008 97.3403 19.2112 106.194 11.4793 124.847C3.74744 143.501 12.6011 164.89 31.2546 172.622C49.908 180.354 71.2976 171.501 79.0295 152.847Z" fill="#BABABA"/>
<path d="M45.1963 102.269C65.352 102.269 81.7494 118.666 81.7494 138.822C81.7494 158.977 65.3517 175.375 45.1963 175.375V102.269Z" fill="#ABABAB"/>
<path d="M56.1325 142.797L52.1572 138.821L56.1325 134.846C58.0546 132.924 58.0546 129.808 56.1325 127.885C54.2103 125.963 51.0941 125.963 49.1719 127.885L45.1967 131.861L41.2215 127.885C39.2993 125.963 36.1831 125.963 34.261 127.885C32.3388 129.808 32.3388 132.924 34.261 134.846L38.2362 138.821L34.261 142.797C32.3388 144.719 32.3388 147.835 34.261 149.757C36.1831 151.679 39.2993 151.679 41.2215 149.757L45.1967 145.782L49.1719 149.757C51.0941 151.679 54.2103 151.679 56.1325 149.757C58.0546 147.835 58.0546 144.719 56.1325 142.797Z" fill="white"/>
<path d="M45.1963 145.782L49.1715 149.757C51.0937 151.679 54.2099 151.679 56.1321 149.757C58.0542 147.835 58.0542 144.719 56.1321 142.797L52.1568 138.821L56.1321 134.846C58.0542 132.924 58.0542 129.808 56.1321 127.885C54.2099 125.963 51.0937 125.963 49.1715 127.885L45.1963 131.861V145.782Z" fill="#F3F3F3"/>
</g>
<defs>
<clipPath id="clip0_5397_10776">
<rect width="168" height="168" fill="white" transform="translate(3 10)"/>
</clipPath>
</defs>
</svg>
