<svg width="133" height="124" viewBox="0 0 133 124" fill="none" xmlns="http://www.w3.org/2000/svg">
<path d="M55.8028 117.736H41.4922C40.6591 117.736 39.9819 117.046 39.9819 116.198C39.9819 115.351 40.6591 114.661 41.4922 114.661H55.8028C56.6359 114.661 57.3131 115.351 57.3131 116.198C57.3131 117.046 56.6359 117.736 55.8028 117.736Z" fill="#EEECE8"/>
<path d="M63.9822 117.736H61.9375C61.1053 117.736 60.4272 117.046 60.4272 116.198C60.4272 115.351 61.1053 114.661 61.9375 114.661H63.9822C64.8144 114.661 65.4925 115.351 65.4925 116.198C65.4925 117.046 64.8144 117.736 63.9822 117.736Z" fill="#F3C76F"/>
<path d="M83.2709 1C83.2709 1 81.5469 1 80.5605 1M99.2629 7.41947C99.0624 3.85062 96.1525 1.00484 92.6061 1H84.0596H83.6218L83.5357 1.44102L81.8183 10.1877C81.6783 10.904 81.0561 11.4235 80.3392 11.4235H51.7144C50.9966 11.4235 50.3743 10.904 50.2353 10.1887L48.5169 1.44102L48.4308 1H47.9939H39.4475H39.4466C35.7753 1.00484 32.784 4.05611 32.7793 7.80136V116.2C32.784 119.945 35.7753 122.995 39.4466 123H92.6061C96.2783 122.995 99.2686 119.945 99.2743 116.2V81.3088V84.3824L99.2629 7.41947ZM99.2743 33.9096V30.6441V30.2584V7.80233C99.2743 7.67342 99.2705 7.54644 99.2629 7.41947L99.2743 33.9096ZM95.5983 35.727C91.0939 38.469 87.502 42.7048 85.5151 47.9378C81.9857 57.236 84.2819 67.6848 91.3672 74.5569C91.7228 74.901 91.8911 75.4021 91.8192 75.8974C91.7473 76.3907 91.4419 76.8211 91.0021 77.046L84.6725 80.2707L84.9108 81.3088C87.3328 81.3088 108.581 81.3011 108.892 81.2875C115.124 81.0491 120.938 78.3913 125.258 73.8009C132.041 66.6215 133.889 56.0816 129.965 46.9492C126.133 38.0319 117.49 32.2696 107.944 32.2696C107.768 32.2696 107.591 32.2715 107.415 32.2754C103.142 32.3704 99.0955 33.5985 95.5983 35.727ZM80.5605 1C80.1652 1 79.889 1 79.889 1H52.1645H48.4308H80.5605Z" stroke="#F3C76F" stroke-width="1.92797" stroke-miterlimit="10"/>
<path d="M101.431 62.627C102.633 61.3559 103.239 59.6875 103.239 57.612C103.239 55.5862 102.663 53.9576 101.491 52.7262C100.328 51.4948 98.8086 50.8691 96.9213 50.8691C94.9247 50.8691 93.3156 51.5146 92.1037 52.8056C90.9018 54.0966 90.2959 55.7848 90.2959 57.8702C90.2959 59.8564 90.8919 61.4552 92.0839 62.6866C93.2758 63.918 94.8155 64.5337 96.7028 64.5337C98.6497 64.5337 100.219 63.8981 101.431 62.627ZM99.2357 54.5733C99.8118 55.3379 100.11 56.4005 100.11 57.7709C100.11 59.0917 99.8019 60.1146 99.2059 60.8594C98.6 61.5942 97.7855 61.9617 96.7624 61.9617C95.7691 61.9617 94.9645 61.5843 94.3486 60.8196C93.7328 60.0649 93.4248 59.0222 93.4248 57.7213C93.4248 56.4303 93.7328 55.3876 94.3486 54.613C94.9645 53.8285 95.7889 53.4312 96.8319 53.4312C97.8451 53.4312 98.6497 53.8185 99.2357 54.5733Z" fill="#EEECE8"/>
<path d="M115.011 51.0986H104.512V53.5217H108.257V64.3064H111.246V53.5217H115.011V51.0986Z" fill="#EEECE8"/>
<path d="M121.873 59.7581C123.462 59.7581 124.744 59.3411 125.697 58.5267C126.651 57.7025 127.128 56.63 127.128 55.3092C127.128 52.4989 125.469 51.0986 122.141 51.0986H117.473V64.3064H120.453V59.7581H121.873ZM121.625 53.3827C123.204 53.3827 123.999 54.058 123.999 55.4185C123.999 56.8087 123.204 57.494 121.625 57.494H120.453V53.3827H121.625Z" fill="#EEECE8"/>
</svg>
