<svg width="188" height="188" viewBox="0 0 188 188" fill="none" xmlns="http://www.w3.org/2000/svg">
<circle cx="94" cy="94" r="94" fill="#F3C76F"/>
<g clip-path="url(#clip0_5397:10899)">
<path d="M42.2812 81.6562H166.312V62.2969C166.312 54.142 159.702 47.5312 151.547 47.5312H27.8438C22.407 47.5312 18 51.9383 18 57.375C18 70.7851 28.8711 81.6562 42.2812 81.6562Z" fill="#474032"/>
<path d="M151.547 47.5312H95.4375V81.6562H166.312V62.2969C166.312 54.142 159.702 47.5312 151.547 47.5312Z" fill="#38342D"/>
<path d="M51.1406 45.8906V72.1406C51.1406 74.8588 53.3443 77.0625 56.0625 77.0625H134.812C137.531 77.0625 139.734 74.8588 139.734 72.1406V45.8906L111.844 18H79.0312L51.1406 45.8906Z" fill="#0ACF7E"/>
<path d="M111.844 18H95.4375V77.0625H134.812C137.531 77.0625 139.734 74.8588 139.734 72.1406V45.8906L111.844 18Z" fill="#00DA80"/>
<path d="M134.812 18H111.844C111.844 33.3789 124.355 45.8906 139.734 45.8906V22.9219C139.734 20.2037 137.531 18 134.812 18Z" fill="#00B9A0"/>
<path d="M79.0312 18H56.0625C53.3443 18 51.1406 20.2037 51.1406 22.9219V45.8906C66.5195 45.8906 79.0312 33.3789 79.0312 18Z" fill="#00DA80"/>
<path d="M170.906 108.562H156.469V88.5469C156.469 85.8287 158.672 83.625 161.391 83.625H176.156C181.593 83.625 186 88.032 186 93.4688C186 101.805 179.242 108.562 170.906 108.562Z" fill="#24211D"/>
<path d="M27.8438 67.2188C22.407 67.2188 18 62.8117 18 57.375V154.172C18 162.327 24.6107 168.938 32.7656 168.938H151.547C159.702 168.938 166.312 162.327 166.312 154.172V81.9844C166.312 73.8295 159.702 67.2188 151.547 67.2188H27.8438Z" fill="#665F55"/>
<path d="M166.312 154.172V81.9844C166.312 73.8295 159.702 67.2188 151.547 67.2188H95.4375V168.938H151.547C159.702 168.938 166.312 162.327 166.312 154.172Z" fill="#474032"/>
<path d="M151.549 132.844H171.234C179.389 132.844 186 126.233 186 118.078V93.4688C186 98.9055 181.593 103.312 176.156 103.312H151.549C143.394 103.312 136.783 109.923 136.783 118.078C136.784 126.233 143.394 132.844 151.549 132.844Z" fill="#665F55"/>
<path d="M82.3125 186C103.153 186 120.047 169.106 120.047 148.266C120.047 127.426 103.153 110.531 82.3125 110.531C61.4724 110.531 44.5781 127.426 44.5781 148.266C44.5781 169.106 61.4724 186 82.3125 186Z" fill="#0ACF7E"/>
<path d="M82.3125 110.531V186C103.119 186 120.047 169.072 120.047 148.266C120.047 127.459 103.119 110.531 82.3125 110.531Z" fill="#00DA80"/>
<path d="M73.7117 164.274C72.452 164.274 71.1924 163.793 70.2316 162.832L63.2708 155.872C61.3486 153.95 61.3486 150.833 63.2704 148.911C65.1926 146.989 68.3088 146.989 70.231 148.911L73.7117 152.391L91.1132 134.99C93.0353 133.068 96.1515 133.068 98.0737 134.99C99.9958 136.912 99.9958 140.028 98.0737 141.95L77.1918 162.832C76.2311 163.793 74.9714 164.274 73.7117 164.274V164.274Z" fill="#F3F9FF"/>
<path d="M98.0733 134.99C96.1512 133.068 93.035 133.068 91.1128 134.99L82.3125 143.791V157.712L98.0733 141.951C99.9955 140.029 99.9955 136.912 98.0733 134.99V134.99Z" fill="#E1EEFF"/>
</g>
<defs>
<clipPath id="clip0_5397:10899">
<rect width="168" height="168" fill="white" transform="translate(18 18)"/>
</clipPath>
</defs>
</svg>
