<svg width="512" height="512" viewBox="0 0 512 512" fill="none" xmlns="http://www.w3.org/2000/svg">
<path d="M436.746 327.55H76.2266C47.4297 327.55 24 350.98 24 379.777V459.773C24 488.57 47.4297 512 76.2266 512H436.746C465.547 512 488.977 488.57 488.977 459.773V379.777C488.973 350.98 465.543 327.55 436.746 327.55Z" fill="#FFF3E0"/>
<path d="M436.746 327.55H256.488V512H436.746C465.547 512 488.977 488.57 488.977 459.773V379.777C488.973 350.98 465.543 327.55 436.746 327.55Z" fill="#FFE8BB"/>
<path d="M436.746 327.55H76.2266C47.4297 327.55 24 350.98 24 379.777V459.773C24 488.57 47.4297 512 76.2266 512H436.746C465.547 512 488.977 488.57 488.977 459.773V379.777C488.973 350.98 465.543 327.55 436.746 327.55ZM146.973 428.753L143.055 430.027L145.477 433.359C150.348 440.062 148.859 449.445 142.156 454.316C139.496 456.25 136.406 457.183 133.352 457.183C128.711 457.183 124.137 455.039 121.199 450.996L118.781 447.664L116.359 450.996C113.426 455.039 108.852 457.183 104.211 457.183C101.152 457.183 98.0664 456.25 95.4062 454.316C88.6992 449.445 87.2148 440.062 92.0859 433.359L94.5039 430.027L90.5898 428.753C82.7109 426.195 78.3984 417.73 80.957 409.851C83.5195 401.968 91.9805 397.656 99.8633 400.218L103.777 401.488V397.375C103.777 389.089 110.496 382.371 118.781 382.371C127.066 382.371 133.785 389.089 133.785 397.375V401.488L137.699 400.218C145.582 397.656 154.043 401.968 156.605 409.851C159.164 417.73 154.852 426.195 146.973 428.753ZM238.777 428.753L234.859 430.027L237.281 433.359C242.152 440.062 240.664 449.445 233.961 454.316C231.301 456.25 228.211 457.183 225.156 457.183C220.516 457.183 215.941 455.039 213.004 450.996L210.586 447.667L208.164 450.996C205.23 455.039 200.656 457.183 196.016 457.183C192.957 457.183 189.871 456.25 187.211 454.316C180.504 449.445 179.02 440.062 183.891 433.359L186.309 430.027L182.395 428.753C174.516 426.195 170.203 417.73 172.762 409.851C175.324 401.968 183.785 397.656 191.668 400.218L195.582 401.488V397.375C195.582 389.089 202.301 382.371 210.586 382.371C218.871 382.371 225.59 389.089 225.59 397.375V401.488L229.504 400.218C237.387 397.656 245.852 401.968 248.41 409.851C250.969 417.73 246.656 426.195 238.777 428.753ZM330.582 428.753L326.664 430.027L329.086 433.359C333.957 440.062 332.469 449.445 325.766 454.316C323.105 456.25 320.016 457.183 316.961 457.183C312.32 457.183 307.746 455.039 304.809 450.996L302.391 447.667L299.969 450.996C297.035 455.039 292.461 457.183 287.82 457.183C284.762 457.183 281.676 456.25 279.016 454.316C272.309 449.445 270.824 440.062 275.695 433.359L278.113 430.027L274.199 428.753C266.32 426.195 262.008 417.73 264.566 409.851C267.129 401.968 275.59 397.656 283.473 400.218L287.387 401.488V397.375C287.387 389.089 294.105 382.371 302.391 382.371C310.676 382.371 317.395 389.089 317.395 397.375V401.488L321.309 400.218C329.191 397.656 337.652 401.968 340.215 409.851C342.773 417.73 338.461 426.195 330.582 428.753ZM422.387 428.753L418.473 430.027L420.891 433.359C425.762 440.062 424.277 449.445 417.57 454.316C414.91 456.25 411.824 457.183 408.766 457.183C404.125 457.183 399.551 455.039 396.613 450.996L394.195 447.664L391.777 450.996C388.84 455.039 384.266 457.183 379.625 457.183C376.57 457.183 373.484 456.25 370.82 454.316C364.117 449.445 362.629 440.062 367.5 433.359L369.922 430.027L366.004 428.753C358.125 426.195 353.812 417.73 356.375 409.851C358.934 401.968 367.398 397.656 375.277 400.218L379.191 401.488V397.375C379.191 389.089 385.91 382.371 394.195 382.371C402.484 382.371 409.199 389.089 409.199 397.375V401.488L413.113 400.218C420.996 397.656 429.461 401.968 432.02 409.851C434.582 417.73 430.266 426.195 422.387 428.753Z" fill="#665F55"/>
<path d="M436.746 327.55H256.488V512H436.746C465.547 512 488.977 488.57 488.977 459.773V379.777C488.973 350.98 465.543 327.55 436.746 327.55ZM330.582 428.753L326.664 430.027L329.086 433.359C333.957 440.062 332.469 449.445 325.766 454.316C323.105 456.25 320.016 457.183 316.961 457.183C312.32 457.183 307.746 455.039 304.809 450.996L302.391 447.667L299.969 450.996C297.035 455.039 292.461 457.183 287.82 457.183C284.762 457.183 281.676 456.25 279.016 454.316C272.309 449.445 270.824 440.062 275.695 433.359L278.113 430.027L274.199 428.753C266.32 426.195 262.008 417.73 264.566 409.851C267.129 401.968 275.59 397.656 283.473 400.218L287.387 401.488V397.375C287.387 389.089 294.105 382.371 302.391 382.371C310.676 382.371 317.395 389.089 317.395 397.375V401.488L321.309 400.218C329.191 397.656 337.652 401.968 340.215 409.851C342.773 417.73 338.461 426.195 330.582 428.753ZM422.387 428.753L418.473 430.027L420.891 433.359C425.762 440.062 424.277 449.445 417.57 454.316C414.91 456.25 411.824 457.183 408.766 457.183C404.125 457.183 399.551 455.039 396.613 450.996L394.195 447.664L391.777 450.996C388.84 455.039 384.266 457.183 379.625 457.183C376.57 457.183 373.484 456.25 370.82 454.316C364.117 449.445 362.629 440.062 367.5 433.359L369.922 430.027L366.004 428.753C358.125 426.195 353.812 417.73 356.375 409.851C358.934 401.968 367.398 397.656 375.277 400.218L379.191 401.488V397.375C379.191 389.089 385.91 382.371 394.195 382.371C402.484 382.371 409.199 389.089 409.199 397.375V401.488L413.113 400.218C420.996 397.656 429.461 401.968 432.02 409.851C434.582 417.73 430.266 426.195 422.387 428.753Z" fill="#474032"/>
<path d="M312.543 133.41C304.254 133.41 297.539 126.691 297.539 118.406V71.0586C297.539 48.4219 279.121 30.0078 256.488 30.0078C233.852 30.0078 215.438 48.4219 215.438 71.0586V118.406C215.438 126.691 208.719 133.41 200.434 133.41C192.148 133.41 185.43 126.691 185.43 118.406V71.0586C185.43 31.875 217.305 0 256.488 0C295.668 0 327.543 31.875 327.543 71.0586V118.406C327.543 126.691 320.828 133.41 312.543 133.41Z" fill="#F2F1F0"/>
<path d="M256.488 0V30.0078C279.121 30.0078 297.539 48.4219 297.539 71.0586V118.406C297.539 126.691 304.254 133.41 312.543 133.41C320.828 133.41 327.543 126.691 327.543 118.406V71.0586C327.543 31.875 295.668 0 256.488 0Z" fill="#E3E1E4"/>
<path d="M330.25 103.402H182.727C163.645 103.402 148.117 118.926 148.117 138.012V263.23C148.117 282.312 163.645 297.84 182.727 297.84H330.25C349.332 297.84 364.855 282.312 364.855 263.23V138.012C364.855 118.926 349.332 103.402 330.25 103.402Z" fill="#F1D340"/>
<path d="M330.25 103.402H256.488V297.84H330.25C349.332 297.84 364.855 282.312 364.855 263.23V138.012C364.855 118.926 349.332 103.402 330.25 103.402Z" fill="#F3C76F"/>
<path d="M279.824 188.617C279.824 175.726 269.375 165.277 256.488 165.277C243.598 165.277 233.148 175.726 233.148 188.617C233.148 195.792 236.391 202.207 241.484 206.492V219.957C241.484 228.246 248.203 234.96 256.488 234.96C264.773 234.96 271.492 228.246 271.492 219.957V206.492C276.586 202.21 279.824 195.792 279.824 188.617Z" fill="#FFAD36"/>
<path d="M271.492 219.957V206.492C276.586 202.21 279.824 195.792 279.824 188.617C279.824 175.726 269.375 165.277 256.488 165.277V234.96C264.773 234.96 271.492 228.246 271.492 219.957Z" fill="#FFA100"/>
</svg>
