<svg width="24" height="24" viewBox="0 0 24 24" fill="none" xmlns="http://www.w3.org/2000/svg">
<path d="M19.7812 16.5H17.7188C17.0466 16.5 16.5 17.0466 16.5 17.7188V19.7812C16.5 20.4534 17.0466 21 17.7188 21H19.7812C20.4534 21 21 20.4534 21 19.7812V17.7188C21 17.0466 20.4534 16.5 19.7812 16.5Z" fill="#F3C76F"/>
<path d="M9.09375 3H5.15625C3.9675 3 3 3.9675 3 5.15625V9.09375C3 10.2825 3.9675 11.25 5.15625 11.25H9.09375C10.2825 11.25 11.25 10.2825 11.25 9.09375V5.15625C11.25 3.9675 10.2825 3 9.09375 3ZM8.25 7.5C8.25 7.91419 7.91423 8.25 7.5 8.25H6.75C6.33577 8.25 6 7.91419 6 7.5V6.75C6 6.33581 6.33577 6 6.75 6H7.5C7.91423 6 8.25 6.33581 8.25 6.75V7.5Z" fill="#F3C76F"/>
<path d="M18.8438 3H14.9062C13.7175 3 12.75 3.9675 12.75 5.15625V9.09375C12.75 10.2825 13.7175 11.25 14.9062 11.25H18.8438C20.0325 11.25 21 10.2825 21 9.09375V5.15625C21 3.9675 20.0325 3 18.8438 3ZM18 7.5C18 7.91419 17.6642 8.25 17.25 8.25H16.5C16.0858 8.25 15.75 7.91419 15.75 7.5V6.75C15.75 6.33581 16.0858 6 16.5 6H17.25C17.6642 6 18 6.33581 18 6.75V7.5Z" fill="#F3C76F"/>
<path d="M9.09375 12.75H5.15625C3.9675 12.75 3 13.7175 3 14.9062V18.8438C3 20.0325 3.9675 21 5.15625 21H9.09375C10.2825 21 11.25 20.0325 11.25 18.8438V14.9062C11.25 13.7175 10.2825 12.75 9.09375 12.75ZM8.25 17.25C8.25 17.6642 7.91423 18 7.5 18H6.75C6.33577 18 6 17.6642 6 17.25V16.5C6 16.0858 6.33577 15.75 6.75 15.75H7.5C7.91423 15.75 8.25 16.0858 8.25 16.5V17.25Z" fill="#F3C76F"/>
<path d="M19.7812 16.5H18.6562C19.3284 16.5 19.875 17.0466 19.875 17.7188V19.7812C19.875 20.4534 19.3284 21 18.6562 21H19.7812C20.4534 21 21 20.4534 21 19.7812V17.7188C21 17.0466 20.4534 16.5 19.7812 16.5Z" fill="#F3C76F"/>
<path d="M23.25 6.75C22.8358 6.75 22.5 6.41419 22.5 6V2.15625C22.5 1.79438 22.2056 1.5 21.8438 1.5H18C17.5858 1.5 17.25 1.16419 17.25 0.75C17.25 0.335812 17.5858 0 18 0H21.8438C23.0327 0 24 0.967312 24 2.15625V6C24 6.41419 23.6642 6.75 23.25 6.75Z" fill="#EEECE8"/>
<path d="M0.75 6.75C0.335766 6.75 0 6.41419 0 6V2.15625C0 0.967312 0.967312 0 2.15625 0H6C6.41423 0 6.75 0.335812 6.75 0.75C6.75 1.16419 6.41423 1.5 6 1.5H2.15625C1.79438 1.5 1.5 1.79438 1.5 2.15625V6C1.5 6.41419 1.16423 6.75 0.75 6.75Z" fill="#EEECE8"/>
<path d="M6 24H2.15625C0.967312 24 0 23.0327 0 21.8438V18C0 17.5858 0.335766 17.25 0.75 17.25C1.16423 17.25 1.5 17.5858 1.5 18V21.8438C1.5 22.2056 1.79438 22.5 2.15625 22.5H6C6.41423 22.5 6.75 22.8358 6.75 23.25C6.75 23.6642 6.41423 24 6 24Z" fill="#EEECE8"/>
<path d="M21.8438 24H18C17.5858 24 17.25 23.6642 17.25 23.25C17.25 22.8358 17.5858 22.5 18 22.5H21.8438C22.2056 22.5 22.5 22.2056 22.5 21.8438V18C22.5 17.5858 22.8358 17.25 23.25 17.25C23.6642 17.25 24 17.5858 24 18V21.8438C24 23.0327 23.0327 24 21.8438 24Z" fill="#EEECE8"/>
<path d="M9.09375 3H7.96875C9.1575 3 10.125 3.9675 10.125 5.15625V9.09375C10.125 10.2825 9.1575 11.25 7.96875 11.25H9.09375C10.2825 11.25 11.25 10.2825 11.25 9.09375V5.15625C11.25 3.9675 10.2825 3 9.09375 3Z" fill="#F3C76F"/>
<path d="M18.8438 3H17.7188C18.9075 3 19.875 3.9675 19.875 5.15625V9.09375C19.875 10.2825 18.9075 11.25 17.7188 11.25H18.8438C20.0325 11.25 21 10.2825 21 9.09375V5.15625C21 3.9675 20.0325 3 18.8438 3Z" fill="#F3C76F"/>
<path d="M9.09375 12.75H7.96875C9.1575 12.75 10.125 13.7175 10.125 14.9062V18.8438C10.125 20.0325 9.1575 21 7.96875 21H9.09375C10.2825 21 11.25 20.0325 11.25 18.8438V14.9062C11.25 13.7175 10.2825 12.75 9.09375 12.75Z" fill="#F3C76F"/>
<path d="M16.7812 12.75H13.9688C13.2966 12.75 12.75 13.2966 12.75 13.9688V16.7812C12.75 17.4534 13.2966 18 13.9688 18H16.7812C17.4534 18 18 17.4534 18 16.7812V13.9688C18 13.2966 17.4534 12.75 16.7812 12.75Z" fill="#F3C76F"/>
<path d="M16.7812 12.75H15.6562C16.3284 12.75 16.875 13.2966 16.875 13.9688V16.7812C16.875 17.4534 16.3284 18 15.6562 18H16.7812C17.4534 18 18 17.4534 18 16.7812V13.9688C18 13.2966 17.4534 12.75 16.7812 12.75Z" fill="#F3C76F"/>
</svg>
