<svg width="88" height="88" viewBox="0 0 88 88" fill="none" xmlns="http://www.w3.org/2000/svg">
<g clip-path="url(#clip0_4768:9009)">
<path d="M44 88C68.3005 88 88 68.3005 88 44C88 19.6995 68.3005 0 44 0C19.6995 0 0 19.6995 0 44C0 68.3005 19.6995 88 44 88Z" fill="#FFAD32"/>
<path d="M87.9993 44.0008C87.9993 42.8303 87.9525 41.6707 87.8628 40.5232L65.3536 18.014L55.8769 24.6748L55.2754 28.1453L50.2164 33.2043L33.9282 16.9157C30.8669 13.8544 26.4212 13.0256 22.6073 14.4238L27.9051 19.7217L28.0432 26.2506L21.5143 26.1126L16.2165 20.8147C14.8183 24.6284 15.6472 29.0743 18.7083 32.1356L30.277 43.7014L28.1929 45.7855L29.9864 47.579L16.7106 60.8548C14.9207 62.6448 14.9207 65.5467 16.7106 67.3366L36.7821 87.4083C39.1308 87.7959 41.541 88.0008 43.9993 88.0008C68.2999 88.0008 87.9993 68.3013 87.9993 44.0008Z" fill="#BC7202"/>
<path d="M19.0593 69.6839L16.7106 67.3352C14.9207 65.5453 14.9207 62.6433 16.7106 60.8534L30.6246 46.9395L39.4552 55.7701L25.5412 69.684C23.7511 71.4738 20.8492 71.4738 19.0593 69.6839Z" fill="#E1D800"/>
<path d="M39.4557 55.7698L25.5412 69.6842C23.751 71.4745 20.8513 71.4745 19.061 69.6842L17.8857 68.509L35.0402 51.3545L39.4557 55.7698Z" fill="#BCC000"/>
<path d="M68.3819 21.0431L65.3535 18.0146L55.8768 24.6755L55.2752 28.146L34.751 48.6702L37.7263 51.6456L58.2506 31.1213L61.7211 30.5196L68.3819 21.0431Z" fill="#DADADC"/>
<path d="M61.7225 30.5189L58.2529 31.1205L37.728 51.6451L36.2393 50.1563L66.8683 19.5273L68.3827 21.0417L61.7225 30.5189Z" fill="#8D8A94"/>
<path d="M28.1944 45.7843L40.6113 58.2012L44.2853 54.5272L31.8684 42.1104L28.1944 45.7843Z" fill="#FEE500"/>
<path d="M40.6093 58.2013L44.2832 54.5273L38.0741 48.3182L34.4002 51.9922L40.6093 58.2013Z" fill="#E1CB00"/>
<path d="M29.6485 34.7585L51.6379 56.7479C50.4289 60.4738 51.3011 64.7279 54.261 67.6876C57.3223 70.7488 61.768 71.5776 65.5819 70.1794L60.284 64.8815L60.1458 58.3527L66.6747 58.4907L71.9726 63.7886C73.3708 59.9748 72.542 55.5289 69.4807 52.4677C66.5208 49.508 62.2669 48.6356 58.541 49.8445L36.5517 27.8554C37.7607 24.1295 36.8884 19.8754 33.9285 16.9157C30.8673 13.8544 26.4216 13.0256 22.6076 14.4238L27.9055 19.7217L28.0435 26.2506L21.5147 26.1124L16.2168 20.8145C14.8186 24.6282 15.6474 29.0741 18.7087 32.1354C21.6685 35.0953 25.9226 35.9675 29.6485 34.7585Z" fill="#FFF5CA"/>
<path d="M18.7092 32.1357C15.6476 29.0739 14.8195 24.6273 16.2184 20.8145L21.5161 26.1122L28.0441 26.2493L60.1471 58.3523L60.2842 64.8803L65.5831 70.1792C61.7691 71.5769 57.3225 70.7489 54.2609 67.6873C51.3015 64.728 50.4282 60.4732 51.6376 56.7475L29.6491 34.759C25.9233 35.9683 21.6686 35.095 18.7092 32.1357Z" fill="white"/>
<path d="M35.8357 30.6497L32.4434 34.042L52.355 53.9537L55.7474 50.5613L35.8357 30.6497Z" fill="#B0AFB5"/>
<path d="M32.4418 34.0424L52.3535 53.9541L54.05 52.2576L34.1383 32.3459L32.4418 34.0424Z" fill="#DADADC"/>
</g>
<defs>
<clipPath id="clip0_4768:9009">
<rect width="88" height="88" fill="white"/>
</clipPath>
</defs>
</svg>
